<?xml version="1.0" encoding="UTF-8" standalone="no"?>
<!-- Created with Inkscape (http://www.inkscape.org/) -->

<svg
   xmlns:dc="http://purl.org/dc/elements/1.1/"
   xmlns:cc="http://creativecommons.org/ns#"
   xmlns:rdf="http://www.w3.org/1999/02/22-rdf-syntax-ns#"
   xmlns:svg="http://www.w3.org/2000/svg"
   xmlns="http://www.w3.org/2000/svg"
   xmlns:sodipodi="http://sodipodi.sourceforge.net/DTD/sodipodi-0.dtd"
   xmlns:inkscape="http://www.inkscape.org/namespaces/inkscape"
   width="175.02924"
   height="174.9901"
   id="svg2"
   inkscape:label="Pozadí"
   version="1.1"
   inkscape:version="0.48.5 r10040"
   sodipodi:docname="CARDBACK.svg">
  <defs
     id="defs3">
    <inkscape:path-effect
       effect="spiro"
       id="path-effect3970"
       is_visible="true" />
  </defs>
  <sodipodi:namedview
     id="base"
     pagecolor="#ffffff"
     bordercolor="#666666"
     borderopacity="1.0"
     inkscape:pageopacity="0.0"
     inkscape:pageshadow="2"
     inkscape:zoom="2"
     inkscape:cx="203.10911"
     inkscape:cy="134.63934"
     inkscape:document-units="px"
     inkscape:current-layer="layer2"
     showgrid="false"
     showguides="true"
     inkscape:guide-bbox="true"
     inkscape:window-width="1366"
     inkscape:window-height="706"
     inkscape:window-x="-8"
     inkscape:window-y="-8"
     inkscape:window-maximized="1"
     fit-margin-top="0"
     fit-margin-left="0"
     fit-margin-right="0"
     fit-margin-bottom="0" />
  <metadata
     id="metadata6">
    <rdf:RDF>
      <cc:Work
         rdf:about="">
        <dc:format>image/svg+xml</dc:format>
        <dc:type
           rdf:resource="http://purl.org/dc/dcmitype/StillImage" />
        <dc:title />
      </cc:Work>
    </rdf:RDF>
  </metadata>
  <g
     inkscape:label="Vrstva 1"
     inkscape:groupmode="layer"
     id="layer1"
     transform="translate(0.99767706,-878.7895)"
     style="display:inline"
     sodipodi:insensitive="true" />
  <g
     inkscape:groupmode="layer"
     id="layer2"
     inkscape:label="Kresba"
     transform="translate(0.99767706,-878.7895)"
     style="display:inline">
    <path
       style="fill:#412111;fill-opacity:1;stroke:#000000;stroke-width:0.2897197px;stroke-linecap:butt;stroke-linejoin:miter;stroke-opacity:1"
       d="m 89.082522,1047.6093 75.914718,-1.234 2.44887,-128.74109 -11.42803,-22.21095 -21.22348,-8.22627 -71.016983,-0.4113 -36.732925,0.82262 -19.5908953,18.09779 c 0,0 -1.224431,33.31641 -1.224431,36.1956 0,2.87919 -2.8570052,32.08246 -2.8570052,32.08246 l 3.265149,34.96164 13.4687405,31.2599 z"
       id="path4030"
       inkscape:connector-curvature="0" />
    <path
       style="fill:#472514;fill-opacity:1;stroke:none"
       d="m 116.32611,1021.6451 c 0,0 1.22443,1.9023 1.22443,2.1594 0,0.2571 -0.10203,1.7996 -0.10203,2.2623 0,0.4627 0.051,4.113 0.051,4.113 l 0.30611,2.5194 0.61221,-2.0052 c 0,0 0.0511,-3.239 0.0511,-3.4962 0,-0.2571 0.20406,-5.3985 0.20406,-5.3985 z"
       id="path4026"
       inkscape:connector-curvature="0" />
    <path
       style="fill:#28130e;fill-opacity:1;stroke:none"
       d="m 124.99916,1042.5707 0.81629,-4.6273 -0.81629,-4.4216 -0.71425,-7.3008 -0.61222,-3.0848 3.16311,-1.8511 -0.3061,-5.2442 -0.40815,-12.3393 -0.71425,-8.12347 -1.63257,-62.41684 -0.3061,-10.59133 -1.32647,-8.63758 0.61221,-5.34708 0.30611,-6.88949 4.79568,-0.20566 0.10204,4.83293 -0.71425,8.43192 -1.53054,1.64526 c 0,0 0.20406,2.87919 0.40813,3.39334 0.20408,0.51414 0.71425,6.47818 0.71425,6.47818 l 0.51018,10.28284 1.53054,11.82527 -0.40813,7.91779 2.95903,41.02852 c 0,0 -0.51017,3.7018 -0.71424,4.1132 -0.20408,0.4112 -1.12241,9.0488 -1.12241,9.0488 l -0.20407,8.432 c 0,0 0.8163,5.8612 0.8163,6.2725 0,0.4114 -0.51019,11.1055 -0.51019,11.1055 l -2.85701,7.5065 z"
       id="path4016"
       inkscape:connector-curvature="0" />
    <path
       style="fill:#28130e;fill-opacity:1;stroke:none"
       d="m 100.1024,1034.4472 -0.10203,-12.545 2.95904,-1.5425 6.73436,3.4962 2.14277,-1.4396 2.14275,1.2339 1.63257,-1.748 1.63258,0.7198 1.32646,0.617 2.04072,-3.7018 -2.5509,-1.0284 -2.65293,0.7198 -3.36719,-0.6169 -2.65293,-0.3085 -3.16312,-1.5423 -3.57125,-1.2341 0.10205,-14.396 -3.367195,-74.13921 c 0,0 -1.020358,-10.89981 -1.020358,-11.72245 0,-0.82262 -3.061076,-10.48848 -3.061076,-10.48848 l -0.102031,8.12343 0.816285,16.76103 0.918323,88.02118 -0.102032,17.378 z"
       id="path4014"
       inkscape:connector-curvature="0" />
    <path
       style="fill:#28130e;fill-opacity:1;stroke:none"
       d="m 67.833692,1032.1363 0.144301,-5.817 -0.288601,-5.8169 -0.577202,-5.2351 -2.886012,-1.8904 3.174613,-1.5997 0.432901,-14.25131 -4.040415,-62.53115 c 0,0 -0.144301,-6.98023 0,-7.70734 0.1443,-0.72709 0.2886,-11.34286 0.2886,-11.34286 l 0,-4.21721 c 0,0 -1.010103,-7.99818 -1.010103,-8.72528 0,-0.7271 0.144301,-11.6337 0.144301,-11.6337 l 5.194819,2.47216 -1.731606,8.14358 -0.577202,4.79891 0,4.94433 0.432901,6.54395 0.144301,5.96227 0,12.50624 4.617619,60.20441 -1.298706,10.3249 1.154404,8.4345 0,17.5959 z"
       id="path4012"
       inkscape:connector-curvature="0" />
    <path
       style="fill:#28130e;fill-opacity:1;stroke:none"
       d="m 37.819175,1030.9729 1.875908,-15.7056 -0.721504,-9.0161 -0.432902,-23.84912 -5.33912,-23.84909 -0.865803,-10.47034 0.1443,-10.17949 -0.577203,-5.81685 2.164509,-3.92638 -1.010104,-13.37876 -0.721502,-7.99817 0.577201,-4.94431 -0.144299,-6.54397 5.050519,0.14542 -1.010105,8.1436 -0.2886,5.38058 0.577203,6.25312 0.2886,11.92454 0,8.28902 -0.721503,3.63553 0.865804,12.9425 2.453109,21.66777 3.174613,20.50441 -0.721503,10.03399 c 0,0 1.443006,6.3986 1.298706,7.4165 -0.144302,1.018 -0.432903,7.562 -0.432903,7.562 l -1.731605,12.9426 z"
       id="path4010"
       inkscape:connector-curvature="0" />
    <path
       style="fill:#5a5a5a;fill-opacity:1;stroke:none"
       d="m 82.348154,993.62438 c 1.326465,0 14.489097,-1.4396 14.489097,-1.4396 l 13.672809,-4.83293 10.61174,-6.58102 4.08144,-5.14142 -1.22443,-13.779 -6.22419,-9.97435 -13.06061,-6.88951 -14.28502,-3.49616 -12.856524,-0.10284 -14.489099,4.31881 -9.489341,6.1697 -5.305865,8.12344 -1.632576,9.87153 3.265149,9.56303 11.734129,8.94608 13.264668,4.0103 z"
       id="path4006"
       inkscape:connector-curvature="0" />
    <path
       style="fill:#10130d;fill-opacity:1;stroke:none"
       d="m 64.185763,990.4367 c 0.02552,-0.10283 1.173411,-2.31364 1.173411,-2.31364 l 2.754969,1.00258 -1.505028,2.49358 c 0,0 -0.07653,3.26481 -0.127545,3.36764 -0.05101,0.10283 -3.21413,0.97687 -3.21413,0.97687 l -0.408146,0.77121 -0.20407,0.3599 -0.153057,0.30848 0,0.23137 c 0,0 0,0.28277 -0.02552,0.43702 -0.02552,0.15427 -0.05101,0.43699 -0.05101,0.43699 l -0.02552,0.17998 0,0.53986 c 0,0 0,0.12851 0,0.23145 0,0.10252 0.127544,0.33408 0.127544,0.33408 0,0 0,0.0259 0.07653,0.1542 0.07653,0.12863 0.204073,0.38563 0.204073,0.38563 0,0 0.02552,0.2315 0,0.437 -0.02552,0.2057 -0.02552,0.1286 -0.102042,0.3857 -0.07653,0.257 -0.255089,0.694 -0.280599,0.7969 -0.02552,0.1025 -0.204073,0.3085 -0.204073,0.3085 l -0.153054,0.1542 0,-0.077 0.102042,-0.2829 0.280599,-0.5398 0.102032,-0.4885 c 0,0 0.02552,-0.3085 -0.02552,-0.437 -0.05101,-0.1284 -0.153054,-0.3341 -0.178564,-0.4369 -0.02552,-0.1026 -0.102032,-0.30865 -0.102032,-0.30865 0,0 -0.102032,-0.12852 -0.127544,-0.23135 -0.02552,-0.10252 -0.07653,-0.25703 -0.07653,-0.25703 l -0.02552,-0.12852 c 0,0 -0.05101,0 -0.07653,-0.12852 -0.02552,-0.12851 -0.07653,-0.3085 -0.07653,-0.3085 l 0,-0.48838 0.127543,-0.53991 0.102032,-0.38561 0.05101,-0.3856 0,-0.15425 -0.07653,-0.30848 -0.204069,-0.43702 -0.433656,-0.51414 -0.663231,-0.82263 z"
       id="path3990"
       inkscape:connector-curvature="0" />
    <path
       style="fill:#10130d;fill-opacity:1;stroke:none"
       d="m 64.298328,990.47297 -5.555571,-0.79983 -12.049097,-10.32491 -3.896115,-15.19653 5.988473,-11.70641 6.565676,-9.37968 c 0,0 18.614773,-3.99908 18.903373,-4.0718 0.288602,-0.0727 28.282913,-0.0727 28.282913,-0.0727 0,0 17.31607,10.83389 17.96542,11.05202 0.64934,0.21814 7.14288,4.50805 7.14288,4.50805 l 2.09236,20.72254 -1.80376,6.68939 -12.9149,6.47124 -13.70855,6.68938 -26.984212,1.09067 -8.04972,-4.80795 1.377484,-2.31364 2.805988,0.7198 c 0,0 4.362036,1.38819 4.566106,1.46531 0.204073,0.0772 1.913175,0.51414 1.913175,0.51414 l 3.16311,-0.0257 c 0,0 5.28036,0.12853 5.484432,0.12853 0.204074,0 4.285507,-0.30848 4.464071,-0.30848 0.178564,0 5.892574,-1.18253 5.892574,-1.18253 l 6.096642,-1.90236 3.26515,-0.77121 4.23449,-1.59385 4.48958,-2.2108 5.76504,-3.95891 3.59676,-3.75323 -0.0387,-3.88461 -0.18039,-7.4892 -1.76767,-5.59872 -3.60751,-4.36264 -5.19482,-4.47171 -6.27707,-3.16291 -5.69988,-2.54486 -5.014448,-1.19972 -5.230896,-1.16338 c 0,0 -6.782127,-0.0363 -7.070727,-0.0363 -0.288602,0 -5.808098,0.7998 -6.096699,0.87252 -0.288601,0.0727 -8.152982,2.72666 -8.152982,2.72666 l -7.864381,3.85365 -6.998577,4.18086 -3.57144,4.14452 -1.984131,6.32582 -0.468978,6.07134 1.262631,5.08975 c 0,0 4.725842,5.23516 4.834068,5.41695 0.108225,0.18176 3.86004,3.23561 3.86004,3.23561 l 6.096698,3.27199 1.334781,0.76346 z"
       id="path3986"
       inkscape:connector-curvature="0" />
    <path
       style="fill:#5a5a5a;fill-opacity:1;stroke:none"
       d="m 66.226479,991.25933 4.489579,1.54242 4.285508,1.43961 4.897726,0.61696 6.122153,-0.10284 c 0,0 5.305868,-0.41131 5.816046,-0.51414 0.51018,-0.10283 7.652695,-1.02827 7.652695,-1.02827 l 7.244554,-2.57073 12.34634,-6.68384 5.61198,-5.96405 3.36718,0 -1.83664,-3.29049 0.10203,-7.9178 -1.02036,-5.75839 -1.63258,-3.29051 3.57127,-2.77636 -5.91809,-0.71981 -6.93845,-6.88949 -5.91808,-2.98202 -6.5303,-2.26223 -6.020112,-1.85091 -9.081194,-0.82264 -9.693411,0.10284 -8.97916,2.87919 -5.714012,2.15939 -3.775329,2.05657 -4.387542,-1.43958 0.612214,4.11313 -3.877364,2.87919 -2.754969,3.08485 -1.938684,4.52445 -0.816285,4.83293 -0.204074,4.73012 0.102032,2.98201 0.918323,2.8792 2.04072,3.59899 3.877364,4.21597 3.9794,3.59899 6.020119,3.18768 2.193772,0.51414 -0.05101,3.03344 -3.346052,1.72082 -5.359009,-0.48688 -10.001215,-5.72792 -2.886011,-4.65349 -3.751815,-6.98022 -3.823965,-10.68847 2.59741,-8.289 4.184717,-5.59873 5.122669,-6.83479 7.864381,-6.1077 5.844173,-1.96319 7.936531,-2.90843 9.884589,-2.6903 14.430056,-0.1454 8.080833,2.47216 6.63782,1.89046 6.06062,2.90844 10.10105,6.18039 6.20492,6.32584 3.60752,5.01704 4.11255,7.92546 -2.23665,10.68846 -3.96826,6.39853 -8.73019,9.37968 c 0,0 -6.20493,3.27197 -6.78212,3.34468 -0.57721,0.0727 -7.28719,0.94525 -7.28719,0.94525 l -6.20491,2.90842 c 0,0 -19.552732,3.56279 -20.490686,3.56279 -0.937953,0 -12.987051,-3.49009 -12.987051,-3.49009 l -5.988472,-2.54485 1.734957,-1.58209 1.173412,-0.20566 z"
       id="path3984"
       inkscape:connector-curvature="0"
       sodipodi:nodetypes="cccccscccccccccccccccccccccccccccccccccccccccccccccccccccccccccccsccsccccc" />
    <path
       style="fill:#64300b;fill-opacity:1;stroke:none"
       d="m 121.11667,950.44574 0.36077,-0.87252 c 0,0 0.88382,-0.34538 0.97402,-0.36355 0.0902,-0.0182 0.66739,0 0.82972,0.0727 0.16234,0.0727 0.48702,0.27266 0.61329,0.3999 0.12625,0.12725 0.30663,0.6544 0.30663,0.78165 0,0.12724 -0.0541,0.5635 -0.1443,0.70893 -0.0902,0.14542 -0.75757,0.36354 -0.82972,0.36354 -0.0721,0 -1.22657,-0.18176 -1.22657,-0.18176 l -0.28859,0.16359 0.32467,0.41809 c 0,0 0.66739,0.41808 0.73954,0.41808 0.0721,0 0.75759,0.0546 0.88384,0.0364 0.12627,-0.0182 0.8117,-0.0546 0.97404,-0.0546 0.16233,0 0.79364,-0.16361 0.86579,-0.23631 0.0721,-0.0727 0.59524,-0.9816 0.59524,-0.9816 l -0.10821,-1.69052 -1.55124,-1.34515 c 0,0 -0.95599,-0.52715 -1.13636,-0.56351 -0.18038,-0.0364 -1.15441,-0.0546 -1.3889,0.0182 -0.23449,0.0727 -1.13636,1.01795 -1.13636,1.01795 l -0.19842,0.50897 0.018,0.76347 z"
       id="path3978"
       inkscape:connector-curvature="0" />
    <path
       style="fill:#3d3c3e;fill-opacity:1;stroke:none"
       d="m 42.328568,980.25712 1.262629,-0.79982 c 0,0 2.056284,-0.0727 2.200585,-0.0364 0.1443,0.0364 1.154403,0.39992 1.298704,0.54533 0.144301,0.14542 1.226554,0.94525 1.298706,1.09067 0.07215,0.14541 0.505051,1.01794 0.577202,1.27243 0.07215,0.25448 0.180375,1.45421 0.180375,1.45421 0,0 -1.623382,1.27243 -1.767682,1.3815 -0.1443,0.10907 -1.839831,-0.0363 -1.839831,-0.0363 l -3.210688,-4.72619 z"
       id="path3974"
       inkscape:connector-curvature="0" />
    <path
       style="fill:#64300b;fill-opacity:1;stroke:none"
       d="m 85.358211,996.37504 c -0.153054,0.0257 -1.22443,0.61698 -1.22443,0.61698 0,0 0,0.71979 0.02552,1.00257 0.02552,0.28286 0.382635,0.82261 0.5612,0.89976 0.17856,0.0766 0.892813,0.35987 1.173411,0.43702 0.280598,0.0777 1.530538,0.1543 1.811137,0.1543 0.280597,0 1.811136,-0.12862 1.811136,-0.12862 l 1.326469,-0.48838 c 0,0 0.816288,-0.95121 0.816288,-1.05403 0,-0.10284 0.07653,-0.97688 0.07653,-0.97688 0,0 -0.306109,-0.77121 -0.612216,-0.84833 -0.306108,-0.0771 -1.275451,-0.33418 -1.275451,-0.33418 0,0 -2.295806,1.4653 -2.67844,1.41389 -0.382635,-0.0515 -1.811139,-0.6941 -1.811139,-0.6941 z"
       id="path3966"
       inkscape:connector-curvature="0" />
    <path
       style="fill:#3d3c3e;fill-opacity:1;stroke:none"
       d="m 124.38695,987.42898 0.28059,-0.95118 -0.8673,-0.48842 c 0,0 -1.17341,0.20565 -1.30096,0.25707 -0.12754,0.0515 -0.8418,0.43702 -0.94383,0.59126 -0.10203,0.15424 -0.35712,0.43702 -0.40814,0.59127 -0.0511,0.15423 0.051,0.48842 0.051,0.48842 l 0.61221,0.38562 0.33162,0.17994 -0.63773,0.20566 -1.09689,-0.69408 c 0,0 -0.56119,-0.84835 -0.56119,-0.97689 0,-0.12852 0.17856,-1.00256 0.17856,-1.00256 0,0 0.63772,-0.87405 0.76527,-0.95118 0.12754,-0.0771 0.8418,-0.43702 0.8418,-0.43702 0,0 1.09689,-0.17994 1.24994,-0.17994 0.15305,0 1.53053,0.23136 1.53053,0.23136 l 0.99485,0.6941 c 0,0 0.17856,0.95116 0.15306,1.05398 -0.0255,0.10284 -0.61222,0.82262 -0.71425,0.89975 -0.10203,0.0772 -0.45916,0.10284 -0.45916,0.10284 z"
       id="path3962"
       inkscape:connector-curvature="0" />
    <path
       style="fill:#404745;fill-opacity:1;stroke:none"
       d="m 93.87821,933.26411 7.9588,1.43961 -4.69365,-4.31881 -5.918084,-5.86121 -3.877362,-4.42162 -4.132456,-7.04374 -1.173413,8.27769 c 0,0 3.367185,6.27252 3.877365,6.99232 0.510177,0.71981 7.9588,4.93576 7.9588,4.93576 z"
       id="path3954"
       inkscape:connector-curvature="0"
       sodipodi:nodetypes="cccccccsc" />
    <path
       style="fill:#4b4e52;fill-opacity:1;stroke:none"
       d="m 67.348874,935.42351 5.428239,-1.3765 c 3.542454,-3.8882 6.318341,-8.16265 9.366967,-12.29967 l 1.326469,-8.48334 -3.979403,4.37021 -2.652931,4.7301 -3.367187,5.4499 -3.469219,2.77637 z"
       id="path3952"
       inkscape:connector-curvature="0"
       sodipodi:nodetypes="ccccccccc" />
    <path
       style="fill:#10130d;fill-opacity:1;stroke:none"
       d="m 39.008402,936.70887 6.555806,-3.75324 1.045868,0.15424 -2.397843,3.72753 z"
       id="path3946"
       inkscape:connector-curvature="0" />
    <path
       style="fill:#404745;fill-opacity:1;stroke:none"
       d="m 51.058751,943.17468 c 0,0 2.705636,-1.56328 2.994238,-1.70869 0.288601,-0.14543 2.849936,-1.34516 2.994237,-1.38152 0.144301,-0.0363 3.860039,-2.32673 3.860039,-2.32673 0,0 -3.427138,-1.19973 -3.715738,-1.19973 -0.288602,0 -2.561336,-0.14542 -2.561336,-0.14542 0,0 -2.777787,-0.83617 -2.922087,-0.90888 -0.1443,-0.0727 -5.122669,-2.47216 -5.122669,-2.47216 l -0.757579,0.29084 -1.875907,3.34469 6.5296,6.5076 z"
       id="path3944"
       inkscape:connector-curvature="0" />
    <path
       style="fill:#10130d;fill-opacity:1;stroke:none"
       d="m 22.523315,972.33165 -0.252526,-3.49011 0.21645,-1.49057 -4.184715,-4.58077 0.577201,-0.76346 7.539704,2.21768 c 0,0 2.453111,4.32628 2.272735,4.76254 -0.180376,0.43627 -2.020209,3.41741 -2.417035,3.38105 -0.396827,-0.0363 -3.751814,-0.0363 -3.751814,-0.0363 z"
       id="path3940"
       inkscape:connector-curvature="0" />
    <path
       style="fill:#4b4e52;fill-opacity:1;stroke:none"
       d="m 38.268639,974.18982 c 0,0 1.27545,2.98202 1.479523,3.44475 0.204072,0.46272 0.918323,1.85091 0.918323,1.85091 l -7.142515,-2.62212 -7.550656,-3.29052 -3.265149,-1.23394 3.775329,-2.57071 z"
       id="path3938"
       inkscape:connector-curvature="0" />
    <path
       style="fill:#404745;fill-opacity:1;stroke:none"
       d="m 25.412118,965.29516 -4.744672,-2.15939 -2.135502,-1.09583 7.594423,-2.65741 9.642396,-4.21597 3.132666,-0.86714 2.813861,-1.0543 -1.875907,3.38104 -2.200583,4.83525 -10.858618,4.10815 z"
       id="path3936"
       inkscape:connector-curvature="0"
       sodipodi:nodetypes="ccccccccccc" />
    <path
       style="fill:#10130d;fill-opacity:1;stroke:none"
       d="m 75.741328,1002.0048 c -0.204072,-0.052 -3.137604,-3.31612 -3.137604,-3.31612 0,0 2.601915,0.33419 2.805988,0.33419 0.204072,0 4.617124,0.59122 4.974252,0.59122 0.357123,0 7.907779,0.25713 7.907779,0.25713 l 3.647786,-0.12862 c 0,0 2.627425,-0.38555 2.933532,-0.41123 0.306108,-0.0259 5.305859,-1.05392 5.305859,-1.05392 l 0.19455,0.48455 -2.849936,3.8536 c 0,0 -4.329017,0.5817 -5.735949,0.5817 -1.406929,0 -16.046257,-1.1925 -16.046257,-1.1925 z"
       id="path3926"
       inkscape:connector-curvature="0" />
    <path
       style="fill:#10130d;fill-opacity:1;stroke:none"
       d="m 135.76395,971.82476 c 0,0 0.25509,-1.28535 0.25509,-1.491 0,-0.20566 0,-3.18769 0,-3.18769 l -0.20407,-2.8792 c 0,0 -0.76528,-2.10797 -0.86731,-2.46788 -0.10203,-0.3599 -1.58155,-3.80464 -1.58155,-3.80464 l 4.24724,1.64525 2.02797,8.12343 -1.6836,4.06173 z"
       id="path3912"
       inkscape:connector-curvature="0"
       sodipodi:nodetypes="csccsccccc" />
    <path
       style="fill:#404745;fill-opacity:1;stroke:none"
       d="m 153.47609,965.89676 6.70996,0.21813 -1.08225,1.16337 -4.76192,1.45421 -2.74171,0.72712 -4.90622,1.52692 -3.96827,2.54487 -2.81386,0.72711 -4.58523,1.38995 0.43441,-3.85367 c 0,0 5.52168,-2.91687 6.38749,-3.28043 0.8658,-0.36354 11.3276,-2.61758 11.3276,-2.61758 z"
       id="path3910"
       inkscape:connector-curvature="0"
       sodipodi:nodetypes="ccccccccccsc" />
    <path
       style="fill:#4b4e52;fill-opacity:1;stroke:none"
       d="m 153.76468,965.89676 6.56568,0.36355 -5.19483,-2.90842 -5.69987,-2.47217 -4.18472,-3.05384 -2.81385,-1.67234 -5.12268,-0.72711 -3.03031,-1.09065 -1.80376,0.65439 0.90769,3.13462 3.20489,1.44615 1.51515,0.65439 10.02889,4.43536 z"
       id="path3908"
       inkscape:connector-curvature="0"
       sodipodi:nodetypes="cccccccccccccc" />
    <path
       style="fill:#555559;fill-opacity:1;stroke:none"
       d="m 106.86699,1042.0248 c 0.28861,0 8.58589,0.3636 9.1631,0.3636 0.5772,0 8.00868,0.2181 8.00868,0.2181 l 17.31606,-3.1993 10.6061,-7.4164 4.0404,-13.9605 -1.7316,-27.92089 -2.4531,-7.70733 6.92642,-8.57986 7.79222,-6.54396 5.62773,7.70734 -1.7316,75.4736 -57.86453,2.3268 z"
       id="path3900"
       inkscape:connector-curvature="0" />
    <path
       style="fill:#101016;fill-opacity:1;stroke:none"
       d="m 172.03773,971.2078 -2.34684,0.92544 -1.02036,1.33678 c 0,0 -0.51018,14.4988 -0.51018,15.11576 0,0.61698 -0.20408,7.71214 -0.20408,8.53477 0,0.82262 0.61223,7.60935 0.61223,8.02055 0,0.4114 0,6.7868 0,6.7868 l -2.75498,2.8791 2.85701,2.3651 -0.20408,14.4988 0.71426,1.4396 0,1.0283 -1.63258,1.0283 -0.51018,2.4678 0.91832,2.7764 c 0,0 0.20408,1.5424 0.20408,1.9537 0,0.4114 0.20408,0.9255 0,1.4397 -0.20408,0.514 -1.1224,1.8509 -1.1224,1.8509 0,0 -0.61221,0.7197 -1.22443,1.131 -0.61221,0.4114 -3.46921,1.4397 -3.46921,1.4397 l -11.93821,-0.1025 -10.40766,0.7197 -16.63185,-0.3085 -21.0194,-0.1025 -64.528015,-1.8992 -10.966843,1.7452 -14.718657,-4.6535 -13.13135206,0 0.14430059,9.8886 174.85913647,0.266 0.0258,-81.90922 z"
       id="path3894"
       inkscape:connector-curvature="0"
       sodipodi:nodetypes="cccssscccccccccscccccccccccccccc" />
    <path
       style="fill:#10130d;fill-opacity:1;stroke:none"
       d="m 163.17514,963.93357 3.91673,3.11618 -2.26758,3.42778 -2.67987,4.36264 -8.76111,6.33621 0,3.0123 2.26758,2.90843 1.64916,2.59681 c 0,0 0.10307,2.18132 0,2.80455 -0.10308,0.62324 -1.8553,5.40137 -1.8553,5.40137 l -0.30922,0.83099 0.82458,-0.10387 3.40137,-1.86972 3.2983,-1.35034 0.61843,0.31162 -0.10307,1.24647 -1.64915,2.38906 -2.88601,1.45415 -1.33993,1.4543 0.41228,3.4278 0.92765,5.6091 -0.41229,6.7516 -0.30921,8.206 -5.97818,8.8291 -7.73038,5.6092 -7.06043,0.7011 0.69162,2.7901 1.16613,2.4239 0.93939,2.4291 -1.24786,-0.1871 -0.86864,-0.4414 -1.66532,-1.9476 -1.82207,-2.9378 -0.53228,-1.4861 -1.94574,-0.2767 -5.02892,1.0282 -6.3408,0.3672 -6.55944,-0.2937 -5.72314,-0.3702 -0.15034,-1.1307 16.07707,0.6195 10.20359,-2.3503 8.4544,-3.0849 4.44584,-2.6442 4.22722,-4.3334 1.53053,-6.1697 0.58306,-5.6556 -0.21865,-7.859 0,-8.5935 -0.51018,-5.21493 -0.0729,-5.72901 -0.65594,-2.86451 -0.65594,-2.20346 -3.64415,-4.70072 3.57126,-2.13002 3.13396,-2.35036 3.93567,-4.92107 3.64414,-3.81935 z"
       id="path3888"
       inkscape:connector-curvature="0"
       sodipodi:nodetypes="ccccccccscccccccccccccccccccccccccccccccccccccccccccccccccc" />
    <path
       style="fill:#182422;fill-opacity:1;stroke:none"
       d="m 110.81464,1049.2647 4.68978,0 -5.30821,-3.4797 -1.95836,-1.7658 -0.20615,-6.8556 -21.026646,-9.6602 -5.978166,-3.8432 -2.164508,0.3116 -12.265549,7.9982 -9.340884,6.0895 2.43507,3.5706 3.2983,0.6232 z"
       id="path3886"
       inkscape:connector-curvature="0"
       sodipodi:nodetypes="ccccccccccccc" />
    <path
       style="fill:#5e4443;fill-opacity:1;stroke:none"
       d="m 59.897162,1041.5263 5.462806,-3.2201 6.905812,-4.5704 4.947449,-2.4929 4.225947,-3.7395 2.782937,2.9085 3.710588,2.1813 5.256661,1.3504 3.607514,2.3891 4.638234,1.8696 1.64916,6.0246 5.15358,1.3504 2.78295,3.6355 -41.331815,0.3116 z"
       id="path3884"
       inkscape:connector-curvature="0" />
    <path
       style="fill:#555559;fill-opacity:1;stroke:none"
       d="m 24.403075,1048.7017 0.177445,1.107 c 0,0 7.216129,0.1803 7.79919,0.033 0.583064,-0.1469 3.644141,0 3.644141,0 l 3.061076,-2.0565 3.935672,1.3221 18.512229,0.1468 -4.810265,-6.3165 c 0,0 -14.321467,-5.5087 -15.341828,-5.6556 -1.020358,-0.147 -7.980664,1.983 -7.980664,1.983 z"
       id="path3874"
       inkscape:connector-curvature="0"
       sodipodi:nodetypes="ccscccccscc" />
    <path
       style="fill:#10130d;fill-opacity:1;stroke:none"
       d="m 42.268749,1037.8057 c 0,0 -2.573658,-0.2266 -2.831349,-0.1747 -0.257664,0.052 -2.782923,1.61 -2.989072,1.9217 -0.206148,0.3115 -2.989099,3.22 -3.298307,3.4278 -0.309235,0.2077 -2.009904,0.779 -2.31914,0.8829 -0.309208,0.1038 -6.545032,5.1417 -6.545032,5.1417 l -3.45291,-1.8178 3.865205,-4.3626 6.64812,-4.5704 6.08123,-4.3626 3.91675,-0.4676 z"
       id="path3872"
       inkscape:connector-curvature="0"
       sodipodi:nodetypes="cccccccccccc" />
    <path
       style="fill:#555559;fill-opacity:1;stroke:none"
       d="m 12.896406,1010.5723 c 0.51536,-0.4155 5.66895,-3.0123 5.66895,-3.0123 l -0.103072,9.3485 10.307185,11.8415 9.482608,4.882 -1.546077,1.7658 -2.679869,2.2851 c 0,0 -3.092153,1.3504 -3.50444,1.5581 -0.41229,0.2078 -2.67987,1.9736 -3.298301,2.2853 -0.61843,0.3116 -2.473723,1.558 -2.473723,1.558 l -3.607514,4.3626 -12.6778358,-0.7271 -2.0614368,-1.7657 -4.6382324,-35.1089 11.647118,0.5193 z"
       id="path3870"
       inkscape:connector-curvature="0" />
    <path
       style="fill:#10130d;fill-opacity:1;stroke:none"
       d="m 17.292973,1007.8294 -1.093241,9.328 6.267919,8.7404 8.235758,6.3901 5.976387,2.2034 4.355221,-0.2361 1.13379,3.5315 c 0,0 5.359736,2.7009 6.081238,2.597 0.721502,-0.104 4.019801,0.6231 4.019801,0.6231 l 8.554963,7.5827 0.927645,0.4156 8.761105,0.6231 -9.366651,-7.1282 -3.929612,-4.6093 -13.244732,-4.9858 -7.3181,-3.4278 -10.979969,-7.3252 c 0,0 -3.243284,-5.6923 -3.316168,-5.9861 -0.07288,-0.2938 0.182207,-7.9692 0.182207,-7.9692 z"
       id="path3868"
       inkscape:connector-curvature="0"
       sodipodi:nodetypes="cccccccscccccccccscc" />
    <path
       style="fill:#555559;fill-opacity:1;stroke:none"
       d="m 11.97253,1011.355 5.830623,-4.8477 0.583063,-19.24359 5.539092,-5.43521 -19.6783542,-12.33942 -0.291531,35.84302 2.6237806,4.8477 z"
       id="path3852"
       inkscape:connector-curvature="0" />
    <path
       style="fill:#555559;fill-opacity:1;stroke:none"
       d="m 160.90755,959.77868 7.0089,3.63553 2.78293,-1.97357 -1.95836,-41.3412 -15.87307,0.51936 -0.72149,7.06332 5.66895,17.96992 -8.85967,3.85896 c 0,0 7.50693,8.52007 7.72557,8.63025 0.21866,0.11016 4.22624,1.63743 4.22624,1.63743 z"
       id="path3844"
       inkscape:connector-curvature="0" />
    <path
       style="fill:#101016;fill-opacity:1;stroke:none"
       d="m 173.98835,923.55847 0.0406,49.07463 -1.98961,0.0258 -0.92765,-3.53166 -1.33994,-4.36263 -1.443,-2.38907 -0.51536,-19.83962 -1.23686,-20.6706 z"
       id="path3840"
       inkscape:connector-curvature="0"
       sodipodi:nodetypes="ccccccccc" />
    <path
       style="fill:#555559;fill-opacity:1;stroke:none"
       d="m 143.52597,893.39607 6.19504,-9.32799 15.08674,0.36724 c 0,0 2.84242,14.54287 2.76954,15.05701 -0.0729,0.51414 0.58306,20.19844 0.58306,20.19844 l -12.90026,-2.35037 c 0,0 -8.16287,-6.46349 -8.67305,-6.75729 -0.51018,-0.2938 -4.95603,-6.0228 -5.53909,-6.0228 -0.58306,0 -6.63233,0.58758 -6.63233,0.58758 l -1.45766,-9.0342 z"
       id="path3834"
       inkscape:connector-curvature="0" />
    <path
       style="fill:#101016;fill-opacity:1;stroke:none"
       d="m 160.70141,885.19832 c 0.41229,0 2.37066,2.07745 2.37066,2.07745 l 0.20614,1.24647 0.51536,3.94716 -0.10308,3.94714 1.1338,3.11617 c 0,0 0.10307,2.59681 0.10307,3.0123 0,0.41549 0.82458,2.07744 0.82458,2.49293 0,0.41549 0.41229,2.38907 0.41229,3.32392 0,0.93485 -0.61845,4.67426 -0.61845,5.60911 0,0.93486 0.61845,4.77812 0.61845,4.77812 l 4.53515,4.57039 3.27966,0.56625 0.0189,-45.09623 c 0,0 -4.43236,1.31908 -5.25693,1.31908 -0.82457,0 -8.03961,5.08974 -8.03961,5.08974 z"
       id="path3832"
       inkscape:connector-curvature="0"
       sodipodi:nodetypes="ccccccssssccccsc" />
    <path
       style="fill:#10130d;fill-opacity:1;stroke:none"
       d="m 146.06521,907.42701 8.45189,3.32392 2.78295,5.71297 13.19319,3.32392 0.51536,3.63553 -3.2983,-0.31162 -2.06144,0.41549 c 0,0 0.10308,0.83099 -1.13379,0.72712 -1.23686,-0.10388 -1.64915,-1.5581 -2.16451,-1.5581 -0.51535,0 -4.32902,-0.41549 -4.32902,-0.41549 l -1.443,-0.20773 -1.44301,1.55807 -1.85529,1.55809 -2.47372,0.93485 0.20615,-2.18131 -1.03073,-1.8697 -0.92764,-1.35035 2.5768,-5.08975 -0.92765,-1.45421 -3.2983,-0.31161 -2.47372,-0.41549 -1.1338,-1.03873 -0.61843,-1.14259 -0.72151,-1.24647 z"
       id="path3830"
       inkscape:connector-curvature="0" />
    <path
       style="fill:#10130d;fill-opacity:1;stroke:none"
       d="m 132.48423,903.67892 1.53054,3.12157 c 0,0 8.08999,-1.98312 8.41796,-1.98312 0.32797,0 4.84671,0.1469 4.84671,0.1469 l 0.58306,-0.0368 0.0728,-0.62432 0,-1.57915 c 0,0 0.58307,-0.51414 0.83816,-0.51414 0.25509,0 1.12968,-0.18362 1.31189,-0.22035 0.18221,-0.0368 0.98391,-0.33052 1.12969,-0.36724 0.14576,-0.0368 0.87458,-0.40397 0.87458,-0.40397 l -0.61949,-0.0734 c 0,0 -0.69239,0.11018 -0.91104,0.25708 -0.21865,0.14689 -0.98392,0.4774 -1.20257,0.51414 -0.21864,0.0368 -1.82207,0.1469 -1.82207,0.1469 0,0 -0.10933,0.84465 -0.54663,0.91811 -0.43728,0.0734 -1.09324,-0.66105 -1.38476,-0.66105 -0.29154,0 -2.51446,-0.55086 -2.98819,-0.51414 -0.47375,0.0368 -3.09752,0.84466 -3.71704,1.06501 -0.6195,0.22034 -2.40512,1.61587 -2.76954,1.54243 -0.36441,-0.0734 -1.60342,-0.95484 -1.60342,-0.95484 l -0.87459,-0.66103 z"
       id="path3826"
       inkscape:connector-curvature="0" />
    <path
       style="fill:#10130d;fill-opacity:1;stroke:none"
       d="m 147.86897,884.62703 2.47373,0.20774 -0.20615,1.29841 c 0,0 -0.10307,2.28519 -0.25768,2.64873 -0.1546,0.36357 -1.49454,2.2852 -1.49454,2.2852 l -2.88602,2.70069 c 0,0 -2.00989,1.71389 -2.26758,1.71389 -0.25768,0 -3.29829,0.46742 -3.29829,0.46742 0,0 -2.83447,1.66196 -3.2983,1.92164 -0.46382,0.25969 -1.75222,1.03872 -1.75222,1.03872 l -0.51536,4.51845 -1.95837,0.31162 0.51537,-2.02551 -3.55598,-5.60911 -6.69968,2.07745 -4.50515,-1.40764 -2.67843,0.6794 -5.99462,-12.94536 5.24757,-0.36725 z"
       id="path3810"
       inkscape:connector-curvature="0"
       sodipodi:nodetypes="cccsccscsccccccccccc" />
    <path
       style="fill:#555559;fill-opacity:1;stroke:none"
       d="m 147.82605,884.87601 0,1.24863 -2.04072,0.36725 -1.16612,0.36724 0.14576,3.52555 -2.84242,1.46897 c 0,0 -2.33225,0.2938 -2.40513,0.66104 -0.0729,0.36725 -0.51018,1.98313 -0.51018,1.98313 l -4.37297,1.02829 c 0,0 -1.45765,-1.76278 -1.82207,-1.76278 -0.36441,0 -4.81027,1.39552 -5.9764,1.46897 -1.16612,0.0734 -2.69665,-0.22034 -2.9153,-0.66104 -0.21865,-0.44069 -1.38477,-1.46897 -1.74919,-1.54243 -0.3644,-0.0734 -5.83062,-0.0734 -5.83062,-0.0734 l -0.94748,-3.0114 -0.72882,-3.59899 -0.29153,-2.64416 c 0,0 30.9023,0.51413 31.19382,0.51413 0.29154,0 2.25937,0.66104 2.25937,0.66104 z"
       id="path3808"
       inkscape:connector-curvature="0" />
    <path
       style="fill:#10130d;fill-opacity:1;stroke:none"
       d="m 17.43874,951.93482 0.218648,3.74589 -4.081437,3.96623 -5.7577402,6.24315 -5.8306233,-5.58211 10.6408875,-8.81386 z"
       id="path3802"
       inkscape:connector-curvature="0" />
    <path
       style="fill:#555559;fill-opacity:1;stroke:none"
       d="m 2.1769354,960.71353 2.9890832,-0.20774 7.6273164,-7.89431 0.515359,-14.85374 -4.4320894,-2.18132 -5.6689507,0.10388 z"
       id="path3800"
       inkscape:connector-curvature="0" />
    <path
       style="fill:#10130d;fill-opacity:1;stroke:none"
       d="m 22.0698,905.66117 -1.133791,2.49294 -3.401371,2.70069 -1.030718,3.32391 0.103072,2.07745 c 0,0 1.339934,1.86971 1.133791,2.28518 -0.206145,0.41549 -0.927647,4.1549 -1.030719,4.67426 -0.103072,0.51937 -0.206144,4.36265 0,5.81687 0.206143,1.45421 0,9.24463 0,9.24463 0,0 0.515359,6.54396 0.618431,6.95945 0.103072,0.41549 0.412288,7.06332 0.412288,7.06332 l -4.947448,0.41548 -1.133791,-10.28335 0.927646,-3.11618 -3.1952263,-2.18131 -0.4122872,-0.93485 1.9583645,-2.67471 -2.1645083,-7.92027 1.8552933,-16.30797 4.019801,-8.41367 6.287382,-1.97357 z"
       id="path3798"
       inkscape:connector-curvature="0"
       sodipodi:nodetypes="cccccssscscccccccccccc" />
    <path
       style="fill:#555559;fill-opacity:1;stroke:none"
       d="m 4.7537311,936.71901 4.2259454,-0.20775 1.9583645,-2.5968 0.309216,-2.38906 -0.206144,-4.67426 -1.7522212,-1.24646 2.0614362,-3.4278 -0.412287,-9.86788 1.546078,-1.35033 0.618431,-5.50524 2.061436,-2.38906 3.195227,-2.80455 2.164509,0.62322 3.504441,-2.18131 1.752222,-2.49294 c 0,0 4.019803,-2.18132 4.43209,-2.28519 0.412287,-0.10388 10.925612,-2.18132 10.925612,-2.18132 l 2.370655,-0.62323 0.515358,-1.35035 -1.03072,-0.93484 -0.10307,-1.55809 1.649146,-0.62324 1.855296,1.5581 2.886011,2.18131 4.844376,0.10387 8.142675,-0.20774 4.329017,-1.24647 6.493526,-4.36264 -19.686721,-0.7271 -46.1761808,0.51936 -3.2982985,8.10205 z"
       id="path3794"
       inkscape:connector-curvature="0" />
    <path
       style="fill:#182422;fill-opacity:1;stroke:none"
       d="m 113.55292,893.23083 2.20471,4.20493 c 0,0 -4.15432,3.30521 -4.81028,3.52555 -0.65594,0.22036 -3.13395,0.36724 -3.13395,0.36724 l -12.608722,8.88732 -5.830623,-1.68933 -6.122155,-4.11313 c 0,0 -5.174677,-3.37865 -5.75774,-3.52555 -0.583061,-0.14689 -6.267921,-2.64415 -6.267921,-2.64415 l -5.101795,-2.05658 -1.384771,-2.49726 -0.291535,-1.24862 4.664499,-2.57072 z"
       id="path3790"
       inkscape:connector-curvature="0"
       sodipodi:nodetypes="ccsccccscccccc" />
    <path
       style="fill:#5e4443;fill-opacity:1;stroke:none"
       d="m 68.864411,889.87257 11.3379,-6.02459 29.787759,0.72711 3.61949,8.77407 -11.04066,6.28743 c 0,0 -7.215029,5.92071 -7.833458,5.92071 -0.618432,0 -5.05052,-0.93485 -5.05052,-0.93485 l -11.337903,-7.37493 -5.875094,-2.07745 0.103071,-3.63553 -3.710585,-0.72711 z"
       id="path3788"
       inkscape:connector-curvature="0"
       sodipodi:nodetypes="cccccscccccc" />
    <path
       style="fill:#101016;fill-opacity:1;stroke:none"
       d="m 77.463971,878.79289 -1.311891,5.07267 7.380992,0.76122 26.436618,0.26705 6.41369,0.1469 c 0,0 23.17672,0.2938 23.7598,0.2938 0.58306,0 9.76629,0 10.78665,-0.14691 1.02036,-0.14689 10.6141,0.13431 10.6141,0.13431 l 12.48087,-6.51945 z"
       id="path3796"
       inkscape:connector-curvature="0"
       sodipodi:nodetypes="cccccssccc" />
    <path
       style="fill:#323c42;fill-opacity:1;stroke:#1b1a24;stroke-width:1.49147594;stroke-linecap:butt;stroke-linejoin:miter;stroke-miterlimit:4;stroke-opacity:1;stroke-dasharray:none"
       d="m 15.86781,896.1886 -2.571882,-0.986 -1.052135,-1.13771 c 0,0 -0.467615,-0.98602 -0.467615,-1.2894 0,-0.30338 0.116904,-1.28939 0.116904,-1.28939 l 0.701422,-0.98602 c 0,0 1.285942,-0.68262 1.753557,-0.91016 0.467615,-0.22754 1.169038,-0.60677 1.169038,-0.60677 l 1.753555,-0.3034 1.987365,0.68263 1.402844,0.98601 1.052134,1.44109 c 0,0 0.584519,1.06186 0.350712,1.36524 -0.233808,0.3034 -1.169038,1.13771 -1.169038,1.13771 l -2.338075,1.44109 z"
       id="path2998"
       inkscape:connector-curvature="0" />
    <path
       style="fill:#101016;fill-opacity:1;stroke:none"
       d="m -0.78125,426.46875 0.5,82 2.34375,0.0937 L 2.59375,505.7812 3.375,503 l 0.78125,-5.4375 0.125,-3.71875 -0.125,-6.15625 0.78125,-5.5625 0.09375,-4.875 c 0,0 -0.15625,-2.61992 -0.15625,-3.03125 0,-0.41134 -0.46875,-9.0625 -0.46875,-9.0625 l 1.1875,-5.4375 -0.53125,-9.0625 c 0,0 -0.125,-6.15519 -0.125,-6.875 0,-0.71983 -0.125,-3.59375 -0.125,-3.59375 L 4.46875,439 l 0.34375,-0.84375 0.65625,-0.75 0.90625,-2.84375 0.65625,-1.6875 -7.8125,-6.40625 z"
       transform="translate(0,452.36218)"
       id="path3768"
       inkscape:connector-curvature="0" />
    <path
       style="fill:#101016;fill-opacity:1;stroke:none"
       d="m 2.8359045,885.50069 15.9902405,-0.80463 14.210682,0.2006 13.438364,-0.10035 8.958907,-0.50152 17.451208,0.39809 3.864819,-1.20054 0.794417,-4.69058 -78.3460163,0.0299 z"
       id="path3770"
       inkscape:connector-curvature="0"
       sodipodi:nodetypes="cccccccccc" />
    <path
       style="fill:#7c7e88;fill-opacity:1;stroke:none"
       d="m 32.737321,892.33737 0.437298,-1.32207 c 0,0 -0.145767,-1.02829 0.07288,-1.46899 0.21865,-0.44068 0.728831,-2.5707 0.728831,-2.5707 l -0.583064,-0.4407 -0.364414,0.0734 -0.583061,1.32209 c 0,0 0,1.61587 0,1.83621 0,0.22036 -0.291534,1.76278 -0.291534,1.76278 l 0.07288,0.88139 z"
       id="path3772"
       inkscape:connector-curvature="0" />
    <path
       style="fill:#7c7e88;fill-opacity:1;stroke:none"
       d="m 12.43358,904.78066 -1.093243,-2.05659 -1.093242,-1.76276 -0.80171,-0.73449 -0.5101797,0.1469 0,0.66104 c 0,0 0.291531,0.44069 0.3644141,0.73449 0.072882,0.2938 1.3847736,2.42382 1.3847736,2.42382 l 1.093241,1.02828 z"
       id="path3774"
       inkscape:connector-curvature="0" />
    <path
       style="fill:#7c7e88;fill-opacity:1;stroke:none"
       d="m 135.48688,892.96837 0.54093,-0.25732 -0.67616,-1.02924 -2.02851,-2.10994 -1.35234,-1.02924 -0.54094,0.0515 -0.13522,0.66901 c 0,0 0.33808,0.56608 0.54093,0.77193 0.20285,0.20584 1.55519,1.59532 1.55519,1.59532 z"
       id="path3776"
       inkscape:connector-curvature="0" />
    <path
       style="fill:#ea8427;fill-opacity:1;stroke:#934110;stroke-width:1.52655602;stroke-linecap:butt;stroke-linejoin:miter;stroke-miterlimit:4;stroke-opacity:1;stroke-dasharray:none"
       d="m 85.125774,895.80691 0.249572,-8.40571 -5.724984,0.0948 0.0072,6.30442 3.426699,2.61685 z"
       id="path3782"
       inkscape:connector-curvature="0"
       sodipodi:nodetypes="cccccc" />
    <path
       style="fill:#ea8427;fill-opacity:1;stroke:#934110;stroke-width:1.3720367;stroke-linecap:butt;stroke-linejoin:miter;stroke-miterlimit:4;stroke-opacity:1;stroke-dasharray:none"
       d="m 89.858951,887.68179 6.090832,0 -0.280038,6.69865 0.910123,3.69767 -2.730373,1.71485 -4.060552,-3.10817 z"
       id="path3784"
       inkscape:connector-curvature="0" />
    <path
       style="fill:#ea8427;fill-opacity:1;stroke:#934110;stroke-width:1.42574143;stroke-linecap:butt;stroke-linejoin:miter;stroke-miterlimit:4;stroke-opacity:1;stroke-dasharray:none"
       d="m 103.09856,894.75971 2.57901,-1.99656 -2.20159,-5.3456 -2.57899,0 0.44031,5.98965 z"
       id="path3786"
       inkscape:connector-curvature="0" />
    <path
       style="fill:#10130d;fill-opacity:1;stroke:none"
       d="m 73.158851,884.08679 3.29659,-0.96986 3.881147,0.88947 -15.677485,8.43141 -1.463277,0.82526 -7.252494,-0.59682 c 0,0 -4.615223,1.04446 -4.908257,1.04446 -0.293028,0 -3.003555,-0.0747 -3.003555,-0.0747 l -5.714087,2.38732 c 0,0 -3.749661,1.48098 -4.16407,1.37547 -0.414405,-0.1055 -4.308361,1.68811 -4.308361,1.68811 l -8.689981,4.58046 -3.694114,2.92857 -1.864832,-5.93472 3.315257,-1.4507 3.004452,-3.16518 1.864832,-1.37159 c 2.916888,-1.36134 6.130646,-1.67557 9.22056,-2.42663 l 6.216107,-1.26608 0.324356,-1.37158 -0.890251,-0.90816 0.25509,-1.62398 0.621608,-0.52753 0.828814,0 3.211657,2.21564 1.864831,1.37156 7.977339,0.10551 5.801699,-0.31652 5.076489,-2.21562 z"
       id="path3792"
       inkscape:connector-curvature="0"
       sodipodi:nodetypes="ccccccsccscccccccccccccccccccc" />
    <path
       style="fill:#4b4e52;fill-opacity:1;stroke:none"
       d="m 118.39042,906.1286 11.15365,-10.0856 -6.87617,2.00953 z"
       id="path3804"
       inkscape:connector-curvature="0"
       sodipodi:nodetypes="cccc" />
    <path
       style="fill:#404745;fill-opacity:1;stroke:none"
       d="m 128.86139,896.47413 0.62504,-0.36921 3.72057,5.69387 -0.69958,1.90119 -14.2716,2.58444 z"
       id="path3806"
       inkscape:connector-curvature="0"
       sodipodi:nodetypes="cccccc" />
    <path
       style="fill:#4b4e52;fill-opacity:1;stroke:none"
       d="m 135.21733,905.4417 4.37297,-1.24864 4.81026,-0.51414 1.89495,0.58759 -17.40076,10.42974 4.71916,-8.37317 z"
       id="path3812"
       inkscape:connector-curvature="0"
       sodipodi:nodetypes="ccccccc" />
    <path
       style="fill:#404745;fill-opacity:1;stroke:none"
       d="m 146.13508,904.20566 1.32657,0.52432 -0.2948,2.09724 -1.47395,1.27332 -0.36849,0.59923 -0.36848,1.19842 -0.81068,0.82392 c 0,0 -0.36848,0.2247 -0.73698,0.2247 -0.36848,0 -1.84243,2.02234 -1.84243,2.02234 l -12.71325,1.74545 z"
       id="path3814"
       inkscape:connector-curvature="0"
       sodipodi:nodetypes="cccccccsccc" />
    <path
       style="fill:#4b4e52;fill-opacity:1;stroke:none"
       d="m 152.09491,914.49033 -13.86316,6.69976 4.5867,-5.66104 7.83345,-1.45421 z"
       id="path3816"
       inkscape:connector-curvature="0" />
    <path
       style="fill:#404745;fill-opacity:1;stroke:none"
       d="m 152.06914,914.49033 0.33499,1.81777 -1.28839,1.8697 -2.21605,2.75262 -10.6164,0.12983 z"
       id="path3818"
       inkscape:connector-curvature="0"
       sodipodi:nodetypes="cccccc" />
    <path
       style="fill:#4b4e57;fill-opacity:1;stroke:#1b1a24;stroke-width:0.98939085;stroke-linecap:butt;stroke-linejoin:miter;stroke-miterlimit:4;stroke-opacity:1;stroke-dasharray:none"
       d="m 156.31965,901.18753 -2.7185,-0.95113 c 0,0 -1.49325,-1.76636 -1.64641,-1.99281 -0.15315,-0.22647 -0.49775,-1.26818 -0.26802,-1.53993 0.22973,-0.27175 2.56533,-1.76637 2.7185,-1.85695 0.15315,-0.0906 1.60812,-0.72467 1.99101,-0.76995 0.38289,-0.0453 2.06758,0.27175 2.37389,0.31703 0.30632,0.0453 1.99101,1.04171 1.99101,1.04171 0,0 0.72749,1.90224 0.72749,2.21929 0,0.31704 0.49775,1.44933 -0.15315,1.81165 -0.65091,0.36234 -1.91443,1.31346 -2.22075,1.49464 -0.30631,0.18115 -2.79507,0.22645 -2.79507,0.22645 z"
       id="path3820"
       inkscape:connector-curvature="0" />
    <path
       style="fill:#1f2a37;fill-opacity:1;stroke:none"
       d="m 157.93467,891.00051 6.47817,-2.05148 -2.71604,2.28519 z"
       id="path3822"
       inkscape:connector-curvature="0"
       sodipodi:nodetypes="cccc" />
    <path
       style="fill:#525568;fill-opacity:1;stroke:none"
       d="m 164.4329,888.94142 -6.59843,2.12205 2.72946,-2.12205 z"
       id="path3824"
       inkscape:connector-curvature="0" />
    <path
       style="fill:#6f7586;fill-opacity:1;stroke:none"
       d="m 163.30625,939.58155 1.08722,0.16767 0.88014,-0.16767 0.98368,-0.67065 c 0,0 0.82837,-0.33532 1.08723,-0.33532 0.25886,0 1.55317,0.33532 1.55317,0.33532 0,0 0.15532,0.33533 0.62127,0.33533 0.46595,0 1.34656,-0.19363 1.34656,-0.19363 l -0.12743,0.36243 -1.06382,2.0667 -2.43331,1.50897 -1.70849,-1.62074 -1.44963,-0.55888 z"
       id="path3836"
       inkscape:connector-curvature="0"
       sodipodi:nodetypes="ccccscsccccccc" />
    <path
       style="fill:#141816;fill-opacity:1;stroke:none"
       d="m 163.33203,939.71724 c 0,0 1.21108,0.13316 1.33992,0.13316 0.12885,0 0.95341,-0.3462 1.10802,-0.39947 0.15462,-0.0532 0.82459,-0.50598 1.15957,-0.53261 0.33499,-0.0266 1.70067,0.15979 1.90683,0.26631 0.20613,0.10653 1.77797,0.29294 1.88105,0.29294 0.10308,0 0.51536,-1.91742 0.41228,-1.97069 -0.10306,-0.0532 -1.18531,-1.01197 -1.18531,-1.01197 0,0 -1.23687,-0.0532 -1.3657,-0.0532 -0.12885,0 -0.54113,-0.77229 -0.54113,-0.77229 0,0 0.23191,-0.29293 0.10307,-0.23968 -0.12884,0.0532 -0.85035,0.31957 -1.03072,0.47936 -0.18037,0.15978 -0.28345,0.21305 -0.6442,0.58587 -0.36075,0.37284 -1.21109,1.19839 -1.36571,1.25166 -0.1546,0.0532 -0.7988,0.13315 -0.8761,0.2663 -0.0773,0.13316 -0.15461,0.66577 -0.25768,0.71903 -0.10308,0.0532 -0.64419,0.98534 -0.64419,0.98534 z"
       id="path3838"
       inkscape:connector-curvature="0" />
    <path
       style="fill:#10130d;fill-opacity:1;stroke:none"
       d="m 153.28024,924.66982 0.20615,1.66196 1.03071,1.35034 0.10307,3.0123 1.64916,2.90842 1.03072,3.0123 c 0,0 1.13378,3.7394 1.13378,4.15489 0,0.41549 0,2.59682 0,3.0123 0,0.4155 1.54609,0.31162 1.54609,0.31162 l 1.75221,1.35034 -0.30921,1.66197 -1.443,0.93484 -0.20616,-1.14259 -1.54607,-0.31161 -4.12288,1.66194 -2.93755,1.03873 -0.77303,0.93485 2.98908,2.49293 3.81366,2.59682 2.88602,1.45421 4.0198,2.49293 2.47372,2.07746 1.98855,0.97678 c 2.21161,2.80807 2.6093,6.60045 3.6804,10.02738 l -2.886,0.94116 -4.12288,-3.22005 0.72149,-2.5968 -1.23685,-2.07746 c 0,0 -3.71058,-1.45421 -3.91674,-1.8697 -0.20614,-0.41549 -2.67987,-2.18131 -3.09215,-2.5968 -0.41228,-0.41549 -2.78294,-2.38907 -3.19523,-2.80456 -0.41229,-0.41548 -1.54607,-1.35034 -1.95836,-1.45421 -0.41228,-0.10387 -5.66895,-3.11617 -6.1843,-3.42778 -0.51537,-0.31162 -2.26759,-2.38906 -2.26759,-2.38906 l 2.16451,-0.93487 3.50444,-1.03871 6.18431,-2.70068 0.61843,-1.35035 -1.23686,-3.73941 -1.75223,-6.54396 -2.26758,-4.98587 -0.41229,-4.05102 z"
       id="path3842"
       inkscape:connector-curvature="0"
       sodipodi:nodetypes="ccccccssccccccccccccccccccccssssscccccccccc" />
    <path
       style="fill:#101016;fill-opacity:1;stroke:none"
       d="m 2.0738635,960.60966 2.6798676,4.88199 0.8245746,9.34852 0.1030719,16.9312 2.6798676,0.7271 0.6184313,0.51936 -4.5351607,2.28519 c 0,0 0.4122872,4.25877 1.1337899,5.81678 0.7215029,1.5582 0.2061439,6.0247 0.2061439,6.0247 l 0.3092155,7.3749 -0.4122875,24.3061 1.5460776,7.1673 -8.03960292,7.5826 0.49195885,-92.75062 z"
       id="path3846"
       inkscape:connector-curvature="0"
       sodipodi:nodetypes="cccccccsccccccc" />
    <path
       style="fill:#10130d;fill-opacity:1;stroke:none"
       d="m 3.8096571,960.30798 -2.1136009,0.4407 3.13396,11.45802 c 0,0 2.9153118,1.54242 3.2068428,1.83622 0.2915313,0.2938 5.247561,4.26003 5.247561,4.26003 l 6.923866,4.62728 -4.883148,4.84763 -0.583062,11.09081 1.749186,1.90963 -1.239006,4.1131 -0.07288,2.938 2.62378,-1.3955 c 0,0 2.186484,0.073 2.478015,0.073 0.291531,0 2.332249,0.2204 2.332249,0.2204 l 1.457656,0.7344 1.858511,-0.303 -1.494096,-2.8552 c 0,0 -3.206844,-3.3052 -3.279726,-3.6726 -0.07288,-0.3671 -0.874594,-11.31102 -0.874594,-11.31102 l 9.766293,-7.49179 0.07288,-0.51413 -12.171426,-6.4635 -3.425491,-2.13001 -5.8306237,-6.53695 z"
       id="path3848"
       inkscape:connector-curvature="0"
       sodipodi:nodetypes="cccsccccccccsccccsccccccc" />
    <path
       style="fill:#10130d;fill-opacity:1;stroke:none"
       d="m 5.7844496,1007.3002 c 0,0 1.4430056,0.4156 1.7006851,0.5714 0.2576795,0.1558 3.7105863,2.3891 3.7105863,2.3891 l 4.032685,-2.5319 0.03866,-0.012 c 0,0 0.566895,-0.7271 0.876111,-1.0387 0.309215,-0.3117 5.720486,-0.6752 5.720486,-0.6752 l 3.968267,1.0388 1.75222,0.727 -4.329017,1.2984 -3.968266,-0.2077 -1.855292,-0.052 -5.823558,4.0509 -5.9266313,-2.4928 z"
       id="path3850"
       inkscape:connector-curvature="0"
       sodipodi:nodetypes="cscccsccccccccc" />
    <path
       style="fill:#4b4e52;fill-opacity:1;stroke:none"
       d="m 13.685275,1022.2621 4.591616,-2.13 5.502651,-2.8279 7.434044,-3.599 -9.839176,0.5877 c 0,0 -1.166124,1.0283 -1.603422,1.2487 -0.437296,0.2203 -1.822069,1.6158 -2.332248,1.6892 -0.51018,0.073 -0.874593,0.4408 -1.676305,0.7346 -0.801711,0.2937 -1.311891,1.175 -1.311891,1.175 l -0.510179,1.1018 -0.510179,1.1018 z"
       id="path3854"
       inkscape:connector-curvature="0"
       sodipodi:nodetypes="cccccssscccc" />
    <path
       style="fill:#404745;fill-opacity:1;stroke:none"
       d="m 13.575951,1022.2254 17.534563,-8.4808 0.0379,0.01 -5.546796,6.2695 -2.405132,1.9832 c 0,0 -1.457657,0.7344 -2.113601,0.8813 -0.655946,0.1469 -1.676305,0.2203 -1.676305,0.2203 l -1.020358,-0.9548 z"
       id="path3856"
       inkscape:connector-curvature="0"
       sodipodi:nodetypes="cccccsccc" />
    <path
       style="fill:#4b4e52;fill-opacity:1;stroke:none"
       d="m 32.817007,1028.1379 9.984945,-7.6019 -14.430793,3.2318 z"
       id="path3858"
       inkscape:connector-curvature="0"
       sodipodi:nodetypes="cccc" />
    <path
       style="fill:#404745;fill-opacity:1;stroke:none"
       d="m 32.812456,1028.1357 10.06238,-7.7466 -0.947478,4.0398 -4.227202,5.2883 z"
       id="path3860"
       inkscape:connector-curvature="0"
       sodipodi:nodetypes="ccccc" />
    <path
       style="fill:#4b4e52;fill-opacity:1;stroke:none"
       d="m 46.227441,1036.7131 2.84243,-1.928 6.632334,-6.8308 -14.285028,6.1698 -1.311889,1.9097 1.166125,0.6426 z"
       id="path3862"
       inkscape:connector-curvature="0"
       sodipodi:nodetypes="ccccccc" />
    <path
       style="fill:#404745;fill-opacity:1;stroke:none"
       d="m 48.774353,1034.7963 6.782085,-6.8293 -0.828923,9.7561 -8.590642,-1.002 z"
       id="path3864"
       inkscape:connector-curvature="0"
       sodipodi:nodetypes="ccccc" />
    <path
       inkscape:connector-curvature="0"
       id="path3866"
       d="m 19.783577,1039.0399 -2.912465,-0.5874 c 0,0 -1.783193,-1.6464 -1.97276,-1.8634 -0.189571,-0.217 -0.694555,-1.2716 -0.500347,-1.5968 0.19421,-0.3251 2.355649,-2.2805 2.498474,-2.4008 0.142832,-0.1203 1.533089,-1.0223 1.916866,-1.1303 0.38378,-0.1081 2.148528,-0.034 2.467572,-0.033 0.319043,3e-4 2.18395,0.7974 2.18395,0.7974 0,0 1.022309,1.9107 1.06905,2.248 0.04674,0.3374 0.721263,1.4645 0.110906,1.9519 -0.610359,0.4871 -1.758642,1.6967 -2.044297,1.9373 -0.285657,0.2407 -2.816949,0.6777 -2.816949,0.6777 z"
       style="fill:#4b4e57;fill-opacity:1;stroke:#1b1a24;stroke-width:1.04154289;stroke-linecap:butt;stroke-linejoin:miter;stroke-miterlimit:4;stroke-opacity:1;stroke-dasharray:none" />
    <path
       inkscape:connector-curvature="0"
       id="path3876"
       d="m 73.894377,1038.0325 -3.352042,1.9445 2.046978,5.917 2.578999,0 -0.337248,-6.1973 z"
       style="fill:#ea8427;fill-opacity:1;stroke:#934110;stroke-width:1.42574143;stroke-linecap:butt;stroke-linejoin:miter;stroke-miterlimit:4;stroke-opacity:1;stroke-dasharray:none"
       sodipodi:nodetypes="cccccc" />
    <path
       inkscape:connector-curvature="0"
       id="path3880"
       d="m 86.964948,1045.5864 -6.445391,0.1884 0.273221,-6.0709 -0.887971,-3.3511 2.563343,-1.8367 4.062295,3.0994 z"
       style="fill:#ea8427;fill-opacity:1;stroke:#934110;stroke-width:1.29016721;stroke-linecap:butt;stroke-linejoin:miter;stroke-miterlimit:4;stroke-opacity:1;stroke-dasharray:none"
       sodipodi:nodetypes="ccccccc" />
    <path
       sodipodi:nodetypes="cccccc"
       inkscape:connector-curvature="0"
       id="path3882"
       d="m 91.314641,1038.779 -0.242234,7.1297 5.556691,-0.081 -0.257108,-5.5677 -2.625676,-2.2635 z"
       style="fill:#ea8427;fill-opacity:1;stroke:#934110;stroke-width:1.38509285;stroke-linecap:butt;stroke-linejoin:miter;stroke-miterlimit:4;stroke-opacity:1;stroke-dasharray:none" />
    <path
       style="fill:#4b4e57;fill-opacity:1;stroke:#1b1a24;stroke-width:1.00483608;stroke-linecap:butt;stroke-linejoin:miter;stroke-miterlimit:4;stroke-opacity:1;stroke-dasharray:none"
       d="m 157.73871,1037.8093 2.85195,0.6038 c 0,0 1.72476,1.5879 1.90742,1.7966 0.18266,0.2086 0.66133,1.2156 0.4651,1.5203 -0.19624,0.3046 -2.35247,2.1213 -2.49481,2.2329 -0.14233,0.1116 -1.52334,0.9432 -1.90222,1.0393 -0.37889,0.096 -2.11164,0 -2.42512,-0.01 -0.31349,-0.01 -2.13265,-0.7908 -2.13265,-0.7908 0,0 -0.97274,-1.8259 -1.01307,-2.1462 -0.0403,-0.3202 -0.68436,-1.3985 -0.0766,-1.8501 0.60781,-0.4514 1.75617,-1.5782 2.04084,-1.8015 0.28468,-0.2232 2.77911,-0.596 2.77911,-0.596 z"
       id="path3890"
       inkscape:connector-curvature="0" />
    <path
       inkscape:connector-curvature="0"
       id="path3892"
       d="m 13.410639,1026.5944 -1.097355,-0.848 c 0,0 -1.012067,-0.1967 -1.354068,-0.5489 -0.341998,-0.3521 -2.1733883,-1.5332 -2.1733883,-1.5332 l -0.603635,0.4117 -0.050032,0.3711 1.0497881,0.9868 c 0,0 1.5156342,0.5273 1.7223122,0.5992 0.206676,0.071 1.55828,0.853 1.55828,0.853 l 0.850496,0.2182 z"
       style="fill:#7c7e88;fill-opacity:1;stroke:none" />
    <path
       inkscape:connector-curvature="0"
       id="path3896"
       d="m 169.93595,1033.4777 -6.51104,-1.8542 3.43915,-0.2388 z"
       style="fill:#525568;fill-opacity:1;stroke:none"
       sodipodi:nodetypes="cccc" />
    <path
       sodipodi:nodetypes="cccc"
       inkscape:connector-curvature="0"
       id="path3898"
       d="m 163.41823,1031.6099 6.533,1.8665 -3.51486,0.409 z"
       style="fill:#1f2a37;fill-opacity:1;stroke:none" />
    <path
       style="fill:#404745;fill-opacity:1;stroke:none"
       d="m 119.52937,942.84749 14.53828,-11.34287 -8.18362,15.92805 z"
       id="path3902"
       inkscape:connector-curvature="0"
       sodipodi:nodetypes="cccc" />
    <path
       style="fill:#4b4e52;fill-opacity:1;stroke:none"
       d="m 119.6376,942.97473 14.43005,-11.36105 -10.53393,2.94478 -12.73454,3.41742 5.26698,2.94478 z"
       id="path3904"
       inkscape:connector-curvature="0"
       sodipodi:nodetypes="cccccc" />
    <path
       style="fill:#555559;fill-opacity:1;stroke:none"
       d="m 137.39653,970.95072 0.81628,-2.5193 -0.40815,-2.21081 -0.40813,-2.67353 -0.96934,-2.05657 0.3061,-0.97687 0.0382,-0.87404 3.58401,0.10283 c 0,0 2.09174,0.87405 2.39784,1.07971 0.30611,0.20565 3.36719,2.36505 3.7243,2.41646 0.35714,0.0515 4.03043,1.59384 4.43857,1.64526 0.40814,0.0514 3.06109,0.87404 3.06109,0.87404 l -2.39786,1.64526 c 0,0 -2.2958,0.51413 -2.60192,0.51413 -0.3061,0 -3.9794,0.97688 -3.9794,0.97688 l -2.19377,0.71979 c 0,0 -2.60191,1.18252 -2.80598,1.23395 -0.20408,0.0515 -2.60191,0.10283 -2.60191,0.10283 z"
       id="path3906"
       inkscape:connector-curvature="0"
       sodipodi:nodetypes="ccccccccsssccsccsc" />
    <path
       style="fill:#4b4e52;fill-opacity:1;stroke:none"
       d="m 123.36659,989.92256 6.12216,4.42162 6.42826,-4.21596 -3.26515,-3.39334 -1.24994,-4.67869 -4.87222,4.98717 z"
       id="path3914"
       inkscape:connector-curvature="0"
       sodipodi:nodetypes="ccccccc" />
    <path
       style="fill:#404745;fill-opacity:1;stroke:none"
       d="m 123.67269,989.66549 6.12216,4.37021 -4.08143,3.90747 -7.85677,-1.1311 -4.28551,-2.05658 4.28551,-1.23393 z"
       id="path3916"
       inkscape:connector-curvature="0"
       sodipodi:nodetypes="ccccccc" />
    <path
       style="fill:#10130d;fill-opacity:1;stroke:none"
       d="m 135.89149,990.12822 -0.15304,0.53984 -5.9436,3.9846 -3.49472,3.47049 -0.71426,-0.2828 4.99976,-4.75581 z"
       id="path3918"
       inkscape:connector-curvature="0" />
    <path
       style="fill:#555559;fill-opacity:1;stroke:none"
       d="m 86.232015,1015.2673 11.038993,-12.7244 c 0,0 -1.515155,-0.5817 -3.174613,-0.3636 -1.659456,0.2182 -5.772022,0.5817 -5.772022,0.5817 l -5.988474,-0.3635 -6.853653,-0.4877 c 0,0 1.442382,1.2148 1.442382,1.5056 0,0.2909 1.731607,2.9812 1.731607,2.9812 l 7.567026,8.8699 z"
       id="path3920"
       inkscape:connector-curvature="0"
       sodipodi:nodetypes="ccscccsccc" />
    <path
       style="fill:#4b4e52;fill-opacity:1;stroke:none"
       d="m 97.126708,1002.4702 3.174612,-3.781 3.46321,-0.79974 -0.21645,2.25404 -2.02021,3.2719 -1.587301,3.0539 -3.030313,4.4354 -2.020208,1.3088 -3.391063,3.999 -2.308809,1.8178 -2.272733,1.9996 -0.685428,-5.1262 z"
       id="path3922"
       inkscape:connector-curvature="0"
       sodipodi:nodetypes="ccccccccccccc" />
    <path
       style="fill:#404745;fill-opacity:1;stroke:none"
       d="m 77.068928,1003.4882 -4.401166,-4.799 -3.102463,-0.1454 -0.07215,2.4722 4.545468,6.1804 4.545467,5.0171 5.627723,4.6535 2.777785,3.1993 -0.685428,-5.1808 z"
       id="path3924"
       inkscape:connector-curvature="0"
       sodipodi:nodetypes="cccccccccc" />
    <path
       style="fill:#4b4e52;fill-opacity:1;stroke:none"
       d="m 35.105528,999.38284 14.591133,-9.35745 4.489581,2.46788 5.203834,2.36505 -8.366946,2.77637 -9.387303,2.57071 z"
       id="path3928"
       inkscape:connector-curvature="0" />
    <path
       style="fill:#404745;fill-opacity:1;stroke:none"
       d="m 49.845606,989.94827 -14.663552,9.3831 8.263377,-14.42352 1.968462,2.66508 4.843967,2.59128 z"
       id="path3930"
       inkscape:connector-curvature="0"
       sodipodi:nodetypes="cccccc" />
    <path
       style="fill:#555559;fill-opacity:1;stroke:none"
       d="m 38.684978,974.54933 -12.554149,-4.50806 -0.793653,-4.79891 8.513733,-2.54486 3.896115,-1.45422 c 0,0 -0.793652,5.08974 -0.721503,5.38059 0.07215,0.29084 0.505053,3.4174 0.577202,3.78095 0.07215,0.36356 1.082255,4.14451 1.082255,4.14451 z"
       id="path3934"
       inkscape:connector-curvature="0" />
    <path
       style="fill:#4b4e52;fill-opacity:1;stroke:none"
       d="m 43.281153,946.13052 -1.696345,-2.99488 0.204073,-2.21081 -2.857008,-4.21596 5.101796,-0.15425 6.989461,6.58102 -2.040718,2.36506 -2.346827,1.64525 -0.982093,0.61697 -0.931078,-1.33678 z"
       id="path3942"
       inkscape:connector-curvature="0"
       sodipodi:nodetypes="ccccccccccc" />
    <path
       style="fill:#555559;fill-opacity:1;stroke:none"
       d="m 72.739911,934.04949 3.679665,-4.50805 3.246763,-4.79891 2.453109,-3.92638 3.463214,4.0718 2.741711,3.34469 1.659456,0.94524 0.577202,1.74506 3.607514,2.61759 -4.473317,-0.36356 -3.427138,0.18177 -2.52526,0 -2.723673,0.3272 -1.803757,0.0364 z"
       id="path3950"
       inkscape:connector-curvature="0"
       sodipodi:nodetypes="ccccccccccccccc" />
    <path
       style="fill:#3d3c3e;fill-opacity:1;stroke:none"
       d="m 84.516416,933.10987 c 0.178563,0 0.867305,0.15424 1.096886,0.23136 0.229581,0.0771 1.071378,0.6941 1.071378,0.6941 l 0.994848,0.92545 c 0,0 -0.229579,1.13111 -0.306109,1.25965 -0.07653,0.12854 -1.19892,1.23395 -1.326464,1.28535 -0.127545,0.0515 -1.836646,0.51415 -2.219282,0.51415 -0.382633,0 -2.601916,0 -2.780479,-0.0515 -0.17856,-0.0514 -1.530538,-0.59127 -1.530538,-0.59127 l -0.790779,-0.7455 -0.153054,-1.41389 0.637725,-1.02828 1.351975,-0.61697 z"
       id="path3958"
       inkscape:connector-curvature="0" />
    <path
       style="fill:#777f87;fill-opacity:1;stroke:none"
       d="m 81.940011,936.55462 2.142753,0 0.969339,-0.56555 0.969342,-0.82262 -0.306107,-1.13112 -1.326466,-0.92546 -1.683592,-0.15424 c 0,0 -1.581558,0.20566 -1.78563,0.25708 -0.204073,0.0515 -1.428504,1.13111 -1.428504,1.13111 l -0.102032,1.02829 1.377485,0.87403 z"
       id="path3956"
       inkscape:connector-curvature="0" />
    <path
       style="fill:#777f87;fill-opacity:1;stroke:none"
       d="m 120.77975,986.96811 0.79862,-0.66029 1.13488,-0.57776 1.21894,-0.16507 1.13488,0.37141 0.12609,0.70156 -0.63047,0.94917 c 0,0 -0.92472,0.7841 -1.09285,0.82537 -0.16813,0.0413 -1.68131,0.20634 -1.68131,0.20634 l -0.84065,-0.45395 -0.33626,-0.49522 z"
       id="path3960"
       inkscape:connector-curvature="0" />
    <path
       style="fill:#f49d4a;fill-opacity:1;stroke:none"
       d="m 87.781566,998.50611 1.147902,-0.11288 0.816289,-0.39561 0.382636,-0.64983 -0.07653,-0.96063 -0.994852,-0.76285 -1.607063,-0.0848 -1.428504,0.73458 c 0,0 -0.459162,0.39556 -0.510181,0.50858 -0.05101,0.11301 -0.07653,0.64983 0,0.76285 0.07653,0.11301 0.484672,0.70635 0.484672,0.70635 l 1.224431,0.28251 z"
       id="path3964"
       inkscape:connector-curvature="0" />
    <path
       style="fill:#777f87;fill-opacity:1;stroke:none"
       d="m 43.230446,984.87424 1.082255,0.21813 1.298704,0 1.154405,-0.58167 0.07215,-2.03591 -1.587306,-1.38151 -1.948058,-0.87252 c 0,0 -0.793653,0 -1.226555,0.21814 -0.432901,0.21812 -1.515156,1.30878 -1.515156,1.30878 l 0,0.94524 1.154405,1.38151 z"
       id="path3972"
       inkscape:connector-curvature="0" />
    <path
       style="fill:#f49d4a;fill-opacity:1;stroke:none"
       d="m 121.88984,951.48898 0.66733,0.42968 1.03807,0.0859 0.56847,-0.22916 0.19773,-0.65883 -0.0742,-1.11717 -0.71677,-0.77342 c 0,0 -0.79092,-0.22914 -0.9145,-0.22914 -0.12357,0 -1.01335,0.31509 -1.01335,0.31509 l -0.42017,0.5729 c 0,0 -0.0742,0.45832 -0.0248,0.60154 0.0494,0.14323 0.69205,1.00258 0.69205,1.00258 z"
       id="path3976"
       inkscape:connector-curvature="0" />
    <path
       style="fill:#3d3c3e;fill-opacity:1;stroke:none"
       d="m 45.214738,948.14852 c 0.249983,0.0525 3.062349,0.10494 3.062349,0.10494 l 0.624972,0.47224 0.437478,1.36424 -0.624971,1.20682 -0.874954,0.57718 c 0,0 -1.124948,0.10494 -1.374938,0.10494 -0.249989,0 -2.18739,-0.5247 -2.18739,-0.5247 l -1.187447,-1.10189 0.874958,-0.1574 0.62497,-0.31484 0.499977,-0.62964 z"
       id="path3980"
       inkscape:connector-curvature="0" />
    <path
       style="fill:#777f87;fill-opacity:1;stroke:none"
       d="m 44.312701,950.44574 c 0,0 0.629872,-0.25121 0.909881,-0.57543 0.235518,-0.27272 0.38007,-1.0029 0.38007,-1.0029 l 0.03608,-1.22102 -0.4963,-1.09066 -1.551231,-0.43627 c 0,0 -1.47908,-0.0727 -1.911982,-0.0363 -0.432902,0.0363 -1.875907,0.76347 -1.875907,0.76347 0,0 -0.649352,0.65439 -0.721504,0.83618 -0.07215,0.18177 -0.108225,0.83616 -0.108225,1.01794 0,0.18179 0.324676,1.23608 0.324676,1.23608 l 0.829729,0.69076 1.659457,0.3999 1.154405,-0.14543 z"
       id="path3982"
       inkscape:connector-curvature="0"
       sodipodi:nodetypes="csccccscssccccc" />
    <path
       style="opacity:0.8;fill:#10130d;fill-opacity:1;stroke:none"
       d="m 54.269439,980.94787 1.731607,-1.3815 c 0,0 1.695531,-1.38151 1.875908,-1.45423 0.180375,-0.0727 1.767682,-0.76345 2.020208,-0.83616 0.252525,-0.0727 2.092358,-0.76346 2.272733,-0.79982 0.180376,-0.0364 1.911982,-0.3272 1.911982,-0.3272 0,0 2.128434,0.29085 2.45311,0.36356 0.324677,0.0727 4.401168,1.78141 4.401168,1.78141 l 3.571439,1.30879 3.391063,0.61804 2.52526,-1.99955 3.535364,-2.54487 2.750908,-2.02637 0.586706,-0.89976 -1.045867,-1.95374 2.780478,-0.17994 2.321317,-0.3342 1.632573,-0.92544 c 0,0 1.887665,-0.66839 2.040719,-0.6941 0.153054,-0.0257 3.418203,-0.71979 3.418203,-0.71979 l 5.586462,-0.17997 3.26515,0.82264 3.4182,2.98201 c 0,0 3.36719,2.62214 3.62228,2.77638 0.25509,0.15424 4.69366,4.52445 4.69366,4.52445 l 1.1734,1.23394 1.58156,-1.85092 -3.26514,-2.87919 -5.663,-4.62728 -3.62228,-2.62212 -3.01006,-1.38817 -3.26514,-0.56557 -4.438566,0.30849 -3.775327,0.61696 -2.601918,0.51415 c 0,0 -1.632574,0.25707 -2.091735,0.35989 -0.459161,0.10283 -2.040719,0.41133 -2.346826,0.46273 -0.306109,0.0515 -1.887665,0.10284 -1.887665,0.10284 l 0.459161,-2.00514 -0.714251,-1.33677 -1.22443,-1.18253 -0.459161,-0.87404 2.601914,-1.18253 1.122397,-1.13111 0.468844,-1.14213 -0.396827,-3.96273 c 0,0 -1.010104,-3.38104 -1.046179,-3.56282 -0.03608,-0.18178 -0.07215,-1.89048 -0.07215,-1.89048 0,0 0.432901,-1.92682 0.505052,-2.14496 0.07215,-0.21813 1.118329,-1.99955 1.118329,-1.99955 l 0.180375,-4.25357 -1.515155,-0.21813 -0.144301,1.99954 0,2.3631 -1.046179,3.12655 -0.288601,3.56283 0.829728,2.79936 c 0,0 0.180377,3.59918 0.180377,3.74461 0,0.1454 -1.984134,1.85411 -2.200585,1.96317 -0.21645,0.10906 -2.308809,0.9816 -2.308809,0.9816 l -0.360751,0.61804 0.360751,0.87253 1.551232,2.83572 0.1443,2.72664 0.505052,2.18133 0.721503,0.7998 -0.360752,0.83619 -2.092358,1.96319 -1.659456,1.27242 -2.23666,1.99955 c 0,0 -0.685427,0.50897 -0.865802,0.54533 -0.180376,0.0363 -2.633486,-0.36355 -2.633486,-0.36355 l -3.354988,-1.27244 -2.59741,-1.52693 -3.318913,-0.54532 -2.417034,-0.0727 -2.886012,0.69074 -3.174612,1.3815 -2.092359,1.70871 -1.623381,1.52693 z"
       id="path3992"
       inkscape:connector-curvature="0" />
    <text
       xml:space="preserve"
       style="font-size:52.24282455px;font-style:normal;font-weight:normal;line-height:125%;letter-spacing:0px;word-spacing:0px;fill:#ffffff;fill-opacity:1;stroke:none;font-family:Sans;-inkscape-font-specification:Sans"
       x="68.847092"
       y="982.23059"
       id="text3994"
       sodipodi:linespacing="125%"
       transform="scale(0.99613913,1.0038758)"><tspan
         sodipodi:role="line"
         id="tspan3996"
         x="68.847092"
         y="982.23059">X</tspan></text>
    <path
       style="fill:#ffffff;stroke:none"
       d="m 91.17426,977.14614 c 0,0 0.255088,0.89974 0.255088,1.02827 0,0.12855 0.408143,1.41389 0.408143,1.54243 0,0.12854 0,1.31106 0,1.31106 0,0 -0.17856,0.92546 -0.20407,1.02829 -0.02552,0.10283 -0.306108,0.64267 -0.357126,0.82262 -0.05101,0.17996 -0.229579,0.46273 -0.280598,0.59127 -0.05101,0.12853 -0.408143,0.87404 -0.408143,0.87404 0,0 -0.506708,0.84642 -0.229577,1.09255 0.07767,0.069 0.190261,-0.11243 0.293351,-0.10283 0.06826,0.006 0.121744,0.0642 0.178568,0.10283 0.0853,0.058 0.141722,0.21464 0.242335,0.19281 0.126407,-0.0274 0.07652,-0.24423 0.17856,-0.34706 0.102041,-0.10283 0.306107,-0.80976 0.306107,-0.80976 l 0.357127,-0.56557 0.433652,-0.4113 0.484671,-0.43702 c 0,0 0.280599,-0.15425 0.382636,-0.17996 0.102031,-0.0257 0.280599,-0.10284 0.433653,-0.23135 0.153053,-0.12854 0.433651,-0.28279 0.561196,-0.51415 0.127544,-0.23138 0.280598,-0.41132 0.331617,-0.61697 0.05101,-0.20565 -3.367184,-4.3702 -3.367184,-4.3702 z"
       id="path3998"
       inkscape:connector-curvature="0"
       sodipodi:nodetypes="cssccsscssssscccccssscc" />
    <path
       style="fill:#ffffff;stroke:none"
       d="m 71.817667,950.25863 0.505862,0.53384 0.568043,0.84344 c 0,0 -0.03114,0.56788 -0.07894,0.68584 -0.04781,0.11797 -0.123005,0.2614 -0.123005,0.2614 l -0.421473,0.85745 c 0,0 -0.255292,0.43343 -0.275718,0.52591 -0.02044,0.0925 -0.316569,0.71089 -0.316569,0.71089 l -0.30408,1.40967 c 0,0 -0.151816,0.85161 -0.142537,0.94097 0.0092,0.0894 0.03247,0.31274 0.05102,0.49145 0.01856,0.17872 0.330332,2.31388 0.330332,2.31388 0,0 0.106246,0.73406 0.186523,0.92885 0.08028,0.19478 -0.09143,-0.0129 0.135501,0.43738 0.226931,0.45033 0.150316,1.15851 0.150316,1.15851 l -0.180093,0.28999 -0.301233,0.28019 c 0,0 -0.04086,0.18497 -0.02926,0.29667 0.0116,0.11169 0.162881,0.41191 0.162881,0.41191 l 0.13505,0.14386 0.201421,0.20459 c 0,0 0.03434,0.0415 0.157796,0.0737 0.123455,0.0321 0.09607,0.0577 0.244589,0.0419 0.148523,-0.0156 0.08912,-0.009 0.207932,-0.022 0.118817,-0.0125 0.415854,-0.0439 0.415854,-0.0439 l 0.372237,-0.17476 0.374105,-0.44595 0.21863,-0.49731 -0.01669,-0.44993 -0.08956,-0.28413 -0.385176,-0.81757 -0.259403,-0.76308 -0.333174,-1.18438 -0.271002,-0.87478 0.01071,-0.47538 0.09892,-1.07187 0.471153,-1.24661 0.637336,-1.67066 c 0,0 0.97148,-1.34453 1.021608,-1.44016 0.05013,-0.0956 -3.129908,-2.38001 -3.129908,-2.38001 z"
       id="path4000"
       inkscape:connector-curvature="0" />
    <path
       style="fill:#ffffff;stroke:none"
       d="m 93.212554,959.24375 c 0,0 2.056284,-0.4181 2.200585,-0.43628 0.144299,-0.0182 2.940123,-0.38173 2.940123,-0.38173 0,0 -3.878077,0.9816 -4.130604,1.03613 -0.252526,0.0546 -2.164508,0.87252 -2.164508,0.87252 l 0,0.67258 2.651523,0.29085 c 0,0 2.59741,0.85435 2.741711,0.92706 0.144299,0.0727 2.038245,1.43603 2.038245,1.43603 l 0.721501,2.49034 c 0,0 -1.100291,-1.67235 -1.190478,-1.74506 -0.09019,-0.0727 -1.641419,-1.34515 -1.749644,-1.39967 -0.108226,-0.0546 -4.130603,-1.25427 -4.365092,-1.29061 -0.234489,-0.0363 -2.254697,-0.2545 -2.254697,-0.2545 z"
       id="path4002"
       inkscape:connector-curvature="0" />
    <path
       style="fill:#ffffff;stroke:none"
       d="m 75.030683,985.05601 -0.306638,0.87253 0.162338,0.14542 c 0,0 0,0.27267 -0.05411,0.34538 -0.0541,0.0727 -1.731607,0.38173 -1.875908,0.38173 -0.144299,0 -1.677494,-0.34537 -1.803757,-0.32719 -0.126263,0.0181 -0.901878,0.27267 -1.046179,0.29084 -0.144299,0.0182 -2.020207,-0.30902 -2.020207,-0.30902 0,0 -1.424968,-0.29084 -1.569269,-0.27267 -0.144301,0.0182 -1.64142,0.0182 -2.128433,0.0182 -0.487015,0 -1.100292,-0.0727 -1.388894,-0.0909 -0.288601,-0.0181 -0.541127,-0.30902 -0.541127,-0.30902 l 0.432903,0.0364 c 0,0 0.992065,0.0182 1.172441,0.0182 0.180376,0 1.028142,-0.12725 1.136367,-0.14543 0.108225,-0.0182 0.937954,-0.43626 0.937954,-0.43626 0,0 1.100292,-0.0363 1.190479,-0.0363 0.09019,0 0.73954,0.0363 0.974029,0.0363 0.234489,0 1.731607,0.0909 2.435073,0.10907 0.703465,0.0182 2.128433,-0.18178 2.380958,-0.27266 0.252527,-0.0909 1.911983,-0.0546 1.911983,-0.0546 z"
       id="path4004"
       inkscape:connector-curvature="0" />
    <path
       style="fill:#ffffff;stroke:none"
       d="m 80.358453,959.22828 -0.51018,1.90233 c 0,0 -1.836645,2.8792 -1.938681,3.13626 -0.102043,0.25708 0.102032,1.49102 0.408142,2.10799 0.306107,0.61696 0.918323,2.5707 0.663235,3.08485 -0.255092,0.51414 -1.02036,3.49617 -1.02036,3.49617 l 0,1.69666 0.918322,-0.92544 c 0,0 0.459161,-1.23395 0.459161,-1.43961 0,-0.20566 0.408146,-1.95373 0.459162,-2.15939 0.05101,-0.20567 0.255091,-1.54243 0.255091,-1.95374 0,-0.41133 -0.969342,-3.85607 -0.969342,-3.85607 l 1.938684,-3.44474 z"
       id="path4008"
       inkscape:connector-curvature="0" />
    <path
       style="fill:#472514;fill-opacity:1;stroke:none"
       d="m 138.46882,992.36344 -0.0721,3.12656 -0.2886,13.8877 -1.443,2.3995 -0.64936,2.5448 -0.0721,2.1087 0.28861,3.0538 1.01011,1.0179 c 0,0 0.4329,0.2182 0.72149,0.2182 0.28862,0 1.15441,-0.727 1.15441,-0.727 l 0.8658,-2.3995 0.0721,-3.0539 0,-2.1086 -1.0101,-0.9453 0.64936,-0.1453 1.2987,0.8725 1.08226,1.5269 -0.0721,4.5807 c 0,0 -0.57721,2.1086 -1.01011,2.763 -0.4329,0.6544 -1.44301,2.1814 -1.80375,2.3995 -0.36076,0.2181 -1.65947,0.4363 -1.65947,0.4363 l -1.51515,-0.8726 -1.15441,-2.254 -0.5772,-4.3626 -0.0721,-3.1265 1.94806,-3.5629 1.08226,-1.3816 z"
       id="path4018"
       inkscape:connector-curvature="0" />
    <path
       style="fill:#472514;fill-opacity:1;stroke:none"
       d="m 48.280966,895.222 -1.370855,7.85275 -1.298706,7.85275 0,6.7621 1.226554,4.21721 2.669562,3.92638 2.52526,1.96319 1.154404,-1.09067 1.659456,-3.34468 1.659458,-4.14451 0.865802,-2.90842 -0.793653,-3.19927 -1.154404,-3.12656 -1.370855,-2.61759 -1.515157,-0.21812 -1.515155,1.30879 -1.010104,2.54486 -0.07215,2.03591 0.937954,3.70824 0.360752,0.43627 0.144301,-3.3447 -0.144301,-2.18132 1.010103,-1.16337 0.505053,-0.21812 1.010103,1.52691 c 0,0 0.649353,1.59963 0.721503,1.96319 0.07215,0.36356 0,3.34469 -0.1443,3.70825 -0.1443,0.36355 -1.082254,2.763 -1.298706,3.34468 -0.216451,0.58169 -1.875908,3.05385 -1.875908,3.05385 0,0 -2.308808,-2.76299 -2.525258,-3.05385 -0.216452,-0.29083 -1.515157,-2.98113 -1.587306,-3.34468 -0.07215,-0.36356 -0.865804,-6.1077 -0.865804,-6.1077 l 1.515156,-9.23425 z"
       id="path4020"
       inkscape:connector-curvature="0" />
    <path
       style="fill:#472514;fill-opacity:1;stroke:none"
       d="m 143.87581,941.28473 1.53053,-0.51414 0.91833,-1.64526 -0.91833,-0.92545 -1.73461,-0.30849 c 0,0 -1.02036,0.10284 -1.02036,0.51414 0,0.41132 0,1.33677 0,1.33677 z"
       id="path4022"
       inkscape:connector-curvature="0" />
    <path
       style="fill:#472514;fill-opacity:1;stroke:none"
       d="m 107.87709,934.48577 0,-2.47216 0.43292,-3.56283 0.93795,-1.59964 1.01011,-2.18132 -0.0721,-2.25402 -0.86582,-1.59965 1.29871,-0.94523 -0.36074,-0.36356 -1.01011,0.50898 -0.50505,0.6544 0.21644,1.09066 0.14431,1.67234 -0.14431,1.45421 -0.8658,1.16337 -1.51515,-0.29084 -0.50506,-0.94523 -0.2886,-1.81777 0.2886,-0.79982 -0.69537,-1.3926 1.92193,0.15652 -1.44301,-1.30879 -0.5772,-1.01795 0.7215,-1.38151 c 0,0 -0.8658,-0.65439 -1.1544,-0.36355 -0.2886,0.29085 -0.64936,1.3815 -0.64936,1.67235 0,0.29083 0,0.94523 0,1.45421 0,0.50898 0.0721,1.89047 0.0721,1.89047 l 0.43291,1.59965 -0.28861,0.94523 c 0,0 -0.0292,1.06763 -0.0721,1.59963 -0.0334,0.4135 -0.37558,0.89287 -0.14431,1.23608 0.4195,0.62255 2.16451,0.5817 2.16451,0.5817 0,0 0.43291,0.7998 0.43291,1.16337 0,0.36355 0.21645,1.09065 -0.0721,2.03589 -0.28861,0.94525 -0.86581,2.83572 -0.93796,3.12655 -0.0721,0.29086 2.09235,0.29086 2.09235,0.29086 z"
       id="path4024"
       inkscape:connector-curvature="0"
       sodipodi:nodetypes="ccccccccccccccccccccccccssscccsscsssc" />
    <path
       style="fill:#472514;fill-opacity:1;stroke:none"
       d="m 55.669389,1027.2066 0.204072,-4.0102 -0.510181,-8.5348 -0.102031,-4.216 -1.530538,-4.5244 1.020358,-4.9358 2.244788,-3.18764 0.408146,4.52454 c 0,0 -0.612216,3.3933 -0.714253,4.2158 -0.102032,0.8227 -0.408142,2.982 0,3.9075 0.408145,0.9255 1.224433,2.6736 1.632576,3.8047 0.408143,1.1312 -1.530539,3.2905 -1.530539,3.2905 0,0 0.102032,3.7019 0.20407,4.1131 0.102043,0.4114 1.020362,4.5245 1.020362,4.5245 l -0.102032,6.0668 -0.816288,1.234 c 0,0 -0.816288,-0.8227 -0.816288,-1.234 0,-0.4112 0.612214,-0.9254 0.612214,-1.4395 0,-0.5142 -1.22443,-3.5991 -1.22443,-3.5991 z"
       id="path4028"
       inkscape:connector-curvature="0" />
  </g>
</svg>
