<?xml version="1.0" encoding="UTF-8" standalone="no"?>
<!-- Created with Inkscape (http://www.inkscape.org/) -->

<svg
   xmlns:dc="http://purl.org/dc/elements/1.1/"
   xmlns:cc="http://creativecommons.org/ns#"
   xmlns:rdf="http://www.w3.org/1999/02/22-rdf-syntax-ns#"
   xmlns:svg="http://www.w3.org/2000/svg"
   xmlns="http://www.w3.org/2000/svg"
   xmlns:sodipodi="http://sodipodi.sourceforge.net/DTD/sodipodi-0.dtd"
   xmlns:inkscape="http://www.inkscape.org/namespaces/inkscape"
   width="175"
   height="175"
   id="svg2"
   inkscape:label="Pozadí"
   version="1.1"
   inkscape:version="0.48.5 r10040"
   sodipodi:docname="beruška.svg">
  <defs
     id="defs3">
    <filter
       color-interpolation-filters="sRGB"
       height="3.8626506"
       y="-1.4313253"
       width="3.066087"
       x="-1.0330435"
       id="filter4018"
       inkscape:collect="always">
      <feGaussianBlur
         id="feGaussianBlur4020"
         stdDeviation="100.0051"
         inkscape:collect="always" />
    </filter>
    <inkscape:path-effect
       fuse_tolerance="0"
       vertical_pattern="false"
       prop_units="false"
       tang_offset="0"
       normal_offset="0"
       spacing="0"
       scale_y_rel="false"
       prop_scale="1"
       copytype="single_stretched"
       pattern="M 0,0 0,10 10,5 z"
       is_visible="true"
       id="path-effect3162"
       effect="skeletal" />
    <inkscape:path-effect
       fuse_tolerance="0"
       vertical_pattern="false"
       prop_units="false"
       tang_offset="0"
       normal_offset="0"
       spacing="0"
       scale_y_rel="false"
       prop_scale="1"
       copytype="single_stretched"
       pattern="m -44.446712,76.771593 0,10 10,-5 z"
       is_visible="true"
       id="path-effect3170"
       effect="skeletal" />
    <inkscape:path-effect
       fuse_tolerance="0"
       vertical_pattern="false"
       prop_units="false"
       tang_offset="0"
       normal_offset="0"
       spacing="0"
       scale_y_rel="false"
       prop_scale="1"
       copytype="single_stretched"
       pattern="M 0,0 0,10 10,5 z"
       is_visible="true"
       id="path-effect3174"
       effect="skeletal" />
    <inkscape:path-effect
       fuse_tolerance="0"
       vertical_pattern="false"
       prop_units="false"
       tang_offset="0"
       normal_offset="0"
       spacing="0"
       scale_y_rel="false"
       prop_scale="1"
       copytype="single_stretched"
       pattern="m 0,26.263966 0,10 10,-5 z"
       is_visible="true"
       id="path-effect3178"
       effect="skeletal" />
    <inkscape:path-effect
       fuse_tolerance="0"
       vertical_pattern="false"
       prop_units="false"
       tang_offset="0"
       normal_offset="0"
       spacing="0"
       scale_y_rel="false"
       prop_scale="1"
       copytype="single_stretched"
       pattern="m -109.09648,153.54319 0,10 10.000006,-5 z"
       is_visible="true"
       id="path-effect3182"
       effect="skeletal" />
    <inkscape:path-effect
       fuse_tolerance="0"
       vertical_pattern="false"
       prop_units="false"
       tang_offset="0"
       normal_offset="0"
       spacing="0"
       scale_y_rel="false"
       prop_scale="1"
       copytype="single_stretched"
       pattern="M 0,0 0,10 10,5 z"
       is_visible="true"
       id="path-effect3186"
       effect="skeletal" />
  </defs>
  <sodipodi:namedview
     id="base"
     pagecolor="#ffffff"
     bordercolor="#666666"
     borderopacity="1.0"
     inkscape:pageopacity="0.0"
     inkscape:pageshadow="2"
     inkscape:zoom="4.4"
     inkscape:cx="87.5"
     inkscape:cy="87.5"
     inkscape:document-units="px"
     inkscape:current-layer="layer1"
     showgrid="false"
     inkscape:snap-grids="false"
     inkscape:window-width="1680"
     inkscape:window-height="987"
     inkscape:window-x="-8"
     inkscape:window-y="-8"
     inkscape:window-maximized="1" />
  <metadata
     id="metadata6">
    <rdf:RDF>
      <cc:Work
         rdf:about="">
        <dc:format>image/svg+xml</dc:format>
        <dc:type
           rdf:resource="http://purl.org/dc/dcmitype/StillImage" />
        <dc:title />
      </cc:Work>
    </rdf:RDF>
  </metadata>
  <g
     inkscape:label="Vrstva 1"
     inkscape:groupmode="layer"
     id="layer1"
     transform="translate(0,-877.36218)">
    <path
       style="fill:#000000;fill-opacity:1;stroke:#000000;stroke-width:1.01015258;stroke-opacity:0.93777777"
       d=""
       id="path3086"
       inkscape:connector-curvature="0" />
    <path
       style="fill:#000000;fill-opacity:1;stroke:#000000;stroke-width:0.12626907;stroke-opacity:0.93777777"
       d=""
       id="path3088"
       inkscape:connector-curvature="0" />
    <path
       style="fill:#000000;fill-opacity:1;stroke:#000000;stroke-width:0.12626907;stroke-opacity:0.93777777"
       d=""
       id="path3094"
       inkscape:connector-curvature="0" />
    <path
       style="fill:#000000;fill-opacity:1;stroke:#000000;stroke-width:0.12626907;stroke-opacity:0.93777777"
       d=""
       id="path3096"
       inkscape:connector-curvature="0" />
    <path
       style="fill:#000000;fill-opacity:1;stroke:#000000;stroke-width:0.12626907;stroke-opacity:0.93777777"
       d=""
       id="path3102"
       inkscape:connector-curvature="0" />
    <path
       style="fill:#b80924;fill-opacity:1;stroke:#000000;stroke-width:0.20692106;stroke-opacity:0.93777777"
       d="m 98.060332,891.13966 c -39.229183,0 -71.411986,25.80446 -74.588726,58.64384 7.360305,-4.63452 15.753055,-7.26062 24.655506,-7.26062 29.196914,0 52.864888,28.22201 52.864888,63.03622 0,4.6499 -0.96961,8.6398 -1.770893,13.0035 40.546883,-0.7753 73.681053,-28.57951 73.681053,-63.4325 0,-35.3403 -33.50728,-63.99044 -74.841828,-63.99044 z"
       id="path3070"
       inkscape:connector-curvature="0"
       sodipodi:nodetypes="scsscss" />
    <path
       inkscape:connector-curvature="0"
       style="fill:none;stroke:#000000;stroke-width:0.20692106;stroke-opacity:0.93777777"
       d="m 24.386536,958.75962 c 3.984072,29.65456 31.681342,53.14388 66.468636,56.25868"
       id="path3019" />
    <path
       sodipodi:type="arc"
       style="fill:#000000;fill-opacity:1;stroke:#000000;stroke-opacity:0.93777777"
       id="path3060"
       sodipodi:cx="653.56873"
       sodipodi:cy="317.98129"
       sodipodi:rx="47.477169"
       sodipodi:ry="43.436558"
       d="m 701.04589,317.98129 a 47.477169,43.436558 0 1 1 -94.95433,0 47.477169,43.436558 0 1 1 94.95433,0 z"
       transform="matrix(0.18324165,0.05058627,-0.0479826,0.1738103,4.3651127,833.022)" />
    <path
       sodipodi:type="arc"
       style="fill:#000000;fill-opacity:1;stroke:#000000;stroke-opacity:0.93777777"
       id="path3062"
       sodipodi:cx="423.25391"
       sodipodi:cy="201.81374"
       sodipodi:rx="57.578693"
       sodipodi:ry="34.345188"
       d="m 480.8326,201.81374 a 57.578693,34.345188 0 1 1 -115.15739,0 57.578693,34.345188 0 1 1 115.15739,0 z"
       transform="matrix(0.16355662,-0.04145702,0.04145702,0.16355662,2.0084196,883.74347)" />
    <path
       sodipodi:type="arc"
       style="fill:#000000;fill-opacity:1;stroke:#000000;stroke-opacity:0.93777777"
       id="path3064"
       sodipodi:cx="947.52307"
       sodipodi:cy="392.73257"
       sodipodi:rx="28.284271"
       sodipodi:ry="29.294424"
       d="m 975.80734,392.73257 a 28.284271,29.294424 0 1 1 -56.56854,0 28.284271,29.294424 0 1 1 56.56854,0 z"
       transform="matrix(-0.11374186,-0.08521246,-0.07621216,-0.30901143,302.01465,1135.5631)" />
    <path
       style="fill:#000000;fill-opacity:1;stroke:#000000;stroke-width:0.1865963;stroke-opacity:0.93777777"
       d="m 48.129226,941.84113 c -8.869913,0 -17.235508,2.60493 -24.576414,7.20788 -21.5974899,19.22847 -28.3753044,47.93304 -14.6530611,68.44049 15.6056841,23.3227 51.8174381,27.2095 80.8844321,8.6791 2.306635,-1.4703 4.501356,-3.0358 6.575151,-4.6873 0.289174,-0.2694 0.570856,-0.5463 0.848906,-0.8278 0.996267,-1.0096 1.903582,-2.0717 2.720744,-3.185 0.692636,-4.0695 1.065126,-8.2784 1.065126,-12.5914 0,-34.81399 -23.667982,-63.03597 -52.864884,-63.03597 z"
       id="path3075"
       inkscape:connector-curvature="0" />
    <path
       sodipodi:type="arc"
       style="fill:#ffffff;fill-opacity:1;stroke:#000000;stroke-opacity:0.93777777"
       id="path3056"
       sodipodi:cx="57.578693"
       sodipodi:cy="604.86462"
       sodipodi:rx="25.253813"
       sodipodi:ry="19.192898"
       d="m 82.832506,604.86462 a 25.253813,19.192898 0 1 1 -50.507625,0 25.253813,19.192898 0 1 1 50.507625,0 z"
       transform="matrix(-0.1676676,0.28042492,-0.35093743,0.0123487,246.00736,942.69138)" />
    <path
       style="fill:none;stroke:#000000;stroke-width:0.16872893px;stroke-linecap:butt;stroke-linejoin:miter;stroke-opacity:1"
       d="m 54.205141,942.6673 c 18.360672,-30.07926 35.825993,-40.5281 66.813239,-48.57596 l 3.74973,1.1931 c -34.246995,6.06569 -50.791778,22.22134 -68.688108,48.40552 z"
       id="path3080"
       inkscape:connector-curvature="0"
       sodipodi:nodetypes="ccccc" />
    <path
       style="fill:#000000;fill-opacity:1;stroke:#000000;stroke-width:0.17044194;stroke-opacity:0.93777777"
       d="m 55.247476,942.27289 c -0.2578,-0.0389 -0.468713,-0.10027 -0.468713,-0.13583 0,-0.0355 0.776407,-1.27693 1.725341,-2.75837 12.952724,-20.22129 26.283027,-31.66094 45.572316,-39.10876 5.02173,-1.93895 10.85644,-3.82829 16.44763,-5.32593 l 2.30096,-0.61633 1.57987,0.47842 1.57986,0.47842 -2.0912,0.39409 c -5.14702,0.96998 -12.48982,3.06001 -17.42559,4.95994 -17.696807,6.81205 -30.635946,17.77997 -45.39015,38.47516 -2.543662,3.56792 -2.32464,3.38727 -3.830324,3.15919 z"
       id="path3082"
       inkscape:connector-curvature="0" />
    <path
       style="fill:#000000;fill-opacity:1;stroke:#000000;stroke-width:0.02130522;stroke-opacity:0.93777777"
       d="m 56.68353,942.50917 c -0.02926,-0.009 -0.137724,-0.018 -0.240951,-0.0192 -0.119192,-10e-4 -0.182867,-0.009 -0.174503,-0.0233 0.007,-0.0117 0.03421,-0.0214 0.05981,-0.0218 0.07287,-8.4e-4 0.281242,-0.0936 0.412494,-0.18385 0.06554,-0.045 0.22344,-0.19097 0.350765,-0.32421 0.127326,-0.13325 0.231504,-0.23614 0.231504,-0.22863 0,0.0234 -0.557066,0.82254 -0.57186,0.82028 -0.0081,-9.9e-4 -0.03796,-0.009 -0.06732,-0.0191 z"
       id="path3090"
       inkscape:connector-curvature="0" />
    <path
       style="fill:#000000;fill-opacity:1;stroke:#000000;stroke-width:0.02130522;stroke-opacity:0.93777777"
       d="m 44.92303,947.71831 c 0,-4.59607 0.0059,-5.76314 0.02665,-5.76339 0.0147,-1.7e-4 0.251937,-0.0139 0.527303,-0.0308 1.410764,-0.0855 3.426582,-0.0955 4.846934,-0.0235 0.339829,0.0172 0.833573,0.0414 1.097225,0.054 0.973529,0.0461 1.241539,0.067 2.055249,0.16159 0.457391,0.0528 0.848285,0.10125 0.86866,0.10777 0.02796,0.008 0.06074,-0.0269 0.134104,-0.14465 1.876922,-3.01332 2.844797,-4.51116 4.23426,-6.55273 l 0.511132,-0.75102 0.08235,0 c 0.04533,0 0.08235,0.004 0.08235,0.011 0,0.006 -0.175711,0.2668 -0.390471,0.58058 -1.123225,1.64111 -2.474334,3.71131 -3.63993,5.57722 -0.651537,1.04297 -0.806079,1.29588 -0.797264,1.30471 0.01177,0.0117 0.60355,0.15125 0.705752,0.16656 0.05535,0.008 0.09565,0.004 0.104207,-0.009 0.01505,-0.0241 0.01471,-0.0242 -0.264611,-0.0777 -0.17622,-0.0337 -0.234864,-0.0525 -0.164072,-0.0525 0.05945,0 0.01646,-0.0599 -0.06132,-0.0855 -0.09647,-0.0318 -0.104794,-0.0514 -0.05606,-0.13303 0.41452,-0.69194 1.423134,-2.30207 2.131755,-3.40312 0.487435,-0.75738 1.909773,-2.89447 2.336248,-3.51027 l 0.254673,-0.36772 1.487377,6.7e-4 c 1.168216,5.1e-4 1.484098,0.006 1.47209,0.0269 -0.0081,0.0143 -0.328561,0.44795 -0.711451,0.96354 -0.930135,1.25246 -2.124169,2.90611 -3.176718,4.39952 -0.736747,1.04534 -1.635334,2.33522 -1.687847,2.42284 -0.03421,0.057 0.390967,0.19297 0.977571,0.31245 1.111945,0.22641 2.905146,0.71551 4.547943,1.24044 0.766712,0.24501 0.977651,0.3221 1.52332,0.55678 0.257799,0.11092 0.636496,0.26862 0.841561,0.35057 4.65777,1.86131 8.621021,4.17169 12.580745,7.334 0.333355,0.26624 1.205702,0.98066 1.319855,1.08092 0.0105,0.009 -7.589247,0.0177 -16.889734,0.0177 l -16.909971,0 0,-5.76306 z m 12.284323,-5.78971 c 0.625887,-0.90809 2.209015,-3.14941 2.939669,-4.16182 0.339051,-0.46981 0.6803,-0.94439 0.758324,-1.05462 0.07802,-0.11022 0.352809,-0.48324 0.610632,-0.82892 0.680596,-0.91247 0.730112,-0.98004 0.718409,-0.98004 -0.02301,0 -1.708177,2.27485 -4.119119,5.56067 -0.735798,1.00279 -0.924622,1.24171 -1.188215,1.50334 -0.31635,0.314 -0.50835,0.399 -0.907528,0.40175 -0.2566,10e-4 -0.33916,0.0205 -0.195713,0.0446 0.123954,0.0207 0.133249,0.0279 0.03948,0.0305 -0.06877,0.002 -0.07802,0.007 -0.04794,0.024 0.02056,0.0119 0.178721,0.0305 0.351542,0.0412 0.172821,0.011 0.34777,0.0283 0.388791,0.0393 0.041,0.011 0.10444,0.0206 0.141014,0.0217 0.0638,0.002 0.08447,-0.0239 0.510641,-0.64231 l 0,0 z m 5.079451,-7.07868 c 0.01458,-0.0176 0.02173,-0.0318 0.01588,-0.0318 -0.0059,0 -0.02255,0.0143 -0.03714,0.0318 -0.01458,0.0176 -0.02173,0.0318 -0.01588,0.0318 0.0059,0 0.02255,-0.0143 0.03713,-0.0318 z"
       id="path3092"
       inkscape:connector-curvature="0" />
    <path
       style="fill:#000000;fill-opacity:1;stroke:#000000;stroke-width:0.02130522;stroke-opacity:0.93777777"
       d="m 55.980456,942.4715 c 0.0465,-0.009 0.03995,-0.0153 -0.05324,-0.0485 l -0.106562,-0.038 0.203254,-9.9e-4 c 0.403809,-0.003 0.568286,-0.0807 0.928055,-0.43814 0.300771,-0.29862 0.43209,-0.46647 1.497187,-1.91364 0.437929,-0.59504 0.800941,-1.07717 0.806699,-1.07143 0.0059,0.006 -0.04841,0.0946 -0.120324,0.19799 -0.64042,0.91843 -0.757334,1.08328 -0.772657,1.08949 -0.0094,0.003 -0.01752,0.0206 -0.01752,0.0371 0,0.0165 -0.0081,0.0301 -0.01845,0.0301 -0.0222,0 -0.141979,0.17436 -0.135338,0.19709 0.0023,0.008 -0.0036,0.0159 -0.01483,0.0159 -0.0105,0 -0.094,0.10325 -0.185168,0.22902 -0.297952,0.41176 -0.54607,0.73716 -0.699398,0.91728 -0.08283,0.0971 -0.17274,0.20757 -0.19979,0.24502 -0.06461,0.0896 -0.179894,0.20829 -0.191126,0.19706 -0.0105,-0.011 -0.246285,0.17748 -0.25685,0.20452 -0.0036,0.011 -0.01588,0.0129 -0.02665,0.006 -0.0105,-0.007 -0.01951,-10e-4 -0.01951,0.0117 0,0.0132 -0.0094,0.0178 -0.02127,0.011 -0.01177,-0.007 -0.02126,-0.002 -0.02126,0.011 0,0.013 -0.0094,0.0178 -0.02127,0.011 -0.01177,-0.007 -0.02126,-0.003 -0.02126,0.008 0,0.0119 -0.01599,0.0157 -0.0355,0.008 -0.02525,-0.009 -0.03055,-0.006 -0.01869,0.0136 0.01259,0.0203 0.0047,0.0233 -0.03116,0.0119 -0.0335,-0.011 -0.04335,-0.008 -0.0328,0.009 0.0105,0.0172 -0.0023,0.0204 -0.04522,0.0117 -0.05769,-0.0123 -0.05852,-0.0117 -0.01903,0.0204 0.04054,0.0327 0.04042,0.0332 -0.0059,0.0332 -0.02571,0 -0.04663,-0.009 -0.04663,-0.0212 0,-0.0119 -0.05336,-0.0201 -0.122509,-0.0188 -0.100803,0.002 -0.111157,0.006 -0.05863,0.0188 0.05183,0.0131 0.04182,0.0162 -0.05324,0.0158 -0.06437,-1.7e-4 -0.09319,-0.004 -0.06391,-0.011 z"
       id="path3098"
       inkscape:connector-curvature="0" />
    <path
       style="fill:#000000;fill-opacity:1;stroke:#000000;stroke-width:0.02130522;stroke-opacity:0.93777777"
       d="m 56.327112,942.34717 c 0.007,-0.007 0.02548,-0.008 0.04089,-9.9e-4 0.01705,0.007 0.01201,0.0118 -0.01294,0.0129 -0.02243,8.4e-4 -0.03503,-0.003 -0.02794,-0.0117 z"
       id="path3100"
       inkscape:connector-curvature="0" />
    <path
       style="fill:#000000;fill-opacity:1;stroke:#000000;stroke-width:0.02130522;stroke-opacity:0.93777777"
       d="m 57.322683,941.68078 c 0,-0.0117 0.0094,-0.0272 0.02126,-0.0342 0.01177,-0.007 0.02127,-0.003 0.02127,0.008 0,0.0117 -0.0094,0.0272 -0.02127,0.0342 -0.01177,0.007 -0.02126,0.003 -0.02126,-0.008 z"
       id="path3104"
       inkscape:connector-curvature="0" />
    <path
       sodipodi:type="arc"
       style="fill:#000000;fill-opacity:1;stroke:#000000;stroke-opacity:0.93777777"
       id="path3060-7"
       sodipodi:cx="653.56873"
       sodipodi:cy="317.98129"
       sodipodi:rx="47.477169"
       sodipodi:ry="43.436558"
       d="m 701.04589,317.98129 a 47.477169,43.436558 0 1 1 -94.95433,0 47.477169,43.436558 0 1 1 94.95433,0 z"
       transform="matrix(0.16167821,-0.12858695,0.09192016,0.20348864,11.24003,992.05099)" />
    <path
       sodipodi:type="arc"
       style="fill:#ffffff;fill-opacity:1;stroke:#000000;stroke-opacity:0.93777777"
       id="path3056-4"
       sodipodi:cx="57.578693"
       sodipodi:cy="604.86462"
       sodipodi:rx="25.253813"
       sodipodi:ry="19.192898"
       d="m 82.832506,604.86462 a 25.253813,19.192898 0 1 1 -50.507625,0 25.253813,19.192898 0 1 1 50.507625,0 z"
       transform="matrix(0.0702112,-0.3291537,0.41424835,-0.13751437,-189.71932,1087.8896)" />
    <path
       sodipodi:type="arc"
       style="fill:#ffffff;fill-opacity:1;stroke:#000000;stroke-opacity:0.93777777;filter:url(#filter4018)"
       id="path3188"
       sodipodi:cx="667.71082"
       sodipodi:cy="497.78842"
       sodipodi:rx="116.16754"
       sodipodi:ry="83.842659"
       d="m 783.87836,497.78842 a 116.16754,83.842659 0 1 1 -232.33509,0 116.16754,83.842659 0 1 1 232.33509,0 z"
       transform="matrix(0.16872892,0,0,0.16872892,22.843816,854.92626)" />
  </g>
</svg>
