<?xml version="1.0" encoding="UTF-8" standalone="no"?>
<!-- Created with Inkscape (http://www.inkscape.org/) -->

<svg
   xmlns:dc="http://purl.org/dc/elements/1.1/"
   xmlns:cc="http://creativecommons.org/ns#"
   xmlns:rdf="http://www.w3.org/1999/02/22-rdf-syntax-ns#"
   xmlns:svg="http://www.w3.org/2000/svg"
   xmlns="http://www.w3.org/2000/svg"
   xmlns:xlink="http://www.w3.org/1999/xlink"
   xmlns:sodipodi="http://sodipodi.sourceforge.net/DTD/sodipodi-0.dtd"
   xmlns:inkscape="http://www.inkscape.org/namespaces/inkscape"
   width="175"
   height="175"
   id="svg2"
   inkscape:label="Pozadí"
   version="1.1"
   inkscape:version="0.48.5 r10040"
   sodipodi:docname="HSH.svg">
  <defs
     id="defs3">
    <linearGradient
       inkscape:collect="always"
       id="linearGradient5463">
      <stop
         style="stop-color:#8782ff;stop-opacity:1;"
         offset="0"
         id="stop5465" />
      <stop
         style="stop-color:#8782ff;stop-opacity:0;"
         offset="1"
         id="stop5467" />
    </linearGradient>
    <linearGradient
       id="linearGradient5439">
      <stop
         style="stop-color:#8782ff;stop-opacity:1;"
         offset="0"
         id="stop5441" />
      <stop
         id="stop5459"
         offset="0.0078125"
         style="stop-color:#8782ff;stop-opacity:0.99215686;" />
      <stop
         id="stop5457"
         offset="0.015625"
         style="stop-color:#8782ff;stop-opacity:0.98431373;" />
      <stop
         id="stop5455"
         offset="0.03125"
         style="stop-color:#8782ff;stop-opacity:0.96862745;" />
      <stop
         id="stop5453"
         offset="0.0625"
         style="stop-color:#8782ff;stop-opacity:0.9372549;" />
      <stop
         id="stop5451"
         offset="0.125"
         style="stop-color:#8782ff;stop-opacity:0.8745098;" />
      <stop
         id="stop5449"
         offset="0.25"
         style="stop-color:#8782ff;stop-opacity:0.74901961;" />
      <stop
         id="stop5447"
         offset="0.5"
         style="stop-color:#8782ff;stop-opacity:0.49803922;" />
      <stop
         style="stop-color:#8782ff;stop-opacity:0;"
         offset="1"
         id="stop5443" />
    </linearGradient>
    <inkscape:path-effect
       effect="spiro"
       id="path-effect5437"
       is_visible="true" />
    <inkscape:path-effect
       effect="spiro"
       id="path-effect5433"
       is_visible="true" />
    <inkscape:path-effect
       effect="spiro"
       id="path-effect5429"
       is_visible="true" />
    <inkscape:path-effect
       effect="spiro"
       id="path-effect5425"
       is_visible="true" />
    <inkscape:path-effect
       effect="spiro"
       id="path-effect5265"
       is_visible="true" />
    <linearGradient
       inkscape:collect="always"
       xlink:href="#linearGradient5463"
       id="linearGradient3329"
       gradientUnits="userSpaceOnUse"
       gradientTransform="matrix(0.99965106,-0.02641485,0.02641485,0.99965106,50.087044,4271.1015)"
       x1="1211.6786"
       y1="2164.9436"
       x2="3822.0378"
       y2="2164.9436" />
    <linearGradient
       inkscape:collect="always"
       xlink:href="#linearGradient5463"
       id="linearGradient3331"
       gradientUnits="userSpaceOnUse"
       gradientTransform="matrix(0.99965106,-0.02641485,0.02641485,0.99965106,50.087044,4271.1015)"
       x1="1145.3875"
       y1="2332.2915"
       x2="3782.2629"
       y2="2332.2915" />
    <linearGradient
       inkscape:collect="always"
       xlink:href="#linearGradient5463"
       id="linearGradient3333"
       gradientUnits="userSpaceOnUse"
       gradientTransform="matrix(0.99965106,-0.02641485,0.02641485,0.99965106,50.087044,4271.1015)"
       x1="818.93103"
       y1="2944.9709"
       x2="3640.261"
       y2="2944.9709" />
  </defs>
  <sodipodi:namedview
     id="base"
     pagecolor="#ffffff"
     bordercolor="#666666"
     borderopacity="1.0"
     inkscape:pageopacity="0.0"
     inkscape:pageshadow="2"
     inkscape:zoom="2.8284271"
     inkscape:cx="215.48191"
     inkscape:cy="129.34493"
     inkscape:document-units="px"
     inkscape:current-layer="layer2"
     showgrid="false"
     showguides="true"
     inkscape:guide-bbox="true"
     inkscape:window-width="1366"
     inkscape:window-height="706"
     inkscape:window-x="-8"
     inkscape:window-y="-8"
     inkscape:window-maximized="1"
     fit-margin-top="0"
     fit-margin-left="0"
     fit-margin-right="0"
     fit-margin-bottom="0" />
  <metadata
     id="metadata6">
    <rdf:RDF>
      <cc:Work
         rdf:about="">
        <dc:format>image/svg+xml</dc:format>
        <dc:type
           rdf:resource="http://purl.org/dc/dcmitype/StillImage" />
        <dc:title />
      </cc:Work>
    </rdf:RDF>
  </metadata>
  <g
     inkscape:label="Vrstva 1"
     inkscape:groupmode="layer"
     id="layer1"
     transform="translate(-53.085305,-255.5374)"
     style="display:inline" />
  <g
     inkscape:groupmode="layer"
     id="layer2"
     inkscape:label="Malba"
     transform="translate(-53.085305,-4203.1752)">
    <text
       xml:space="preserve"
       style="font-size:81.59817505px;font-style:normal;font-weight:normal;line-height:125%;letter-spacing:0px;word-spacing:0px;fill:#ffffff;fill-opacity:1;stroke:none;font-family:Sans;-inkscape-font-specification:Sans"
       x="4949.3359"
       y="2302.9165"
       id="text5503"
       sodipodi:linespacing="125%"
       transform="matrix(0.98492811,0.21187144,-0.2153595,0.96897577,0,0)"><tspan
         sodipodi:role="line"
         id="tspan5505"
         x="4949.3359"
         y="2302.9165"
         style="font-weight:bold;-inkscape-font-specification:Sans Bold" /></text>
    <g
       id="g3181"
       transform="matrix(0.99965106,0.02641485,-0.02641485,0.99965106,115.83619,-67.759137)">
      <path
         inkscape:connector-curvature="0"
         id="path4262"
         d="m 53.109947,398.82473 -0.253073,-3.52985 0.303689,-4.33668 0.911065,-5.04266 1.973975,-5.44606 3.18873,-5.74862 5.112093,-6.60587 6.579918,-5.49651 7.288525,-4.63922 2.176435,-0.95811 8.70574,0.45384 2.885043,-0.70598 2.024587,-0.85724 47.071726,9.02634 34.6205,7.11015 22.11865,4.48795 3.94796,4.33668 13.05861,4.68967 c 0,0 2.32828,3.782 2.32828,3.9837 0,0.2017 3.08749,5.8999 3.08749,6.30331 0,0.40342 1.46782,5.19394 1.46782,5.19394 l 0.91108,5.8999 0.0507,6.05118 -1.41722,8.82464 -1.72089,2.67262 -1.72091,4.28624 -4.50471,6.4546 -4.55533,4.23583 -2.83443,-0.10083 -14.62766,-1.96664 -6.27623,3.83242 -44.69284,-11.34597 -58.004514,-15.53137 -14.577051,-4.43754 -2.834426,-6.75714 z"
         style="fill:#111619;fill-opacity:1;stroke:none;display:inline"
         transform="translate(0,3947.6378)" />
      <path
         inkscape:connector-curvature="0"
         id="path4222"
         d="m 194.62882,436.93459 -1.41721,0.9581 c 0,0 -0.92372,-0.11345 -1.01229,-0.0756 -0.0885,0.0378 -1.11353,0.769 -1.11353,0.769 l -1.56906,9.25327 c 0,0 0.44013,1.61814 0.5475,1.76078 0.10737,0.14263 2.8274,2.17506 2.8274,2.17506 0,0 7.51593,2.10377 7.65909,2.17508 0.14315,0.0713 4.04427,0.92708 4.04427,0.92708 l 2.86319,-0.57052 1.86108,1.42628 10.59386,2.99519 1.86109,0.14263 0.85896,-0.42788 5.22424,1.77601 -0.0759,-4.10976 -3.84672,-1.38673 -0.1012,-1.68929 -14.57705,-6.6563 -0.0507,-1.41195 -8.14897,-4.56359 -1.11353,-2.47089 -1.67028,-0.70598 -2.60667,-0.45384 z"
         style="fill:#1b222a;fill-opacity:1;stroke:none;display:inline"
         transform="translate(0,3947.6378)" />
      <path
         sodipodi:nodetypes="ccscccccsc"
         inkscape:connector-curvature="0"
         id="path4220"
         d="m 194.44553,436.91612 c -0.0856,-0.21851 -0.31108,-0.48161 0.0821,-0.70012 -0.29052,-0.0621 0.48517,-0.40788 0.96167,-0.32777 0.0998,0.0168 1.39191,0 1.39191,0 l 1.54375,0.30257 c 0.58737,0.14062 1.05841,0.35368 1.26537,0.73118 l -0.13242,0.80223 -1.46195,-0.47446 c 0,0 -1.67028,-0.30256 -1.77152,-0.30256 -0.10119,0 -1.87888,-0.031 -1.87888,-0.031 z"
         style="fill:#96aeae;fill-opacity:1;stroke:none;display:inline"
         transform="translate(0,3947.6378)" />
      <path
         sodipodi:nodetypes="cssscssssccscscccccssc"
         inkscape:connector-curvature="0"
         id="path4216"
         d="m 67.585769,368.31668 c 0,0 0.760028,-1.06146 1.265369,-1.46236 0.537254,-0.42623 1.210039,-0.64779 1.822133,-0.9581 0.85406,-0.43298 1.661878,-0.99176 2.581353,-1.26067 1.548183,-0.45277 4.808401,-0.55468 4.808401,-0.55468 0,0 3.792311,0.85045 5.643547,1.68929 0.562397,0.25483 1.143734,0.7387 1.594363,1.15979 0.47277,0.4418 0.904996,0.86991 1.214754,1.43716 0.331455,0.607 0.462812,1.37673 0.480843,2.06749 0.02337,0.8952 -0.338998,2.23634 -0.338998,2.23634 l -0.293688,1.74736 c 0,0 -1.697338,3.10826 -2.770041,4.41053 -0.582303,0.70693 -1.866606,1.49496 -2.119679,1.59582 -0.253073,0.10083 -2.158945,1.21032 -3.562945,1.50719 -1.842612,0.38964 -5.618239,0.60513 -5.618239,0.60513 l -4.83371,-0.83203 -1.493135,-0.85726 -1.214755,-1.41194 -0.632683,-1.7145 c 0,0 -0.41375,-1.56624 -0.278382,-2.34483 0.08195,-0.47137 0.258915,-0.92508 0.455533,-1.36151 0.900593,-1.99911 3.289959,-5.69822 3.289959,-5.69822 z"
         style="fill:#090e11;fill-opacity:1;stroke:none;display:inline"
         transform="translate(0,3947.6378)" />
      <path
         inkscape:connector-curvature="0"
         id="path4212"
         d="m 100.2576,359.59291 0.35431,-0.32779 88.12808,18.05836 -0.26842,0.87359 z"
         style="fill:#020202;fill-opacity:1;stroke:#000000;stroke-width:0.03536439px;stroke-linecap:butt;stroke-linejoin:miter;stroke-opacity:1;display:inline"
         transform="translate(0,3947.6378)" />
      <path
         sodipodi:nodetypes="ccccccc"
         inkscape:connector-curvature="0"
         id="path4214"
         d="m 178.33775,425.00401 0.64317,0.17216 9.97382,-47.53178 -0.21475,-0.33874 -0.39368,0.98057 -9.94963,46.17574 z"
         style="fill:#020202;fill-opacity:1;stroke:#000000;stroke-width:0.03536439px;stroke-linecap:butt;stroke-linejoin:miter;stroke-opacity:1;display:inline"
         transform="translate(0,3947.6378)" />
      <path
         inkscape:connector-curvature="0"
         id="path4208"
         d="m 60.217958,390.76614 c 0,0.0891 0.293472,1.41048 0.536852,2.08594 0.142486,0.39545 0.269563,0.81661 0.536849,1.14102 0.319734,0.38806 0.75898,0.68366 1.216862,0.89143 0.645626,0.29296 1.366909,0.45371 2.075823,0.46353 0.498239,0.007 0.992827,-0.13333 1.467391,-0.28525 0.58686,-0.18786 1.149891,-0.45611 1.682132,-0.76662 0.707073,-0.41251 1.363463,-0.91295 1.986347,-1.44411 0.313941,-0.26771 0.633152,-0.54068 0.876857,-0.8736 0.276525,-0.37776 0.473862,-0.81193 0.64422,-1.24799 0.163727,-0.41908 0.28151,-0.85808 0.357901,-1.30148 0.05564,-0.32296 0.103588,-0.6544 0.07157,-0.98056 -0.03734,-0.38033 -0.134008,-0.76321 -0.304215,-1.10537 -0.113446,-0.22806 -0.284947,-0.42627 -0.46527,-0.60617 -0.159414,-0.15904 -0.313288,-0.38312 -0.536851,-0.41006 -3.665186,-0.44169 -10.146468,4.43929 -10.146468,4.43929 z"
         style="fill:#020202;fill-opacity:1;stroke:none;display:inline"
         transform="translate(0,3947.6378)"
         sodipodi:nodetypes="cssssssssssssssc" />
      <path
         inkscape:connector-curvature="0"
         id="path3874"
         d="m 67.019291,380.6489 0.05061,1.21025 1.278024,0.54208 c 0,0 1.607018,0.35298 1.657633,0.35298 0.05061,0 1.695594,0.21432 1.695594,0.21432 l 1.088218,0 0.771874,-0.13868 -0.101232,-1.10938 -1.682941,-0.0882 -2.50543,-0.45384 -1.973976,-0.5673 -0.189805,-0.0505 z"
         style="fill:#0c1212;fill-opacity:1;stroke:none;display:inline"
         transform="translate(0,3947.6378)" />
      <path
         sodipodi:nodetypes="ccscccc"
         inkscape:connector-curvature="0"
         id="path3876"
         d="m 73.558311,382.77649 1.151486,-1.7145 c 0,0 0.753961,-1.02734 1.001681,-1.6167 0.07447,-0.17716 0.13702,-0.54056 0.13702,-0.54056 l -0.139059,-0.67293 -2.290318,3.48574 z"
         style="fill:#0c1212;fill-opacity:1;stroke:none;display:inline"
         transform="translate(0,3947.6378)" />
      <path
         sodipodi:nodetypes="ccccccc"
         inkscape:connector-curvature="0"
         id="path3872"
         d="m 67.018066,380.63957 1.339056,-2.66561 1.208923,-1.85849 3.930019,-1.53757 2.218982,3.637 -2.218982,3.5657 c -2.276052,0.20108 -4.403314,-0.33902 -6.477998,-1.14103 z"
         style="fill:#14171e;fill-opacity:1;stroke:none;display:inline"
         transform="translate(0,3947.6378)" />
      <path
         sodipodi:nodetypes="cccc"
         inkscape:connector-curvature="0"
         id="path3096"
         d="m 70.275631,378.09077 1.922373,0.41032 -1.396523,0.76503 z"
         style="fill:none;stroke:#ffffff;stroke-width:0.39070678;stroke-linecap:butt;stroke-linejoin:miter;stroke-miterlimit:4;stroke-opacity:1;stroke-dasharray:none;display:inline"
         transform="translate(0,3947.6378)" />
      <path
         inkscape:connector-curvature="0"
         id="path3890"
         d="m 64.726035,373.73755 0.0253,1.03374 5.339858,0.80682 3.416496,-2.21877 0.0253,-0.85725 c 0,0 -2.024591,0.90768 -2.353586,1.10939 -0.328996,0.2017 -2.834427,0.52946 -2.935656,0.47905 -0.101233,-0.0505 -3.517727,-0.35298 -3.517727,-0.35298 z"
         style="fill:#0c1212;fill-opacity:1;stroke:none;display:inline"
         transform="translate(0,3947.6378)" />
      <path
         sodipodi:nodetypes="cccscssc"
         inkscape:connector-curvature="0"
         id="path3888"
         d="m 67.433925,368.3419 4.023874,1.03374 2.151127,3.12645 c 0,0 -3.239344,2.16834 -3.365881,2.19355 -0.126537,0.0252 -5.567625,-0.95809 -5.567625,-0.95809 0,0 0.05356,-1.49142 0.278381,-2.19355 0.244306,-0.76303 0.626821,-1.50049 1.138833,-2.11792 0.366702,-0.44221 1.341291,-1.08418 1.341291,-1.08418 z"
         style="fill:#14171e;fill-opacity:1;stroke:none;display:inline"
         transform="translate(0,3947.6378)" />
      <path
         style="fill:none;stroke:#ffffff;stroke-width:0.39070678;stroke-linecap:butt;stroke-linejoin:miter;stroke-miterlimit:4;stroke-opacity:1;stroke-dasharray:none;display:inline"
         d="m 68.75843,370.53777 -1.0885,1.4312 -0.338646,-1.27735 z"
         id="path3866"
         inkscape:connector-curvature="0"
         sodipodi:nodetypes="cccc"
         transform="translate(0,3947.6378)" />
      <path
         inkscape:connector-curvature="0"
         id="path3884"
         d="m 76.60785,370.68674 0.227767,0.7564 4.35287,-1.14721 2.024573,-3.68736 -0.04474,-1.11427 -2.523198,3.78855 -3.981642,1.28364 z"
         style="fill:#0c1212;fill-opacity:1;stroke:none;display:inline"
         transform="translate(0,3947.6378)" />
      <path
         sodipodi:nodetypes="cccccsc"
         inkscape:connector-curvature="0"
         id="path3878"
         d="m 77.911181,363.85394 c -0.0253,0.10083 -2.378893,3.50465 -2.378893,3.50465 l 1.062909,3.35336 4.302255,-1.26066 2.302972,-3.95849 c 0,0 -1.631984,-1.08052 -2.556046,-1.36151 -0.875888,-0.26635 -2.733197,-0.27735 -2.733197,-0.27735 z"
         style="fill:#14171e;fill-opacity:1;stroke:none;display:inline"
         transform="translate(0,3947.6378)" />
      <path
         sodipodi:nodetypes="cccc"
         inkscape:connector-curvature="0"
         id="path3868"
         d="m 79.730962,367.0423 c -0.699135,-0.13825 -1.396477,-0.28008 -2.072164,-0.46505 l 1.210601,-0.79081 z"
         style="fill:none;stroke:#ffffff;stroke-width:0.39070678;stroke-linecap:butt;stroke-linejoin:miter;stroke-miterlimit:4;stroke-opacity:1;stroke-dasharray:none;display:inline"
         transform="translate(0,3947.6378)" />
      <path
         sodipodi:nodetypes="ccccccccc"
         inkscape:connector-curvature="0"
         id="path3894"
         d="m 86.657854,372.65688 0.331057,1.40399 -0.662118,1.88983 -1.485286,2.05026 -0.930541,0.48137 -4.974816,-0.85576 -0.08948,-1.19451 5.010606,0.87359 z"
         style="fill:#0c1212;fill-opacity:1;stroke:none;display:inline"
         transform="translate(0,3947.6378)" />
      <path
         inkscape:connector-curvature="0"
         id="path3896"
         d="m 78.112979,372.65242 -0.0179,1.60456 0.85896,3.38741 0.07157,-1.1232 z"
         style="fill:#0c1212;fill-opacity:1;stroke:none;display:inline"
         transform="translate(0,3947.6378)" />
      <path
         sodipodi:nodetypes="cccccc"
         inkscape:connector-curvature="0"
         id="path3892"
         d="m 83.909031,377.54475 c 1.736405,-1.08789 2.447185,-2.85697 2.758506,-4.89138 -1.574773,-0.52996 -3.009438,-1.27706 -4.985556,-1.18502 l -3.569745,1.18655 0.760626,3.8561 z"
         style="fill:#14171e;fill-opacity:1;stroke:none;display:inline"
         transform="translate(0,3947.6378)" />
      <path
         style="fill:none;stroke:#ffffff;stroke-width:0.39070678;stroke-linecap:butt;stroke-linejoin:miter;stroke-miterlimit:4;stroke-opacity:1;stroke-dasharray:none;display:inline"
         d="m 81.341667,374.91326 c 0.347361,-0.6201 0.697578,-1.23739 1.082335,-1.82086 l 0.382305,1.39104 z"
         id="path3870"
         inkscape:connector-curvature="0"
         sodipodi:nodetypes="cccc"
         transform="translate(0,3947.6378)" />
      <path
         inkscape:connector-curvature="0"
         id="path3886"
         d="m 75.532288,367.3712 0,0.9833 1.290675,3.08864 -0.151843,-0.83205 z"
         style="fill:#0c1212;fill-opacity:1;stroke:none;display:inline"
         transform="translate(0,3947.6378)" />
      <path
         sodipodi:nodetypes="cccccccccc"
         inkscape:connector-curvature="0"
         id="path3900"
         d="m 194.07706,403.86626 -1.0737,-0.24959 0.0716,0.71314 c 0,0 0.50107,1.10536 0.55475,1.1945 0.0537,0.0891 1.08238,1.59412 1.08238,1.59412 0,0 1.29766,1.36542 1.33346,1.45455 0.0357,0.0891 2.04002,1.46194 2.04002,1.46194 l 0.80528,0.42789 0.26842,-0.92709 z"
         style="fill:#29333e;fill-opacity:1;stroke:none;display:inline"
         transform="translate(0,3947.6378)" />
      <path
         style="fill:#29333e;fill-opacity:1;stroke:none;display:inline"
         d="m 208.02604,411.88748 -0.45628,0.99996 0.71595,0.07 c 0,0 1.18621,-0.27268 1.28448,-0.30763 0.0983,-0.035 1.78129,-0.74473 1.78129,-0.74473 0,0 1.59842,-0.99989 1.69317,-1.01737 0.0948,-0.0175 1.83904,-1.70622 1.83904,-1.70622 l 0.57909,-0.70276 -0.85981,-0.44408 z"
         id="path3902"
         inkscape:connector-curvature="0"
         sodipodi:nodetypes="cccccccccc"
         transform="translate(0,3947.6378)" />
      <path
         sodipodi:nodetypes="cccccccccc"
         inkscape:connector-curvature="0"
         id="path3904"
         d="m 214.59204,401.21913 1.06478,0.285 -0.0478,-0.71512 c 0,0 -0.4639,-1.12134 -0.51459,-1.21222 -0.0507,-0.0909 -1.02862,-1.62907 -1.02862,-1.62907 0,0 -1.25139,-1.40761 -1.28419,-1.49788 -0.0328,-0.0902 -1.99014,-1.52867 -1.99014,-1.52867 l -0.79055,-0.45431 -0.2992,0.91768 z"
         style="fill:#29333e;fill-opacity:1;stroke:none;display:inline"
         transform="translate(0,3947.6378)" />
      <path
         style="fill:#29333e;fill-opacity:1;stroke:none;display:inline"
         d="m 200.92517,393.5294 0.4836,-0.98714 -0.71375,-0.0894 c 0,0 -1.19327,0.2402 -1.29247,0.27247 -0.0992,0.0323 -1.80109,0.69585 -1.80109,0.69585 0,0 -1.62531,0.95588 -1.7205,0.97078 -0.0952,0.0148 -1.88527,1.65538 -1.88527,1.65538 l -0.59819,0.6867 0.84728,0.46737 z"
         id="path3906"
         inkscape:connector-curvature="0"
         sodipodi:nodetypes="cccccccccc"
         transform="translate(0,3947.6378)" />
      <path
         sodipodi:nodetypes="ccccccsccccccccssccscccccccccscc"
         inkscape:connector-curvature="0"
         id="path3898"
         d="m 194.70475,396.10171 1.0376,-1.03374 1.64498,-1.23546 1.87274,-0.73118 1.92337,-0.15128 0.12653,1.1346 c 0,0 1.61967,2.26918 1.64498,2.44569 0.0253,0.17649 3.13811,1.21022 3.13811,1.21022 l 3.01158,-1.1598 1.12728,-1.60709 0.93054,0.80227 c 0,0 0.93054,0.76663 1.02002,0.87361 0.0894,0.10697 1.18106,1.30147 1.25264,1.42626 0.0716,0.12481 1.43161,2.51383 1.43161,2.51383 l 0.21473,0.80227 c 0,0 -1.10949,0.9984 -1.19897,1.05188 -0.0894,0.0535 -1.77159,2.21074 -1.78949,2.28205 -0.0179,0.0713 1.51636,2.97396 1.51636,2.97396 l 0.97105,1.18008 c 0,0 -0.41159,0.71312 -0.50107,0.76661 -0.0894,0.0535 -1.37791,1.01623 -1.46739,1.05189 -0.0894,0.0356 -2.34424,1.23016 -2.34424,1.23016 l -2.61268,0.19612 -4.43154,-4.41506 -3.41931,2.86452 -1.79682,-1.10939 -1.63233,-1.37412 c 0,0 -1.50579,-1.85317 -1.56906,-1.87838 -0.0633,-0.0252 -1.10918,-2.19715 -1.10918,-2.19715 0,0 2.72017,-0.85814 2.72017,-0.98295 0,-0.12479 0.35791,-2.9417 0.3937,-3.01301 0.0357,-0.0713 -2.10591,-3.91741 -2.10591,-3.91741 z"
         style="fill:#090e11;fill-opacity:1;stroke:none;display:inline"
         transform="translate(0,3947.6378)" />
      <path
         sodipodi:nodetypes="sssssssssccsss"
         inkscape:connector-curvature="0"
         id="path3910"
         d="m 60.373165,389.57148 c 0.1282,-0.52982 0.291811,-1.06122 0.556764,-1.53802 0.264826,-0.47657 0.622649,-0.90372 1.012294,-1.28587 0.407597,-0.39976 0.863846,-0.76205 1.366599,-1.03374 0.614515,-0.33211 1.290804,-0.55814 1.973975,-0.70598 0.69486,-0.15037 1.416357,-0.22397 2.125821,-0.17649 0.663703,0.0445 1.371464,0.0992 1.948668,0.42862 0.54904,0.31334 0.977759,0.83882 1.290677,1.38673 0.265332,0.46458 0.447423,1.00355 0.455533,1.53801 0.01055,0.69506 -0.199881,1.40544 -0.531456,2.01706 -1.666694,2.21898 -5.109576,3.76659 -7.490985,3.50464 -0.669624,-0.11244 -1.340775,-0.43046 -1.822131,-0.90767 -0.542867,-0.53819 -0.90743,-1.29038 -1.037602,-2.04227 -0.06794,-0.39243 0.05817,-0.79791 0.151843,-1.18502 z"
         style="fill:#545b63;fill-opacity:1;stroke:none;display:inline"
         transform="translate(0,3947.6378)" />
      <path
         sodipodi:nodetypes="cccc"
         inkscape:connector-curvature="0"
         id="path4210"
         d="m 79.265126,399.75763 20.980324,-40.133 -21.638317,39.80522 z"
         style="fill:#020202;fill-opacity:1;stroke:none;display:inline"
         transform="translate(0,3947.6378)" />
      <path
         sodipodi:nodetypes="sssssssssssssssss"
         inkscape:connector-curvature="0"
         id="path4218"
         d="m 194.5276,436.92198 c 0.13431,-0.13951 -0.0853,-0.40627 0,-0.57991 0.0845,-0.17216 0.27669,-0.28237 0.45553,-0.35298 0.25206,-0.0995 0.68329,-0.0756 0.80984,-0.0756 0.12653,0 0.71057,-0.0633 1.06291,-0.0252 0.3885,0.0419 0.76087,0.17841 1.13883,0.27736 0.27121,0.071 0.55871,0.10256 0.80982,0.22691 0.31276,0.15486 0.70151,0.30887 0.83515,0.63033 0.0945,0.22731 -0.26667,0.54852 -0.1012,0.73119 0.16399,0.18106 0.58918,0.17146 0.73391,-0.0252 0.18639,-0.25323 -0.22775,-0.73119 -0.25307,-0.90768 -0.0253,-0.17649 -0.75922,-0.80681 -1.01229,-0.90767 -0.25307,-0.10082 -1.46783,-0.50427 -1.64498,-0.52948 -0.17715,-0.0252 -1.37716,-0.28071 -2.0499,-0.15128 -0.45193,0.087 -1.08822,0.50426 -1.24006,0.60512 -0.15185,0.10083 -0.40401,0.83338 -0.15185,1.10938 0.1364,0.14929 0.46711,0.12047 0.60739,-0.0252 z"
         style="fill:#85802e;fill-opacity:1;stroke:none;display:inline"
         transform="translate(0,3947.6378)" />
      <path
         sodipodi:nodetypes="ccccscccc"
         inkscape:connector-curvature="0"
         id="path4224"
         d="m 55.480157,398.20739 4.023874,0.60512 c 1.864957,0.43444 3.824526,0.71464 5.188013,1.96663 l 0.683299,2.57174 c 0,0 -3.441804,-1.05895 -3.618955,-1.08416 -0.177152,-0.0252 -4.656558,-1.43715 -4.656558,-1.43715 l -3.97326,-1.79014 2.480124,-0.80683 z"
         style="fill:#151f20;fill-opacity:1;stroke:none;display:inline"
         transform="translate(0,3947.6378)" />
      <text
         transform="matrix(1.4062459,0.32597981,-0.43367638,0.61058331,0,3947.6378)"
         sodipodi:linespacing="125%"
         id="text4264"
         y="550.08313"
         x="244.94525"
         style="font-size:9.55158043px;font-style:normal;font-weight:bold;line-height:125%;letter-spacing:0px;word-spacing:0px;fill:#ffffff;fill-opacity:1;stroke:none;display:inline;font-family:Sans;-inkscape-font-specification:Sans Bold"
         xml:space="preserve"><tspan
           y="550.08313"
           x="244.94525"
           id="tspan4266"
           sodipodi:role="line">HSH</tspan></text>
      <text
         transform="matrix(0.96839923,0.25582476,-0.25677973,0.96479774,0,3947.6378)"
         sodipodi:linespacing="125%"
         id="text4268"
         y="329.05182"
         x="170.33084"
         style="font-size:3.28741956px;font-style:normal;font-weight:bold;line-height:125%;letter-spacing:0px;word-spacing:0px;fill:#ffffff;fill-opacity:1;stroke:none;display:inline;font-family:Sans;-inkscape-font-specification:Sans Bold"
         xml:space="preserve"><tspan
           y="329.05182"
           x="170.33084"
           id="tspan4270"
           sodipodi:role="line">HOOK</tspan></text>
      <path
         sodipodi:nodetypes="ccccccc"
         inkscape:connector-curvature="0"
         id="path4260"
         d="m 210.85596,4330.3391 c -0.14615,-0.1204 -4.38439,-1.6461 -4.38439,-1.6461 l -5.90324,-1.4581 1.18331,1.2798 4.98091,1.8067 6.32362,2.2465 c -0.33085,-0.9071 -1.49062,-1.5196 -2.20021,-2.2288 z"
         style="opacity:0.8;fill:#757776;fill-opacity:1;stroke:none" />
      <path
         sodipodi:nodetypes="cccccccccccccccccccccccc"
         inkscape:connector-curvature="0"
         id="path4258"
         d="m 200.3736,4386.892 7.70609,1.5254 1.4107,-0.7143 -0.46908,-0.8729 4.68927,-4.7161 4.04919,-5.6982 1.82213,-4.2359 0.55677,0.6052 -1.21477,3.0256 0.50615,0.3026 -1.41721,2.7734 -0.35431,-0.1007 -0.65798,0.8573 0.40491,0.353 -0.45553,0.5547 -0.3543,-0.2017 -0.55677,0.8068 0.35432,0.2521 -0.25308,0.5043 -0.658,-0.3025 -3.54303,5.093 -5.36516,4.3871 -5.41579,-2.9247 z"
         style="fill:#757776;fill-opacity:1;stroke:none" />
      <path
         inkscape:connector-curvature="0"
         id="path4256"
         d="m 184.44519,4391.6398 c -0.0357,0.071 -0.46527,0.9806 -0.46527,0.9806 l -1.36001,0.1425 -58.23041,-15.1719 0.28633,-1.3193 58.67776,15.475 z"
         style="fill:#121214;fill-opacity:1;stroke:none" />
      <path
         sodipodi:nodetypes="ccccccscccccc"
         inkscape:connector-curvature="0"
         id="path4254"
         d="m 183.58623,4389.2864 1.0737,0.036 c 0,0 2.57688,-1.3549 2.64847,-1.4975 0.0716,-0.1427 2.21898,-1.5333 2.21898,-1.5333 l 2.39792,-0.8915 0.21474,0.3209 c 0,0 -0.82317,0.5349 -0.85895,0.8558 -0.0357,0.321 -0.32211,1.5689 -0.32211,1.5689 l -1.64634,0.3566 -2.79162,1.9255 -2.09164,1.2071 -1.0587,0.1908 z"
         style="fill:#757776;fill-opacity:1;stroke:none" />
      <path
         sodipodi:nodetypes="ccccccc"
         inkscape:connector-curvature="0"
         id="path4252"
         d="m 183.80097,4389.2151 -0.43265,2.6175 -29.50072,-7.4535 -30.42843,-8.1649 0.48083,-1.6893 2.02459,-0.2522 z"
         style="fill:#757776;fill-opacity:1;stroke:none" />
      <path
         inkscape:connector-curvature="0"
         id="path4248"
         d="m 199.9842,4385.5172 7.37276,1.7828 1.71793,-0.3209 0.42947,0.7844 c 0,0 -1.14528,0.7845 -1.43161,0.7845 -0.28631,0 -7.62327,-1.5689 -7.62327,-1.5689 z"
         style="fill:#e7e7ff;fill-opacity:1;stroke:none" />
      <path
         inkscape:connector-curvature="0"
         id="path4238"
         d="m 71.27708,4361.9376 0.626326,1.3906 c 0,0 0.42948,0.2853 0.554747,0.2853 0.125264,0 11.094913,3.209 11.094913,3.209 l 0.322109,-0.3388 -0.483164,-1.2301 -1.521077,-1.8541 -9.806473,-2.2286 z"
         style="fill:#121214;fill-opacity:1;stroke:none" />
      <path
         sodipodi:nodetypes="cccscccccccccc"
         inkscape:connector-curvature="0"
         id="path4226"
         d="m 65.187304,4350.935 -8.625401,-2.8169 -3.435844,-1.4085 c 0,0 0.07158,1.765 0.07158,1.9433 0,0.1783 0.823171,3.744 0.823171,3.744 l 1.360022,1.8542 1.181071,0.9984 4.151646,1.3193 5.976936,1.7116 2.075823,0.6061 0.17895,-1.2836 c 0,0 -1.037912,-0.5706 -1.216861,-0.6775 -0.178951,-0.107 -0.930542,-1.6759 -0.930542,-1.6759 z"
         style="fill:#e7e7ff;fill-opacity:1;stroke:none" />
      <path
         sodipodi:nodetypes="csccccssccsccc"
         inkscape:connector-curvature="0"
         id="path5581"
         d="m 71.143987,4350.954 c 0,0 0.352307,0.624 0.469744,0.7606 0.117436,0.1365 1.996413,1.092 2.133422,1.1115 0.137009,0.019 2.387867,0.5849 2.466158,0.624 0.07829,0.039 3.116432,0.3797 3.116432,0.3797 l 0.04034,0.1285 c 0,0 -0.508314,0.2946 -0.606178,0.3531 -0.09786,0.058 -1.219645,0.3086 -1.317508,0.3086 -0.09786,0 -2.231285,-0.5264 -2.231285,-0.5264 -0.433085,-0.1436 -0.735015,-0.2609 -2.172568,-0.6046 0,0 -1.322352,-0.4532 -1.761541,-0.9554 -0.206167,-0.2358 -0.332736,-0.8775 -0.332736,-0.8775 l 0.137009,-1.248 z"
         style="fill:#000000;fill-opacity:1;stroke:none" />
      <path
         style="fill:#000000;fill-opacity:1;stroke:none"
         d="m 171.45764,4376.8996 0.23977,0.9848 0.88077,0.6825 c 0,0 1.64411,0.4484 1.80069,0.5654 0.15658,0.117 3.13163,0.9165 3.20992,0.9361 0.0783,0.019 2.36829,0.468 2.36829,0.468 l 2.28152,-1.0139 -0.11764,0.4215 c -0.0929,0.1837 -0.10278,0.2845 -0.294,0.566 0,0 -0.28377,0.4044 -0.46064,0.5334 -0.37291,0.272 -1.17436,0.4095 -1.31138,0.4484 -0.13701,0.039 -2.23129,-0.4094 -2.23129,-0.4094 l -2.01597,-0.4875 -2.21173,-0.741 -1.82025,-1.0141 -0.23487,-0.5849 z"
         id="path5577"
         inkscape:connector-curvature="0"
         sodipodi:nodetypes="cccssccccsscccccc" />
      <path
         sodipodi:nodetypes="cccssccccsscccccc"
         inkscape:connector-curvature="0"
         id="path5569"
         d="m 158.49686,4373.7689 0.27401,0.9165 0.88077,0.6825 c 0,0 1.64411,0.4486 1.80068,0.5656 0.15658,0.117 3.13164,0.9165 3.20993,0.9359 0.0783,0.019 2.36829,0.468 2.36829,0.468 l 2.28153,-1.0138 -0.11765,0.4216 c -0.0929,0.1835 -0.10278,0.2843 -0.29399,0.5659 0,0 -0.28377,0.4043 -0.46066,0.5333 -0.3729,0.2721 -1.17436,0.4095 -1.31137,0.4486 -0.137,0.039 -2.23127,-0.4095 -2.23127,-0.4095 l -2.016,-0.4876 -2.21171,-0.741 -1.82026,-1.0139 -0.23487,-0.585 z"
         style="fill:#000000;fill-opacity:1;stroke:none" />
      <path
         style="fill:#000000;fill-opacity:1;stroke:none"
         d="m 149.54679,4371.4618 0.11072,0.5791 0.27679,0.4276 0.73352,0.4549 0.99649,0.3172 0.95495,0.1654 0.77503,-0.1103 0.67817,-0.1517 0.52592,-0.3033 -0.0553,0.2482 -0.2076,0.3034 c 0,0 -0.48441,0.3998 -0.55361,0.4274 -0.0692,0.028 -0.76119,0.3171 -0.87191,0.331 -0.11073,0.014 -1.14872,-0.138 -1.14872,-0.138 0,0 -0.83039,-0.2482 -0.92728,-0.2482 -0.097,0 -0.94112,-0.4825 -0.94112,-0.4825 l -0.38752,-0.7377 -0.11072,-0.5447 z"
         id="path5565"
         inkscape:connector-curvature="0"
         sodipodi:nodetypes="ccccccccccccscscccc" />
      <path
         sodipodi:nodetypes="ccccccccccccscscccc"
         inkscape:connector-curvature="0"
         id="path5563"
         d="m 141.11823,4369.0902 0.11072,0.5791 0.2768,0.4275 0.73353,0.455 0.99648,0.3172 0.95496,0.1654 0.77504,-0.1103 0.67815,-0.1517 0.52591,-0.3034 -0.0553,0.2483 -0.20759,0.3033 c 0,0 -0.4844,0.3999 -0.5536,0.4275 -0.0693,0.028 -0.76121,0.3171 -0.87193,0.3309 -0.11071,0.014 -1.14871,-0.1379 -1.14871,-0.1379 0,0 -0.83041,-0.2482 -0.92728,-0.2482 -0.097,0 -0.94112,-0.4826 -0.94112,-0.4826 l -0.38752,-0.7376 -0.11071,-0.5448 z"
         style="fill:#000000;fill-opacity:1;stroke:none" />
      <path
         inkscape:connector-curvature="0"
         id="path5559"
         d="m 84.961264,4354.48 0.110719,0.5791 0.2768,0.4274 0.733518,0.455 0.996478,0.3172 0.954962,0.1655 0.775038,-0.1104 0.678158,-0.1516 0.525917,-0.3034 -0.05536,0.2483 -0.207597,0.3032 c 0,0 -0.4844,0.3999 -0.553599,0.4275 -0.06921,0.027 -0.761199,0.3171 -0.871919,0.3309 -0.110719,0.014 -1.148718,-0.1378 -1.148718,-0.1378 0,0 -0.8304,-0.2483 -0.927279,-0.2483 -0.09688,0 -0.941119,-0.4825 -0.941119,-0.4825 l -0.470559,-0.717 -0.02767,-0.5654 z"
         style="fill:#000000;fill-opacity:1;stroke:none" />
      <path
         style="fill:#0d0e10;fill-opacity:1;stroke:none"
         d="m 87.947265,4356.5418 c -0.799378,-0.01 -1.616638,-0.2464 -2.309573,-0.6435 -0.283953,-0.1627 -0.569242,-0.3853 -0.704618,-0.6825 -0.153895,-0.3379 -0.111439,-0.7442 -0.05872,-1.1115 0.03914,-0.2727 0.105695,-0.5614 0.274018,-0.78 0.211515,-0.2746 0.531146,-0.4768 0.861198,-0.585 0.334905,-0.1097 0.704906,-0.058 1.05692,-0.039 0.355615,0.019 0.710311,0.074 1.056927,0.156 0.407607,0.096 0.817706,0.2066 1.193935,0.39 0.325098,0.1584 0.700191,0.3041 0.90034,0.6045 0.224321,0.3367 0.292531,0.7896 0.234872,1.1895 -0.05226,0.3626 -0.221847,0.7461 -0.50889,0.975 -0.537421,0.4286 -1.308038,0.5313 -1.996411,0.5265 z"
         id="path5557"
         inkscape:connector-curvature="0"
         sodipodi:nodetypes="sssssssssssss" />
      <path
         style="fill:#000000;fill-opacity:1;stroke:none"
         d="m 96.117688,4357.522 0.110721,0.5791 0.276799,0.4274 0.733521,0.455 0.996478,0.3171 0.954961,0.1656 0.775039,-0.1103 0.678153,-0.1517 0.52592,-0.3034 -0.0553,0.2482 -0.2076,0.3033 c 0,0 -0.4844,0.4 -0.5536,0.4275 -0.0692,0.028 -0.761193,0.3172 -0.871913,0.3309 -0.110719,0.014 -1.148718,-0.1379 -1.148718,-0.1379 0,0 -0.830403,-0.2482 -0.92728,-0.2482 -0.09688,0 -0.941118,-0.4826 -0.941118,-0.4826 l -0.470561,-0.7169 -0.02767,-0.5654 z"
         id="path5561"
         inkscape:connector-curvature="0" />
      <path
         sodipodi:nodetypes="sssssssssssss"
         inkscape:connector-curvature="0"
         id="path5555"
         d="m 99.123269,4359.7593 c -0.79938,-0.01 -1.61664,-0.2463 -2.309577,-0.6435 -0.283952,-0.1627 -0.569241,-0.3853 -0.704617,-0.6825 -0.153895,-0.3378 -0.111439,-0.7443 -0.05872,-1.1115 0.03915,-0.2727 0.105697,-0.5615 0.274019,-0.78 0.211516,-0.2746 0.531147,-0.4769 0.861198,-0.585 0.334905,-0.1097 0.704908,-0.058 1.056923,-0.039 0.355613,0.019 0.710311,0.074 1.056925,0.156 0.407609,0.096 0.81771,0.2066 1.19394,0.39 0.3251,0.1584 0.70019,0.3041 0.90034,0.6045 0.22432,0.3367 0.29253,0.7895 0.23487,1.1895 -0.0523,0.3626 -0.22185,0.7461 -0.50889,0.975 -0.53742,0.4286 -1.30804,0.5313 -1.996412,0.5265 z"
         style="fill:#0d0e10;fill-opacity:1;stroke:none" />
      <path
         sodipodi:nodetypes="ccccc"
         inkscape:connector-curvature="0"
         id="path5381"
         d="m 79.254212,4347.3701 21.000678,-40.1162 88.2345,18.6791 -10.1321,46.7357 z"
         style="fill:#8782ae;fill-opacity:1;stroke:none" />
      <path
         sodipodi:nodetypes="csssssc"
         inkscape:connector-curvature="0"
         inkscape:original-d="m 94.024446,4319.4227 c 1.283121,0.1882 3.964694,-0.3009 4.717018,0.4486 3.326036,3.3136 25.873336,6.1212 28.028076,8.2679 1.81623,1.8094 7.32564,-0.1896 9.08172,1.56 2.19004,2.1818 8.88054,0.1115 10.9607,2.1839 1.82935,1.8227 13.6255,1.095 15.34498,2.808 0.90344,0.9001 21.09048,2.1961 23.80038,3.2761"
         inkscape:path-effect="#path-effect5437"
         id="path5435"
         d="m 94.024446,4319.4227 c 1.57905,0.062 3.154652,0.2115 4.717018,0.4486 9.642536,1.4633 18.499646,6.1873 28.028076,8.2679 3.00128,0.6553 6.05326,1.0446 9.08172,1.56 3.6728,0.625 7.31103,1.4355 10.9607,2.1839 5.09428,1.0446 10.2129,1.9686 15.34498,2.808 7.90409,1.2928 15.84094,2.3853 23.80038,3.2761"
         style="fill:none;stroke:url(#linearGradient3329);stroke-width:0.88410974;stroke-linecap:butt;stroke-linejoin:miter;stroke-miterlimit:4;stroke-opacity:1;stroke-dasharray:none" />
      <path
         sodipodi:nodetypes="csssssc"
         inkscape:connector-curvature="0"
         inkscape:original-d="m 92.155259,4323.079 c 11.562081,-0.1497 46.571791,0.5934 51.211921,5.2161 1.27935,1.2746 4.25872,0.499 5.48034,1.7161 1.34244,1.3374 4.05739,0.7663 5.48035,2.184 1.77263,1.766 6.35016,1.4905 8.14223,3.276 0.9656,0.9619 3.4187,0.4419 4.38428,1.4039 2.98081,2.9698 14.04649,4.8271 17.69372,9.672"
         inkscape:path-effect="#path-effect5433"
         id="path5431"
         d="m 92.155259,4323.079 c 17.200821,-1.2297 34.612251,0.5437 51.211921,5.2161 1.843,0.5188 3.67689,1.0732 5.48034,1.7161 1.8526,0.6604 3.67078,1.4134 5.48035,2.184 2.69236,1.1465 5.37165,2.3342 8.14223,3.276 1.4529,0.4939 2.92826,0.9193 4.38428,1.4039 6.41172,2.1342 12.43579,5.4271 17.69372,9.672"
         style="fill:none;stroke:url(#linearGradient3331);stroke-width:0.88410974;stroke-linecap:butt;stroke-linejoin:miter;stroke-miterlimit:4;stroke-opacity:1;stroke-dasharray:none" />
      <path
         sodipodi:nodetypes="cssssssc"
         inkscape:connector-curvature="0"
         inkscape:original-d="m 86.655334,4333.3555 c 1.761699,1.1699 5.486831,0.1623 6.889584,1.5599 0.887296,0.884 2.586854,0.6078 3.47415,1.4918 2.110032,2.1022 7.214312,1.8834 9.238292,3.9 4.21089,4.1952 20.23005,7.1133 26.30569,10.1399 2.83367,1.4115 9.11691,1.1271 11.27386,3.2759 3.01998,3.0089 14.61644,2.2426 17.38055,4.992 2.20205,2.1904 25.36922,2.3382 19.38087,3.3248"
         inkscape:path-effect="#path-effect5425"
         id="path5423"
         d="m 86.655334,4333.3555 c 2.353756,0.1992 4.679573,0.7258 6.889584,1.5599 1.17932,0.4451 2.323825,0.9764 3.47415,1.4918 3.050512,1.3668 6.148412,2.6247 9.238292,3.9 8.68968,3.5866 17.33787,7.3199 26.30569,10.1399 3.73328,1.174 7.5148,2.1873 11.27386,3.2759 5.79035,1.6769 11.53139,3.5335 17.38055,4.992 6.3658,1.5874 12.84999,2.6997 19.38087,3.3248"
         style="fill:none;stroke:#8782ff;stroke-width:0.88410974;stroke-linecap:butt;stroke-linejoin:miter;stroke-miterlimit:4;stroke-opacity:1;stroke-dasharray:none" />
      <path
         sodipodi:nodetypes="csssscscssssscccccccccccc"
         inkscape:connector-curvature="0"
         id="path5295"
         d="m 207.66133,4359.6382 c 0,0 0.0633,0.4533 0.0195,0.6741 -0.0557,0.28 -0.19164,0.5455 -0.35072,0.7865 -0.28819,0.4365 -0.63122,0.8627 -1.07167,1.161 -0.38318,0.2594 -0.84997,0.3969 -1.30549,0.5055 -0.48789,0.1164 -1.50032,0.1499 -1.50032,0.1499 0,0 -0.90521,-0.089 -1.32498,-0.2435 -0.51733,-0.1903 -1.42239,-0.8239 -1.42239,-0.8239 0,0 -0.73567,-0.6089 -1.03268,-0.9737 -0.36264,-0.4454 -0.71559,-0.9231 -0.89631,-1.4606 -0.13042,-0.3879 -0.17642,-0.8138 -0.1169,-1.2172 0.0587,-0.398 0.25225,-0.7731 0.45828,-1.1235 0.16511,-0.2807 0.37979,-0.5359 0.61365,-0.7678 0.12839,-0.1272 0.4284,-0.337 0.4284,-0.337 l -0.42867,0.749 -0.19485,0.9925 0.0975,0.7116 0.48712,0.8426 0.95476,0.8801 1.24703,0.6554 1.13012,0.2622 1.59775,0.075 1.16908,-0.3184 0.79888,-0.5055 z"
         style="fill:#000000;fill-opacity:1;stroke:#000000;stroke-width:0.03457703px;stroke-linecap:butt;stroke-linejoin:miter;stroke-opacity:1" />
      <path
         sodipodi:nodetypes="cssssccsccccscsssscccc"
         inkscape:connector-curvature="0"
         id="path5293"
         d="m 199.2216,4357.4621 c 0,0 0.065,-0.7351 0.17979,-1.056 0.10699,-0.2993 0.32055,-0.5885 0.53981,-0.811 0.24744,-0.2511 0.5391,-0.3167 0.85185,-0.4684 0.26119,-0.1268 0.51548,-0.2834 0.7962,-0.3503 0.42952,-0.1026 1.32002,-0.07 1.32002,-0.07 l 1.27811,0.2569 c 0,0 0.83812,0.3503 1.04765,0.4904 0.20952,0.1402 0.77525,0.5605 0.94287,0.6773 0.16762,0.1168 0.94288,0.9342 0.94288,0.9342 l 0.52381,0.9574 0.27239,1.1678 c 0,0 -0.021,0.8641 -0.10476,1.121 -0.0838,0.2569 -0.75431,0.9809 -0.83811,1.0509 -0.0838,0.07 -1.38288,0.6306 -1.52956,0.6539 -0.14666,0.023 -1.52954,0.1402 -1.61336,0.1168 -0.0838,-0.023 -1.1943,-0.3269 -1.38287,-0.3737 -0.18857,-0.047 -1.19431,-0.5137 -1.36194,-0.6072 -0.16762,-0.094 -0.94286,-0.8874 -0.94286,-0.8874 l -0.60763,-0.8875 -0.37715,-1.0042 z"
         style="fill:#08080a;fill-opacity:1;stroke:#000000;stroke-width:0.04004309px;stroke-linecap:butt;stroke-linejoin:miter;stroke-opacity:1" />
      <path
         sodipodi:nodetypes="ccccccccccccc"
         inkscape:connector-curvature="0"
         inkscape:original-d="m 201.62631,4359.1322 1.25273,-0.6933 -0.99965,-1.3741 0.48084,-0.2648 1.02495,1.3868 1.27802,-0.7691 0.48084,0.5421 c 13.64317,-17.3705 -0.43242,-0.096 -1.32864,0.706 l 1.05025,1.2606 -0.49348,0.3405 -1.12618,-1.349 -1.31599,0.7564 z"
         inkscape:path-effect="#path-effect5265"
         id="path5263"
         d="m 201.62631,4359.1322 1.25273,-0.6933 -0.99965,-1.3741 0.48084,-0.2648 1.02495,1.3868 1.27802,-0.7691 0.48084,0.5421 -1.32864,0.706 1.05025,1.2606 -0.49348,0.3405 -1.12618,-1.349 -1.31599,0.7564 -0.30369,-0.5421"
         style="fill:#ffffff;fill-opacity:1;stroke:none" />
      <path
         style="fill:#000000;fill-opacity:1;stroke:#000000;stroke-width:0.03520468px;stroke-linecap:butt;stroke-linejoin:miter;stroke-opacity:1"
         d="m 198.21123,4348.4962 c 0,0 0.0631,0.472 0.0194,0.702 -0.0553,0.2916 -0.19077,0.568 -0.34913,0.819 -0.28687,0.4546 -0.62834,0.8983 -1.0668,1.209 -0.38142,0.2702 -0.8461,0.4134 -1.29955,0.5265 -0.48568,0.1212 -1.49351,0.156 -1.49351,0.156 0,0 -0.9011,-0.093 -1.31896,-0.2536 -0.51498,-0.1981 -1.41593,-0.8579 -1.41593,-0.8579 0,0 -0.73234,-0.6341 -1.02799,-1.014 -0.361,-0.4638 -0.71233,-0.9614 -0.89224,-1.521 -0.12983,-0.404 -0.17562,-0.8475 -0.11638,-1.2675 0.0585,-0.4145 0.25112,-0.8051 0.4562,-1.1699 0.16437,-0.2924 0.80671,-1.2991 1.0395,-1.5405 0.12782,-0.1325 -0.002,0.39 -0.002,0.39 l -0.42673,0.78 -0.19396,1.0334 0.0971,0.741 0.48491,0.8775 0.95042,0.9165 1.24136,0.6825 1.12499,0.2729 1.5905,0.078 1.16377,-0.3315 0.79524,-0.5265 z"
         id="path5291"
         inkscape:connector-curvature="0"
         sodipodi:nodetypes="csssscscssssscccccccccccc" />
      <path
         style="fill:#08080a;fill-opacity:1;stroke:#000000;stroke-width:0.03859762px;stroke-linecap:butt;stroke-linejoin:miter;stroke-opacity:1"
         d="m 189.91963,4346.1018 c 0,0 0.0642,-0.6916 0.17755,-0.9935 0.10565,-0.2816 0.31655,-0.5537 0.53307,-0.763 0.24436,-0.2362 0.53236,-0.298 0.84122,-0.4407 0.25793,-0.1193 0.50906,-0.2666 0.78627,-0.3296 0.42416,-0.097 1.30356,-0.066 1.30356,-0.066 l 1.26216,0.2416 c 0,0 0.82766,0.3297 1.03458,0.4615 0.2069,0.1318 0.76557,0.5273 0.9311,0.6372 0.16553,0.1098 0.93111,0.8789 0.93111,0.8789 l 0.51728,0.9008 0.26899,1.0986 c 0,0 -0.0207,0.813 -0.10346,1.0548 -0.0827,0.2416 -0.74488,0.9228 -0.82765,0.9887 -0.0827,0.066 -1.36562,0.5932 -1.51047,0.6152 -0.14483,0.022 -1.51046,0.1319 -1.59324,0.1099 -0.0827,-0.022 -1.17939,-0.3077 -1.36561,-0.3516 -0.18623,-0.044 -1.1794,-0.4834 -1.34495,-0.5713 -0.16552,-0.087 -0.9311,-0.8349 -0.9311,-0.8349 l -0.60004,-0.835 -0.37245,-0.9449 z"
         id="path5289"
         inkscape:connector-curvature="0"
         sodipodi:nodetypes="cssssccsccccscsssscccc" />
      <path
         sodipodi:nodetypes="ccccc"
         inkscape:connector-curvature="0"
         id="path5271"
         d="m 192.60532,4347.5766 0.34896,-1.863 2.28161,0.4992 -0.28632,1.8719 z"
         style="fill:none;stroke:#ffffff;stroke-width:0.53046584;stroke-linecap:butt;stroke-linejoin:miter;stroke-miterlimit:4;stroke-opacity:1;stroke-dasharray:none" />
      <path
         style="fill:#000000;fill-opacity:1;stroke:#000000;stroke-width:0.03457703px;stroke-linecap:butt;stroke-linejoin:miter;stroke-opacity:1"
         d="m 219.56369,4353.5712 c 0,0 0.0633,0.4533 0.0195,0.6742 -0.0557,0.28 -0.19163,0.5454 -0.35073,0.7864 -0.28817,0.4365 -0.63119,0.8627 -1.07165,1.161 -0.38317,0.2595 -0.84997,0.3969 -1.30549,0.5056 -0.48789,0.1164 -1.50033,0.1497 -1.50033,0.1497 0,0 -0.9052,-0.09 -1.32496,-0.2433 -0.51734,-0.1904 -1.42239,-0.8239 -1.42239,-0.8239 0,0 -0.7357,-0.6091 -1.03269,-0.9738 -0.36265,-0.4454 -0.71559,-0.9231 -0.89631,-1.4606 -0.13041,-0.3878 -0.17642,-0.8137 -0.1169,-1.2171 0.0587,-0.3981 0.25225,-0.7732 0.45828,-1.1236 0.16511,-0.2807 0.37978,-0.5358 0.61364,-0.7677 0.12841,-0.1273 0.42841,-0.3371 0.42841,-0.3371 l -0.42867,0.749 -0.19485,0.9925 0.0975,0.7116 0.48712,0.8426 0.95475,0.8801 1.24702,0.6554 1.13012,0.2622 1.59775,0.075 1.1691,-0.3184 0.79887,-0.5055 z"
         id="path5287"
         inkscape:connector-curvature="0"
         sodipodi:nodetypes="csssscscssssscccccccccccc" />
      <path
         style="fill:#08080a;fill-opacity:1;stroke:#000000;stroke-width:0.03691976px;stroke-linecap:butt;stroke-linejoin:miter;stroke-opacity:1"
         d="m 211.42602,4351.4543 0.20032,-0.8929 0.4207,-0.7476 0.88146,-0.4359 0.76126,-0.3116 1.26208,-0.062 1.22203,0.2284 c 0,0 0.80132,0.3114 1.00165,0.436 0.20033,0.1246 0.74122,0.4984 0.9015,0.6021 0.16026,0.1039 0.90149,0.8307 0.90149,0.8307 l 0.50083,0.8513 0.26042,1.0382 c 0,0 -0.02,0.7684 -0.10017,0.9968 -0.0802,0.2284 -0.72119,0.872 -0.80132,0.9344 -0.0802,0.062 -1.32219,0.5606 -1.46243,0.5813 -0.14023,0.02 -1.46242,0.1247 -1.54254,0.1039 -0.0802,-0.02 -1.14189,-0.2908 -1.32219,-0.3323 -0.1803,-0.042 -1.1419,-0.4568 -1.30215,-0.5398 -0.16028,-0.084 -0.9015,-0.7891 -0.9015,-0.7891 l -0.58096,-0.789 -0.3606,-0.8929 z"
         id="path5285"
         inkscape:connector-curvature="0"
         sodipodi:nodetypes="cccccccsccccscsssscccc" />
      <path
         sodipodi:nodetypes="ssssssssssssssssssssssssssssssssss"
         inkscape:connector-curvature="0"
         id="path5275"
         d="m 213.98918,4352.0203 c 0.006,-0.052 0.008,-0.1043 0.0183,-0.1554 0.0178,-0.087 0.0388,-0.1741 0.0755,-0.2547 0.0222,-0.049 0.0533,-0.093 0.0862,-0.1357 0.0478,-0.061 0.0996,-0.1212 0.16042,-0.1697 0.0832,-0.066 0.17493,-0.1258 0.27494,-0.1621 0.0577,-0.021 0.12088,-0.022 0.18182,-0.03 0.0852,-0.011 0.17094,-0.018 0.25668,-0.023 0.11037,-0.01 0.26737,-0.011 0.33154,-0.011 0.0641,0 0.25669,0.047 0.32086,0.058 0.0641,0.011 0.25485,0.111 0.32175,0.1658 0.0991,0.081 0.21255,0.1998 0.23439,0.2164 0.0633,0.048 0.21389,0.1506 0.26736,0.2201 0.0535,0.069 0.10696,0.1506 0.14975,0.2431 0.0428,0.093 0.18181,0.2897 0.18181,0.3476 0,0.058 0.0214,0.1158 0.032,0.1969 0.0107,0.081 0.0321,0.2432 0.0107,0.3011 -0.0214,0.058 -0.0536,0.2664 -0.0749,0.3128 -0.0215,0.047 -0.0637,0.1638 -0.11764,0.2316 -0.0637,0.08 -0.15212,0.1374 -0.2353,0.1969 -0.0848,0.061 -0.17111,0.1622 -0.26737,0.1622 -0.0962,0 -0.1925,0 -0.34224,0.011 -0.14973,0.011 -0.25668,0.011 -0.34224,0.011 -0.0856,0 -0.16043,-0.011 -0.2353,-0.035 -0.0749,-0.023 -0.12833,-0.058 -0.1925,-0.081 -0.0641,-0.023 -0.18184,-0.081 -0.23528,-0.1159 -0.0535,-0.035 -0.13823,-0.089 -0.20322,-0.139 -0.056,-0.043 -0.11137,-0.088 -0.16042,-0.139 -0.0514,-0.053 -0.0947,-0.1142 -0.13904,-0.1737 -0.0561,-0.075 -0.11246,-0.1509 -0.16042,-0.2317 -0.0243,-0.041 -0.0429,-0.081 -0.0641,-0.1274 -0.0215,-0.047 -0.0963,-0.1506 -0.10695,-0.2433 -0.0107,-0.092 -0.0405,-0.192 -0.0428,-0.2895 -0.001,-0.053 0.01,-0.105 0.0157,-0.1574 z"
         style="fill:none;stroke:#ffffff;stroke-width:0.60443032;stroke-linecap:butt;stroke-linejoin:miter;stroke-miterlimit:4;stroke-opacity:1;stroke-dasharray:none" />
      <path
         sodipodi:nodetypes="ccccssscscsscccccc"
         inkscape:connector-curvature="0"
         id="path5277"
         d="m 216.05031,4369.5179 0.32295,-0.078 0.46975,0.029 0.32296,0.2632 c 0,0 0.16955,0.1684 0.19572,0.2243 0.0342,0.073 0.0783,0.312 0.088,0.3705 0.0102,0.058 0.0102,0.2145 0,0.3119 -0.0102,0.098 -0.0392,0.2438 -0.0489,0.2925 -0.0102,0.049 -0.0245,0.1122 -0.0783,0.1756 -0.0404,0.048 -0.23488,0.117 -0.26423,0.1267 -0.0294,0.01 -0.12723,0.019 -0.20551,0.019 -0.0783,0 -0.16637,-0.01 -0.22508,-0.019 -0.0587,-0.01 -0.14681,-0.03 -0.24467,-0.098 -0.0979,-0.068 -0.22509,-0.2145 -0.27402,-0.2536 -0.0489,-0.039 -0.26423,-0.507 -0.26423,-0.507 l -0.0392,-0.3607 0.0686,-0.2243 z"
         style="fill:#df260a;fill-opacity:1;stroke:#e9260a;stroke-width:0.03536439px;stroke-linecap:butt;stroke-linejoin:miter;stroke-opacity:1" />
      <path
         sodipodi:nodetypes="csssscscssssscccccccccccc"
         inkscape:connector-curvature="0"
         id="path5281"
         d="m 210.16881,4342.3742 c 0,0 0.0633,0.4719 0.0195,0.702 -0.0556,0.2916 -0.19164,0.568 -0.35073,0.819 -0.28818,0.4546 -0.6312,0.8983 -1.07165,1.209 -0.38317,0.2702 -0.84997,0.4134 -1.30549,0.5265 -0.48789,0.1212 -1.50033,0.156 -1.50033,0.156 0,0 -0.9052,-0.093 -1.32497,-0.2536 -0.51733,-0.1982 -1.42239,-0.858 -1.42239,-0.858 0,0 -0.73569,-0.6341 -1.03269,-1.0139 -0.36264,-0.4639 -0.71558,-0.9614 -0.8963,-1.5211 -0.13042,-0.4039 -0.17642,-0.8474 -0.1169,-1.2675 0.0587,-0.4144 0.25224,-0.805 0.45827,-1.17 0.16511,-0.2923 0.42824,-0.6822 0.6621,-0.9235 0.12839,-0.1326 0.87127,-0.489 0.87127,-0.489 l -0.91998,1.0421 -0.19486,1.0335 0.0975,0.741 0.48712,0.8775 0.95477,0.9165 1.24701,0.6824 1.13013,0.273 1.59775,0.078 1.16908,-0.3315 0.79889,-0.5265 z"
         style="fill:#000000;fill-opacity:1;stroke:#000000;stroke-width:0.03528491px;stroke-linecap:butt;stroke-linejoin:miter;stroke-opacity:1" />
      <path
         sodipodi:nodetypes="ccsccccsccccscsssscccc"
         inkscape:connector-curvature="0"
         id="path5279"
         d="m 201.87454,4340.2223 0.20033,-0.8928 c 0,0 0.21294,-0.5507 0.4207,-0.7476 0.2377,-0.2251 0.88145,-0.4359 0.88145,-0.4359 l 0.76127,-0.3116 1.26208,-0.062 1.22204,0.2284 c 0,0 0.80131,0.3114 1.00165,0.436 0.20033,0.1246 0.74122,0.4984 0.9015,0.6022 0.16025,0.1038 0.90147,0.8306 0.90147,0.8306 l 0.50083,0.8513 0.26044,1.0382 c 0,0 -0.02,0.7683 -0.10017,0.9967 -0.0802,0.2284 -0.72119,0.8721 -0.80133,0.9344 -0.0802,0.062 -1.32218,0.5607 -1.46241,0.5814 -0.14023,0.02 -1.46243,0.1247 -1.54256,0.1038 -0.0802,-0.02 -1.14189,-0.2907 -1.32218,-0.3322 -0.1803,-0.042 -1.14189,-0.4568 -1.30215,-0.5398 -0.16028,-0.083 -0.90149,-0.7891 -0.90149,-0.7891 l -0.58097,-0.789 -0.3606,-0.8929 z"
         style="fill:#08080a;fill-opacity:1;stroke:#000000;stroke-width:0.03691976px;stroke-linecap:butt;stroke-linejoin:miter;stroke-opacity:1" />
      <path
         sodipodi:nodetypes="cccc"
         inkscape:connector-curvature="0"
         id="path5273"
         d="m 204.32314,4341.0228 1.71417,-1.5716 1.17283,2.2765 z"
         style="fill:none;stroke:#ffffff;stroke-width:0.35364389;stroke-linecap:butt;stroke-linejoin:miter;stroke-miterlimit:4;stroke-opacity:1;stroke-dasharray:none" />
      <path
         sodipodi:nodetypes="cccccccsscccccccssscsccccc"
         inkscape:connector-curvature="0"
         id="path5283"
         d="m 193.8784,4335.0145 -0.46438,-0.2227 -0.21767,-0.2523 -0.10161,-0.3117 -0.0146,-0.371 0.0725,-0.1781 0.13061,-0.1781 c 0,0 0.0871,-0.09 0.23218,-0.1484 0.14513,-0.059 0.24671,-0.059 0.31928,-0.059 0.0726,0 0.30475,-0.029 0.47888,0 0.17415,0.03 0.65304,0.1187 0.7111,0.1484 0.058,0.029 0.56596,0.1485 0.68205,0.1782 0.1161,0.029 0.8562,0.2819 0.91424,0.2968 0.0581,0.015 0.31927,0.1781 0.31927,0.1781 l 0.17415,0.2375 c 0,0 0.058,0.1632 0.0871,0.2523 0.029,0.09 0.0436,0.1483 0.0436,0.2078 0,0.059 0.0145,0.1335 0.0145,0.2523 0,0.1187 -0.004,0.1446 -0.058,0.267 -0.0553,0.1247 -0.29024,0.2672 -0.34828,0.2969 -0.058,0.029 -0.0435,0.029 -0.10161,0.045 -0.058,0.015 -0.3628,0.059 -0.3628,0.059 0,0 -0.1306,0.029 -0.24669,-0.015 -0.11611,-0.045 -0.72561,-0.2226 -0.78365,-0.2374 -0.058,-0.015 -0.55146,-0.1485 -0.65304,-0.1781 -0.10161,-0.029 -0.82718,-0.2671 -0.82718,-0.2671 z"
         style="fill:#000000;fill-opacity:1;stroke:#000000;stroke-width:0.03757025px;stroke-linecap:butt;stroke-linejoin:miter;stroke-opacity:1" />
      <path
         inkscape:connector-curvature="0"
         id="path5297"
         d="m 97.880265,4320.0468 0.450171,-1.287 -1.683248,-0.4876 0.352308,-1.1699 1.76154,0.351 0.802479,-1.3066 1.291795,0.3121 -0.6459,1.2675 1.64411,0.4095 -0.39146,1.209 -1.859398,-0.468 -0.626327,1.5405 z"
         style="fill:#ffffff;fill-opacity:1;stroke:none" />
      <path
         inkscape:connector-curvature="0"
         id="path5299"
         d="m 107.19686,4343.3881 1.2918,-3.0809 -5.0889,-1.365 -1.2135,2.457 0.46974,0.8579 z"
         style="fill:#ffffff;fill-opacity:1;stroke:none" />
      <path
         inkscape:connector-curvature="0"
         id="path5301"
         d="m 112.68273,4332.6252 0.96881,-2.1511 -6.00655,-1.6546 -1.1072,2.2889 z"
         style="fill:#ffffff;fill-opacity:1;stroke:none" />
      <path
         sodipodi:nodetypes="cccsssssscccc"
         inkscape:connector-curvature="0"
         id="path5303"
         d="m 109.78612,4322.6964 1.67869,-3.97 1.96528,0.5516 c 0,0 0.1819,-0.3459 0.30447,-0.4964 0.14388,-0.1769 0.29128,-0.3725 0.49824,-0.4689 0.1431,-0.067 0.35985,-0.055 0.47057,-0.055 0.11072,0 0.68933,-0.04 1.02417,0.028 0.30069,0.06 0.74734,0.2481 0.85806,0.3309 0.11072,0.082 0.39585,0.1763 0.47057,0.3585 0.12342,0.3008 -0.1384,0.9652 -0.1384,0.9652 l 1.82687,0.3861 -1.57775,4.0814 z"
         style="fill:#ffffff;fill-opacity:1;stroke:none" />
      <path
         inkscape:connector-curvature="0"
         id="path5305"
         d="m 114.41392,4320.3413 -0.0183,0 -0.32492,0.05 -0.0268,0.01 -0.0255,0.012 -0.24705,0.1177 -0.0109,0.01 -0.0102,0.01 -0.26285,0.1687 -0.028,0.017 -0.0208,0.026 -0.21662,0.2694 -0.0268,0.034 -0.0121,0.043 -0.0925,0.3192 -0.006,0.019 -0.002,0.021 -0.0159,0.1517 -0.001,0.023 0.001,0.023 c 0,0 0.0118,0.1382 0.0364,0.2458 0.0188,0.082 0.0453,0.13 0.0694,0.1779 0.0241,0.048 0.0463,0.087 0.0463,0.087 l 0.0159,0.026 0.0219,0.021 0.26164,0.2524 0.0255,0.023 0.0304,0.014 c 0,0 0.18634,0.088 0.35778,0.1294 0.16062,0.039 0.29104,0.04 0.39916,0.04 0.12735,0 0.17475,-0.024 0.24946,-0.038 0.12265,-0.022 0.25184,-0.071 0.25679,-0.073 0,0 0.005,0 0.005,0 0.007,0 0.15406,-0.049 0.21661,-0.06 0.12884,-0.023 0.18759,-0.09 0.24096,-0.1399 0.0381,-0.036 0.0514,-0.054 0.0657,-0.07 l 0.005,0 0.27259,-0.2328 0.0255,-0.021 0.0183,-0.029 c 0,0 0.0487,-0.079 0.0986,-0.1726 0.0249,-0.047 0.0503,-0.097 0.0718,-0.1464 0.0216,-0.05 0.0475,-0.08 0.0475,-0.1858 0,-0.1265 -0.0339,-0.1878 -0.0596,-0.2603 -0.0257,-0.072 -0.0511,-0.132 -0.0511,-0.132 l -0.002,-0.01 -0.004,-0.01 -0.15455,-0.3021 -0.028,-0.056 -0.0523,-0.03 -0.23123,-0.1347 -0.005,0 -0.005,0 -0.23123,-0.1178 -0.0183,-0.01 -0.0183,-0.01 -0.24704,-0.067 -0.0195,-0.01 -0.0208,0 -0.3237,-0.017 -0.0195,0 z m 0.022,0.4303 0.28233,0.014 0.21174,0.059 0.20201,0.1019 0.0102,0.01 0.17037,0.1 0.11927,0.2341 c 0,0 0.0208,0.049 0.0413,0.1072 0.0174,0.049 0.0259,0.094 0.0292,0.091 -0.002,0.01 -0.002,0.013 -0.006,0.022 -0.0131,0.03 -0.0345,0.072 -0.056,0.1124 -0.0359,0.067 -0.0622,0.1089 -0.073,0.1269 l -0.24825,0.2106 -0.0146,0.012 -0.0109,0.014 c 0,0 -0.0244,0.029 -0.056,0.059 -0.0315,0.03 -0.08,0.047 -0.0438,0.041 -0.12138,0.022 -0.2726,0.073 -0.2726,0.073 l -0.002,0 -0.004,0 c 0,0 -0.14042,0.048 -0.2008,0.059 -0.1106,0.02 -0.0937,0.03 -0.18254,0.03 -0.10812,0 -0.19416,-4e-4 -0.31155,-0.029 -0.0969,-0.023 -0.23547,-0.084 -0.26407,-0.097 l -0.21053,-0.2014 c -0.006,-0.012 -0.0105,-0.018 -0.0219,-0.041 -0.0184,-0.037 -0.0373,-0.091 -0.0341,-0.075 -0.005,-0.025 -0.0197,-0.1441 -0.0231,-0.1714 l 0.0102,-0.102 0.0755,-0.259 0.16793,-0.2092 0.22392,-0.1439 0.21418,-0.1021 0.27868,-0.043 z"
         style="font-size:medium;font-style:normal;font-variant:normal;font-weight:normal;font-stretch:normal;text-indent:0;text-align:start;text-decoration:none;line-height:normal;letter-spacing:normal;word-spacing:normal;text-transform:none;direction:ltr;block-progression:tb;writing-mode:lr-tb;text-anchor:start;baseline-shift:baseline;color:#000000;fill:#6c6aff;fill-opacity:1;stroke:none;stroke-width:15;marker:none;visibility:visible;display:inline;overflow:visible;enable-background:accumulate;font-family:Sans;-inkscape-font-specification:Sans" />
      <path
         sodipodi:nodetypes="cssccccccsssscccscsccccsssccscsscccccsccccssscscccccccssssscsscccssssccssssssccsc"
         inkscape:connector-curvature="0"
         id="path5309"
         d="m 127.64374,4325.2208 c 0,0 0.63981,-2.5467 1.53624,-3.4196 0.0758,-0.074 0.18716,-0.118 0.29301,-0.1227 0.13466,-0.01 0.38515,0.1227 0.38515,0.1227 0,0 0.22145,0.1655 0.29064,0.2069 0.0693,0.042 0.2076,0.193 0.26296,0.2206 0.0553,0.027 0.22144,0.097 0.30447,0.1103 0.083,0.014 0.19377,0.014 0.27681,0.055 0.083,0.042 0.22143,0.042 0.35984,0.055 0.13839,0.014 0.23528,0.028 0.29064,0.028 0.0553,0 0.16607,0 0.26296,0 0.097,0 0.15224,0 0.26296,0 0.11072,0 0.13839,0.014 0.26295,0 0.12457,-0.014 0.11072,-0.014 0.24912,-0.028 0.1384,-0.014 0.24912,-0.027 0.24912,-0.027 l 0.22144,-0.042 c 0,0 0.0138,0 0.0693,0 0.0553,0 0.097,0 0.12457,0.055 0.0277,0.055 0.0416,0.082 0.0416,0.1654 0,0.082 0.0139,0.069 0,0.1656 -0.0138,0.097 -0.0416,0.124 -0.11071,0.2895 -0.0693,0.1654 -1.39785,3.3644 -1.39785,3.3644 l -0.22143,0.4412 c 0,0 -0.6228,0.4135 -0.67816,0.4274 -0.0553,0.014 -0.097,0.042 -0.22144,0.055 -0.12456,0.014 -0.346,0.042 -0.42904,0.042 -0.083,0 -0.33216,-0.1379 -0.33216,-0.1379 l -0.0969,-0.042 c 0,0 -0.12456,-0.014 -0.17992,-0.1242 -0.0553,-0.1103 -0.083,-0.2344 -0.083,-0.2344 0,0 -0.0139,-0.069 -0.0139,-0.1378 0,-0.069 -0.0137,-0.1792 0.0277,-0.2482 0.0416,-0.069 0.12456,-0.2206 0.16608,-0.262 0.0416,-0.042 0.11072,-0.1378 0.11072,-0.1378 0,0 0.083,-0.027 0.17992,-0.069 0.097,-0.042 0.0139,-0.014 0.11072,-0.042 0.097,-0.028 0.15224,-0.055 0.30448,-0.069 0.15225,-0.014 0.097,-0.014 0.22144,-0.014 0.12456,0 0.17992,0.014 0.23528,0.042 0.0553,0.027 0.15224,0.069 0.15224,0.069 l 1.01032,-2.413 -0.52592,0 c 0,0 -0.1384,0 -0.19377,0 -0.0553,0 -0.23527,0 -0.33215,0 -0.097,0 -0.15713,0.016 -0.2125,-0.025 -0.0553,-0.042 -0.0505,-0.016 -0.14734,-0.029 -0.097,-0.014 -0.12456,-0.042 -0.23528,-0.082 -0.11072,-0.042 -0.13839,-0.028 -0.19376,-0.055 -0.0553,-0.027 -0.11072,-0.042 -0.19376,-0.097 -0.083,-0.055 -0.12456,-0.082 -0.12456,-0.082 l -0.13841,-0.055 -0.15222,-0.069 -0.0693,-0.055 -1.24559,2.6474 c 0,0 -0.0844,0.2727 -0.17993,0.3723 -0.0471,0.049 -0.12456,0.069 -0.17992,0.097 -0.0553,0.027 -0.17419,0.082 -0.24912,0.1378 -0.063,0.047 -0.0416,0.055 -0.12456,0.097 -0.083,0.042 -0.12455,0.069 -0.17992,0.082 -0.0553,0.013 -0.11072,0.042 -0.19376,0.069 -0.083,0.027 -0.0553,0.042 -0.22144,0.042 -0.16608,0 -0.15223,0 -0.2768,0 -0.12456,0 -0.0553,0.028 -0.20759,-0.014 -0.15224,-0.042 -0.29065,-0.082 -0.29065,-0.082 0,0 -0.0416,0.027 -0.0969,-0.055 -0.0554,-0.082 -0.083,-0.1103 -0.12456,-0.1654 -0.0416,-0.055 -0.0138,-0.014 -0.0553,-0.1103 -0.0416,-0.097 -0.0553,-0.1242 -0.0692,-0.1793 -0.0138,-0.055 -0.0277,-0.082 -0.0277,-0.1793 0,-0.097 -0.0277,-0.1378 0.0139,-0.2205 0.0414,-0.083 0.0277,-0.083 0.083,-0.1656 0.0553,-0.082 0,0 0.097,-0.1103 0.0969,-0.1103 0.0969,-0.1241 0.15225,-0.1378 0.0553,-0.014 -0.0553,-0.028 0.11072,-0.028 0.16608,0 0.0969,0 0.19375,0 0.097,0 0.11072,0 0.23528,0 0.12457,0 0.097,0 0.17992,0 0.083,0 0.0138,-0.042 0.2076,0 0.19376,0.042 0.20759,0.042 0.20759,0.042 0,0 0.0139,0.014 0.0693,0.028 0.0553,0.014 0.19375,0.042 0.19375,0.042 z"
         style="fill:#ffffff;fill-opacity:1;stroke:none" />
      <path
         sodipodi:nodetypes="csccccsccscccscsccccccccssccccccscscccccc"
         inkscape:connector-curvature="0"
         id="path5315"
         d="m 156.81841,4332.0874 c 0,0 0.62585,-1.9556 1.34248,-2.6336 0.0989,-0.094 0.37368,-0.1655 0.37368,-0.1655 l 0.40136,-0.082 0.38752,0 c 0,0 0.0553,-0.028 0.2076,0.042 0.15223,0.069 0.33216,0.1517 0.38752,0.1931 0.0553,0.042 0.11072,0.069 0.19375,0.1103 0.083,0.042 0.22144,0.097 0.31833,0.193 0.097,0.097 0.1384,0.1793 0.19376,0.2069 0.0554,0.027 1.23175,0.2068 1.23175,0.2068 l 0.51207,0.014 0.40136,-0.1242 c 0,0 0.16608,-0.097 0.31833,-0.097 0.15224,0 0.34599,0 0.4152,0.014 0.0693,0.014 0.33216,0.082 0.38752,0.1379 0.0553,0.055 0.24911,0.1792 0.24911,0.1792 0,0 0.31832,0.2758 0.34601,0.3309 0.0277,0.055 0.16607,0.3034 0.19376,0.3861 0.0277,0.082 -0.19376,2.7716 -0.19376,2.7716 l -0.19376,0.4136 -0.42905,0.1792 c 0,0 -0.27679,0.042 -0.45671,0 -0.17992,-0.042 -0.4152,-0.1103 -0.47057,-0.1378 -0.0553,-0.027 -0.19375,-0.1793 -0.23527,-0.2345 -0.0416,-0.055 -0.1384,-0.3171 -0.19376,-0.3722 -0.0553,-0.055 -0.2076,-0.3172 -0.2076,-0.3172 l -0.11072,-0.4412 -0.0416,-0.2344 -2.42199,-0.6343 -0.47056,0.2206 -0.33217,0.2758 c 0,0 -0.30448,0.2206 -0.37367,0.262 -0.0693,0.042 -0.17993,0.097 -0.24913,0.1241 -0.0693,0.028 -0.37368,0.1241 -0.44287,0.1379 -0.0693,0.014 -0.17992,0.014 -0.26297,-0.014 -0.083,-0.027 -0.16608,-0.042 -0.24911,-0.082 -0.083,-0.042 -0.23529,-0.1103 -0.23529,-0.1103 l -0.15222,-0.1792 -0.097,-0.2069 z"
         style="fill:#ffffff;fill-opacity:1;stroke:none" />
      <path
         inkscape:connector-curvature="0"
         id="path5331"
         d="m 140.32116,4329.2332 c 0.0139,-0.055 1.53624,-4.1778 1.53624,-4.1778 l 0.65047,0.1517 -0.0693,0.2619 0.80272,0.1792 0.097,-0.3033 0.78887,0.1103 -0.15223,0.524 3.73678,0.9375 0.24913,-0.6755 0.67815,0.193 c 0,0 -0.15224,0.3033 -0.0554,0.3446 0.097,0.042 0.81656,0.1931 0.81656,0.1931 l 0.19376,-0.4273 0.74736,0.2066 -1.60544,4.633 -0.66431,-0.2068 0.15224,-0.3447 -0.7612,-0.2483 -0.19376,0.4 -0.60897,-0.2069 0.12458,-0.4964 -4.02745,-0.9652 -0.35983,0.7032 -0.49824,-0.1654 0.097,-0.4137 -0.76119,-0.1792 -0.22145,0.4136 z"
         style="fill:#ffffff;fill-opacity:1;stroke:none" />
      <path
         inkscape:connector-curvature="0"
         id="path5317"
         d="m 142.91699,4328.7827 0.80249,-2.1255 3.89496,0.7995 -0.68503,2.3205 z"
         style="fill:#8280b2;fill-opacity:1;stroke:none" />
      <path
         sodipodi:nodetypes="ccccc"
         inkscape:connector-curvature="0"
         id="path5319"
         d="m 148.22119,4327.8077 0.13702,-0.4095 0.81226,0.2437 -0.12722,0.4192 z"
         style="fill:#8280b2;fill-opacity:1;stroke:none" />
      <path
         sodipodi:nodetypes="ccccc"
         inkscape:connector-curvature="0"
         id="path5321"
         d="m 147.88847,4328.8997 0.15658,-0.4485 0.7829,0.234 -0.15659,0.507 z"
         style="fill:#8280b2;fill-opacity:1;stroke:none" />
      <path
         sodipodi:nodetypes="ccccc"
         inkscape:connector-curvature="0"
         id="path5323"
         d="m 143.5111,4339.2771 0.17614,-0.4095 0.75355,0.312 -0.12722,0.4484 z"
         style="fill:#8280b2;fill-opacity:1;stroke:none" />
      <path
         sodipodi:nodetypes="ccccc"
         inkscape:connector-curvature="0"
         id="path5325"
         d="m 141.33162,4328.6267 0.18593,-0.4582 0.74377,0.1949 -0.16637,0.4778 z"
         style="fill:#8280b2;fill-opacity:1;stroke:none" />
      <path
         sodipodi:nodetypes="ccccc"
         inkscape:connector-curvature="0"
         id="path5327"
         d="m 141.82093,4327.5737 0.19573,-0.4778 0.66547,0.2242 -0.17615,0.468 z"
         style="fill:#8280b2;fill-opacity:1;stroke:none" />
      <path
         sodipodi:nodetypes="ccccc"
         inkscape:connector-curvature="0"
         id="path5329"
         d="m 142.21238,4326.4622 0.20552,-0.4387 0.6459,0.2243 -0.19573,0.4288 z"
         style="fill:#8280b2;fill-opacity:1;stroke:none" />
      <path
         sodipodi:nodetypes="sssssssssssssssss"
         inkscape:connector-curvature="0"
         id="path5345"
         d="m 173.96614,4334.1695 c 0.0933,-0.2417 0.19222,-0.4914 0.35984,-0.6894 0.21653,-0.2558 0.51038,-0.442 0.80271,-0.6067 0.2595,-0.1463 0.53945,-0.2663 0.83041,-0.331 0.30669,-0.068 0.6272,-0.069 0.94111,-0.055 0.42887,0.019 0.85976,0.078 1.27328,0.193 0.39447,0.1097 0.81325,0.2163 1.13488,0.4688 0.29567,0.2322 0.46681,0.5907 0.66431,0.9101 0.17968,0.2905 0.42569,0.5717 0.47056,0.91 0.0458,0.345 -0.0776,0.7032 -0.22143,1.0204 -0.19833,0.4372 -0.47067,0.8731 -0.85809,1.1582 -0.44831,0.3299 -1.43935,0.5515 -1.57775,0.5515 -0.1384,0 -1.41168,-0.027 -1.57776,-0.082 -0.16607,-0.055 -1.13488,-0.6067 -1.2456,-0.6618 -0.11071,-0.055 -0.69665,-0.7173 -0.91344,-1.1582 -0.1506,-0.3064 -0.25086,-0.6517 -0.24911,-0.9928 0.001,-0.2185 0.0873,-0.4304 0.16608,-0.6343 z"
         style="fill:#ffffff;fill-opacity:1;stroke:none" />
      <text
         transform="matrix(1.0057426,0.22195674,-0.23522585,0.94237831,0,0)"
         sodipodi:linespacing="125%"
         id="text5359"
         y="4332.417"
         x="1128.0764"
         style="font-size:6.76018047px;font-style:normal;font-weight:bold;line-height:125%;letter-spacing:0px;word-spacing:0px;fill:#ffffff;fill-opacity:1;stroke:none;font-family:Sans;-inkscape-font-specification:Sans Bold"
         xml:space="preserve"><tspan
           style="font-size:3.38009024px;font-weight:bold;fill:#ffffff;-inkscape-font-specification:Sans Bold"
           y="4332.417"
           x="1128.0764"
           id="tspan5361"
           sodipodi:role="line">Camera</tspan></text>
      <path
         inkscape:connector-curvature="0"
         id="path5371"
         d="m 182.713,4327.3993 0.11071,-0.5101 -0.55359,-0.138 0.2076,-0.8823 0.49824,0.1103 0.12457,-0.5654 4.3319,0.8963 -0.53977,2.3301 -4.20734,-0.9789 z"
         style="fill:#ffffff;fill-opacity:1;stroke:none" />
      <path
         inkscape:connector-curvature="0"
         id="path5369"
         d="m 183.21124,4327.1787 0.19376,-1.2134 3.34927,0.7307 c 0,0 -0.26296,1.2134 -0.33215,1.2134 -0.0693,0 -3.21088,-0.7307 -3.21088,-0.7307 z"
         style="fill:#8184a3;fill-opacity:1;stroke:none" />
      <path
         sodipodi:nodetypes="ccccc"
         inkscape:connector-curvature="0"
         id="path5363"
         d="m 183.48804,4327.0683 0.16609,-0.841 0.71967,0.138 -0.2076,0.8686 z"
         style="fill:#ffffff;fill-opacity:1;stroke:none" />
      <path
         inkscape:connector-curvature="0"
         id="path5365"
         d="m 184.45684,4327.2752 0.19376,-0.8686 0.81655,0.1793 -0.20759,0.8685 z"
         style="fill:#ffffff;fill-opacity:1;stroke:none" />
      <path
         sodipodi:nodetypes="ccccc"
         inkscape:connector-curvature="0"
         id="path5367"
         d="m 185.5502,4327.5786 0.22143,-0.979 0.692,0.1792 -0.24911,0.9515 z"
         style="fill:#ffffff;fill-opacity:1;stroke:none" />
      <text
         inkscape:transform-center-y="0.53536514"
         inkscape:transform-center-x="-0.38907788"
         transform="matrix(1.029792,0.23657559,-0.25797811,0.91180421,0,0)"
         sodipodi:linespacing="125%"
         id="text5373"
         y="4413.5029"
         x="1267.8859"
         style="font-size:3.54088211px;font-style:normal;font-weight:bold;line-height:125%;letter-spacing:0px;word-spacing:0px;fill:#ffffff;fill-opacity:1;stroke:none;font-family:Sans;-inkscape-font-specification:Sans Bold"
         xml:space="preserve"><tspan
           y="4413.5029"
           x="1267.8859"
           id="tspan5375"
           sodipodi:role="line">1/1 0:09</tspan></text>
      <text
         transform="matrix(0.97185537,0.26160062,-0.26552652,0.9574862,0,0)"
         sodipodi:linespacing="125%"
         id="text5377"
         y="4174.8584"
         x="1252.6379"
         style="font-size:2.58815551px;font-style:normal;font-weight:bold;line-height:125%;letter-spacing:0px;word-spacing:0px;fill:#ffffff;fill-opacity:1;stroke:none;font-family:Sans;-inkscape-font-specification:Sans Bold"
         xml:space="preserve"><tspan
           y="4174.8584"
           x="1252.6379"
           id="tspan5379"
           sodipodi:role="line">Photo</tspan></text>
      <path
         sodipodi:nodetypes="cssssc"
         inkscape:connector-curvature="0"
         inkscape:original-d="m 80.468411,4345.5181 c 2.081401,1.6447 7.747718,-1.1892 9.504492,0.561 3.677134,3.6634 30.392507,4.8516 34.291337,8.7359 1.68523,1.679 12.23261,1.7257 15.34497,3.276 4.5417,2.2625 13.26781,0.5826 16.59763,3.9001 1.66375,1.6575 20.0039,3.0657 23.48722,5.1478"
         inkscape:path-effect="#path-effect5429"
         id="path5427"
         d="m 80.468411,4345.5181 c 3.176002,-0.029 6.35398,0.1584 9.504492,0.561 11.711697,1.4967 22.824837,5.9211 34.291337,8.7359 5.07975,1.247 10.2309,2.1782 15.34497,3.276 5.5568,1.1929 11.06913,2.5823 16.59763,3.9001 7.79692,1.8585 15.62773,3.5748 23.48722,5.1478"
         style="fill:#8782ae;fill-opacity:1;stroke:url(#linearGradient3333);stroke-width:0.88410974;stroke-linecap:butt;stroke-linejoin:miter;stroke-miterlimit:4;stroke-opacity:1;stroke-dasharray:0.08841098, 0.08841098;stroke-dashoffset:0" />
      <text
         inkscape:transform-center-y="-1.2942852"
         inkscape:transform-center-x="-0.52375229"
         transform="matrix(0.96270277,0.27634233,-0.27737389,0.95912246,0,0)"
         sodipodi:linespacing="125%"
         id="text5507"
         y="4147.8242"
         x="1409.0708"
         style="font-size:2.26332092px;font-style:normal;font-weight:normal;line-height:125%;letter-spacing:0px;word-spacing:0px;fill:#ffffff;fill-opacity:1;stroke:none;font-family:Sans;-inkscape-font-specification:Sans"
         xml:space="preserve"><tspan
           y="4147.8242"
           x="1409.0708"
           id="tspan5509"
           sodipodi:role="line">POWER</tspan></text>
      <text
         transform="matrix(0.95386696,0.26835459,-0.26320265,0.97431655,0,0)"
         sodipodi:linespacing="125%"
         id="text5511"
         y="4118.6582"
         x="1350.1019"
         style="font-size:2.43447375px;font-style:normal;font-weight:normal;line-height:125%;letter-spacing:0px;word-spacing:0px;fill:#ffffff;fill-opacity:1;stroke:none;font-family:Sans;-inkscape-font-specification:Sans"
         xml:space="preserve"><tspan
           y="4118.6582"
           x="1350.1019"
           id="tspan5513"
           sodipodi:role="line">HOLD</tspan></text>
      <path
         sodipodi:nodetypes="cssscccccccsscccssscc"
         inkscape:connector-curvature="0"
         id="path5545"
         d="m 174.7135,4379.5061 c 0,0 -1.04938,-0.3281 -1.55007,-0.5515 -0.42203,-0.1884 -0.91919,-0.3102 -1.21794,-0.6618 -0.32798,-0.3862 -0.48762,-0.9283 -0.49823,-1.4341 -0.008,-0.3838 0.33216,-1.1031 0.33216,-1.1031 l 0.49824,-0.4964 0.44287,-0.2205 0.99649,-0.1656 0.77504,0 1.10719,0.2207 2.82336,0.717 c 0,0 1.52081,0.2399 2.2144,0.5515 0.32662,0.1467 0.61582,0.372 0.88576,0.6067 0.20666,0.1798 0.5536,0.6067 0.5536,0.6067 l 0.44287,1.1031 -0.11072,0.9928 c 0,0 -0.36653,0.6653 -0.66432,0.8825 -0.3155,0.2301 -0.77504,0.3308 -1.10719,0.386 -0.33217,0.055 -1.16257,0 -1.38401,-0.055 -0.22144,-0.055 -2.54655,-0.717 -2.54655,-0.717 z"
         style="fill:#0d0e10;fill-opacity:1;stroke:none" />
      <text
         transform="matrix(0.95716361,0.23107939,-0.22322027,0.99086341,0,0)"
         sodipodi:linespacing="125%"
         id="text5515"
         y="4150.1821"
         x="1149.1805"
         style="font-size:2.11383748px;font-style:normal;font-weight:normal;line-height:125%;letter-spacing:0px;word-spacing:0px;fill:#ffffff;fill-opacity:1;stroke:none;font-family:Sans;-inkscape-font-specification:Sans"
         xml:space="preserve"><tspan
           y="4150.1821"
           x="1149.1805"
           id="tspan5517"
           sodipodi:role="line">START</tspan></text>
      <path
         style="fill:#0d0e10;fill-opacity:1;stroke:none"
         d="m 161.83756,4376.3609 c 0,0 -1.10808,-0.2891 -1.60879,-0.5125 -0.42203,-0.1884 -0.97789,-0.3102 -1.27663,-0.6619 -0.32799,-0.3861 -0.44849,-1.1037 -0.45909,-1.6095 -0.008,-0.3837 0.33215,-1.103 0.33215,-1.103 l 0.49825,-0.4964 0.44288,-0.2206 0.99647,-0.1656 0.77504,0 1.1072,0.2207 2.82336,0.717 c 0,0 1.52079,0.2399 2.21439,0.5515 0.32662,0.1468 0.61583,0.372 0.88576,0.6067 0.20667,0.1798 0.5536,0.6067 0.5536,0.6067 l 0.44287,1.1031 -0.11072,0.9928 c 0,0 -0.36653,0.6653 -0.66432,0.8825 -0.31549,0.2301 -0.77504,0.3309 -1.10719,0.386 -0.33216,0.055 -1.16256,0 -1.384,-0.055 -0.22143,-0.055 -2.54656,-0.717 -2.54656,-0.717 z"
         id="path5547"
         inkscape:connector-curvature="0"
         sodipodi:nodetypes="cssscccccccsscccssscc" />
      <text
         transform="matrix(0.97154932,0.24368149,-0.24459113,0.96793611,0,0)"
         sodipodi:linespacing="125%"
         id="text5523"
         y="4211.0767"
         x="1224.5405"
         style="font-size:2.26332092px;font-style:normal;font-weight:normal;line-height:125%;letter-spacing:0px;word-spacing:0px;fill:#ffffff;fill-opacity:1;stroke:none;font-family:Sans;-inkscape-font-specification:Sans"
         xml:space="preserve"><tspan
           y="4211.0767"
           x="1224.5405"
           id="tspan5525"
           sodipodi:role="line">SELECT</tspan></text>
      <path
         style="fill:#0d0e10;fill-opacity:1;stroke:none"
         d="m 152.47838,4373.6432 c -0.79937,-0.01 -1.61663,-0.2463 -2.30956,-0.6435 -0.28396,-0.1627 -0.56925,-0.3853 -0.70463,-0.6825 -0.15388,-0.3378 -0.11143,-0.7443 -0.0587,-1.1116 0.0391,-0.2726 0.10569,-0.5614 0.27401,-0.7799 0.21151,-0.2746 0.53115,-0.4769 0.8612,-0.585 0.3349,-0.1097 0.70491,-0.058 1.05692,-0.039 0.35561,0.019 0.71031,0.074 1.05694,0.156 0.4076,0.096 0.81769,0.2066 1.19392,0.39 0.3251,0.1584 0.70019,0.3041 0.90036,0.6045 0.22431,0.3367 0.29252,0.7895 0.23486,1.1895 -0.0523,0.3626 -0.22185,0.746 -0.50889,0.975 -0.53742,0.4286 -1.30804,0.5313 -1.99642,0.5265 z"
         id="path5553"
         inkscape:connector-curvature="0"
         sodipodi:nodetypes="sssssssssssss" />
      <text
         transform="matrix(0.89195699,0.36236453,-0.33206269,0.98622722,0,0)"
         sodipodi:linespacing="125%"
         id="text5527"
         y="3845.4194"
         x="1600.7834"
         style="font-size:3.68585563px;font-style:normal;font-weight:normal;line-height:125%;letter-spacing:0px;word-spacing:0px;fill:#ffffff;fill-opacity:1;stroke:none;font-family:Sans;-inkscape-font-specification:Sans"
         xml:space="preserve"><tspan
           y="3845.4194"
           x="1600.7834"
           id="tspan5529"
           sodipodi:role="line">♪</tspan></text>
      <path
         sodipodi:nodetypes="sssssssssssss"
         inkscape:connector-curvature="0"
         id="path5551"
         d="m 144.09136,4371.4094 c -0.79937,-0.01 -1.61664,-0.2464 -2.30957,-0.6435 -0.28396,-0.1627 -0.56925,-0.3853 -0.70462,-0.6825 -0.15389,-0.3379 -0.11144,-0.7442 -0.0587,-1.1115 0.0392,-0.2727 0.1057,-0.5614 0.27401,-0.78 0.21153,-0.2746 0.53115,-0.4768 0.86121,-0.585 0.33489,-0.1096 0.70491,-0.058 1.05692,-0.039 0.3556,0.019 0.7103,0.074 1.05693,0.1559 0.4076,0.096 0.8177,0.2067 1.19393,0.39 0.3251,0.1584 0.70019,0.3041 0.90035,0.6046 0.22431,0.3366 0.29252,0.7895 0.23486,1.1894 -0.0523,0.3626 -0.22184,0.7461 -0.50889,0.975 -0.53742,0.4287 -1.30804,0.5313 -1.99641,0.5265 z"
         style="fill:#0d0e10;fill-opacity:1;stroke:none" />
      <path
         sodipodi:nodetypes="sssssssssssssssssssssssssss"
         inkscape:connector-curvature="0"
         id="path5531"
         d="m 142.42991,4369.743 c 0,-0.1273 -0.0214,-0.2564 0,-0.3818 0.022,-0.1286 0.10609,-0.3203 0.12968,-0.3696 0.0236,-0.049 0.10295,-0.2918 0.18861,-0.4187 0.016,-0.023 0.0335,-0.049 0.0589,-0.061 0.0637,-0.032 0.0353,-0.024 0.21218,-0.024 0.17681,0 0.23576,0.012 0.35364,0.037 0.11787,0.025 0.14145,0.012 0.28291,0.037 0.14146,0.024 0.14146,0 0.27112,0.037 0.12968,0.037 0.1061,0 0.25934,0.087 0.15326,0.086 0.18861,0.099 0.23576,0.1354 0.0472,0.037 0.23576,0.1109 0.29471,0.1478 0.0589,0.037 0.0998,0.05 0.14145,0.087 0.0281,0.024 0.0582,0.051 0.0708,0.086 0.0194,0.054 0,0.037 0,0.1724 0,0.1354 0.0236,0.1725 0,0.271 -0.0236,0.099 -0.0236,0.1724 -0.0708,0.2586 -0.0472,0.087 -0.12967,0.2217 -0.18861,0.2833 -0.0589,0.061 -0.0825,0.1232 -0.15325,0.1725 -0.0708,0.049 -0.12841,0.075 -0.20039,0.087 -0.17996,0.026 -0.41258,-0.049 -0.54225,-0.061 -0.12967,-0.012 -0.15324,0.012 -0.30648,-0.037 -0.15326,-0.049 -0.2004,-0.049 -0.33007,-0.099 -0.12967,-0.049 -0.17683,-0.099 -0.27114,-0.1355 -0.0942,-0.037 -0.0708,-0.024 -0.1886,-0.074 -0.11787,-0.049 -0.19904,-0.045 -0.24755,-0.1232 -0.0195,-0.031 0,-0.074 0,-0.1108 z"
         style="fill:none;stroke:#ffffff;stroke-width:0.43624023;stroke-linecap:butt;stroke-linejoin:miter;stroke-miterlimit:4;stroke-opacity:1;stroke-dasharray:none" />
      <path
         inkscape:connector-curvature="0"
         id="path5533"
         d="m 98.586719,4358.6234 0.249117,-0.5722 0.726603,0.1655 0.124557,-0.2758 -0.68508,-0.2137 0.359841,-0.5999 -0.505159,-0.2275 -0.345999,0.6688 -0.664318,-0.193 -0.15916,0.2757 0.685077,0.2276 -0.32524,0.5998 z"
         style="fill:#ffffff;fill-opacity:1;stroke:none" />
      <path
         inkscape:connector-curvature="0"
         id="path5535"
         d="m 86.601299,4354.7833 0.117644,-0.3241 1.619274,0.4551 -0.117639,0.324 z"
         style="fill:#ffffff;fill-opacity:1;stroke:none" />
      <text
         transform="matrix(0.97193186,0.29416928,-0.30294872,0.93718689,0,0)"
         sodipodi:linespacing="125%"
         id="text5537"
         y="4207.5225"
         x="1405.0305"
         style="font-size:1.94096589px;font-style:normal;font-weight:normal;line-height:125%;letter-spacing:0px;word-spacing:0px;fill:#ffffff;fill-opacity:1;stroke:none;font-family:Sans;-inkscape-font-specification:Sans"
         xml:space="preserve"><tspan
           y="4207.5225"
           x="1405.0305"
           id="tspan5539"
           sodipodi:role="line">VOL</tspan></text>
      <path
         sodipodi:nodetypes="cssscccccccsscccssscc"
         inkscape:connector-curvature="0"
         id="path5549"
         d="m 73.821219,4353.2616 c 0,0 -0.863433,-0.244 -1.279457,-0.4222 -0.35065,-0.1502 -0.757684,-0.2348 -1.019071,-0.5423 -0.286978,-0.3374 -0.448026,-0.8281 -0.487059,-1.2934 -0.02963,-0.3532 0.200503,-1.0347 0.200503,-1.0347 l 0.370619,-0.4849 0.342747,-0.2277 0.791141,-0.2078 0.623096,-0.043 0.903441,0.1419 2.313094,0.5041 c 0,0 1.169686,0.289 1.746097,0.5377 0.271442,0.1171 0.584976,0.1562 0.816146,0.3576 0.176993,0.1541 0.481662,0.5282 0.481662,0.5282 l 0.422593,0.9917 -0.02913,0.9208 c 0,0 -0.25455,0.6332 -0.480852,0.8498 -0.239764,0.2294 -0.603133,0.3478 -0.866848,0.417 -0.263712,0.069 -0.934642,0.064 -1.115995,0.025 -0.181354,-0.039 -2.090561,-0.5194 -2.090561,-0.5194 z"
         style="fill:#0d0e10;fill-opacity:1;stroke:none" />
      <text
         transform="matrix(1.3743827,0.28269665,-0.33885944,0.65789944,0,0)"
         sodipodi:linespacing="125%"
         id="text5541"
         y="5960.7656"
         x="1522.4209"
         style="font-size:4.8593626px;font-style:normal;font-weight:normal;line-height:125%;letter-spacing:0px;word-spacing:0px;fill:#ffffff;fill-opacity:1;stroke:none;font-family:Sans;-inkscape-font-specification:Sans"
         xml:space="preserve"><tspan
           y="5960.7656"
           x="1522.4209"
           id="tspan5543"
           sodipodi:role="line">N</tspan></text>
      <path
         sodipodi:nodetypes="sssssssssssssss"
         inkscape:connector-curvature="0"
         id="path5567"
         d="m 212.13679,4376.8311 c 0.15792,-0.014 0.3207,0.017 0.47056,0.069 0.14062,0.049 0.33215,0.082 0.38751,0.2207 0.0553,0.1379 0.11072,0.4413 0.11072,0.4964 0,0.055 -0.1384,0.2896 -0.2076,0.3447 -0.0692,0.055 -0.0138,0.1379 -0.2076,0.1379 -0.19376,0 -0.30448,0.027 -0.40135,-0.027 -0.097,-0.055 -0.11072,-0.097 -0.17993,-0.1241 -0.0693,-0.028 -0.15223,-0.055 -0.19375,-0.1516 -0.0416,-0.097 -0.0693,-0.1931 -0.0693,-0.2896 0,-0.097 -0.0277,-0.082 0,-0.1655 0.0277,-0.082 0.0138,-0.1516 0.0553,-0.2206 0.0416,-0.069 0.0433,-0.094 0.0693,-0.1378 0.025,-0.043 0.0434,-0.094 0.083,-0.1242 0.0232,-0.017 0.054,-0.025 0.083,-0.027 z"
         style="fill:#7f9389;fill-opacity:1;stroke:none" />
      <path
         sodipodi:nodetypes="sssssssssssssssss"
         inkscape:connector-curvature="0"
         id="path5583"
         d="m 54.98388,4338.6921 c -0.05535,-0.042 -0.13889,-0.082 -0.195439,-0.1362 -0.05425,-0.052 -0.09985,-0.1157 -0.13672,-0.1809 -0.03464,-0.061 -0.04153,-0.1517 -0.04153,-0.2069 0,-0.055 -0.04152,-0.042 0.01384,-0.124 0.05535,-0.082 0.02422,-0.1379 0.1211,-0.2068 0.09688,-0.069 0.03114,-0.065 0.183379,-0.1207 0.15224,-0.055 0.02768,-0.031 0.19376,-0.031 0.16608,0 0.16608,0 0.262959,0.028 0.09688,0.027 0.11072,0.014 0.166081,0.069 0.05536,0.055 0.05536,-0.042 0.0692,0.1516 0.01384,0.1932 0.04499,0.2 0.01729,0.2828 -0.02768,0.082 0.0035,0.079 -0.03806,0.162 -0.04152,0.082 -0.01038,0.079 -0.134941,0.1619 -0.124557,0.082 -0.138398,0.094 -0.193759,0.1207 -0.05536,0.027 -0.05189,0.045 -0.134939,0.045 -0.08305,0 -0.08961,0.033 -0.15224,-0.014 z"
         style="fill:#7d98c5;fill-opacity:1;stroke:none" />
      <path
         style="fill:#7d98c5;fill-opacity:1;stroke:none"
         d="m 56.195284,4331.8528 c -0.04391,-0.033 -0.114553,-0.054 -0.159404,-0.097 -0.04302,-0.041 -0.07481,-0.1031 -0.104043,-0.1548 -0.02748,-0.049 -0.03293,-0.1203 -0.03293,-0.1641 0,-0.044 -0.03293,-0.033 0.01098,-0.099 0.0439,-0.065 0.01921,-0.1093 0.09605,-0.164 0.07683,-0.055 0.02469,-0.052 0.145445,-0.096 0.120748,-0.044 0.02196,-0.024 0.153678,-0.024 0.131723,0 0.131724,0 0.208562,0.021 0.07684,0.021 0.08782,0.011 0.131724,0.055 0.04391,0.044 0.04391,-0.033 0.05488,0.1202 0.01098,0.1532 0.03567,0.1586 0.01372,0.2243 -0.02195,0.066 0.0027,0.063 -0.03018,0.1285 -0.03293,0.066 -0.0082,0.063 -0.107026,0.1285 -0.0988,0.065 -0.10977,0.073 -0.153678,0.096 -0.04391,0.021 -0.04116,0.036 -0.107026,0.036 -0.06585,0 -0.07106,0.026 -0.120746,-0.011 z"
         id="path5585"
         inkscape:connector-curvature="0"
         sodipodi:nodetypes="sssssssssssssssss" />
      <path
         style="fill:#7d98c5;fill-opacity:1;stroke:none"
         d="m 56.500763,4338.7312 c -0.05536,-0.042 -0.144131,-0.073 -0.20068,-0.1276 -0.05425,-0.052 -0.09461,-0.1244 -0.13148,-0.1896 -0.03464,-0.061 -0.04152,-0.1516 -0.04152,-0.2068 0,-0.055 -0.04152,-0.042 0.01384,-0.1241 0.05536,-0.082 0.02422,-0.1379 0.1211,-0.2069 0.09688,-0.069 0.03114,-0.065 0.183379,-0.1206 0.152241,-0.055 0.02768,-0.03 0.193761,-0.03 0.16608,0 0.166081,0 0.262959,0.027 0.09688,0.028 0.11072,0.014 0.16608,0.069 0.05536,0.055 0.05536,-0.042 0.0692,0.1517 0.01384,0.193 0.04498,0.1999 0.01729,0.2827 -0.02767,0.082 0.0035,0.079 -0.03806,0.1619 -0.04152,0.082 -0.01038,0.079 -0.13494,0.1621 -0.124559,0.082 -0.138399,0.093 -0.193761,0.1207 -0.05535,0.027 -0.05189,0.045 -0.134939,0.045 -0.08305,0 -0.08961,0.034 -0.152239,-0.014 z"
         id="path5587"
         inkscape:connector-curvature="0"
         sodipodi:nodetypes="sssssssssssssssss" />
      <path
         sodipodi:nodetypes="sssssssssssssssssssssssssssssssss"
         inkscape:connector-curvature="0"
         id="path5589"
         d="m 57.105484,4337.543 c -0.02184,0 0.07142,-0.2182 0.166366,-0.2535 0.04451,-0.016 0.0931,0.021 0.137009,0.039 0.03443,0.014 0.0649,0.037 0.09786,0.054 0.01937,0.01 0.01957,0.01 0.05872,0.03 0.03914,0.019 0.07095,0.035 0.100312,0.068 0.02936,0.034 0.05627,0.054 0.06116,0.073 0.0049,0.019 0.01957,0.024 0.03425,0.063 0.01467,0.039 0.01957,0.039 0.03425,0.087 0.01468,0.049 0.01468,0.035 0.01957,0.078 0.0049,0.044 0.0098,0.044 0.0049,0.082 -0.0049,0.039 0,0.049 -0.01957,0.083 -0.01957,0.034 -0.02447,0.039 -0.03914,0.063 -0.01468,0.024 0.0049,-0.01 -0.02936,0.058 -0.03425,0.068 -0.02447,0.068 -0.04403,0.1024 -0.01957,0.034 -0.02447,0.063 -0.04893,0.093 -0.02447,0.029 -0.03455,0.1126 -0.08319,0.1268 -0.06866,0.02 -0.179418,0 -0.199188,-0.072 -0.0097,-0.034 0.04893,-0.068 0.05872,-0.087 0.0098,-0.019 0.02793,-0.05 0.03282,-0.074 0.0049,-0.024 0.02447,-0.068 0.03425,-0.092 0.0098,-0.025 0.01467,-0.019 0.02447,-0.049 0.0098,-0.03 0.0098,-0.044 0.01957,-0.073 0.0098,-0.029 0.01222,-0.039 0.01469,-0.059 0.0025,-0.021 0.0034,-0.043 0,-0.063 -0.0016,-0.01 0.0049,0 -0.0098,-0.029 -0.01467,-0.024 -0.03183,-0.079 -0.05872,-0.1121 -0.01328,-0.016 -0.02447,-0.029 -0.04893,-0.039 -0.02447,-0.01 -0.04403,0 -0.07339,-0.024 -0.02936,-0.019 -0.07828,-0.029 -0.112543,-0.039 -0.03425,-0.01 -0.0573,-0.025 -0.08319,-0.014 -0.0183,0.01 -0.01391,-0.017 -0.04893,-0.019 -5.32e-4,0 0.101066,-0 -6e-6,-0 z"
         style="fill:#adc8e3;fill-opacity:1;stroke:none" />
      <path
         style="fill:#adc8e3;fill-opacity:1;stroke:none"
         d="m 57.331034,4337.2153 c -0.03032,0.01 0.07368,-0.2787 0.223698,-0.3287 0.07032,-0.023 0.14707,0.03 0.21646,0.055 0.05439,0.02 0.10253,0.052 0.154613,0.076 0.03061,0.014 0.03093,0.014 0.09276,0.042 0.06185,0.027 0.108229,0.014 0.154613,0.062 0.04638,0.049 0.09276,0.1106 0.100497,0.1382 0.0077,0.028 0.03093,0.035 0.05411,0.09 0.0232,0.055 0.03093,0.055 0.05411,0.1244 0.0232,0.069 0.0232,0.048 0.03093,0.1104 0.0077,0.062 0.01546,0.062 0.0077,0.1175 -0.0077,0.055 -10e-7,0.069 -0.03092,0.1174 -0.03093,0.048 -0.03865,0.055 -0.06185,0.09 -0.0232,0.035 0.0077,-0.014 -0.04638,0.082 -0.05411,0.097 -0.03865,0.097 -0.06958,0.1451 -0.03092,0.049 -0.03865,0.09 -0.07731,0.1312 -0.03865,0.042 -0.05458,0.1596 -0.131422,0.1796 -0.108491,0.028 -0.215715,0.01 -0.246948,-0.087 -0.0154,-0.048 0.01503,-0.1346 0.03048,-0.1621 0.01546,-0.027 0.03865,-0.049 0.04638,-0.083 0.0077,-0.035 0.03865,-0.097 0.05411,-0.1312 0.01546,-0.035 0.0232,-0.028 0.03865,-0.069 0.01546,-0.042 0.01546,-0.062 0.03093,-0.1036 0.01546,-0.042 0.0193,-0.055 0.0232,-0.083 0.0041,-0.03 0.0054,-0.06 0,-0.09 -0.0026,-0.014 0.0077,-0.01 -0.01546,-0.042 -0.0232,-0.035 -0.0503,-0.1129 -0.09276,-0.159 -0.02097,-0.022 -0.0387,-0.042 -0.07731,-0.055 -0.03858,-0.014 -0.06052,-0.022 -0.115961,-0.035 -0.05269,-0.012 -0.123691,-0.042 -0.177806,-0.055 -0.06514,-0.028 -0.10987,-0.049 -0.169583,-0.078 z"
         id="path5591"
         inkscape:connector-curvature="0"
         sodipodi:nodetypes="csssssssssssssssssssssssssssscc" />
      <path
         sodipodi:nodetypes="ssssssssssssssssssssssssssssssss"
         inkscape:connector-curvature="0"
         id="path5593"
         d="m 57.700064,4336.8045 c 0.001,-0.101 -0.123398,-0.4417 0.295748,-0.3796 0.100753,0.015 0.204091,0.037 0.300383,0.069 0.07548,0.024 0.142281,0.064 0.214559,0.095 0.04248,0.017 0.04291,0.017 0.128736,0.052 0.08582,0.035 0.150189,0.017 0.214558,0.077 0.06437,0.06 0.128736,0.1375 0.139464,0.1719 0.01073,0.035 0.04291,0.043 0.0751,0.1117 0.03218,0.069 0.04291,0.069 0.07509,0.1546 0.03219,0.086 0.03219,0.06 0.04291,0.1375 0.01073,0.077 0.02146,0.077 0.01073,0.1461 -0.01073,0.069 -3e-6,0.085 -0.04291,0.146 -0.04291,0.06 -0.05365,0.069 -0.08582,0.1117 -0.03219,0.043 0.01072,-0.017 -0.06437,0.1031 -0.0751,0.1203 -0.05363,0.1203 -0.09656,0.1804 -0.04291,0.06 -0.05364,0.1117 -0.10728,0.1632 -0.05363,0.052 -0.07597,0.1976 -0.182375,0.2235 -0.24021,0.058 -0.292302,0.1121 -0.302902,-0.089 -0.0034,-0.063 0.02432,-0.145 0.04577,-0.1794 0.02146,-0.035 0.04326,-0.084 0.05399,-0.1272 0.01073,-0.043 0.03807,-0.1134 0.05952,-0.1564 0.02146,-0.043 0.01488,-0.058 0.03634,-0.1101 0.02146,-0.052 0.02146,-0.077 0.04291,-0.1288 0.02146,-0.052 0.02678,-0.068 0.03219,-0.1031 0.0057,-0.037 0.0074,-0.075 0,-0.1116 -0.0036,-0.018 0.01073,-0.01 -0.02146,-0.052 -0.03218,-0.043 -0.0698,-0.1402 -0.128735,-0.1976 -0.0291,-0.028 -0.05371,-0.052 -0.107281,-0.069 -0.05353,-0.017 -0.07908,-0.061 -0.156025,-0.077 -0.07312,-0.015 -0.163581,-0.05 -0.236956,-0.073 -0.09264,-0.029 -0.23624,0 -0.235333,-0.088 z"
         style="fill:#adc8e3;fill-opacity:1;stroke:none" />
      <path
         sodipodi:nodetypes="csssssssssssssc"
         inkscape:connector-curvature="0"
         id="path5595"
         d="m 58.676191,4332.3999 c -0.238711,-0.1649 -0.516064,-0.4228 -0.499104,-0.7118 0.01376,-0.2343 0.420812,-0.507 0.469744,-0.5264 0.04893,-0.019 0.665471,-0.1463 0.704617,-0.1657 0.03915,-0.019 0.440385,-0.039 0.548034,-0.01 0.107651,0.029 0.283805,0.019 0.459958,0.1267 0.176156,0.1073 0.276664,0.075 0.381668,0.2535 0.09989,0.1699 0.117431,0.087 0.225086,0.351 0.106903,0.2618 0.07614,0.1909 0.02936,0.3705 -0.0467,0.1793 -0.06302,0.1527 -0.264231,0.2437 -0.203327,0.092 -0.32295,0.1366 -0.450172,0.1951 -0.127223,0.058 -0.176154,0.1072 -0.411026,0.087 -0.234872,-0.019 -0.293591,-0.01 -0.50889,-0.039 -0.215299,-0.029 -0.491297,-0.042 -0.685043,-0.1755 z"
         style="fill:#91b4da;fill-opacity:1;stroke:none" />
      <path
         inkscape:connector-curvature="0"
         id="path4228"
         d="m 56.045603,4351.8078 c -0.05061,-0.1008 -0.430224,-0.9834 -0.430224,-0.9834 l 0,-0.7816 0.556761,-0.4791 1.923361,0.4287 2.429508,0.6807 c 0,0 3.416498,1.1599 3.644264,1.2607 0.227767,0.1007 1.037603,1.0589 1.113524,1.1598 0.07592,0.1007 0.480841,1.0085 0.480841,1.0085 0,0 -0.151844,0.8825 -0.177152,0.9834 -0.0253,0.1007 -1.088216,0.5547 -1.189446,0.5547 -0.101233,0 -4.4541,-1.286 -4.4541,-1.286 l -3.289959,-1.3615 z"
         style="fill:#647370;fill-opacity:1;stroke:none" />
      <path
         sodipodi:nodetypes="csscccscccscccccc"
         inkscape:connector-curvature="0"
         id="path4232"
         d="m 55.336997,4354.1778 c 0,0 1.315984,2.37 1.720902,2.5718 0.404918,0.2017 4.859018,1.4119 5.213321,1.5632 0.354303,0.1513 5.517008,1.8154 5.517008,1.8154 l 0.556763,0.8068 2.935655,1.0085 c 0,0 0.556763,-0.3025 0.759223,-0.3025 0.202459,0 3.138115,0.6555 3.138115,0.6555 l 7.288525,2.118 1.006029,1.1065 c 0,0 9.743838,2.4781 10.244898,2.6208 0.501063,0.1426 16.678154,4.4215 16.678154,4.4215 l 14.25339,3.9936 -0.0806,-0.8558 -1.03792,-1.0162 -0.54578,-1.1678 c -22.38595,-6.3888 -46.267332,-11.2809 -67.647755,-19.3393 z"
         style="fill:#757776;fill-opacity:1;stroke:none" />
      <path
         sodipodi:nodetypes="ccccscccccccccc"
         inkscape:connector-curvature="0"
         id="path4246"
         d="m 193.23906,4385.5344 -1.57693,-0.015 -1.88422,0.7358 -3.72216,2.5316 c 0,0 -1.10949,0.6775 -1.25266,0.6775 -0.14316,0 -4.68849,-0.927 -4.68849,-0.927 l -57.21955,-15.0464 0.329,-0.8132 60.88113,15.6813 0.93055,-0.107 3.45373,-2.1216 2.59479,-1.551 2.70866,-0.1834 0.38051,0.4677 z"
         style="fill:#e7e7ff;fill-opacity:1;stroke:none" />
      <path
         sodipodi:nodetypes="ccccc"
         inkscape:connector-curvature="0"
         id="path4230"
         d="m 68.950728,4357.6587 54.311392,15.0383 -0.24158,0.8201 -54.427712,-14.7887 z"
         style="fill:#e7e7ff;fill-opacity:1;stroke:none" />
      <path
         sodipodi:nodetypes="sscscscccscss"
         inkscape:connector-curvature="0"
         id="path4244"
         d="m 123.17624,4374.3723 c -0.0881,-0.1526 -0.15844,-0.3177 -0.19261,-0.4903 -0.0299,-0.1512 0.0885,-0.4539 0.0885,-0.4539 0,0 0.34165,-0.1387 0.40492,-0.1387 0.0632,0 0.72126,0.038 0.77187,0.051 0.0507,0.012 0.56942,0.1891 0.658,0.2143 0.0885,0.025 0.73391,0.3908 0.78452,0.4286 0.0507,0.038 0.51881,0.7691 0.51881,0.7691 0,0 0.0885,0.2268 -0.0126,0.3024 -0.10121,0.075 -0.74657,0.2523 -0.82249,0.2523 -0.0759,0 -0.93637,-0.1513 -1.02495,-0.164 -0.0885,-0.012 -0.62414,-0.1547 -0.8478,-0.3656 -0.12332,-0.1162 -0.24147,-0.2582 -0.32619,-0.4047 z"
         style="fill:#7c8aa2;fill-opacity:1;stroke:#000000;stroke-width:0.01060931;stroke-linecap:butt;stroke-linejoin:miter;stroke-miterlimit:4;stroke-opacity:1;stroke-dasharray:none" />
      <path
         sodipodi:nodetypes="sssssssssss"
         inkscape:connector-curvature="0"
         id="path4234"
         d="m 74.977529,4363.9015 c 0.05991,0.015 0.265603,0.021 0.359252,-0.055 0.08334,-0.068 0.123404,-0.1952 0.110537,-0.3013 -0.02179,-0.1798 -0.234893,-0.3698 -0.303981,-0.4519 -0.06909,-0.082 -0.842856,-0.5068 -0.898126,-0.5342 -0.05527,-0.028 -0.511571,-0.2393 -0.787587,-0.2739 -0.160513,-0.02 -0.366543,-0.069 -0.483608,0.041 -0.100864,0.096 -0.06909,0.3286 -0.05527,0.4109 0.01382,0.082 0.151991,0.3834 0.234894,0.4519 0.0829,0.068 0.35642,0.3013 0.566511,0.3972 0.392663,0.1792 1.257376,0.3149 1.257376,0.3149 z"
         style="fill:#4c6074;fill-opacity:1;stroke:none" />
      <path
         sodipodi:nodetypes="ccccc"
         inkscape:connector-curvature="0"
         id="path4236"
         d="m 76.824537,4364.291 -0.28632,-1.1055 5.905357,1.7116 0.57264,1.0875 z"
         style="fill:#4c6074;fill-opacity:1;stroke:none" />
      <path
         inkscape:connector-curvature="0"
         id="path4240"
         d="m 83.338325,4365.4319 41.373285,11.125 -0.0716,1.0697 -41.015395,-11.125 z"
         style="fill:#121214;fill-opacity:1;stroke:none" />
      <path
         sodipodi:nodetypes="ccccccccccccc"
         inkscape:connector-curvature="0"
         id="path4242"
         d="m 124.11069,4374.082 -0.15067,-0.3242 0.41159,0 0.17995,0.3209 0.80734,0.045 0.003,0.3179 -0.6538,-0.057 0.22423,0.3272 -0.4811,-0.01 -0.13375,-0.3031 -0.65245,-0.03 -0.0516,-0.2978 z"
         style="fill:#93c7c3;fill-opacity:1;stroke:none" />
      <path
         inkscape:connector-curvature="0"
         id="path4250"
         d="m 173.50457,4389.0951 0.55676,-0.4539 0.25308,-1.0589 -0.80984,-0.706 -19.13238,-4.6392 -25.10492,-6.6059 -0.49041,0.1007 -0.16106,0.2765 c 0,0 0.0448,0.2228 0.0806,0.3743 0.0357,0.1516 0.31317,0.9182 0.31317,0.9182 0,0 43.10318,11.5922 43.33094,11.6679 0.22777,0.075 1.16414,0.1261 1.16414,0.1261 z"
         style="fill:#b3c5d3;fill-opacity:1;stroke:none" />
      <path
         style="fill:#000000;fill-opacity:1;stroke:#000000;stroke-width:0.03757025px;stroke-linecap:butt;stroke-linejoin:miter;stroke-opacity:1"
         d="m 88.860192,4314.5665 -0.4844,-0.1752 -0.241908,-0.2294 -0.132353,-0.3 -0.05167,-0.3678 0.05432,-0.1844 0.112077,-0.1902 c 0,0 0.07771,-0.098 0.216132,-0.1708 0.138436,-0.073 0.239512,-0.083 0.311708,-0.091 0.0722,-0.01 0.30024,-0.06 0.476493,-0.048 0.176248,0.012 0.661674,0.053 0.722413,0.076 0.06074,0.023 0.578022,0.092 0.696515,0.1093 0.118496,0.018 0.880217,0.1953 0.939459,0.2043 0.05925,0.01 0.335536,0.1454 0.335536,0.1454 l 0.197099,0.2189 c 0,0 0.07413,0.1567 0.111957,0.2424 0.03781,0.086 0.05822,0.1433 0.06417,0.2025 0.0059,0.059 0.02784,0.1314 0.03976,0.2495 0.01191,0.1181 0.0109,0.1444 -0.03096,0.2716 -0.04259,0.1295 -0.261971,0.2947 -0.316747,0.33 -0.05477,0.036 -0.04034,0.034 -0.09661,0.054 -0.05627,0.02 -0.355023,0.096 -0.355023,0.096 0,0 -0.126972,0.043 -0.246953,0.01 -0.119982,-0.033 -0.744306,-0.1492 -0.803549,-0.1582 -0.05925,-0.01 -0.563584,-0.093 -0.667636,-0.1122 -0.104055,-0.019 -0.849842,-0.1834 -0.849842,-0.1834 z"
         id="path4272"
         inkscape:connector-curvature="0"
         sodipodi:nodetypes="cccccccsscccccccssscsccccc" />
      <path
         style="fill:#8280b2;fill-opacity:1;stroke:none"
         d="m 147.56635,4329.9694 0.15658,-0.4485 0.78291,0.234 -0.15658,0.507 z"
         id="path4274"
         inkscape:connector-curvature="0"
         sodipodi:nodetypes="ccccc" />
    </g>
  </g>
</svg>
