<?xml version="1.0" encoding="UTF-8" standalone="no"?>
<!-- Created with Inkscape (http://www.inkscape.org/) -->

<svg
   xmlns:dc="http://purl.org/dc/elements/1.1/"
   xmlns:cc="http://creativecommons.org/ns#"
   xmlns:rdf="http://www.w3.org/1999/02/22-rdf-syntax-ns#"
   xmlns:svg="http://www.w3.org/2000/svg"
   xmlns="http://www.w3.org/2000/svg"
   xmlns:sodipodi="http://sodipodi.sourceforge.net/DTD/sodipodi-0.dtd"
   xmlns:inkscape="http://www.inkscape.org/namespaces/inkscape"
   width="175"
   height="175"
   id="svg2"
   version="1.1"
   inkscape:version="0.48.5 r10040"
   sodipodi:docname="mince.svg">
  <defs
     id="defs4" />
  <sodipodi:namedview
     id="base"
     pagecolor="#ffffff"
     bordercolor="#666666"
     borderopacity="1.0"
     inkscape:pageopacity="0.0"
     inkscape:pageshadow="2"
     inkscape:zoom="2.8"
     inkscape:cx="80.231619"
     inkscape:cy="109.76068"
     inkscape:document-units="px"
     inkscape:current-layer="layer1"
     showgrid="false"
     inkscape:window-width="1680"
     inkscape:window-height="987"
     inkscape:window-x="-8"
     inkscape:window-y="-8"
     inkscape:window-maximized="1"
     fit-margin-top="0"
     fit-margin-left="0"
     fit-margin-right="0"
     fit-margin-bottom="0" />
  <metadata
     id="metadata7">
    <rdf:RDF>
      <cc:Work
         rdf:about="">
        <dc:format>image/svg+xml</dc:format>
        <dc:type
           rdf:resource="http://purl.org/dc/dcmitype/StillImage" />
        <dc:title />
      </cc:Work>
    </rdf:RDF>
  </metadata>
  <g
     inkscape:label="Layer 1"
     inkscape:groupmode="layer"
     id="layer1"
     transform="translate(-0.06711365,-877.44738)">
    <path
       sodipodi:type="arc"
       style="fill:#999999;fill-opacity:1;fill-rule:nonzero;stroke:#000000;stroke-width:1;stroke-miterlimit:4;stroke-opacity:1;stroke-dasharray:none;stroke-dashoffset:0"
       id="path4137"
       sodipodi:cx="367.19046"
       sodipodi:cy="296.08737"
       sodipodi:rx="296.47977"
       sodipodi:ry="296.47977"
       d="m 663.67023,296.08737 a 296.47977,296.47977 0 1 1 -592.959537,0 296.47977,296.47977 0 1 1 592.959537,0 z"
       transform="matrix(0.29463287,0,0,0.29463287,-20.619264,877.71031)" />
    <path
       sodipodi:nodetypes="sssssssss"
       inkscape:connector-curvature="0"
       id="path3826"
       d="m 14.875804,969.78339 c 1.488243,0.0763 2.942345,0.54952 3.886038,1.67634 0.839572,1.00249 1.396165,2.40132 1.295347,4.11463 -0.134249,2.28144 -1.094021,2.66204 -1.828723,3.35266 -0.773672,0.72725 -2.103225,0.92036 -3.505057,0.99056 -1.440434,0.0721 -3.007305,0.12055 -4.11463,-1.14296 -2.4893929,-2.84052 -1.168517,-2.29824 -1.4346679,-3.2449 -0.5114163,-1.81905 1.0047539,-3.87703 1.8156519,-4.52718 1.828904,-1.46634 2.78683,-1.27548 3.886041,-1.21915 z"
       style="fill:#626262;fill-opacity:1;stroke:#000000;stroke-width:0.30172414px;stroke-linecap:butt;stroke-linejoin:miter;stroke-opacity:1" />
    <path
       sodipodi:nodetypes="ccccccccccc"
       inkscape:connector-curvature="0"
       id="path3778"
       d="m 70.964756,892.72109 23.706897,-4.31035 0,62.06897 c -0.03891,3.36286 0.64861,6.86248 9.051727,7.97414 l 0.43103,4.95689 -34.91379,0.43104 -0.215519,-5.17242 c 6.684611,0.27069 9.297877,-3.31872 9.698277,-8.18965 l 0.862068,-45.25862 c 1.293105,-6.03449 -1.43678,-8.97989 -8.189653,-9.26724 z"
       style="fill:#5c5c5c;fill-opacity:1;stroke:#000000;stroke-width:1.20689654;stroke-linecap:butt;stroke-linejoin:miter;stroke-miterlimit:4;stroke-opacity:1;stroke-dasharray:none" />
    <path
       sodipodi:nodetypes="ccsscsssccscsscscscsscsssssssssssssssssscscsscssscscssscscsccc"
       inkscape:connector-curvature="0"
       id="path3780"
       d="M 45.749241,1030.4366 36.26648,977.8504 c 3.413318,-0.6039 7.392685,-0.90967 10.775863,1.93965 1.799996,1.51597 2.623259,4.12726 2.370689,7.32759 -0.272001,3.44652 -1.443937,5.94475 -2.801723,7.32759 2.565328,-2.28965 5.679764,-3.0166 9.051724,-2.80173 3.04326,0.19393 5.529361,1.6487 6.617912,3.90546 0.478366,0.99174 2.240721,1.45043 0.646553,6.89654 -0.759096,2.5933 -6.089994,6.4497 -5.056999,11.1374 -3.661966,-2.2415 -5.112158,-9.0395 -4.441078,-12.8552 -2.332442,1.5605 -1.833692,2.0602 -4.116489,4.8415 -1.446538,1.7624 -1.886397,8.0497 0.746653,11.5053 2.215017,3.4604 4.826823,4.0173 7.543103,4.0949 l 15.086207,0.431 c 4.951426,0.1415 5.64579,-2.176 7.543104,-4.9569 1.353006,-2.0873 2.15272,-4.3994 2.155173,-6.8966 0.0032,-3.2691 -1.318782,-5.5504 -2.244441,-7.6215 -0.829754,4.1667 -1.964342,7.5415 -3.23276,8.5467 -1.186811,0.9406 -1.580917,1.8178 -5.439103,3.0445 0.272391,-0.6767 1.402613,-1.4556 -0.238299,-5.9941 -1.204446,-3.3313 -3.976838,-4.5903 -4.336494,-5.3356 -1.004512,-2.0818 -1.236655,-4.97188 0.189371,-8.80374 0.981334,-2.30025 1.20245,-2.83016 2.749432,-3.67463 1.67713,-0.9155 4.303986,-1.11878 6.491664,-0.88821 3.540754,0.37318 2.062677,0.51527 4.059436,2.01202 1.208423,0.90583 2.538441,1.48983 -0.261737,-1.49013 -2.26931,-2.41501 -2.636562,-7.11241 -2.47845,-8.24353 0.490094,-3.50608 1.251576,-4.95824 2.801726,-6.89656 1.316504,-1.64617 2.928058,-3.43391 7.327585,-3.87931 3.993615,-0.40431 5.776364,0.97681 7.543104,2.58621 1.441095,1.31276 2.509542,2.40626 3.243589,5.19856 0.503465,1.91518 0.370634,4.02592 -0.226348,6.22385 -0.474304,1.74626 -1.917173,3.5516 -2.370689,4.52586 -0.393898,0.84619 -1.699775,2.72217 -1.562502,2.69397 1.631932,-0.33521 2.478461,-2.22699 3.717673,-3.34052 1.36382,-1.22549 3.691571,-1.03444 6.681031,0.64655 2.25032,1.26537 2.92799,1.74434 3.6638,3.01725 0.73706,1.27508 1.65116,1.83736 0.86207,5.81896 -0.4273,2.156 -1.64773,3.9668 -3.23276,6.0345 -1.28524,1.6766 -3.4037,3.1534 -3.01724,5.6034 l 0.55728,3.5331 c -1.47316,-0.9442 -2.71265,-0.2627 -5.057,-4.0948 -1.589112,-2.5976 -2.587816,-5.2407 -2.333712,-7.2014 -2.337702,1.9449 -3.564135,4.8974 -3.842334,8.0418 -0.184429,2.0845 0.505886,4.782 2.475276,7.0751 1.356772,1.5797 2.866596,3.014 5.18325,3.6376 4.92082,1.9239 14.10924,1.0668 18.53448,0 4.53461,-1.0931 4.16661,-2.4834 5.81896,-4.2211 1.99651,-2.0995 1.96345,-5.326 1.50862,-7.8479 -0.44987,-2.4944 -5.13992,-6.1519 -6.43302,-6.6332 0.54915,2.6253 0.013,4.3584 -0.48967,5.7387 -1.00835,2.7688 -1.43781,4.5125 -3.82068,5.4096 2.62619,-5.8498 -3.53489,-10.7474 -2.89733,-14.23948 0.97393,-5.3344 4.06315,-6.646 4.37346,-6.8704 1.82659,-1.32084 4.25313,-0.77603 6.46552,0.21552 1.87695,0.84121 2.74822,1.82603 5.60345,3.23276 -1.60049,-2.97603 -3.00929,-5.81465 -3.23276,-8.40518 -0.20308,-2.35414 0.78462,-4.5093 2.37069,-6.46552 2.23447,-2.46118 3.39278,-3.01724 4.95689,-3.01724 l 4.74139,0 -8.62069,54.52584 z"
       style="fill:#505050;fill-opacity:1;stroke:#000000;stroke-width:1.20689654;stroke-linecap:butt;stroke-linejoin:miter;stroke-miterlimit:4;stroke-opacity:1;stroke-dasharray:none" />
    <path
       sodipodi:nodetypes="ccccccccccccccccc"
       inkscape:connector-curvature="0"
       id="path3806"
       d="m 135.02726,905.16721 c -0.68391,-1.05388 -1.13218,-1.95175 -3.50216,-3.28664 -1.04039,-0.37779 -1.64065,-0.97565 -4.31034,-0.53879 -1.11879,0.77545 -1.91996,0.28042 -3.55604,3.125 -0.23263,1.17563 -0.87613,1.25559 -0.32327,4.52586 0.4727,1.04167 0.79294,2.08333 2.37069,3.125 1.96258,1.5316 2.82787,0.90238 3.98707,1.07759 1.21193,-0.66729 0.93711,-0.8198 1.18534,-1.29311 -1.60174,0.0588 -3.34186,0.17295 -3.55603,-0.32327 l -0.86207,-0.43104 c -0.92946,-0.45566 -1.47562,-1.48629 -1.8319,-2.80172 -0.20375,-1.49686 0.18528,-2.40093 0.53879,-3.34052 0.89799,-1.62146 1.79598,-1.94649 2.69397,-2.15517 0.92245,-0.24989 1.91687,-0.28388 3.125,0.32327 l 3.125,2.58621 0.80819,0.0539 z"
       style="fill:#626262;fill-opacity:1;stroke:#000000;stroke-width:0.30172414px;stroke-linecap:butt;stroke-linejoin:miter;stroke-opacity:1" />
    <path
       sodipodi:nodetypes="cccccccccccccccccccc"
       inkscape:connector-curvature="0"
       id="path3808"
       d="m 147.47338,916.75126 4.52586,5.60345 -0.10776,0.96983 -1.02371,-0.0539 -2.90948,-3.50216 -2.15517,2.26293 c -0.14127,0.54898 1.30087,1.88966 2.20905,2.96336 -0.27903,0.41659 -0.61016,0.75503 -1.45474,0.32328 -0.45225,-0.60309 0.33332,0.12687 -1.77802,-2.26293 l -2.69396,2.15517 c -0.13991,0.66527 0.95067,1.57663 1.45474,2.37069 l 1.99353,0.21552 0.2694,0.96982 -3.01724,0.0539 -4.14871,-4.84914 0.75431,-0.5388 0.86207,0.5388 6.57328,-5.65733 -0.0539,-1.23923 z"
       style="fill:#626262;fill-opacity:1;stroke:#000000;stroke-width:0.30172414px;stroke-linecap:butt;stroke-linejoin:miter;stroke-opacity:1" />
    <path
       sodipodi:nodetypes="ccccccccccccccccccccccccc"
       inkscape:connector-curvature="0"
       id="path3810"
       d="m 161.91304,947.08531 1.50862,0 c -0.44758,-0.32973 -0.35806,-0.60502 -0.37716,-1.07758 -0.14441,-1.01437 -0.49229,-2.19639 -0.91595,-3.07113 -0.28671,-0.4973 -0.55592,-1.00531 -1.18534,-1.2931 -0.19052,-0.14867 -0.30218,-0.31313 -1.18535,-0.32327 -0.43053,0.29865 -0.5876,-0.0547 -1.40086,0.75431 -0.43666,0.46804 -0.81797,1.10212 -0.96983,2.42456 -0.18209,0.84403 0.051,1.2037 -0.91595,2.96337 -0.25412,0.28219 -0.33772,0.60702 -1.13146,0.75431 -1.4511,-0.28736 -1.32332,-0.57471 -1.72414,-0.86207 -0.89567,-0.8613 -0.65523,-1.34389 -0.75431,-1.93966 -0.0723,-0.74392 0.10967,-1.28439 0.75431,-1.45474 l 0.70043,-1.23922 -1.07758,-0.21552 -1.29311,0.80819 c -0.69849,1.3024 -0.23711,4.46923 0,4.25646 0.26448,0.49636 0.4736,1.02039 1.29311,1.23923 0.58037,0.40496 1.04797,0.90013 2.31681,0.75431 0.61025,-0.26825 1.11635,-0.22405 1.99353,-1.2931 0.82704,-1.36068 0.95345,-2.5462 1.23922,-3.77156 0.18034,-0.50861 0.31933,-1.03101 0.91595,-1.40086 l 0.75431,-0.32327 c 0.92828,0.38798 0.93103,1.38977 0.80819,1.40086 0.17372,0.17564 0.33403,0.0965 0.64656,2.90948 z"
       style="fill:#626262;fill-opacity:1;stroke:#000000;stroke-width:0.30172414px;stroke-linecap:butt;stroke-linejoin:miter;stroke-opacity:1" />
    <path
       sodipodi:nodetypes="ccssscccccc"
       inkscape:connector-curvature="0"
       id="path3814"
       d="m 152.96907,986.14781 c 3.47116,4.19201 7.64203,9.13124 7.65086,9.05173 0,0 0.21801,0.59381 0.0539,0.80819 -0.16701,0.21814 -0.53348,0.15813 -0.80819,0.16163 -2.89541,0.037 -7.91535,-0.26424 -10.77586,-0.21551 -1.78618,0.0304 0.0862,-2.21267 0.32328,-3.125 0.36024,-1.08498 1.18681,0.4377 1.40086,0.96982 l 2.74784,0.10776 0.91595,-2.8556 -2.47845,-2.47845 c -0.98577,-0.42575 0.14914,-3.30867 0.96983,-2.42457 z"
       style="fill:#626262;fill-opacity:1;stroke:#000000;stroke-width:0.30172414px;stroke-linecap:butt;stroke-linejoin:miter;stroke-opacity:1" />
    <path
       inkscape:connector-curvature="0"
       id="path3816"
       d="m 154.6524,993.85255 0.63348,-2.31681 2.20905,2.42457 z"
       style="fill:#999999;stroke:#000000;stroke-width:0.30172414px;stroke-linecap:butt;stroke-linejoin:miter;stroke-opacity:1"
       sodipodi:nodetypes="cccc" />
    <path
       sodipodi:nodetypes="csccccc"
       inkscape:connector-curvature="0"
       id="path3818"
       d="m 160.61993,998.86333 c 0,0 -0.10776,-1.88578 0.0539,-2.10129 0.16164,-0.21552 0.48491,-0.32328 0.48491,-0.32328 l 0.59268,0.53879 0,1.88578 -0.48492,0.43103 z"
       style="fill:#626262;fill-opacity:1;stroke:#000000;stroke-width:0.30172414px;stroke-linecap:butt;stroke-linejoin:miter;stroke-opacity:1" />
    <path
       inkscape:connector-curvature="0"
       id="path3820"
       d="m 132.27941,899.61764 1.99354,2.15517 2.42457,0.96983 0.10775,0.80819 -0.53879,0.32327 -2.69396,-1.07758 -1.99354,-2.31681 0,-0.75431 z"
       style="fill:#626262;fill-opacity:1;stroke:#000000;stroke-width:0.30172414px;stroke-linecap:butt;stroke-linejoin:miter;stroke-opacity:1" />
    <path
       sodipodi:nodetypes="cccccccccccccccccccccccccccccc"
       inkscape:connector-curvature="0"
       id="path3822"
       d="m 14.717284,998.28102 -0.304789,-2.28591 0.304789,-0.68577 0.685771,0.0762 0.380984,0.83816 3.962236,-0.91436 -5.181385,-2.81928 -1.371545,0.30478 -0.761965,-2.74308 0.533376,-0.99056 1.066755,0.60957 0.685773,1.29535 4.267022,2.28591 2.514497,-5.029 -0.228589,-1.06675 0.533376,-0.68578 1.066757,0.2286 0.990558,2.66689 -1.21915,0.53337 -1.828723,4.64801 3.428857,-0.91436 0.457181,-0.91436 0.838169,0.53338 0.761965,3.04787 -1.066755,0.30479 -0.304786,-0.91436 -8.76264,2.43829 0.228593,0.76197 -1.21915,0.22859 z"
       style="fill:#5c5c5c;fill-opacity:1;stroke:#000000;stroke-width:0.30172414px;stroke-linecap:butt;stroke-linejoin:miter;stroke-opacity:1" />
    <path
       sodipodi:nodetypes="sssss"
       inkscape:connector-curvature="0"
       id="path3824"
       d="m 11.59934,972.29789 c 2.388885,-1.77457 3.924604,-1.06982 5.333779,-0.30479 1.296931,0.7041 2.541218,2.94533 1.295347,5.25759 -1.298892,2.41066 -6.211085,0.74962 -6.476732,0.45718 -2.3011772,-2.53324 -0.803726,-4.92614 -0.152394,-5.40998 z"
       style="fill:#999999;fill-opacity:1;stroke:#000000;stroke-width:0.30172414px;stroke-linecap:butt;stroke-linejoin:miter;stroke-opacity:1" />
    <path
       sodipodi:nodetypes="ccccccscccccccccccccccccc"
       inkscape:connector-curvature="0"
       id="path3828"
       d="m 9.6944193,956.98232 c 0.081619,-1.57843 0.1078574,-3.37841 0.3809837,-4.19082 0.303046,-1.67194 0.906778,-1.99001 1.447739,-2.5907 0.558778,-0.56162 1.346145,-0.3483 1.90492,-0.30479 0.717467,0.2985 1.156793,0.57034 1.676332,1.06676 l 0.68577,2.66689 c 0,0 1.364563,-0.92692 1.904923,-1.21915 0.609577,-0.32966 2.20971,-1.06105 2.20971,-0.91436 l 0.0762,-0.83816 0.380984,-0.30479 0.685774,0.22859 -0.152395,3.50505 -0.990558,-0.0762 0,-0.68578 c -0.660374,0.12863 -1.320746,0.52104 -1.98112,0.83817 -1.462279,0.93475 -1.210852,1.07856 -1.447739,1.44774 l 2.438299,0.45718 0.609576,-0.38098 0.838163,0 0.457181,1.14295 -0.228589,2.2859 -0.533379,0.38099 -0.914363,-0.38099 c -0.103904,-0.35866 -0.329817,-0.43264 -0.152392,-1.44773 -3.098685,-0.22864 -6.409556,-1.19993 -9.2960147,-0.68578 z"
       style="fill:#5c5c5c;fill-opacity:1;stroke:#000000;stroke-width:0.30172414px;stroke-linecap:butt;stroke-linejoin:miter;stroke-opacity:1" />
    <path
       sodipodi:nodetypes="cccccccc"
       inkscape:connector-curvature="0"
       id="path3830"
       d="m 10.951665,954.77262 c 0.06195,-1.60945 0.353319,-1.84234 0.609576,-2.28591 0.355585,-0.58732 0.901663,-0.53111 1.257248,-0.72387 1.400061,0.29077 1.313632,0.68319 1.600134,1.06675 0.200924,0.60958 0.26848,1.21915 0.266688,1.82873 -0.230578,0.28407 -0.0807,0.64423 -0.761968,0.83816 l -2.552596,-0.11429 c -0.139695,-0.10606 -0.279387,-0.20658 -0.419082,-0.60957 z"
       style="fill:#999999;fill-opacity:1;stroke:#000000;stroke-width:0.30172414px;stroke-linecap:butt;stroke-linejoin:miter;stroke-opacity:1" />
    <path
       sodipodi:nodetypes="ccccccccccccccc"
       inkscape:connector-curvature="0"
       id="path3832"
       d="m 19.104731,929.78005 5.905254,3.69554 c 0.631113,0.85987 1.294089,1.60951 1.21915,2.97168 -0.318325,0.88144 0.11457,1.15594 -1.485838,2.81929 -0.836871,0.29356 -0.808545,0.91989 -2.819283,0.76196 -3.951902,-1.16951 -5.004738,-2.71194 -6.55293,-3.16216 l -0.0381,-1.33345 0.761968,-0.15239 c 0.877595,0.74665 1.4077,0.89729 5.105187,3.04787 0.827548,0.0563 1.420448,0.34222 2.5145,-0.19049 1.1775,-0.91097 0.820557,-1.39262 1.066755,-1.71443 0.357808,-1.11552 -0.283458,-1.5174 -0.571478,-2.17161 -2.577228,-1.82787 -4.078088,-2.44481 -5.905254,-3.42886 l -0.114296,-0.87626 z"
       style="fill:#545454;fill-opacity:1;stroke:#000000;stroke-width:0.30172414px;stroke-linecap:butt;stroke-linejoin:miter;stroke-opacity:1" />
    <path
       sodipodi:nodetypes="cccccccccccccc"
       inkscape:connector-curvature="0"
       id="path3834"
       d="m 26.724415,916.63609 9.105524,0.68577 -4.60991,-4.22892 c -0.204056,-0.72108 0.04563,-0.68593 0.114296,-0.95246 0.330186,-0.33633 0.660372,-0.15717 0.990557,-0.1143 l 5.562372,5.56237 c 0.204772,0.37728 0.137786,0.82906 0.0381,1.10486 -0.330186,0.18327 -0.546075,0.24354 -0.876264,0.22858 l -8.381652,-0.49527 4.228926,4.15272 c 0.608291,0.77053 0.07628,0.60964 0.266688,1.06676 l -1.104854,0.1143 -5.409977,-5.63857 c -0.403061,-0.6381 -0.101113,-1.0412 0.0762,-1.48584 z"
       style="fill:#545454;fill-opacity:1;stroke:#000000;stroke-width:0.30172414px;stroke-linecap:butt;stroke-linejoin:miter;stroke-opacity:1" />
    <path
       sodipodi:type="arc"
       style="fill:#808080;fill-opacity:1;fill-rule:nonzero;stroke:#000000;stroke-width:1;stroke-miterlimit:4;stroke-opacity:1;stroke-dasharray:none;stroke-dashoffset:0"
       id="path3353"
       sodipodi:cx="372.67856"
       sodipodi:cy="566.05432"
       sodipodi:rx="15.535714"
       sodipodi:ry="15.535714"
       d="m 388.21427,566.05432 a 15.535714,15.535714 0 1 1 -31.07143,0 15.535714,15.535714 0 1 1 31.07143,0 z"
       transform="matrix(0.30172414,0,0,0.30172414,-25.079384,852.47439)" />
    <path
       sodipodi:type="arc"
       style="fill:#808080;fill-opacity:1;fill-rule:nonzero;stroke:#000000;stroke-width:1;stroke-miterlimit:4;stroke-opacity:1;stroke-dasharray:none;stroke-dashoffset:0"
       id="path4123"
       sodipodi:cx="287.85715"
       sodipodi:cy="570.51862"
       sodipodi:rx="8.5714283"
       sodipodi:ry="8.5714283"
       d="m 296.42858,570.51862 a 8.5714283,8.5714283 0 1 1 -17.14286,0 8.5714283,8.5714283 0 1 1 17.14286,0 z"
       transform="matrix(0.30172414,0,0,0.30172414,-21.504861,853.515)" />
    <path
       sodipodi:type="arc"
       style="fill:#808080;fill-opacity:1;fill-rule:nonzero;stroke:#000000;stroke-width:1;stroke-miterlimit:4;stroke-opacity:1;stroke-dasharray:none;stroke-dashoffset:0"
       id="path4127"
       sodipodi:cx="452.14285"
       sodipodi:cy="569.09003"
       sodipodi:rx="8.5714283"
       sodipodi:ry="8.5714283"
       d="m 460.71428,569.09003 a 8.5714283,8.5714283 0 1 1 -17.14286,0 8.5714283,8.5714283 0 1 1 17.14286,0 z"
       transform="matrix(0.30172414,0,0,0.30172414,-25.023918,854.28779)" />
    <path
       sodipodi:type="arc"
       style="fill:#808080;fill-opacity:1;fill-rule:nonzero;stroke:#000000;stroke-width:1;stroke-miterlimit:4;stroke-opacity:1;stroke-dasharray:none;stroke-dashoffset:0"
       id="path4129"
       sodipodi:cx="386.42856"
       sodipodi:cy="471.59003"
       sodipodi:rx="20.714285"
       sodipodi:ry="20.714285"
       d="m 407.14284,471.59003 a 20.714285,20.714285 0 1 1 -41.42857,0 20.714285,20.714285 0 1 1 41.42857,0 z"
       transform="matrix(0.2764191,0,0,0.26861589,-18.407305,872.3412)" />
    <path
       sodipodi:type="arc"
       style="fill:#666666;fill-opacity:1;fill-rule:nonzero;stroke:#000000;stroke-width:1;stroke-miterlimit:4;stroke-opacity:1;stroke-dasharray:none;stroke-dashoffset:0"
       id="path4133"
       sodipodi:cx="205.35715"
       sodipodi:cy="404.44717"
       sodipodi:rx="10"
       sodipodi:ry="9.6428576"
       d="m 215.35715,404.44717 a 10,9.6428576 0 1 1 -20,0 10,9.6428576 0 1 1 20,0 z"
       transform="matrix(0.30172414,0,0,0.30172414,-25.49193,850.71327)" />
    <path
       sodipodi:type="arc"
       style="fill:#666666;fill-opacity:1;fill-rule:nonzero;stroke:#000000;stroke-width:1;stroke-miterlimit:4;stroke-opacity:1;stroke-dasharray:none;stroke-dashoffset:0"
       id="path4135"
       sodipodi:cx="544.64288"
       sodipodi:cy="392.30432"
       sodipodi:rx="9.2857141"
       sodipodi:ry="9.2857141"
       d="m 553.9286,392.30432 a 9.2857141,9.2857141 0 1 1 -18.57143,0 9.2857141,9.2857141 0 1 1 18.57143,0 z"
       transform="matrix(0.30172414,0,0,0.30172414,-25.49193,854.05379)" />
    <path
       sodipodi:nodetypes="ccssscccccc"
       inkscape:connector-curvature="0"
       id="path3814-1"
       d="m 46.132769,911.48594 c -1.431678,-5.2317 -3.191831,-11.42871 -3.232271,-11.35967 0,0 0.04494,-0.6304 0.280968,-0.75977 0.240176,-0.13164 0.547406,0.0714 0.797499,0.17928 2.635917,1.13729 7.056942,3.44261 9.66608,4.55504 1.629211,0.69462 -0.980775,1.98558 -1.567614,2.72276 -0.768751,0.845 -0.895689,-0.87968 -0.872333,-1.45214 l -2.443307,-1.20976 -1.994168,2.23706 1.232224,3.26552 c 0.71858,0.78745 -1.484924,2.9609 -1.867078,1.82168 z"
       style="fill:#626262;fill-opacity:1;stroke:#000000;stroke-width:0.30044571px;stroke-linecap:butt;stroke-linejoin:miter;stroke-opacity:1" />
    <path
       inkscape:connector-curvature="0"
       id="path3816-7"
       d="m 47.292077,903.00704 -1.637372,1.75725 -0.829666,-3.17334 z"
       style="fill:#999999;stroke:#000000;stroke-width:0.30172414px;stroke-linecap:butt;stroke-linejoin:miter;stroke-opacity:1"
       sodipodi:nodetypes="cccc"
       inkscape:transform-center-x="-3.092305"
       inkscape:transform-center-y="-5.99688" />
    <path
       sodipodi:nodetypes="cccccccccccccccccccccccccccccc"
       inkscape:connector-curvature="0"
       id="path3822-1"
       d="m 166.63978,965.21317 -0.5195,2.24686 -0.52671,0.53456 -0.61504,-0.31275 -0.0615,-0.91863 -4.03047,-0.53912 3.8571,4.46294 1.39104,0.19759 -0.25254,2.83573 -0.84797,0.73936 -0.78385,-0.94611 -0.18583,-1.45385 -3.18906,-3.6418 -4.12402,3.82177 -0.1616,1.07894 -0.74067,0.45409 -0.91798,-0.58952 0.0118,-2.84488 1.32887,-0.07 3.34802,-3.70662 -3.53124,-0.35133 -0.74982,0.69486 -0.59673,-0.79431 0.35985,-3.121 1.10576,0.0903 -0.0366,0.96312 9.06006,0.80278 0.0543,-0.79367 1.22157,0.21526 z"
       style="fill:#5c5c5c;fill-opacity:1;stroke:#000000;stroke-width:0.30172414px;stroke-linecap:butt;stroke-linejoin:miter;stroke-opacity:1" />
  </g>
</svg>
