<?xml version="1.0" encoding="UTF-8" standalone="no"?>
<!-- Created with Inkscape (http://www.inkscape.org/) -->

<svg
   xmlns:dc="http://purl.org/dc/elements/1.1/"
   xmlns:cc="http://creativecommons.org/ns#"
   xmlns:rdf="http://www.w3.org/1999/02/22-rdf-syntax-ns#"
   xmlns:svg="http://www.w3.org/2000/svg"
   xmlns="http://www.w3.org/2000/svg"
   xmlns:sodipodi="http://sodipodi.sourceforge.net/DTD/sodipodi-0.dtd"
   xmlns:inkscape="http://www.inkscape.org/namespaces/inkscape"
   width="175"
   height="175"
   id="svg2"
   inkscape:label="Pozadí"
   version="1.1"
   inkscape:version="0.48.5 r10040"
   sodipodi:docname="PS4_MME.svg">
  <defs
     id="defs3" />
  <sodipodi:namedview
     id="base"
     pagecolor="#ffffff"
     bordercolor="#666666"
     borderopacity="1.0"
     inkscape:pageopacity="0.0"
     inkscape:pageshadow="2"
     inkscape:zoom="2.8284271"
     inkscape:cx="82.145986"
     inkscape:cy="91.92622"
     inkscape:document-units="px"
     inkscape:current-layer="layer1"
     showgrid="false"
     units="px"
     inkscape:window-width="1366"
     inkscape:window-height="706"
     inkscape:window-x="-8"
     inkscape:window-y="-8"
     inkscape:window-maximized="1"
     fit-margin-top="0"
     fit-margin-left="0"
     fit-margin-right="0"
     fit-margin-bottom="0"
     width="175px" />
  <metadata
     id="metadata6">
    <rdf:RDF>
      <cc:Work
         rdf:about="">
        <dc:format>image/svg+xml</dc:format>
        <dc:type
           rdf:resource="http://purl.org/dc/dcmitype/StillImage" />
        <dc:title></dc:title>
      </cc:Work>
    </rdf:RDF>
  </metadata>
  <g
     inkscape:label="Vrstva 1"
     inkscape:groupmode="layer"
     id="layer1"
     transform="translate(-48.694432,-855.22992)">
    <flowRoot
       xml:space="preserve"
       id="flowRoot3065"
       style="font-size:4px;font-style:normal;font-weight:normal;line-height:125%;letter-spacing:0px;word-spacing:0px;fill:#000000;fill-opacity:1;stroke:none;font-family:Sans"><flowRegion
         id="flowRegion3067"><rect
           id="rect3069"
           width="21.718279"
           height="11.111678"
           x="109.85409"
           y="111.75797" /></flowRegion><flowPara
         id="flowPara3071" /></flowRoot>    <text
       xml:space="preserve"
       style="font-size:8px;font-style:normal;font-weight:normal;line-height:125%;letter-spacing:0px;word-spacing:0px;fill:#000000;fill-opacity:1;stroke:none;font-family:Sans"
       x="-200.67271"
       y="954.63336"
       id="text3201"
       sodipodi:linespacing="125%"
       transform="matrix(0.97278328,-0.23171684,0.23171684,0.97278328,0,0)"><tspan
         sodipodi:role="line"
         id="tspan3203"
         x="-200.67271"
         y="954.63336" /></text>
    <flowRoot
       xml:space="preserve"
       id="flowRoot3227"
       style="font-size:4px;font-style:normal;font-weight:normal;line-height:125%;letter-spacing:0px;word-spacing:0px;fill:#000000;fill-opacity:1;stroke:none;font-family:Sans"><flowRegion
         id="flowRegion3229"><rect
           id="rect3231"
           width="1.7857143"
           height="5.0892859"
           x="10.178572"
           y="36.451057" /></flowRegion><flowPara
         id="flowPara3233" /></flowRoot>    <g
       id="g3116"
       transform="matrix(1.1512696,0,0,1.1512696,3.3623304,-155.84241)">
      <path
         inkscape:connector-curvature="0"
         id="path2993"
         d="m 49.19443,1029.6325 9.596449,-10.6066 33.84011,0 2.020305,10.6066 z"
         style="fill:none;stroke:#000000;stroke-width:1px;stroke-linecap:butt;stroke-linejoin:miter;stroke-opacity:1" />
      <rect
         y="922.55634"
         x="59.801025"
         height="95.964493"
         width="15.152288"
         id="rect2997"
         style="color:#000000;fill:#000000;fill-opacity:0;fill-rule:nonzero;stroke:#000000;stroke-width:1;stroke-linecap:butt;stroke-linejoin:miter;stroke-miterlimit:4;stroke-opacity:1;stroke-dasharray:none;stroke-dashoffset:0;marker:none;visibility:visible;display:inline;overflow:visible;enable-background:accumulate" />
      <rect
         y="879.61407"
         x="59.642376"
         height="40.528271"
         width="15.321663"
         id="rect2999"
         style="color:#000000;fill:#000000;fill-opacity:0;fill-rule:nonzero;stroke:#000000;stroke-width:0.97855943;stroke-linecap:butt;stroke-linejoin:miter;stroke-miterlimit:4;stroke-opacity:1;stroke-dasharray:none;stroke-dashoffset:0;marker:none;visibility:visible;display:inline;overflow:visible;enable-background:accumulate" />
      <path
         inkscape:connector-curvature="0"
         id="path3003"
         d="m 61.000588,920.66222 -0.06314,1.70463"
         style="fill:none;stroke:#000000;stroke-width:1px;stroke-linecap:butt;stroke-linejoin:miter;stroke-opacity:1" />
      <path
         inkscape:connector-curvature="0"
         id="path3005"
         d="m 51.549202,1027.7496 7.857143,0 -1.607143,1.9643 0,0"
         style="fill:none;stroke:#000000;stroke-width:1px;stroke-linecap:butt;stroke-linejoin:miter;stroke-opacity:1" />
      <path
         inkscape:connector-curvature="0"
         id="path3007"
         d="m 60.656345,1029.3567 c 0.535714,-0.7143 2.321429,-1.25 2.321429,-1.25 l 23.928571,0 1.25,1.4286"
         style="fill:none;stroke:#000000;stroke-width:1px;stroke-linecap:butt;stroke-linejoin:miter;stroke-opacity:1" />
      <path
         inkscape:connector-curvature="0"
         id="path3009"
         d="m 90.656345,1029.1781 -0.357143,-2.1428 3.392857,0"
         style="fill:none;stroke:#000000;stroke-width:1px;stroke-linecap:butt;stroke-linejoin:miter;stroke-opacity:1" />
      <rect
         y="879.95483"
         x="80.204613"
         height="40.075584"
         width="11.303922"
         id="rect3030"
         style="color:#000000;fill:#000000;fill-opacity:0;fill-rule:nonzero;stroke:#000000;stroke-width:1.08132052;stroke-linecap:butt;stroke-linejoin:miter;stroke-miterlimit:4;stroke-opacity:1;stroke-dasharray:none;stroke-dashoffset:0;marker:none;visibility:visible;display:inline;overflow:visible;enable-background:accumulate" />
      <path
         inkscape:connector-curvature="0"
         d="m 75.607417,879.22322 c 0.103689,-0.005 0.19351,0.0327 0.285167,0.0754 0.101948,0.0294 0.170452,0.0986 0.240496,0.17291 0.05695,0.0775 0.135645,0.12958 0.195723,0.20549 0.06992,0.0834 0.161205,0.14325 0.240026,0.21711 0.08026,0.0576 0.166263,0.10136 0.229621,0.179 0.07268,0.069 0.103183,0.16538 0.142392,0.25485 0.05012,0.068 0.079,0.14471 0.09992,0.22572 0,0 -0.812234,0.43902 -0.812234,0.43902 l 0,0 c -0.01813,-0.077 -0.04846,-0.14587 -0.09404,-0.21103 -0.03576,-0.0818 -0.0629,-0.16798 -0.129682,-0.23073 -0.0635,-0.0695 -0.153698,-0.10586 -0.221223,-0.17133 -0.08276,-0.0752 -0.173803,-0.14188 -0.24642,-0.22759 -0.06166,-0.0703 -0.142759,-0.12076 -0.195659,-0.19916 -0.06171,-0.0667 -0.131315,-0.11374 -0.219009,-0.14241 -0.08821,-0.037 -0.177377,-0.0483 -0.272885,-0.0367 0,0 0.757806,-0.55057 0.757806,-0.55057 z"
         id="path3032"
         style="fill:none;stroke:#c9c9c9;stroke-width:1.99800003;stroke-miterlimit:4;stroke-opacity:0;stroke-dasharray:none" />
      <path
         inkscape:connector-curvature="0"
         d="m 75.481148,879.28635 c 0.104864,-0.005 0.203823,0.0199 0.305639,0.0402 0.106187,0.0361 0.199405,0.0964 0.294744,0.15351 0.0818,0.0568 0.122775,0.15293 0.203506,0.20988 0.07823,0.0739 0.147131,0.15635 0.222507,0.23349 0.07302,0.0928 0.143336,0.18813 0.213265,0.28344 0.0789,0.0717 0.123624,0.16758 0.178048,0.2567 0.05085,0.0833 0.103802,0.16505 0.153659,0.24919 0.04319,0.0842 0.08661,0.16813 0.13089,0.25189 0.05354,0.0752 0.104186,0.15418 0.143581,0.2379 0.04676,0.091 0.106448,0.17534 0.160553,0.2625 0.04517,0.096 0.07539,0.19923 0.106156,0.30086 0.01974,0.10609 0.04008,0.21074 0.06609,0.31556 0.01501,0.0734 0.0083,0.0362 0.02007,0.1115 0,0 -0.814953,0.4307 -0.814953,0.4307 l 0,0 c -0.01005,-0.0697 -0.0042,-0.0353 -0.01742,-0.10333 -0.02524,-0.10354 -0.04884,-0.20597 -0.0644,-0.31143 -0.02751,-0.0943 -0.05619,-0.1894 -0.09455,-0.27947 -0.05545,-0.0906 -0.114166,-0.17901 -0.166876,-0.271 -0.03862,-0.0826 -0.09115,-0.15824 -0.141689,-0.23384 -0.04371,-0.0824 -0.086,-0.16522 -0.128579,-0.24811 -0.04976,-0.084 -0.10149,-0.16647 -0.151136,-0.25039 -0.05153,-0.0884 -0.101555,-0.17557 -0.174654,-0.24906 -0.06573,-0.0919 -0.127077,-0.18763 -0.200785,-0.27312 -0.07661,-0.0727 -0.144148,-0.15348 -0.224456,-0.22196 -0.06982,-0.0628 -0.117073,-0.14637 -0.193949,-0.20127 -0.08621,-0.0537 -0.176235,-0.10289 -0.275829,-0.1268 -0.10203,-0.0197 -0.203286,-0.0281 -0.307244,-0.017 0,0 0.757806,-0.55058 0.757806,-0.55058 z"
         id="path3034"
         style="fill:none;stroke:#c9c9c9;stroke-width:1.99800003;stroke-miterlimit:4;stroke-opacity:0;stroke-dasharray:none" />
      <path
         inkscape:connector-curvature="0"
         id="path3042"
         d="m 74.92215,879.71987 c 4.687623,1.74692 4.986834,1.83011 4.986834,1.83011 l 0,0"
         style="fill:none;stroke:#000000;stroke-width:1.44273686px;stroke-linecap:butt;stroke-linejoin:miter;stroke-opacity:1" />
      <rect
         y="922.06708"
         x="79.973808"
         height="96.722206"
         width="11.722203"
         id="rect3057"
         style="color:#000000;fill:#000000;fill-opacity:0;fill-rule:nonzero;stroke:#000000;stroke-width:1.06351137;stroke-linecap:butt;stroke-linejoin:miter;stroke-miterlimit:4;stroke-opacity:1;stroke-dasharray:none;stroke-dashoffset:0;marker:none;visibility:visible;display:inline;overflow:visible;enable-background:accumulate" />
      <path
         inkscape:connector-curvature="0"
         id="path3091"
         d="m 91.906856,879.76382 78.670554,10.59699 0,0"
         style="fill:none;stroke:#000000;stroke-width:1.02385199px;stroke-linecap:butt;stroke-linejoin:miter;stroke-opacity:1" />
      <path
         inkscape:connector-curvature="0"
         id="path3095"
         d="m 91.917128,922.03892 78.982312,10.85303"
         style="fill:none;stroke:#000000;stroke-width:1.03674436px;stroke-linecap:butt;stroke-linejoin:miter;stroke-opacity:1" />
      <path
         inkscape:connector-curvature="0"
         id="path3097"
         d="m 92.378451,1019.0259 78.256139,-6.8786"
         style="fill:none;stroke:#000000;stroke-width:0.98093522px;stroke-linecap:butt;stroke-linejoin:miter;stroke-opacity:1" />
      <path
         inkscape:connector-curvature="0"
         id="path3099"
         d="m 95.048618,1029.7333 85.947912,-10.0827"
         style="fill:none;stroke:#000000;stroke-width:0.99315488px;stroke-linecap:butt;stroke-linejoin:miter;stroke-opacity:1" />
      <path
         inkscape:connector-curvature="0"
         id="path3101"
         d="m 170.00518,1012.1965 11.50883,7.5804"
         style="fill:none;stroke:#000000;stroke-width:1.09830832px;stroke-linecap:butt;stroke-linejoin:miter;stroke-opacity:1" />
      <path
         inkscape:connector-curvature="0"
         id="path3105"
         d="m 170.49174,932.86158 -0.35714,79.28572 0,0.3571"
         style="fill:none;stroke:#000000;stroke-width:1px;stroke-linecap:butt;stroke-linejoin:miter;stroke-opacity:1" />
      <path
         inkscape:connector-curvature="0"
         id="path3109"
         d="m 91.432932,919.96289 78.989128,10.43138"
         style="fill:none;stroke:#000000;stroke-width:0.98133218px;stroke-linecap:butt;stroke-linejoin:miter;stroke-opacity:1" />
      <path
         inkscape:connector-curvature="0"
         id="path3111"
         d="m 170.35277,930.85324 -0.25254,-40.6665"
         style="fill:none;stroke:#000000;stroke-width:1.00954664px;stroke-linecap:butt;stroke-linejoin:miter;stroke-opacity:1" />
      <path
         inkscape:connector-curvature="0"
         id="path3113"
         d="m 94.651294,1026.8545 5.808376,-0.8839 0.88388,2.6517 0,0"
         style="fill:none;stroke:#000000;stroke-width:1px;stroke-linecap:butt;stroke-linejoin:miter;stroke-opacity:1" />
      <path
         inkscape:connector-curvature="0"
         id="path3115"
         d="m 106.01551,1028.496 c 0.50508,-1.0101 1.38896,-2.1466 1.38896,-2.1466 l 62.882,-6.8185 1.38896,0.8839"
         style="fill:none;stroke:#000000;stroke-width:1px;stroke-linecap:butt;stroke-linejoin:miter;stroke-opacity:1" />
      <path
         inkscape:connector-curvature="0"
         id="path3117"
         d="m 168.70602,930.62943 -0.0893,1.875"
         style="fill:none;stroke:#000000;stroke-width:1px;stroke-linecap:butt;stroke-linejoin:miter;stroke-opacity:1" />
      <path
         inkscape:connector-curvature="0"
         id="path3119"
         d="m 130.64164,924.44193 -38.259528,-5.1004 0,-19.39247 0,-19.39247 1.641498,0.27992 c 0.902824,0.15396 18.11961,2.48051 38.25953,5.17012 20.13991,2.68961 36.70349,4.96618 36.80795,5.05906 0.4272,0.37985 0.6878,38.59208 0.2628,38.53618 -0.249,-0.0327 -17.66951,-2.35472 -38.71225,-5.15994 z"
         style="color:#000000;fill:#000000;fill-opacity:1;fill-rule:nonzero;stroke:none;stroke-width:1px;marker:none;visibility:visible;display:inline;overflow:visible;enable-background:accumulate" />
      <path
         inkscape:connector-curvature="0"
         id="path3123"
         d="m 60.131694,899.93377 0,-19.64286 7.142858,0 7.142857,0 0,19.64286 0,19.64286 -7.142857,0 -7.142858,0 0,-19.64286 z"
         style="color:#000000;fill:#1a1a1a;fill-opacity:1;fill-rule:nonzero;stroke:none;stroke-width:1px;marker:none;visibility:visible;display:inline;overflow:visible;enable-background:accumulate" />
      <path
         inkscape:connector-curvature="0"
         id="path3125"
         d="m 60.488837,970.46949 0,-47.32143 6.964286,0 6.964286,0 0,47.32143 0,47.32141 -6.964286,0 -6.964286,0 0,-47.32141 z"
         style="color:#000000;fill:#1a1a1a;fill-opacity:1;fill-rule:nonzero;stroke:none;stroke-width:1px;marker:none;visibility:visible;display:inline;overflow:visible;enable-background:accumulate" />
      <path
         inkscape:connector-curvature="0"
         id="path3129"
         d="m 60.488837,970.46949 0,-47.32143 6.964286,0 6.964286,0 0,47.32143 0,47.32141 -6.964286,0 -6.964286,0 0,-47.32141 z"
         style="color:#000000;fill:#333333;fill-opacity:1;fill-rule:nonzero;stroke:none;stroke-width:1px;marker:none;visibility:visible;display:inline;overflow:visible;enable-background:accumulate" />
      <path
         inkscape:connector-curvature="0"
         id="path3131"
         d="m 60.131694,899.93377 0,-19.64286 7.142858,0 7.142857,0 0,19.64286 0,19.64286 -7.142857,0 -7.142858,0 0,-19.64286 z"
         style="color:#000000;fill:#333333;fill-opacity:1;fill-rule:nonzero;stroke:none;stroke-width:1px;marker:none;visibility:visible;display:inline;overflow:visible;enable-background:accumulate" />
      <path
         inkscape:connector-curvature="0"
         id="path3133"
         d="m 92.274552,970.58235 0,-47.8238 1.160714,0.19918 c 0.638393,0.10955 17.633924,2.4496 37.767854,5.20011 20.13393,2.75051 37.07446,5.09721 37.64562,5.21489 l 1.03849,0.21397 -0.2561,38.96853 c -0.14085,21.43266 -0.28674,38.99027 -0.32419,39.01687 -0.0375,0.027 -17.02346,1.5193 -37.74668,3.3173 -20.72321,1.7979 -38.040173,3.3247 -38.482137,3.3929 l -0.803571,0.1239 0,-47.82385 z"
         style="color:#000000;fill:#1a1a1a;fill-opacity:1;fill-rule:nonzero;stroke:none;stroke-width:1px;marker:none;visibility:visible;display:inline;overflow:visible;enable-background:accumulate" />
      <path
         inkscape:connector-curvature="0"
         id="path3135"
         d="m 101.52094,1026.7291 -0.45057,-1.5039 -1.987194,0.2793 c -1.092958,0.1536 -2.544833,0.2889 -3.22639,0.3007 l -1.239194,0.021 -0.575995,-3.125 c -0.524536,-2.8458 -0.525502,-3.1266 -0.01081,-3.1427 0.310853,-0.01 17.440183,-1.519 38.065193,-3.3539 l 37.49999,-3.3362 4.82143,3.1738 c 2.65178,1.7456 4.65649,3.1745 4.45492,3.1754 -0.20159,8e-4 -1.71877,0.171 -3.37151,0.3783 -2.57753,0.3232 -3.16045,0.2943 -4.09778,-0.2027 -1.03775,-0.5502 -2.68429,-0.4068 -32.69992,2.8474 -28.71834,3.1135 -31.66168,3.4915 -32.20397,4.1359 -0.32825,0.3901 -0.64968,0.858 -0.71428,1.0397 -0.0646,0.1818 -0.94904,0.4398 -1.96541,0.5734 l -1.84795,0.2429 -0.45057,-1.5039 0,0 z"
         style="color:#000000;fill:#1a1a1a;fill-opacity:1;fill-rule:nonzero;stroke:none;stroke-width:1px;marker:none;visibility:visible;display:inline;overflow:visible;enable-background:accumulate" />
      <path
         inkscape:connector-curvature="0"
         id="path3137"
         d="m 59.89777,1028.2092 c 0.325087,-0.3592 0.591067,-0.7557 0.591067,-0.8811 0,-0.1255 -1.758835,-0.2735 -3.908524,-0.3291 l -3.908524,-0.1009 3.283524,-3.663 3.283524,-3.6629 16.412533,0.091 16.412532,0.091 0.416803,2.1428 c 0.229239,1.1786 0.513689,2.6652 0.632111,3.3036 l 0.215307,1.1607 -1.932904,0 -1.932903,0 0.202846,1.25 c 0.17449,1.0753 0.1042,1.25 -0.502814,1.25 -0.388114,0 -0.99655,-0.3214 -1.352082,-0.7143 -0.622736,-0.6881 -1.099096,-0.7142 -13.001782,-0.7129 -11.717753,10e-4 -12.415706,0.038 -13.524707,0.7143 -1.469887,0.8962 -2.170263,0.9264 -1.386007,0.06 l 0,0 z"
         style="color:#000000;fill:#000000;fill-opacity:1;fill-rule:nonzero;stroke:none;stroke-width:1px;marker:none;visibility:visible;display:inline;overflow:visible;enable-background:accumulate" />
      <path
         inkscape:connector-curvature="0"
         id="path3161"
         d="m 53.437964,1028.6891 0,-0.4341 2.44743,0 2.447429,0 -0.139073,0.1701 c -0.07649,0.093 -0.234959,0.2884 -0.352152,0.4331 l -0.213079,0.263 -2.095278,0 -2.095277,9e-4 0,-0.434 z"
         style="color:#000000;fill:#000000;fill-opacity:1;fill-rule:nonzero;stroke:none;stroke-width:1px;marker:none;visibility:visible;display:inline;overflow:visible;enable-background:accumulate" />
      <path
         inkscape:connector-curvature="0"
         id="path3165"
         d="m 80.779665,899.98658 0,-19.41964 5.089286,0 5.089285,0 0,19.41964 0,19.41965 -5.089285,0 -5.089286,0 0,-19.41965 z"
         style="color:#000000;fill:#000000;fill-opacity:1;fill-rule:nonzero;stroke:none;stroke-width:1px;marker:none;visibility:visible;display:inline;overflow:visible;enable-background:accumulate" />
      <path
         inkscape:connector-curvature="0"
         id="path3167"
         d="m 80.74402,970.48625 0,-47.72971 5.177032,0 5.177032,0 0,47.72971 0,47.72975 -5.177032,0 -5.177032,0 0,-47.72975 z"
         style="color:#000000;fill:#1a1a1a;fill-opacity:1;fill-rule:nonzero;stroke:none;stroke-width:1px;marker:none;visibility:visible;display:inline;overflow:visible;enable-background:accumulate" />
      <path
         inkscape:connector-curvature="0"
         id="path3169"
         d="m 81.266773,920.28341 0,1.6415"
         style="fill:none;stroke:#000000;stroke-width:1px;stroke-linecap:butt;stroke-linejoin:miter;stroke-opacity:1" />
      <path
         inkscape:connector-curvature="0"
         id="path3171"
         d="m 90.484415,919.9046 0,2.02031"
         style="fill:none;stroke:#000000;stroke-width:1px;stroke-linecap:butt;stroke-linejoin:miter;stroke-opacity:1" />
      <path
         inkscape:connector-curvature="0"
         id="path3173"
         d="m 73.438091,920.40968 0,2.27284"
         style="fill:#000000;stroke:#000000;stroke-width:1px;stroke-linecap:butt;stroke-linejoin:miter;stroke-opacity:1" />
      <path
         inkscape:connector-curvature="0"
         id="path3175"
         d="m 61.554434,921.35381 0,-0.69448 5.682108,0 5.682108,0 0,0.69448 0,0.69448 -5.682108,0 -5.682108,0 0,-0.69448 z"
         style="color:#000000;fill:#000000;fill-opacity:1;fill-rule:nonzero;stroke:none;stroke-width:1px;marker:none;visibility:visible;display:inline;overflow:visible;enable-background:accumulate" />
      <path
         inkscape:connector-curvature="0"
         id="path3177"
         d="m 81.883754,921.03814 0,-0.37881 4.04061,0 4.04061,0 0,0.37881 0,0.37881 -4.04061,0 -4.04061,0 0,-0.37881 z"
         style="color:#000000;fill:#1a1a1a;fill-opacity:1;fill-rule:nonzero;stroke:none;stroke-width:1px;marker:none;visibility:visible;display:inline;overflow:visible;enable-background:accumulate" />
      <path
         inkscape:connector-curvature="0"
         id="path3179"
         d="m 116.61487,924.86833 c -19.616001,-2.70119 -24.340926,-3.33402 -24.890788,-3.33376 l -0.678696,3.3e-4 0,-0.47351 0,-0.47351 0.583995,0.002 c 0.401259,10e-4 8.185463,1.00615 24.877119,3.21145 13.36122,1.76528 24.30749,3.22397 24.32505,3.24153 0.0176,0.0176 0.0237,0.28568 0.0137,0.59582 l -0.0182,0.56388 -24.2121,-3.33408 z"
         style="color:#000000;fill:#1a1a1a;fill-opacity:1;fill-rule:nonzero;stroke:none;stroke-width:1px;marker:none;visibility:visible;display:inline;overflow:visible;enable-background:accumulate" />
      <path
         inkscape:connector-curvature="0"
         id="path3181"
         d="m 154.6119,930.10278 c -7.23995,-0.99828 -13.2985,-1.83532 -13.46344,-1.8601 l -0.29989,-0.045 0,-0.59711 c 0,-0.58616 0.003,-0.59655 0.14206,-0.56666 0.0781,0.0168 6.22191,0.83067 13.65284,1.80871 7.43093,0.97805 13.51704,1.78321 13.52469,1.78925 0.008,0.006 -0.004,0.30067 -0.0253,0.65473 -0.0392,0.64316 -0.0394,0.64375 -0.2033,0.63752 -0.0902,-0.003 -6.08768,-0.82301 -13.32764,-1.82129 z"
         style="color:#000000;fill:#4d4d4d;fill-opacity:1;fill-rule:nonzero;stroke:none;stroke-width:1px;marker:none;visibility:visible;display:inline;overflow:visible;enable-background:accumulate" />
      <text
         transform="matrix(1.1519689,-0.25913644,1.1718209,0.60447683,0,0)"
         sodipodi:linespacing="125%"
         id="text3205"
         y="1107.5143"
         x="-988.33264"
         style="font-size:5.28998661px;font-style:normal;font-weight:normal;line-height:125%;letter-spacing:0px;word-spacing:0px;fill:#000000;fill-opacity:1;stroke:none;font-family:Sans"
         xml:space="preserve"><tspan
           style="font-style:normal;font-variant:normal;font-weight:normal;font-stretch:normal;fill:#ffffff;font-family:Segoe UI;-inkscape-font-specification:Segoe UI"
           y="1107.5143"
           x="-988.33264"
           id="tspan3207"
           sodipodi:role="line">S</tspan></text>
      <text
         transform="matrix(1.0647229,0.23277366,0.19655181,0.9821824,0,0)"
         sodipodi:linespacing="125%"
         id="text3217"
         y="948.16132"
         x="-26.825071"
         style="font-size:8.29294777px;font-style:normal;font-variant:normal;font-weight:normal;font-stretch:normal;line-height:125%;letter-spacing:0px;word-spacing:0px;fill:#f2f2f2;fill-opacity:1;stroke:none;font-family:Segoe UI;-inkscape-font-specification:Segoe UI"
         xml:space="preserve"><tspan
           y="948.16132"
           x="-26.825071"
           id="tspan3219"
           sodipodi:role="line">P</tspan></text>
      <text
         transform="matrix(0.01180258,1.5797045,-0.63280966,0.02946319,0,0)"
         sodipodi:linespacing="125%"
         id="text3223"
         y="-124.06934"
         x="560.84076"
         style="font-size:3.34647655px;font-style:normal;font-weight:normal;line-height:125%;letter-spacing:0px;word-spacing:0px;fill:#cccccc;fill-opacity:1;stroke:none;font-family:Sans"
         xml:space="preserve"><tspan
           style="font-style:normal;font-variant:normal;font-weight:normal;font-stretch:normal;fill:#cccccc;font-family:SimSun;-inkscape-font-specification:SimSun"
           y="-124.06934"
           x="560.84076"
           id="tspan3225"
           sodipodi:role="line">SONY</tspan></text>
      <text
         transform="matrix(0.03337242,0.98524441,-1.0147604,0.00638207,0,0)"
         sodipodi:linespacing="125%"
         id="text3235"
         y="-48.321236"
         x="1013.5724"
         style="font-size:7.88779211px;font-style:normal;font-weight:normal;line-height:125%;letter-spacing:0px;word-spacing:0px;fill:#000000;fill-opacity:1;stroke:none;font-family:Sans"
         xml:space="preserve"><tspan
           style="font-style:oblique;font-variant:normal;font-weight:normal;font-stretch:normal;fill:#999999;font-family:SWItal;-inkscape-font-specification:SWItal Oblique"
           y="-48.321236"
           x="1013.5724"
           id="tspan3237"
           sodipodi:role="line">PS4</tspan></text>
      <path
         inkscape:connector-curvature="0"
         id="path3239"
         d="m 78.110046,881.77135 0.252539,39.39594 0,0"
         style="fill:none;stroke:#000000;stroke-width:1px;stroke-linecap:butt;stroke-linejoin:miter;stroke-opacity:1" />
      <path
         inkscape:connector-curvature="0"
         id="path3241"
         d="m 76.468549,921.16729 0,-39.52221"
         style="fill:none;stroke:#000000;stroke-width:1px;stroke-linecap:butt;stroke-linejoin:miter;stroke-opacity:1" />
      <rect
         y="951.21936"
         x="76.026604"
         height="6.1871843"
         width="1.8940361"
         id="rect3271"
         style="color:#000000;fill:#666666;fill-opacity:0;fill-rule:nonzero;stroke:#000000;stroke-width:1;stroke-linecap:butt;stroke-linejoin:miter;stroke-miterlimit:4;stroke-opacity:1;stroke-dasharray:none;stroke-dashoffset:0;marker:none;visibility:visible;display:inline;overflow:visible;enable-background:accumulate" />
      <rect
         y="958.66925"
         x="76.026604"
         height="6.1871843"
         width="1.8940361"
         id="rect3271-7"
         style="color:#000000;fill:#666666;fill-opacity:0;fill-rule:nonzero;stroke:#000000;stroke-width:1;stroke-linecap:butt;stroke-linejoin:miter;stroke-miterlimit:4;stroke-opacity:1;stroke-dasharray:none;stroke-dashoffset:0;marker:none;visibility:visible;display:inline;overflow:visible;enable-background:accumulate" />
      <path
         inkscape:connector-curvature="0"
         id="path3311"
         d="m 76.53147,961.76346 0,-2.58929 0.435268,0 0.435268,0 0,2.58929 0,2.58928 -0.435268,0 -0.435268,0 0,-2.58928 z"
         style="color:#000000;fill:#cccccc;fill-opacity:1;fill-rule:nonzero;stroke:none;stroke-width:1px;marker:none;visibility:visible;display:inline;overflow:visible;enable-background:accumulate" />
      <path
         inkscape:connector-curvature="0"
         id="path3313"
         d="m 76.53147,954.31926 0,-2.57813 0.435268,0 0.435268,0 0,2.57813 0,2.57812 -0.435268,0 -0.435268,0 0,-2.57812 z"
         style="color:#000000;fill:#cccccc;fill-opacity:1;fill-rule:nonzero;stroke:none;stroke-width:1px;marker:none;visibility:visible;display:inline;overflow:visible;enable-background:accumulate" />
      <path
         inkscape:connector-curvature="0"
         id="path3315"
         d="m 76.295311,922.23658 -0.08929,20.53571 0,0"
         style="fill:none;stroke:#000000;stroke-width:1px;stroke-linecap:butt;stroke-linejoin:miter;stroke-opacity:1" />
      <path
         inkscape:connector-curvature="0"
         id="path3317"
         d="m 78.170311,922.23658 -0.08929,20.53571"
         style="fill:none;stroke:#000000;stroke-width:1px;stroke-linecap:butt;stroke-linejoin:miter;stroke-opacity:1" />
      <path
         inkscape:connector-curvature="0"
         id="path3319"
         d="m 75.513149,970.98667 0,-5.58036 1.473215,0 1.473214,0 0,-3.66071 0,-3.66072 -1.473214,0 c -0.922619,0 -1.473215,-0.0334 -1.473215,-0.0893 0,-0.0559 0.550596,-0.0893 1.473215,-0.0893 l 1.473214,0 0,-3.61607 0,-3.61607 -1.473214,0 -1.473215,0 0,-14.33036 0,-14.33036 -0.758928,0 -0.758929,0 0,-0.66964 0,-0.66964 0.758929,0 0.758928,0 0,-9.375 0,-9.375 0.223215,0 0.223214,0 0,9.64285 0,9.64286 0.535714,0 0.535715,0 0,-9.64286 0,-9.64285 0.299588,0 0.299589,0 0.05692,0.60267 c 0.03131,0.33148 0.05721,3.15749 0.05755,6.28003 3.48e-4,3.12255 0.02724,7.19063 0.05977,9.04018 l 0.05913,3.36283 0.523489,0 0.523489,0 -0.06154,-9.64286 -0.06154,-9.64285 0.416419,0 0.416418,0 0,9.33035 0,9.33036 0.535715,0 0.535714,0 0,0.44643 0,0.44643 -0.625,0 -0.625,0 0,27.54464 0,27.54464 -1.964286,0 -1.964286,0 0,-5.58035 z m 1.250001,-32.70849 c 0,-2.49637 0.02668,-7.13699 0.05929,-10.3125 l 0.0593,-5.77366 -0.536009,0 -0.536009,0 -0.05883,2.47768 c -0.03236,1.36272 -0.05891,6.00335 -0.059,10.3125 l -1.73e-4,7.83482 0.535714,0 0.535715,0 0,-4.53884 z m 1.875,0 c 0,-2.49637 0.02668,-7.13699 0.05929,-10.3125 l 0.0593,-5.77366 -0.536009,0 -0.536009,0 -0.05883,2.47768 c -0.03236,1.36272 -0.05891,6.00335 -0.059,10.3125 l -1.73e-4,7.83482 0.535714,0 0.535715,0 0,-4.53884 z"
         style="color:#000000;fill:#000000;fill-opacity:1;fill-rule:nonzero;stroke:none;stroke-width:1px;marker:none;visibility:visible;display:inline;overflow:visible;enable-background:accumulate" />
      <path
         inkscape:connector-curvature="0"
         id="path3321"
         d="m 75.516711,997.54699 0,-20.83437 1.894036,0 1.894036,0 0,20.83437 0,20.83441 -1.894036,0 -1.894036,0 0,-20.83441 z"
         style="color:#000000;fill:#000000;fill-opacity:1;fill-rule:nonzero;stroke:none;stroke-width:1px;marker:none;visibility:visible;display:inline;overflow:visible;enable-background:accumulate" />
      <path
         inkscape:connector-curvature="0"
         id="path3323"
         d="m 78.762911,899.4042 c -0.02149,-1.36292 -0.05702,-5.85484 -0.07896,-9.98206 l -0.03989,-7.50403 0.150084,0.0476 c 0.08255,0.0262 0.292137,0.0959 0.465757,0.15488 l 0.315672,0.10727 0.01598,9.82718 0.01598,9.82718 -0.402778,0 -0.402779,0 -0.03907,-2.47803 0,0 z"
         style="color:#000000;fill:#000000;fill-opacity:1;fill-rule:nonzero;stroke:none;stroke-width:1px;marker:none;visibility:visible;display:inline;overflow:visible;enable-background:accumulate" />
      <path
         inkscape:connector-curvature="0"
         id="path3325"
         d="m 77.649968,902.01902 c 0,-0.12206 -0.034,-0.13679 -0.315673,-0.13679 l -0.315672,0 0,-10.13309 0,-10.13309 -0.536644,0 -0.536643,0 0,10.13309 0,10.13309 -0.220971,0 -0.220971,0 0,-10.57411 0,-10.57411 0.299889,0.11682 c 0.164939,0.0643 0.754458,0.28402 1.310041,0.48837 0.943175,0.34691 0.992362,0.37284 0.741831,0.39096 l -0.268322,0.0194 3.86e-4,1.33798 c 2.14e-4,0.73589 0.02977,5.31194 0.06569,10.169 0.03592,4.85706 0.04995,8.84637 0.03118,8.86514 -0.01877,0.0188 -0.03412,-0.0274 -0.03412,-0.10267 z"
         style="color:#000000;fill:#1a1a1a;fill-opacity:1;fill-rule:nonzero;stroke:none;stroke-width:1px;marker:none;visibility:visible;display:inline;overflow:visible;enable-background:accumulate" />
      <path
         inkscape:connector-curvature="0"
         id="path3327"
         d="m 95.055113,1028.8285 c -0.03234,-0.1841 -0.109608,-0.5859 -0.171715,-0.8928 -0.06211,-0.307 -0.08655,-0.5581 -0.05431,-0.5581 0.08956,0 4.752697,-0.7109 5.021611,-0.7656 0.229281,-0.047 0.245031,-0.021 0.556921,0.9106 0.17653,0.5271 0.31142,0.9676 0.29976,0.9789 -0.0202,0.019 -5.398857,0.6637 -5.530555,0.6624 -0.0346,-3e-4 -0.08937,-0.1512 -0.121712,-0.3354 z"
         style="color:#000000;fill:#1a1a1a;fill-opacity:1;fill-rule:nonzero;stroke:none;stroke-width:1px;marker:none;visibility:visible;display:inline;overflow:visible;enable-background:accumulate" />
      <path
         inkscape:connector-curvature="0"
         id="path3329"
         d="m 91.090253,1028.4267 c -0.05672,-0.356 -0.119356,-0.6975 -0.139194,-0.7589 -0.0278,-0.086 0.280105,-0.1116 1.343357,-0.1116 1.557933,0 1.360604,-0.1017 1.558494,0.8036 0.167602,0.7667 0.26189,0.7143 -1.283671,0.7143 l -1.375861,0 -0.103125,-0.6474 z"
         style="color:#000000;fill:#1a1a1a;fill-opacity:1;fill-rule:nonzero;stroke:none;stroke-width:1px;marker:none;visibility:visible;display:inline;overflow:visible;enable-background:accumulate" />
      <path
         inkscape:connector-curvature="0"
         id="path3331"
         d="m 77.404922,1030.1678 -17.65625,-0.023 0,-0.5355 c 0,-0.5234 0.0055,-0.5356 0.245536,-0.5404 0.16023,0 0.315996,-0.094 0.448343,-0.262 l 0.202807,-0.257 -0.24745,0.1189 c -0.136097,0.065 -0.337497,0.1457 -0.447554,0.1785 l -0.200104,0.06 -0.0012,-19.2469 -0.0012,-19.24681 0.312882,0 0.312882,0 0,13.79461 0,13.7947 6.999376,0 c 6.30015,0 7.00479,-0.014 7.053572,-0.1413 0.02981,-0.078 0.05419,-6.2852 0.05419,-13.7946 l 0,-13.65341 3.035714,0 3.035715,0 0,13.87441 c 0,12.5692 0.01329,13.8794 0.141231,13.9285 0.07768,0.03 2.468302,0.054 5.3125,0.054 l 5.171269,0 0,-13.9285 0,-13.92861 0.535714,0 0.535714,0 0,14.01781 0,14.0179 0.379465,0 c 0.208705,0 9.831476,-0.8369 21.383926,-1.8551 l 21.00447,-1.8512 0,0.54 0,0.54 -20.78125,1.8204 c -11.42969,1.0011 -20.816664,1.8513 -20.859945,1.8892 -0.0673,0.059 1.124624,6.648 1.219808,6.7432 0.0183,0.018 1.346816,-0.1673 2.952266,-0.4125 1.605451,-0.2452 3.009991,-0.4459 3.121201,-0.4459 0.18231,0 0.24991,0.1449 0.6872,1.4732 0.41804,1.2698 0.51008,1.4727 0.66661,1.4689 0.0999,0 0.96315,-0.097 1.91836,-0.2094 1.45616,-0.172 1.75188,-0.2316 1.83036,-0.3685 0.38011,-0.6633 1.0319,-1.5339 1.21368,-1.6212 0.31686,-0.1521 1.7936,-0.4338 3.38885,-0.6465 1.18422,-0.1578 24.29211,-2.6858 24.55077,-2.6858 0.0529,0 0.0921,0.2248 0.0921,0.5279 l 0,0.5279 -0.33482,0.053 c -0.36348,0.057 -26.68861,2.9092 -26.85504,2.9092 -0.12234,0 -0.70699,0.7937 -0.63654,0.8641 0.0273,0.027 6.25108,-0.6783 13.8306,-1.5679 7.57952,-0.8897 13.82929,-1.6176 13.88837,-1.6176 0.0717,0 0.10743,0.1766 0.10743,0.5302 l 0,0.5303 -0.37947,0.053 c -1.46689,0.2054 -39.23608,4.596 -39.386123,4.5785 -0.104372,-0.012 -8.13508,-0.032 -17.846018,-0.045 z m 20.725143,-1.3142 c 1.393248,-0.169 2.552545,-0.3266 2.576205,-0.3502 0.0512,-0.051 -0.50117,-1.7602 -0.6058,-1.8745 -0.0734,-0.08 -5.158229,0.637 -5.285061,0.7454 -0.0665,0.057 0.04199,0.8072 0.210228,1.4542 0.07378,0.2838 0.124005,0.3346 0.329155,0.3335 0.133152,-7e-4 1.382025,-0.1395 2.775273,-0.3084 l 0,0 z m -11.328726,0 -0.210603,-0.2242 -11.83621,0.023 -11.836211,0.023 -0.401786,0.1934 -0.401785,0.1933 12.448599,0.01 12.4486,0.01 -0.210604,-0.2242 0,0 z m 3.26289,0.023 c -0.02474,-0.1105 -0.10688,-0.5826 -0.182525,-1.0492 -0.07564,-0.4665 -0.159805,-0.9587 -0.187021,-1.0937 l -0.04949,-0.2455 1.924505,0 1.924505,0 -0.05524,-0.2902 c -0.07367,-0.387 -0.152436,-0.4566 -0.101084,-0.089 l 0.04057,0.2902 -1.935461,0 -1.93546,0 0.11587,0.6473 c 0.147681,0.825 0.155808,1.6078 0.01812,1.7455 -0.198778,0.1988 -0.788886,0.1222 -1.314209,-0.1705 l -0.498291,-0.2777 0.352941,0.367 0.352942,0.3669 0.787152,0 c 0.770113,0 0.786179,0 0.742164,-0.2009 l 0,0 z m 3.87915,-0.089 c -9.47e-4,-0.1596 -0.05375,-0.4911 -0.117348,-0.7366 l -0.115624,-0.4465 -1.412136,-0.025 -1.412136,-0.025 0.05864,0.2925 c 0.03225,0.1609 0.08101,0.4533 0.108355,0.6497 0.02734,0.1964 0.06519,0.4073 0.08411,0.4687 0.02559,0.083 0.389612,0.1116 1.421128,0.1116 l 1.38673,0 -0.0017,-0.2901 10e-7,0 z m -33.837564,-0.9152 c 0.06113,-0.074 0.09106,-0.1339 0.06651,-0.1339 -0.02455,0 -0.09466,0.06 -0.155794,0.1339 -0.06113,0.074 -0.09106,0.1339 -0.06651,0.1339 0.02455,0 0.09466,-0.06 0.155794,-0.1339 z m 18.587048,-0.3795 c -2.127571,-0.013 -5.582928,-0.013 -7.678572,0 -2.095644,0.013 -0.354904,0.024 3.86831,0.024 4.223214,0 5.937832,-0.011 3.810262,-0.024 l 0,0 z m 14.064577,-4.8884 -0.562718,-2.9464 -5.084633,0 -5.084631,-10e-4 5.044643,0.046 5.044643,0.046 0.580341,3.0294 c 0.319187,1.6662 0.590406,2.972 0.602708,2.9018 0.0123,-0.07 -0.230857,-1.4535 -0.540353,-3.0741 l 0,0 z"
         style="color:#000000;fill:#000000;fill-opacity:1;fill-rule:nonzero;stroke:none;stroke-width:1px;marker:none;visibility:visible;display:inline;overflow:visible;enable-background:accumulate" />
      <path
         inkscape:connector-curvature="0"
         id="path3333"
         d="m 108.82894,1027.1301 c 0,-0.3603 0.003,-0.3906 0.0399,-0.3906 0.0862,0 8.1272,-0.8643 15.74135,-1.692 l 3.02456,-0.3288 0.006,0.3104 c 0.003,0.1706 0.002,0.3141 -0.002,0.3187 -0.0193,0.019 -18.62986,2.1729 -18.77748,2.1729 -0.027,0 -0.0323,-0.065 -0.0323,-0.3906 z"
         style="color:#000000;fill:#1a1a1a;fill-opacity:1;fill-rule:nonzero;stroke:none;stroke-width:1px;marker:none;visibility:visible;display:inline;overflow:visible;enable-background:accumulate" />
      <path
         inkscape:connector-curvature="0"
         id="path3335"
         d="m 130.51779,1024.7158 0,-0.3102 2.07031,-0.229 c 2.17581,-0.2408 2.3555,-0.2625 2.42745,-0.2941 0.0332,-0.015 14.21101,-1.5624 14.30246,-1.5615 0.009,10e-5 0.0167,0.1195 0.0167,0.2652 l 0,0.265 -0.10603,0.014 c -0.96377,0.1246 -14.22912,1.6653 -14.26897,1.6573 -0.045,-0.01 -4.05911,0.4426 -4.35826,0.4905 l -0.0837,0.013 0,-0.3103 z"
         style="color:#000000;fill:#1a1a1a;fill-opacity:1;fill-rule:nonzero;stroke:none;stroke-width:1px;marker:none;visibility:visible;display:inline;overflow:visible;enable-background:accumulate" />
      <path
         inkscape:connector-curvature="0"
         id="path3337"
         d="m 127.2033,1025.4089 c 0.003,0 0.40825,-0.056 0.43487,-0.057 0.005,-3e-4 0.006,-0.4353 5.4e-4,-0.5515 -0.003,-0.08 -0.004,-0.084 -0.0153,-0.086 -0.006,-9e-4 0.49431,-0.057 1.11275,-0.1238 0.61844,-0.067 1.31654,-0.1431 1.55134,-0.1688 0.23479,-0.026 0.44573,-0.048 0.46875,-0.049 0.023,0 -0.0184,0.01 -0.0921,0.014 -0.0737,0.01 -0.13704,0.016 -0.14086,0.017 -0.005,3e-4 -0.007,0.068 -0.008,0.3112 l -0.001,0.3109 -1.63225,0.1908 c -0.89774,0.105 -1.64336,0.1924 -1.65693,0.1942 -0.0136,0 -0.023,0 -0.021,-4e-4 l 0,0 z"
         style="color:#000000;fill:#1a1a1a;fill-opacity:1;fill-rule:nonzero;stroke:none;stroke-width:1px;marker:none;visibility:visible;display:inline;overflow:visible;enable-background:accumulate" />
      <path
         inkscape:connector-curvature="0"
         id="path3339"
         d="m 107.19267,1027.681 c 0,-0.08 0.25258,-0.4565 0.46394,-0.6917 0.13109,-0.1459 0.0852,-0.1327 0.67179,-0.1937 0.28077,-0.029 0.51119,-0.052 0.51206,-0.051 8.8e-4,9e-4 -0.003,0.027 -0.008,0.057 -0.0113,0.068 -0.0133,0.4266 -0.003,0.5908 0.006,0.1046 0.0101,0.121 0.0289,0.1279 0.0132,0.01 -0.0278,0.013 -0.10499,0.021 -0.0696,0.01 -0.2873,0.031 -0.48373,0.052 -0.34263,0.037 -0.82582,0.086 -0.99609,0.1008 -0.0735,0.01 -0.0809,0.01 -0.0809,-0.013 z"
         style="color:#000000;fill:#1a1a1a;fill-opacity:1;fill-rule:nonzero;stroke:none;stroke-width:1px;marker:none;visibility:visible;display:inline;overflow:visible;enable-background:accumulate" />
      <path
         inkscape:connector-curvature="0"
         id="path3341"
         d="m 84.650748,1028.8528 0,-0.2205 0.431554,0 c 0.237355,0 0.672485,0 0.966956,0 l 0.535401,0 0.122609,0.1306 c 0.06744,0.072 0.162385,0.1726 0.210999,0.2241 l 0.08839,0.094 -1.177955,0 -1.177955,0 0,-0.2204 z"
         style="color:#000000;fill:#1a1a1a;fill-opacity:1;fill-rule:nonzero;stroke:none;stroke-width:1px;marker:none;visibility:visible;display:inline;overflow:visible;enable-background:accumulate" />
      <path
         inkscape:connector-curvature="0"
         id="path3343"
         d="m 79.613604,1029.0658 -0.06278,0 0,-0.2109 0,-0.211 1.733629,0 c 0.953495,0 2.01195,0 2.35212,0 l 0.618492,0 0,0.2177 0,0.2176 -2.289342,-10e-4 c -1.259138,-7e-4 -2.317592,0 -2.35212,0 z"
         style="color:#000000;fill:#1a1a1a;fill-opacity:1;fill-rule:nonzero;stroke:none;stroke-width:1px;marker:none;visibility:visible;display:inline;overflow:visible;enable-background:accumulate" />
      <path
         inkscape:connector-curvature="0"
         id="path3345"
         d="m 84.255089,1028.8512 0,-0.2207 0.197265,0 0.197266,0 0,0.2207 0,0.2207 -0.197266,0 -0.197265,0 0,-0.2207 z"
         style="color:#000000;fill:#1a1a1a;fill-opacity:1;fill-rule:nonzero;stroke:none;stroke-width:1px;marker:none;visibility:visible;display:inline;overflow:visible;enable-background:accumulate" />
      <path
         inkscape:connector-curvature="0"
         id="path3347"
         d="m 76.637239,1028.8549 0,-0.2099 1.335493,0 c 0.734521,0 1.389562,0 1.455646,0 l 0.120153,0 0,0.2136 0,0.2135 -1.455646,0 -1.455646,0 0,-0.2099 z"
         style="color:#000000;fill:#1a1a1a;fill-opacity:1;fill-rule:nonzero;stroke:none;stroke-width:1px;marker:none;visibility:visible;display:inline;overflow:visible;enable-background:accumulate" />
      <path
         inkscape:connector-curvature="0"
         id="path3349"
         d="m 74.513157,1028.8577 0,-0.2072 1.023371,0 c 0.562855,0 1.040152,0 1.060661,0 l 0.03729,0 0,0.2107 0,0.2107 -1.06066,0 -1.06066,0 0,-0.2071 z"
         style="color:#000000;fill:#1a1a1a;fill-opacity:1;fill-rule:nonzero;stroke:none;stroke-width:1px;marker:none;visibility:visible;display:inline;overflow:visible;enable-background:accumulate" />
      <path
         inkscape:connector-curvature="0"
         id="path3351"
         d="m 71.224366,1028.8661 0,-0.1927 1.151018,-0.01 c 0.63306,-0.01 1.371341,-0.01 1.640625,-0.01 l 0.489607,0 0,0.2031 0,0.2031 -1.640625,0 -1.640625,0 0,-0.1927 z"
         style="color:#000000;fill:#1a1a1a;fill-opacity:1;fill-rule:nonzero;stroke:none;stroke-width:1px;marker:none;visibility:visible;display:inline;overflow:visible;enable-background:accumulate" />
      <path
         inkscape:connector-curvature="0"
         id="path3353"
         d="m 62.597111,1028.8767 0.28729,-0.1497 4.165857,-0.019 4.165857,-0.019 -2.1e-5,0.1719 -2.2e-5,0.1719 -4.453125,0 -4.453125,0 0.287289,-0.1497 z"
         style="color:#000000;fill:#1a1a1a;fill-opacity:1;fill-rule:nonzero;stroke:none;stroke-width:1px;marker:none;visibility:visible;display:inline;overflow:visible;enable-background:accumulate" />
      <path
         inkscape:connector-curvature="0"
         id="path3355"
         d="m 50.414035,1029.0456 c 0.04151,-0.046 0.311016,-0.3448 0.598906,-0.6631 l 0.523438,-0.5789 0.0043,0.2257 0.0043,0.2257 0.944895,0 0.944894,0 0,0.4375 0,0.4375 -1.548124,0 -1.548125,0 0.07547,-0.084 0,0 z"
         style="color:#000000;fill:#1a1a1a;fill-opacity:1;fill-rule:nonzero;stroke:none;stroke-width:1px;marker:none;visibility:visible;display:inline;overflow:visible;enable-background:accumulate" />
      <path
         inkscape:connector-curvature="0"
         id="path3357"
         d="m 52.059816,1027.2325 c 0,0 0.813098,-0.9055 1.806884,-2.0039 l 1.806884,-1.997 0.139963,0 0.139962,-0.01 -0.249424,0.2779 c -2.003241,2.2324 -3.034894,3.3874 -3.034894,3.3979 0,0.01 0.05449,0.013 0.121094,0.013 0.121734,0 3.434759,0.084 4.003906,0.1019 0.939038,0.029 1.902636,0.08 2.523438,0.1328 0.197656,0.017 0.375195,0.031 0.394531,0.031 0.0247,1e-4 0.03516,0.01 0.03516,0.031 0,0.031 -0.01042,0.031 -3.84375,0.031 -2.114062,0 -3.84375,0 -3.84375,-0.01 z"
         style="color:#000000;fill:#1a1a1a;fill-opacity:1;fill-rule:nonzero;stroke:none;stroke-width:1px;marker:none;visibility:visible;display:inline;overflow:visible;enable-background:accumulate" />
      <path
         inkscape:connector-curvature="0"
         id="path3359"
         d="m 101.97455,1028.3287 c -0.11235,-0.042 -0.21965,-0.2974 -0.61004,-1.4548 -0.30218,-0.8959 -0.39621,-1.1503 -0.49577,-1.3416 l -0.0675,-0.1297 -0.11803,0.01 c -0.0649,0 -0.31112,0.031 -0.54712,0.063 -0.396117,0.053 -3.99493,0.5797 -4.29608,0.6288 -0.218108,0.035 -1.138325,0.1555 -1.193003,0.1555 -0.05704,0 -0.06448,-0.024 -0.187506,-0.6145 -0.249023,-1.1945 -1.060437,-5.7474 -1.061095,-5.9539 -1.07e-4,-0.033 0.02237,-0.039 0.163911,-0.039 l 0.164034,0 -0.03698,0.072 c -0.05954,0.1156 -0.04732,0.6575 0.02612,1.1584 0.102119,0.6965 0.870311,4.9094 0.901643,4.9448 0.01172,0.013 0.359009,0.011 0.941127,-0.01 1.409626,-0.04 2.293717,-0.1269 4.556079,-0.446 0.51573,-0.073 0.94101,-0.1289 0.94507,-0.1249 0.004,0 0.2074,0.6776 0.45185,1.4967 0.24446,0.8191 0.44692,1.4923 0.44991,1.4959 0.006,0.01 1.70777,-0.2149 2.09895,-0.2733 0.51822,-0.077 1.11243,-0.2193 1.40316,-0.335 0.2302,-0.092 0.3016,-0.1466 0.3734,-0.2878 0.1322,-0.2599 0.58644,-0.8819 0.7471,-1.0229 0.0835,-0.073 0.29166,-0.1852 0.31018,-0.1667 0.007,0.01 -0.0877,0.1356 -0.20968,0.2866 -0.27377,0.3388 -0.53659,0.7081 -0.77454,1.0883 -0.16759,0.2677 -0.18967,0.2936 -0.2864,0.3348 -0.19282,0.082 -1.04426,0.2037 -2.73437,0.3901 -0.77958,0.086 -0.86632,0.093 -0.91444,0.075 l 0,0 z"
         style="color:#000000;fill:#1a1a1a;fill-opacity:1;fill-rule:nonzero;stroke:none;stroke-width:1px;marker:none;visibility:visible;display:inline;overflow:visible;enable-background:accumulate" />
      <path
         inkscape:connector-curvature="0"
         id="path3361"
         d="m 152.13304,1022.2717 0,-0.2549 0.10496,-0.014 c 0.16497,-0.022 17.22125,-1.8687 17.25515,-1.8687 0.0231,0 0.0303,0.042 0.0303,0.1768 0,0.097 -0.006,0.1768 -0.0143,0.1768 -0.0164,0 -17.1113,2.0044 -17.27116,2.025 l -0.10496,0.014 0,-0.2549 z"
         style="color:#000000;fill:#1a1a1a;fill-opacity:1;fill-rule:nonzero;stroke:none;stroke-width:1px;marker:none;visibility:visible;display:inline;overflow:visible;enable-background:accumulate" />
      <path
         inkscape:connector-curvature="0"
         id="path3363"
         d="m 149.34337,1022.715 c -5.1e-4,-0.078 -0.005,-0.198 -0.009,-0.2679 -0.004,-0.07 -0.007,-0.1289 -0.005,-0.1311 0.002,0 0.61583,-0.07 1.3651,-0.1514 0.74927,-0.081 1.37971,-0.1499 1.40098,-0.1531 l 0.0387,-0.01 -0.003,0.2649 c -0.003,0.231 -0.005,0.2648 -0.0204,0.2648 -0.009,0 -0.63177,0.072 -1.3829,0.1602 -0.75112,0.088 -1.36966,0.1602 -1.37452,0.1602 -0.005,0 -0.009,-0.063 -0.01,-0.1408 z"
         style="color:#000000;fill:#1a1a1a;fill-opacity:1;fill-rule:nonzero;stroke:none;stroke-width:1px;marker:none;visibility:visible;display:inline;overflow:visible;enable-background:accumulate" />
      <path
         inkscape:connector-curvature="0"
         id="path3365"
         d="m 171.8398,1020.1955 c 0,-0.01 0.0249,-0.051 0.0552,-0.099 0.0304,-0.048 0.0548,-0.095 0.0543,-0.1045 -5.3e-4,-0.01 -0.26866,-0.1861 -0.59585,-0.3927 -0.32719,-0.2066 -0.58561,-0.3788 -0.57427,-0.3827 0.058,-0.02 0.44085,0.1057 0.70634,0.232 0.38116,0.1813 0.67758,0.2802 0.98401,0.3283 0.2025,0.032 0.33898,0.036 0.8176,0.026 0.66437,-0.014 0.87859,-0.035 3.0273,-0.2919 0.86289,-0.1033 1.79511,-0.21 2.0716,-0.2371 0.36032,-0.035 0.50271,-0.057 0.50271,-0.077 0,-0.076 -0.68597,-0.5922 -1.96664,-1.4798 -1.024,-0.7098 -2.034,-1.3831 -5.00499,-3.3366 l -2.3202,-1.5257 -3.15988,0.2832 c -1.73794,0.1557 -3.19717,0.2835 -3.24275,0.2841 -0.0728,8e-4 -0.0829,-0.01 -0.0829,-0.052 0,-0.047 0.0123,-0.054 0.11601,-0.066 0.13475,-0.016 6.37556,-0.5629 6.49102,-0.5689 0.0685,0 0.64741,0.3715 5.04614,3.2695 2.73284,1.8005 4.95525,3.2779 4.9387,3.2832 -0.0277,0.01 -7.8095,0.9208 -7.84695,0.9195 -0.009,-3e-4 -0.0166,-0.01 -0.0166,-0.012 l 0,0 z"
         style="color:#000000;fill:#1a1a1a;fill-opacity:1;fill-rule:nonzero;stroke:none;stroke-width:1px;marker:none;visibility:visible;display:inline;overflow:visible;enable-background:accumulate" />
      <path
         inkscape:connector-curvature="0"
         id="path3367"
         d="m 93.127679,919.67937 -1.070312,-0.14377 0,-12.91471 0,-12.91471 0.15625,0 0.15625,0 0,12.82813 c 0,7.05547 0.01055,12.8281 0.02344,12.82808 0.03984,-6e-5 3.333031,0.43825 3.382813,0.45025 0.02578,0.006 -0.31875,0.0111 -0.765625,0.0109 -0.788519,-3.9e-4 -0.844091,-0.005 -1.882813,-0.14417 z"
         style="color:#000000;fill:#1a1a1a;fill-opacity:1;fill-rule:nonzero;stroke:none;stroke-width:1px;marker:none;visibility:visible;display:inline;overflow:visible;enable-background:accumulate" />
      <path
         inkscape:connector-curvature="0"
         id="path3369"
         d="m 92.086096,886.99579 0,-6.67054 0.143631,0.0219 c 0.079,0.0121 3.371771,0.45638 7.317274,0.98736 3.945499,0.53098 7.183669,0.97545 7.195929,0.98771 0.0123,0.0123 0.0158,0.0697 0.008,0.12755 l -0.0144,0.10526 -4.30893,-0.58516 c -6.05609,-0.82243 -8.394854,-1.15154 -9.236586,-1.29978 -0.401063,-0.0706 -0.754064,-0.12866 -0.784447,-0.12895 -0.04395,-4.1e-4 -0.05524,1.34124 -0.05524,6.56232 l 0,6.56283 -0.132582,0 -0.132583,0 0,-6.67054 z"
         style="color:#000000;fill:#1a1a1a;fill-opacity:1;fill-rule:nonzero;stroke:none;stroke-width:1px;marker:none;visibility:visible;display:inline;overflow:visible;enable-background:accumulate" />
      <path
         inkscape:connector-curvature="0"
         id="path3371"
         d="m 169.38781,897.71074 c -0.003,-0.0927 -0.0216,-0.81483 -0.0404,-1.6048 -0.0731,-3.0826 -0.14748,-4.68056 -0.23266,-5.00189 -0.0138,-0.0521 -0.004,-0.0495 -0.43781,-0.11899 -0.57085,-0.0915 -4.60167,-0.67348 -4.66856,-0.67402 -0.005,-3e-5 -0.008,-0.0697 -0.008,-0.15474 0,-0.14004 0.002,-0.15466 0.0193,-0.15445 0.0447,5.5e-4 5.56045,0.74766 5.56683,0.75403 0.006,0.006 0.0471,5.70305 0.0482,6.71732 l 4.3e-4,0.40603 -0.12037,0 -0.12037,0 -0.006,-0.16849 0,0 z"
         style="color:#000000;fill:#1a1a1a;fill-opacity:1;fill-rule:nonzero;stroke:none;stroke-width:1px;marker:none;visibility:visible;display:inline;overflow:visible;enable-background:accumulate" />
      <path
         inkscape:connector-curvature="0"
         id="path3373"
         d="m 163.42601,890.22927 c -1.04089,-0.14857 -6.91879,-0.95979 -6.95432,-0.95979 -0.0148,0 -0.0173,-0.0208 -0.0173,-0.14505 l 0,-0.14504 0.0414,0.006 c 0.0228,0.004 1.707,0.23051 3.7427,0.50436 2.03569,0.27386 3.71493,0.50069 3.73164,0.50408 l 0.0304,0.006 0,0.1538 c 0,0.13955 -0.002,0.1537 -0.0193,0.15266 -0.0106,-6.4e-4 -0.26047,-0.0356 -0.55519,-0.0776 z"
         style="color:#000000;fill:#1a1a1a;fill-opacity:1;fill-rule:nonzero;stroke:none;stroke-width:1px;marker:none;visibility:visible;display:inline;overflow:visible;enable-background:accumulate" />
      <path
         inkscape:connector-curvature="0"
         id="path3375"
         d="m 149.48729,888.31726 c -1.72882,-0.23521 -3.67653,-0.49938 -4.32825,-0.58705 l -1.18493,-0.15939 -2e-5,-0.13632 -2e-5,-0.13631 0.0414,0.007 c 0.0228,0.004 1.96305,0.26526 4.31169,0.5813 2.34865,0.31604 4.28642,0.57753 4.30617,0.58109 l 0.0359,0.006 0,0.13688 c 0,0.12349 -0.002,0.13675 -0.0193,0.13559 -0.0106,-7.1e-4 -1.43382,-0.19373 -3.16264,-0.42894 z"
         style="color:#000000;fill:#1a1a1a;fill-opacity:1;fill-rule:nonzero;stroke:none;stroke-width:1px;marker:none;visibility:visible;display:inline;overflow:visible;enable-background:accumulate" />
      <path
         inkscape:connector-curvature="0"
         id="path3377"
         d="m 154.52346,889.00253 -1.85615,-0.25496 0.003,-0.13599 c 0.003,-0.10234 0.007,-0.13598 0.0177,-0.13598 0.0207,0 3.70849,0.49619 3.73815,0.50297 0.0241,0.005 0.0249,0.01 0.0249,0.14358 l 0,0.13789 -0.0359,-10e-4 c -0.0197,-7e-4 -0.87118,-0.11601 -1.89207,-0.25623 z"
         style="color:#000000;fill:#1a1a1a;fill-opacity:1;fill-rule:nonzero;stroke:none;stroke-width:1px;marker:none;visibility:visible;display:inline;overflow:visible;enable-background:accumulate" />
      <path
         inkscape:connector-curvature="0"
         id="path3379"
         d="m 141.94571,887.29943 c -1.10644,-0.14956 -2.41338,-0.32579 -2.9043,-0.39161 l -0.89257,-0.11968 0,-0.13754 0,-0.13755 0.0449,0.007 c 0.0247,0.004 1.32636,0.17883 2.89258,0.38943 1.56621,0.2106 2.85556,0.38471 2.86523,0.3869 0.0174,0.004 0.0176,0.005 0.0176,0.14057 0,0.0751 -0.003,0.13619 -0.006,0.13573 -0.003,-4.5e-4 -0.91113,-0.1232 -2.01758,-0.27277 l 0,0 z"
         style="color:#000000;fill:#1a1a1a;fill-opacity:1;fill-rule:nonzero;stroke:none;stroke-width:1px;marker:none;visibility:visible;display:inline;overflow:visible;enable-background:accumulate" />
      <path
         inkscape:connector-curvature="0"
         id="path3381"
         d="m 134.97426,886.35981 c -1.73593,-0.23313 -3.35839,-0.45092 -3.60546,-0.48398 l -0.44922,-0.0601 0,-0.13883 c 0,-0.12469 0.003,-0.13805 0.0273,-0.13123 0.015,0.004 1.6375,0.22374 3.60547,0.48793 1.96797,0.26418 3.58017,0.48184 3.58267,0.48368 0.003,0.002 0.003,0.0625 0,0.13488 l -0.005,0.13154 -3.15625,-0.42388 z"
         style="color:#000000;fill:#1a1a1a;fill-opacity:1;fill-rule:nonzero;stroke:none;stroke-width:1px;marker:none;visibility:visible;display:inline;overflow:visible;enable-background:accumulate" />
      <path
         inkscape:connector-curvature="0"
         id="path3383"
         d="m 128.86545,885.54781 c -0.83897,-0.11249 -1.52759,-0.20459 -1.53027,-0.20469 -0.004,-1.3e-4 -0.005,-0.0318 -0.005,-0.14487 l 0,-0.14471 0.0127,0.002 c 0.007,0.001 0.69209,0.0935 1.52246,0.2052 0.83037,0.11167 1.51636,0.20409 1.52441,0.20539 l 0.0147,0.002 0,0.14224 c 0,0.133 -4.4e-4,0.1422 -0.007,0.14184 -0.004,-2.2e-4 -0.69327,-0.0924 -1.53223,-0.20492 l 0,0 z"
         style="color:#000000;fill:#1a1a1a;fill-opacity:1;fill-rule:nonzero;stroke:none;stroke-width:1px;marker:none;visibility:visible;display:inline;overflow:visible;enable-background:accumulate" />
      <path
         inkscape:connector-curvature="0"
         id="path3385"
         d="m 130.66157,885.78697 c -0.13976,-0.0193 -0.25473,-0.0351 -0.25549,-0.0352 -7.6e-4,-1.3e-4 -0.001,-0.0636 -0.001,-0.14111 0,-0.10917 0.002,-0.1408 0.007,-0.14057 0.004,1.6e-4 0.12126,0.0159 0.26102,0.035 0.20602,0.0282 0.2536,0.0362 0.25137,0.0425 -0.002,0.004 -0.003,0.0666 -0.004,0.13851 -0.002,0.12206 -0.001,0.13092 0.008,0.13333 0.0271,0.007 -0.0308,-4e-5 -0.26627,-0.0325 z"
         style="color:#000000;fill:#1a1a1a;fill-opacity:1;fill-rule:nonzero;stroke:none;stroke-width:1px;marker:none;visibility:visible;display:inline;overflow:visible;enable-background:accumulate" />
      <path
         inkscape:connector-curvature="0"
         id="path3387"
         d="m 125.96708,885.16033 c -0.73369,-0.0984 -1.35727,-0.18192 -1.38574,-0.18565 l -0.0517,-0.007 0,-0.14602 0,-0.14602 0.009,0.002 c 0.005,10e-4 0.63282,0.0857 1.3955,0.18822 0.7627,0.10246 1.38784,0.18732 1.38919,0.18858 0.001,10e-4 0.004,0.066 0.005,0.14389 l 0.003,0.1416 -0.0149,-4.3e-4 c -0.008,-2.4e-4 -0.61522,-0.0809 -1.34891,-0.1793 z"
         style="color:#000000;fill:#1a1a1a;fill-opacity:1;fill-rule:nonzero;stroke:none;stroke-width:1px;marker:none;visibility:visible;display:inline;overflow:visible;enable-background:accumulate" />
      <path
         inkscape:connector-curvature="0"
         id="path3389"
         d="m 122.97629,884.75806 c -0.8325,-0.11194 -1.51427,-0.20364 -1.51503,-0.20378 -7.6e-4,-1.4e-4 -10e-4,-0.0649 -10e-4,-0.14388 0,-0.13452 6.3e-4,-0.14364 0.01,-0.14364 0.006,0 0.69269,0.092 1.52717,0.2044 0.83449,0.11242 1.51987,0.2044 1.52307,0.2044 0.004,0 0.006,0.0468 0.006,0.14363 l 0,0.14363 -0.0179,-6.1e-4 c -0.01,-3.4e-4 -0.6991,-0.0922 -1.53161,-0.20415 z"
         style="color:#000000;fill:#1a1a1a;fill-opacity:1;fill-rule:nonzero;stroke:none;stroke-width:1px;marker:none;visibility:visible;display:inline;overflow:visible;enable-background:accumulate" />
      <path
         inkscape:connector-curvature="0"
         id="path3391"
         d="m 120.04519,884.36561 c -0.76262,-0.10269 -1.38721,-0.1869 -1.38797,-0.18714 -7.6e-4,-2.3e-4 -10e-4,-0.0661 -10e-4,-0.14629 l 0,-0.14587 0.0207,0.003 c 0.0114,10e-4 0.6422,0.0865 1.40178,0.18887 1.23293,0.1661 1.38102,0.18707 1.38061,0.19553 -2.5e-4,0.005 -8.7e-4,0.0704 -0.001,0.14482 l -9.2e-4,0.13535 -0.0124,-6.9e-4 c -0.007,-3.8e-4 -0.63639,-0.0847 -1.39902,-0.1874 z"
         style="color:#000000;fill:#1a1a1a;fill-opacity:1;fill-rule:nonzero;stroke:none;stroke-width:1px;marker:none;visibility:visible;display:inline;overflow:visible;enable-background:accumulate" />
      <path
         inkscape:connector-curvature="0"
         id="path3393"
         d="m 118.06727,884.10027 c -0.32207,-0.0432 -0.68439,-0.0918 -0.80517,-0.10803 l -0.21959,-0.0294 0,-0.14691 0,-0.14691 0.0483,0.007 c 0.0266,0.004 0.38767,0.0522 0.8024,0.10781 0.41474,0.0557 0.75597,0.10279 0.7583,0.10474 0.002,0.002 0.004,0.0682 0.003,0.14713 l -0.001,0.14356 -0.58557,-0.0786 z"
         style="color:#000000;fill:#1a1a1a;fill-opacity:1;fill-rule:nonzero;stroke:none;stroke-width:1px;marker:none;visibility:visible;display:inline;overflow:visible;enable-background:accumulate" />
      <path
         inkscape:connector-curvature="0"
         id="path3395"
         d="m 116.05669,883.83146 c -0.52959,-0.0714 -0.97212,-0.13118 -0.9834,-0.13276 l -0.0205,-0.003 0,-0.14838 0,-0.14838 0.0107,0.002 c 0.006,10e-4 0.44932,0.0611 0.98535,0.13313 0.53604,0.072 0.97857,0.13185 0.9834,0.13296 l 0.009,0.002 0,0.14641 0,0.14641 -0.0107,-4.2e-4 c -0.006,-2.3e-4 -0.44404,-0.0589 -0.97363,-0.13031 z"
         style="color:#000000;fill:#1a1a1a;fill-opacity:1;fill-rule:nonzero;stroke:none;stroke-width:1px;marker:none;visibility:visible;display:inline;overflow:visible;enable-background:accumulate" />
      <path
         inkscape:connector-curvature="0"
         id="path3397"
         d="m 107.78062,882.71628 c -0.84011,-0.11343 -1.80589,-0.24373 -2.14618,-0.28957 -0.3403,-0.0458 -0.62431,-0.0845 -0.63115,-0.086 -0.007,-10e-4 -0.0124,-0.006 -0.0124,-0.0109 0,-0.005 0.001,-0.008 0.003,-0.008 0.005,0 1.71195,0.23168 1.72946,0.23472 l 0.0169,0.003 0.009,-0.0788 c 0.0108,-0.0906 0.0112,-0.1154 0.002,-0.14229 -0.007,-0.019 -0.007,-0.0194 -0.0508,-0.0263 -0.16732,-0.0263 -1.6837,-0.23892 -1.70367,-0.23892 -0.003,0 -0.006,-0.006 -0.006,-0.0141 0,-0.0128 0.002,-0.0138 0.0179,-0.011 0.01,0.002 0.97876,0.1323 2.15308,0.29023 1.17432,0.15793 2.14445,0.28863 2.15585,0.29044 l 0.0207,0.003 0,0.1459 0,0.14591 -0.0152,-6.4e-4 c -0.008,-3.6e-4 -0.70255,-0.0934 -1.54266,-0.20688 z"
         style="color:#000000;fill:#1a1a1a;fill-opacity:1;fill-rule:nonzero;stroke:none;stroke-width:1px;marker:none;visibility:visible;display:inline;overflow:visible;enable-background:accumulate" />
      <path
         inkscape:connector-curvature="0"
         id="path3399"
         d="m 112.39872,883.3356 c -1.43106,-0.19327 -2.70261,-0.36504 -2.82566,-0.38171 l -0.22374,-0.0303 0,-0.14202 c 0,-0.10917 0.003,-0.14203 0.0144,-0.14203 0.0121,0 5.50115,0.73775 5.63973,0.758 l 0.047,0.007 0,0.14238 c 0,0.1406 -3.1e-4,0.14236 -0.0249,0.1413 -0.0137,-5.8e-4 -1.19573,-0.1592 -2.62679,-0.35247 z"
         style="color:#000000;fill:#1a1a1a;fill-opacity:1;fill-rule:nonzero;stroke:none;stroke-width:1px;marker:none;visibility:visible;display:inline;overflow:visible;enable-background:accumulate" />
      <path
         inkscape:connector-curvature="0"
         id="path3401"
         d="m 169.5623,912.38903 c -0.034,-5.25433 -0.0926,-10.59012 -0.14563,-13.25273 -0.0119,-0.59552 -0.0216,-1.12005 -0.0217,-1.16562 l -8e-5,-0.0829 0.12153,0 0.12154,0 3.5e-4,0.70158 c 2e-4,0.38587 0.0199,3.69961 0.0438,7.36386 0.0239,3.66424 0.0436,7.12713 0.0438,7.69531 l 3.5e-4,1.03303 -0.0746,0 -0.0746,0 -0.0148,-2.29257 z"
         style="color:#000000;fill:#1a1a1a;fill-opacity:1;fill-rule:nonzero;stroke:none;stroke-width:1px;marker:none;visibility:visible;display:inline;overflow:visible;enable-background:accumulate" />
      <path
         inkscape:connector-curvature="0"
         id="path3403"
         d="m 169.54553,925.20663 c 0.005,-0.36309 0.0139,-2.87676 0.0192,-5.58594 l 0.01,-4.92578 0.0763,0 0.0763,0 0.002,-0.42578 c 0.001,-0.23418 0.0182,1.95781 0.0377,4.87109 0.0195,2.91328 0.0361,5.61856 0.0368,6.01172 l 0.001,0.71484 -0.13458,0 -0.13458,0 0.01,-0.66015 0,0 z"
         style="color:#000000;fill:#1a1a1a;fill-opacity:1;fill-rule:nonzero;stroke:none;stroke-width:1px;marker:none;visibility:visible;display:inline;overflow:visible;enable-background:accumulate" />
      <path
         inkscape:connector-curvature="0"
         id="path3405"
         d="m 167.11613,929.45753 c -1.47967,-0.19646 -2.69156,-0.35746 -2.69308,-0.35778 -0.002,-3.1e-4 -0.003,-0.0329 -0.003,-0.0724 0,-0.0603 0.003,-0.0718 0.0188,-0.0718 0.0143,0 4.65595,0.6156 4.88315,0.64763 0.0458,0.006 0.0462,0.006 0.0584,-0.0361 0.058,-0.20147 0.11388,-1.39625 0.13973,-2.98977 l 0.008,-0.47232 0.14053,0 0.14052,0 0.007,0.70987 c 0.004,0.39043 0.0101,1.2257 0.014,1.85615 0.006,0.97232 0.005,1.14609 -0.008,1.14499 -0.008,-7.2e-4 -1.22593,-0.16204 -2.70561,-0.35851 z"
         style="color:#000000;fill:#1a1a1a;fill-opacity:1;fill-rule:nonzero;stroke:none;stroke-width:1px;marker:none;visibility:visible;display:inline;overflow:visible;enable-background:accumulate" />
      <path
         inkscape:connector-curvature="0"
         id="path3407"
         d="m 169.54349,925.98666 0,-0.11049 0.13259,0 0.13258,0 0,0.11049 0,0.11048 -0.13258,0 -0.13259,0 0,-0.11048 z"
         style="color:#000000;fill:#1a1a1a;fill-opacity:1;fill-rule:nonzero;stroke:none;stroke-width:1px;marker:none;visibility:visible;display:inline;overflow:visible;enable-background:accumulate" />
      <path
         inkscape:connector-curvature="0"
         id="path3411"
         d="m 163.41365,928.97189 c -0.54034,-0.0717 -0.98374,-0.13038 -0.98536,-0.13047 -0.002,-9e-5 -0.003,-0.0364 -0.003,-0.0807 l 0,-0.0806 0.0127,0.002 c 0.007,10e-4 0.52588,0.0703 1.15311,0.15382 0.62723,0.0835 1.13738,0.15241 1.13367,0.15313 -0.004,7.1e-4 -0.0702,-0.007 -0.14765,-0.0173 -0.10143,-0.0134 -0.14271,-0.0175 -0.14731,-0.0146 -0.01,0.006 -0.0129,0.0327 -0.0113,0.0921 l 0.001,0.0537 -0.012,-3.9e-4 c -0.007,-2.1e-4 -0.45407,-0.059 -0.9944,-0.1307 z"
         style="color:#000000;fill:#1a1a1a;fill-opacity:1;fill-rule:nonzero;stroke:none;stroke-width:1px;marker:none;visibility:visible;display:inline;overflow:visible;enable-background:accumulate" />
      <path
         inkscape:connector-curvature="0"
         id="path3413"
         d="m 161.73757,928.75046 c -0.37812,-0.05 -0.69497,-0.092 -0.7041,-0.0934 l -0.0166,-0.003 0,-0.0798 c 0,-0.0734 5.5e-4,-0.0798 0.007,-0.08 0.004,-7e-5 0.32007,0.0416 0.70291,0.0925 l 0.69607,0.0927 10e-4,0.0803 c 6.6e-4,0.0442 0.001,0.0805 0.001,0.0807 0,2e-4 -0.30937,-0.0405 -0.6875,-0.0905 l 0,0 z"
         style="color:#000000;fill:#1a1a1a;fill-opacity:1;fill-rule:nonzero;stroke:none;stroke-width:1px;marker:none;visibility:visible;display:inline;overflow:visible;enable-background:accumulate" />
      <path
         inkscape:connector-curvature="0"
         id="path3415"
         d="m 153.69743,927.68744 -3.05078,-0.40383 -0.002,-0.0859 -0.002,-0.0859 3.06079,0.40837 c 1.68343,0.2246 3.06694,0.40849 3.07446,0.40863 0.0121,2.3e-4 0.0137,0.01 0.0137,0.0823 l 0,0.082 -0.0215,-9.2e-4 c -0.0118,-5.1e-4 -1.39434,-0.18264 -3.07227,-0.40475 z"
         style="color:#000000;fill:#1a1a1a;fill-opacity:1;fill-rule:nonzero;stroke:none;stroke-width:1px;marker:none;visibility:visible;display:inline;overflow:visible;enable-background:accumulate" />
      <path
         inkscape:connector-curvature="0"
         id="path3417"
         d="m 158.87458,928.36779 -2.07422,-0.27558 0,-0.0743 c 0,-0.0668 0.004,-0.0742 0.0352,-0.0738 0.0193,2.9e-4 0.96679,0.12509 2.10547,0.27734 l 2.07031,0.27683 -0.005,0.0742 c -0.004,0.0583 -0.0104,0.0738 -0.0312,0.0725 -0.0146,-9.4e-4 -0.95989,-0.12571 -2.10071,-0.27728 z"
         style="color:#000000;fill:#1a1a1a;fill-opacity:1;fill-rule:nonzero;stroke:none;stroke-width:1px;marker:none;visibility:visible;display:inline;overflow:visible;enable-background:accumulate" />
      <path
         inkscape:connector-curvature="0"
         id="path3419"
         d="m 138.92337,925.73733 c -0.84111,-0.11119 -1.53237,-0.20225 -1.53613,-0.20235 -0.006,-1.7e-4 -0.007,-0.007 -0.007,-0.0959 0,-0.0526 0.001,-0.0958 0.003,-0.0958 0.0101,-4.4e-4 3.06601,0.40805 3.06843,0.41016 0.002,0.001 0.003,0.0439 0.002,0.0943 l -10e-4,0.0917 -1.5293,-0.20217 z"
         style="color:#000000;fill:#1a1a1a;fill-opacity:1;fill-rule:nonzero;stroke:none;stroke-width:1px;marker:none;visibility:visible;display:inline;overflow:visible;enable-background:accumulate" />
      <path
         inkscape:connector-curvature="0"
         id="path3421"
         d="m 104.52137,921.19475 -1.52539,-0.2019 -0.001,-0.11744 -0.001,-0.11744 0.009,10e-4 c 0.0156,0.003 3.05743,0.40761 3.06153,0.40761 0.003,0 0.004,0.0402 0.004,0.11523 l 0,0.11524 -0.0107,-4.4e-4 c -0.006,-2.5e-4 -0.69716,-0.0913 -1.53613,-0.20235 z"
         style="color:#000000;fill:#1a1a1a;fill-opacity:1;fill-rule:nonzero;stroke:none;stroke-width:1px;marker:none;visibility:visible;display:inline;overflow:visible;enable-background:accumulate" />
      <path
         inkscape:connector-curvature="0"
         id="path3423"
         d="m 107.0077,921.52264 -0.9336,-0.12322 -0.003,-0.11448 c -0.002,-0.063 -0.003,-0.115 -0.002,-0.11563 0.002,-10e-4 1.87176,0.24782 1.87351,0.24949 5.7e-4,5.4e-4 5.7e-4,0.0519 0,0.11403 l -0.001,0.11304 -0.9336,-0.12323 z"
         style="color:#000000;fill:#1a1a1a;fill-opacity:1;fill-rule:nonzero;stroke:none;stroke-width:1px;marker:none;visibility:visible;display:inline;overflow:visible;enable-background:accumulate" />
      <path
         inkscape:connector-curvature="0"
         id="path3425"
         d="m 108.94129,921.77833 c -0.52422,-0.0695 -0.96323,-0.12748 -0.97559,-0.12893 l -0.0225,-0.003 0,-0.11511 c 0,-0.10776 4.4e-4,-0.11499 0.007,-0.11319 0.004,10e-4 0.44673,0.0605 0.98438,0.13202 l 0.97754,0.1301 0,0.11238 0,0.11238 -0.009,-3.6e-4 c -0.005,-2e-4 -0.4377,-0.0572 -0.96192,-0.12666 z"
         style="color:#000000;fill:#1a1a1a;fill-opacity:1;fill-rule:nonzero;stroke:none;stroke-width:1px;marker:none;visibility:visible;display:inline;overflow:visible;enable-background:accumulate" />
      <path
         inkscape:connector-curvature="0"
         id="path3427"
         d="m 118.13427,922.99077 -3.04883,-0.40339 0,-0.10846 0,-0.10846 0.0254,0.005 c 0.014,0.002 1.38594,0.18563 3.04883,0.407 1.66289,0.22138 3.03486,0.40447 3.04882,0.40688 l 0.0254,0.004 0,0.10121 0,0.10121 -0.0254,-7.4e-4 c -0.014,-4.1e-4 -1.39736,-0.18227 -3.07421,-0.40413 l 0,0 z"
         style="color:#000000;fill:#1a1a1a;fill-opacity:1;fill-rule:nonzero;stroke:none;stroke-width:1px;marker:none;visibility:visible;display:inline;overflow:visible;enable-background:accumulate" />
      <path
         inkscape:connector-curvature="0"
         id="path3429"
         d="m 113.56591,922.38725 c -0.80352,-0.10675 -1.46533,-0.19424 -1.47071,-0.19442 -0.007,-2.4e-4 -0.01,-0.0276 -0.01,-0.1097 0,-0.0602 0.003,-0.10937 0.006,-0.10937 0.008,0 2.92807,0.38907 2.96478,0.39504 l 0.0293,0.005 0,0.10479 0,0.10478 -0.0293,-8.9e-4 c -0.0161,-5e-4 -0.68672,-0.0882 -1.49024,-0.19499 l 0,0 z"
         style="color:#000000;fill:#1a1a1a;fill-opacity:1;fill-rule:nonzero;stroke:none;stroke-width:1px;marker:none;visibility:visible;display:inline;overflow:visible;enable-background:accumulate" />
      <path
         inkscape:connector-curvature="0"
         id="path3431"
         d="m 110.99169,922.04739 c -0.59082,-0.0788 -1.0751,-0.14338 -1.07617,-0.14358 -0.001,-2e-4 -0.002,-0.0496 -0.002,-0.10974 0,-0.0697 0.003,-0.10937 0.008,-0.10937 0.0125,0 2.12645,0.28124 2.14626,0.28554 0.0172,0.004 0.0176,0.006 0.0176,0.11304 0,0.0827 -0.002,0.109 -0.01,0.10828 -0.005,-5.3e-4 -0.49317,-0.0654 -1.08399,-0.14417 z"
         style="color:#000000;fill:#1a1a1a;fill-opacity:1;fill-rule:nonzero;stroke:none;stroke-width:1px;marker:none;visibility:visible;display:inline;overflow:visible;enable-background:accumulate" />
      <path
         inkscape:connector-curvature="0"
         id="path3433"
         d="m 100.1656,920.61629 -2.811854,-0.37237 -0.0031,-0.11805 -0.0031,-0.11804 0.03075,0.006 c 0.0236,0.004 5.290014,0.70613 5.557784,0.74072 l 0.058,0.007 0,0.11458 c 0,0.063 -0.004,0.11412 -0.008,0.11354 -0.005,-5.7e-4 -1.27362,-0.16861 -2.82014,-0.37341 z"
         style="color:#000000;fill:#1a1a1a;fill-opacity:1;fill-rule:nonzero;stroke:none;stroke-width:1px;marker:none;visibility:visible;display:inline;overflow:visible;enable-background:accumulate" />
      <path
         inkscape:connector-curvature="0"
         id="path3435"
         d="m 95.718561,920.02901 c -0.862891,-0.11456 -1.581323,-0.21063 -1.596514,-0.2135 -0.01519,-0.003 0.01464,-0.003 0.06629,-4.7e-4 0.05165,0.003 0.347477,0.008 0.657388,0.0117 0.55766,0.007 0.960638,-10e-4 0.917029,-0.0188 -0.01215,-0.005 -0.01813,-0.009 -0.01327,-0.01 0.0049,-4.3e-4 0.362522,0.0464 0.794821,0.10415 0.517031,0.069 0.789005,0.10966 0.794788,0.11877 0.0048,0.008 0.0089,0.0598 0.009,0.11605 l 1.69e-4,0.10219 -0.03038,-10e-4 c -0.01671,-5.9e-4 -0.736386,-0.0948 -1.599277,-0.20935 z"
         style="color:#000000;fill:#1a1a1a;fill-opacity:1;fill-rule:nonzero;stroke:none;stroke-width:1px;marker:none;visibility:visible;display:inline;overflow:visible;enable-background:accumulate" />
      <path
         inkscape:connector-curvature="0"
         id="path3437"
         d="m 135.45247,925.27856 c -1.04975,-0.1392 -1.91175,-0.25326 -1.91555,-0.25346 -0.005,-2.8e-4 -0.007,-0.0236 -0.007,-0.097 0,-0.0885 8.2e-4,-0.0966 0.01,-0.0964 0.005,1.6e-4 0.87104,0.11521 1.92382,0.25568 l 1.91416,0.25539 10e-4,0.0951 c 9.8e-4,0.0864 2.2e-4,0.095 -0.008,0.0945 -0.005,-3.6e-4 -0.86825,-0.11455 -1.918,-0.25375 z"
         style="color:#000000;fill:#1a1a1a;fill-opacity:1;fill-rule:nonzero;stroke:none;stroke-width:1px;marker:none;visibility:visible;display:inline;overflow:visible;enable-background:accumulate" />
      <path
         inkscape:connector-curvature="0"
         id="path3439"
         d="m 132.23303,924.85369 c -0.70575,-0.0935 -1.28441,-0.17118 -1.2859,-0.17268 -0.002,-10e-4 -0.002,-0.0461 -10e-4,-0.0991 l 0.002,-0.0964 1.28992,0.17245 c 0.70945,0.0948 1.29041,0.17265 1.29101,0.1729 6e-4,2.6e-4 0.001,0.044 0.001,0.0971 0,0.0717 -0.002,0.0965 -0.007,0.0961 -0.004,-3e-4 -0.58404,-0.077 -1.28979,-0.17049 l 0,0 z"
         style="color:#000000;fill:#1a1a1a;fill-opacity:1;fill-rule:nonzero;stroke:none;stroke-width:1px;marker:none;visibility:visible;display:inline;overflow:visible;enable-background:accumulate" />
      <path
         inkscape:connector-curvature="0"
         id="path3441"
         d="m 129.86743,924.54104 c -0.57881,-0.077 -1.05424,-0.14007 -1.05652,-0.14024 -0.007,-4.9e-4 -0.005,-0.19918 0.002,-0.19918 0.003,0 0.47108,0.062 1.03994,0.13783 0.56886,0.0758 1.04735,0.13952 1.0633,0.14158 l 0.029,0.004 0,0.0987 0,0.0987 -0.0124,-6.2e-4 c -0.007,-3.4e-4 -0.486,-0.0636 -1.0648,-0.14056 z"
         style="color:#000000;fill:#1a1a1a;fill-opacity:1;fill-rule:nonzero;stroke:none;stroke-width:1px;marker:none;visibility:visible;display:inline;overflow:visible;enable-background:accumulate" />
      <path
         inkscape:connector-curvature="0"
         id="path3443"
         d="m 127.63134,924.246 c -0.63587,-0.0843 -1.15735,-0.15455 -1.15886,-0.15606 -0.002,-10e-4 -0.002,-0.0474 -0.001,-0.10187 l 0.002,-0.0991 1.1684,0.15606 c 0.64261,0.0858 1.16915,0.15619 1.17009,0.15634 9.4e-4,1.5e-4 1.5e-4,0.003 -0.002,0.006 -0.002,0.003 -0.003,0.0478 -0.003,0.0994 0,0.0845 -9.3e-4,0.0938 -0.009,0.0932 -0.005,-3.3e-4 -0.52954,-0.0696 -1.16539,-0.15391 l 0,0 z"
         style="color:#000000;fill:#1a1a1a;fill-opacity:1;fill-rule:nonzero;stroke:none;stroke-width:1px;marker:none;visibility:visible;display:inline;overflow:visible;enable-background:accumulate" />
      <path
         inkscape:connector-curvature="0"
         id="path3445"
         d="m 124.99502,923.89753 c -0.79757,-0.10582 -1.45199,-0.19256 -1.45426,-0.19275 -0.002,-1.9e-4 -0.004,-0.0463 -0.004,-0.10255 0,-0.085 0.001,-0.1022 0.008,-0.1022 0.004,0 0.66119,0.087 1.45965,0.19335 0.79846,0.10634 1.45491,0.19335 1.45878,0.19335 0.005,0 0.007,0.0231 0.007,0.1022 l 0,0.1022 -0.0124,-6e-4 c -0.007,-3.2e-4 -0.66498,-0.0872 -1.46254,-0.193 z"
         style="color:#000000;fill:#1a1a1a;fill-opacity:1;fill-rule:nonzero;stroke:none;stroke-width:1px;marker:none;visibility:visible;display:inline;overflow:visible;enable-background:accumulate" />
      <path
         inkscape:connector-curvature="0"
         id="path3447"
         d="m 122.37928,923.55217 c -0.6259,-0.0831 -1.13862,-0.15122 -1.13938,-0.15134 -7.6e-4,-1.3e-4 -0.001,-0.0475 -0.001,-0.1052 0,-0.0577 6.2e-4,-0.10483 0.001,-0.10468 7.6e-4,1.5e-4 0.51721,0.0692 1.14766,0.15338 l 1.14629,0.15311 0.001,0.10349 c 10e-4,0.0961 8.1e-4,0.10346 -0.008,0.10293 -0.005,-3.1e-4 -0.52189,-0.0686 -1.14779,-0.15169 z"
         style="color:#000000;fill:#1a1a1a;fill-opacity:1;fill-rule:nonzero;stroke:none;stroke-width:1px;marker:none;visibility:visible;display:inline;overflow:visible;enable-background:accumulate" />
      <path
         inkscape:connector-curvature="0"
         id="path3449"
         d="m 148.6355,927.01966 c -1.08621,-0.14389 -1.97679,-0.2617 -1.97907,-0.26182 -0.002,-1.2e-4 -0.004,-0.04 -0.004,-0.0886 0,-0.067 0.002,-0.0884 0.007,-0.0884 0.0135,4e-5 3.97671,0.52908 3.97873,0.5311 0.001,10e-4 0.003,0.04 0.004,0.0863 l 0.002,0.0842 -0.0166,-5.9e-4 c -0.009,-3.3e-4 -0.90529,-0.11832 -1.9915,-0.2622 z"
         style="color:#000000;fill:#1a1a1a;fill-opacity:1;fill-rule:nonzero;stroke:none;stroke-width:1px;marker:none;visibility:visible;display:inline;overflow:visible;enable-background:accumulate" />
      <path
         inkscape:connector-curvature="0"
         id="path3451"
         d="m 145.25425,926.57229 c -0.73906,-0.098 -1.52393,-0.20205 -1.74414,-0.23114 l -0.40039,-0.0529 0,-0.0884 c 0,-0.0792 10e-4,-0.0884 0.0138,-0.0884 0.0139,0 3.45282,0.45698 3.49991,0.46508 l 0.0254,0.004 0,0.0856 0,0.0856 -0.0254,-7.7e-4 c -0.014,-4.2e-4 -0.63008,-0.081 -1.36914,-0.17901 z"
         style="color:#000000;fill:#1a1a1a;fill-opacity:1;fill-rule:nonzero;stroke:none;stroke-width:1px;marker:none;visibility:visible;display:inline;overflow:visible;enable-background:accumulate" />
      <path
         inkscape:connector-curvature="0"
         id="path3453"
         d="m 141.76175,926.11116 -1.30661,-0.17308 -3e-5,-0.0925 -2e-5,-0.0925 0.0293,0.005 c 0.0161,0.003 0.61289,0.0823 1.32617,0.17722 0.71328,0.0949 1.29727,0.17313 1.29775,0.17379 4.9e-4,6.6e-4 -8.5e-4,0.0408 -0.003,0.0891 -0.004,0.0835 -0.005,0.0879 -0.0204,0.0871 -0.009,-4.1e-4 -0.60456,-0.0786 -1.3232,-0.17383 z"
         style="color:#000000;fill:#1a1a1a;fill-opacity:1;fill-rule:nonzero;stroke:none;stroke-width:1px;marker:none;visibility:visible;display:inline;overflow:visible;enable-background:accumulate" />
    </g>
  </g>
</svg>
