<?xml version="1.0" encoding="UTF-8" standalone="no"?>
<!-- Created with Inkscape (http://www.inkscape.org/) -->

<svg
   xmlns:dc="http://purl.org/dc/elements/1.1/"
   xmlns:cc="http://creativecommons.org/ns#"
   xmlns:rdf="http://www.w3.org/1999/02/22-rdf-syntax-ns#"
   xmlns:svg="http://www.w3.org/2000/svg"
   xmlns="http://www.w3.org/2000/svg"
   xmlns:sodipodi="http://sodipodi.sourceforge.net/DTD/sodipodi-0.dtd"
   xmlns:inkscape="http://www.inkscape.org/namespaces/inkscape"
   width="175"
   height="175"
   id="svg2"
   inkscape:label="Pozadí"
   version="1.1"
   inkscape:version="0.48.5 r10040"
   sodipodi:docname="spartan.svg">
  <defs
     id="defs3">
    <inkscape:path-effect
       effect="spiro"
       id="path-effect4029"
       is_visible="true" />
    <inkscape:path-effect
       effect="spiro"
       id="path-effect3257"
       is_visible="true" />
    <inkscape:path-effect
       effect="spiro"
       id="path-effect3268"
       is_visible="true" />
    <inkscape:path-effect
       effect="spiro"
       id="path-effect4045"
       is_visible="true" />
    <inkscape:path-effect
       effect="spiro"
       id="path-effect4322"
       is_visible="true" />
    <inkscape:path-effect
       effect="spiro"
       id="path-effect4311"
       is_visible="true" />
    <inkscape:path-effect
       effect="spiro"
       id="path-effect4307"
       is_visible="true" />
    <inkscape:path-effect
       effect="spiro"
       id="path-effect4303"
       is_visible="true" />
    <inkscape:path-effect
       effect="spiro"
       id="path-effect4299"
       is_visible="true" />
    <inkscape:path-effect
       effect="spiro"
       id="path-effect4295"
       is_visible="true" />
    <inkscape:path-effect
       effect="spiro"
       id="path-effect4291"
       is_visible="true" />
    <inkscape:path-effect
       effect="spiro"
       id="path-effect3515"
       is_visible="true" />
    <inkscape:path-effect
       effect="spiro"
       id="path-effect3511"
       is_visible="true" />
    <inkscape:path-effect
       effect="spiro"
       id="path-effect3507"
       is_visible="true" />
    <inkscape:path-effect
       effect="spiro"
       id="path-effect3503"
       is_visible="true" />
    <inkscape:path-effect
       effect="spiro"
       id="path-effect3499"
       is_visible="true" />
    <inkscape:path-effect
       effect="spiro"
       id="path-effect3495"
       is_visible="true" />
    <inkscape:path-effect
       effect="spiro"
       id="path-effect3491"
       is_visible="true" />
    <inkscape:path-effect
       effect="spiro"
       id="path-effect3487"
       is_visible="true" />
    <inkscape:path-effect
       effect="spiro"
       id="path-effect3483"
       is_visible="true" />
    <inkscape:path-effect
       effect="spiro"
       id="path-effect3479"
       is_visible="true" />
    <inkscape:path-effect
       effect="spiro"
       id="path-effect3475"
       is_visible="true" />
    <inkscape:path-effect
       effect="spiro"
       id="path-effect3471"
       is_visible="true" />
    <inkscape:path-effect
       effect="spiro"
       id="path-effect3467"
       is_visible="true" />
    <inkscape:path-effect
       effect="spiro"
       id="path-effect3463"
       is_visible="true" />
    <inkscape:path-effect
       effect="spiro"
       id="path-effect3459"
       is_visible="true" />
    <inkscape:path-effect
       effect="spiro"
       id="path-effect3455"
       is_visible="true" />
    <inkscape:path-effect
       effect="spiro"
       id="path-effect3451"
       is_visible="true" />
    <inkscape:path-effect
       effect="spiro"
       id="path-effect3447"
       is_visible="true" />
    <inkscape:path-effect
       effect="spiro"
       id="path-effect3443"
       is_visible="true" />
    <inkscape:path-effect
       effect="spiro"
       id="path-effect3439"
       is_visible="true" />
    <inkscape:path-effect
       effect="spiro"
       id="path-effect3435"
       is_visible="true" />
    <inkscape:path-effect
       effect="spiro"
       id="path-effect3431"
       is_visible="true" />
    <inkscape:path-effect
       effect="spiro"
       id="path-effect3427"
       is_visible="true" />
    <inkscape:path-effect
       effect="spiro"
       id="path-effect3423"
       is_visible="true" />
    <inkscape:path-effect
       effect="spiro"
       id="path-effect3419"
       is_visible="true" />
    <inkscape:path-effect
       effect="spiro"
       id="path-effect3415"
       is_visible="true" />
    <inkscape:path-effect
       effect="spiro"
       id="path-effect3411"
       is_visible="true" />
    <inkscape:path-effect
       effect="spiro"
       id="path-effect3407"
       is_visible="true" />
    <inkscape:path-effect
       effect="spiro"
       id="path-effect3403"
       is_visible="true" />
    <inkscape:path-effect
       effect="spiro"
       id="path-effect3399"
       is_visible="true" />
    <inkscape:path-effect
       effect="spiro"
       id="path-effect3395"
       is_visible="true" />
    <inkscape:path-effect
       effect="spiro"
       id="path-effect3391"
       is_visible="true" />
    <inkscape:path-effect
       effect="spiro"
       id="path-effect3387"
       is_visible="true" />
    <inkscape:path-effect
       effect="spiro"
       id="path-effect3383"
       is_visible="true" />
    <inkscape:path-effect
       effect="spiro"
       id="path-effect3379"
       is_visible="true" />
    <inkscape:path-effect
       effect="spiro"
       id="path-effect3375"
       is_visible="true" />
    <inkscape:path-effect
       effect="spiro"
       id="path-effect3371"
       is_visible="true" />
    <inkscape:path-effect
       effect="spiro"
       id="path-effect3367"
       is_visible="true" />
    <inkscape:path-effect
       effect="spiro"
       id="path-effect3363"
       is_visible="true" />
    <inkscape:path-effect
       effect="spiro"
       id="path-effect3359"
       is_visible="true" />
    <inkscape:path-effect
       effect="spiro"
       id="path-effect3355"
       is_visible="true" />
    <inkscape:path-effect
       effect="spiro"
       id="path-effect3351"
       is_visible="true" />
    <inkscape:path-effect
       effect="spiro"
       id="path-effect3347"
       is_visible="true" />
    <inkscape:path-effect
       effect="spiro"
       id="path-effect3343"
       is_visible="true" />
    <inkscape:path-effect
       effect="spiro"
       id="path-effect3339"
       is_visible="true" />
    <inkscape:path-effect
       effect="spiro"
       id="path-effect3335"
       is_visible="true" />
    <inkscape:path-effect
       effect="spiro"
       id="path-effect3331"
       is_visible="true" />
    <inkscape:path-effect
       effect="spiro"
       id="path-effect3327"
       is_visible="true" />
    <inkscape:path-effect
       effect="spiro"
       id="path-effect3323"
       is_visible="true" />
    <inkscape:path-effect
       effect="spiro"
       id="path-effect3319"
       is_visible="true" />
    <inkscape:path-effect
       effect="spiro"
       id="path-effect3315"
       is_visible="true" />
    <inkscape:path-effect
       effect="spiro"
       id="path-effect3311"
       is_visible="true" />
    <inkscape:path-effect
       effect="spiro"
       id="path-effect3307"
       is_visible="true" />
    <inkscape:path-effect
       effect="spiro"
       id="path-effect3303"
       is_visible="true" />
    <inkscape:path-effect
       effect="spiro"
       id="path-effect3299"
       is_visible="true" />
    <inkscape:path-effect
       effect="spiro"
       id="path-effect3295"
       is_visible="true" />
    <inkscape:path-effect
       effect="spiro"
       id="path-effect3291"
       is_visible="true" />
    <inkscape:path-effect
       effect="spiro"
       id="path-effect3287"
       is_visible="true" />
    <inkscape:path-effect
       effect="spiro"
       id="path-effect3283"
       is_visible="true" />
    <inkscape:path-effect
       effect="spiro"
       id="path-effect3279"
       is_visible="true" />
    <inkscape:path-effect
       effect="spiro"
       id="path-effect3275"
       is_visible="true" />
    <inkscape:path-effect
       effect="spiro"
       id="path-effect3271"
       is_visible="true" />
    <inkscape:path-effect
       effect="spiro"
       id="path-effect3267"
       is_visible="true" />
    <inkscape:path-effect
       effect="spiro"
       id="path-effect3263"
       is_visible="true" />
    <inkscape:path-effect
       effect="spiro"
       id="path-effect3258"
       is_visible="true" />
    <inkscape:path-effect
       effect="spiro"
       id="path-effect3254"
       is_visible="true" />
    <inkscape:path-effect
       effect="spiro"
       id="path-effect3250"
       is_visible="true" />
    <inkscape:path-effect
       effect="spiro"
       id="path-effect3246"
       is_visible="true" />
    <inkscape:path-effect
       effect="spiro"
       id="path-effect3242"
       is_visible="true" />
    <inkscape:path-effect
       effect="spiro"
       id="path-effect3238"
       is_visible="true" />
    <inkscape:path-effect
       effect="spiro"
       id="path-effect3234"
       is_visible="true" />
    <inkscape:path-effect
       effect="spiro"
       id="path-effect3230"
       is_visible="true" />
    <inkscape:path-effect
       effect="spiro"
       id="path-effect3226"
       is_visible="true" />
    <inkscape:path-effect
       effect="spiro"
       id="path-effect3222"
       is_visible="true" />
    <inkscape:path-effect
       effect="spiro"
       id="path-effect3218"
       is_visible="true" />
    <inkscape:path-effect
       effect="spiro"
       id="path-effect3214"
       is_visible="true" />
    <inkscape:path-effect
       effect="spiro"
       id="path-effect3210"
       is_visible="true" />
    <inkscape:path-effect
       effect="spiro"
       id="path-effect3206"
       is_visible="true" />
    <inkscape:path-effect
       effect="spiro"
       id="path-effect3202"
       is_visible="true" />
    <inkscape:path-effect
       effect="spiro"
       id="path-effect3198"
       is_visible="true" />
    <inkscape:path-effect
       effect="spiro"
       id="path-effect3194"
       is_visible="true" />
    <inkscape:path-effect
       effect="spiro"
       id="path-effect3190"
       is_visible="true" />
    <inkscape:path-effect
       effect="spiro"
       id="path-effect3186"
       is_visible="true" />
    <inkscape:path-effect
       effect="spiro"
       id="path-effect3185"
       is_visible="true" />
    <inkscape:path-effect
       effect="spiro"
       id="path-effect3178"
       is_visible="true" />
    <inkscape:path-effect
       effect="spiro"
       id="path-effect4009"
       is_visible="true" />
    <inkscape:path-effect
       effect="spiro"
       id="path-effect3237"
       is_visible="true" />
    <inkscape:path-effect
       effect="spiro"
       id="path-effect3233"
       is_visible="true" />
    <inkscape:path-effect
       effect="spiro"
       id="path-effect3227"
       is_visible="true" />
    <inkscape:path-effect
       effect="spiro"
       id="path-effect3223"
       is_visible="true" />
    <inkscape:path-effect
       effect="spiro"
       id="path-effect3219"
       is_visible="true" />
    <inkscape:path-effect
       effect="spiro"
       id="path-effect3215"
       is_visible="true" />
    <inkscape:path-effect
       effect="spiro"
       id="path-effect3211"
       is_visible="true" />
    <inkscape:path-effect
       effect="spiro"
       id="path-effect3207"
       is_visible="true" />
    <inkscape:path-effect
       effect="spiro"
       id="path-effect3203"
       is_visible="true" />
    <inkscape:path-effect
       effect="spiro"
       id="path-effect3197"
       is_visible="true" />
    <inkscape:path-effect
       effect="spiro"
       id="path-effect3193"
       is_visible="true" />
    <inkscape:path-effect
       effect="spiro"
       id="path-effect3187"
       is_visible="true" />
    <inkscape:path-effect
       effect="spiro"
       id="path-effect3183"
       is_visible="true" />
    <inkscape:path-effect
       effect="spiro"
       id="path-effect3177"
       is_visible="true" />
    <inkscape:path-effect
       effect="spiro"
       id="path-effect3173"
       is_visible="true" />
    <inkscape:path-effect
       effect="spiro"
       id="path-effect3169"
       is_visible="true" />
    <inkscape:path-effect
       effect="spiro"
       id="path-effect3165"
       is_visible="true" />
    <inkscape:path-effect
       effect="spiro"
       id="path-effect3161"
       is_visible="true" />
    <inkscape:path-effect
       effect="spiro"
       id="path-effect3157"
       is_visible="true" />
    <inkscape:path-effect
       effect="spiro"
       id="path-effect3153"
       is_visible="true" />
    <inkscape:path-effect
       effect="spiro"
       id="path-effect3146"
       is_visible="true" />
    <inkscape:path-effect
       effect="spiro"
       id="path-effect3142"
       is_visible="true" />
    <inkscape:path-effect
       effect="spiro"
       id="path-effect3138"
       is_visible="true" />
    <inkscape:path-effect
       effect="spiro"
       id="path-effect3134"
       is_visible="true" />
    <inkscape:path-effect
       effect="spiro"
       id="path-effect3130"
       is_visible="true" />
    <inkscape:path-effect
       effect="spiro"
       id="path-effect3126"
       is_visible="true" />
    <inkscape:path-effect
       effect="spiro"
       id="path-effect3125"
       is_visible="true" />
    <inkscape:path-effect
       effect="spiro"
       id="path-effect3334"
       is_visible="true" />
    <inkscape:path-effect
       effect="spiro"
       id="path-effect3330"
       is_visible="true" />
    <inkscape:path-effect
       effect="spiro"
       id="path-effect3326"
       is_visible="true" />
    <inkscape:path-effect
       effect="spiro"
       id="path-effect3322"
       is_visible="true" />
    <inkscape:path-effect
       effect="spiro"
       id="path-effect3318"
       is_visible="true" />
    <inkscape:path-effect
       effect="spiro"
       id="path-effect3274"
       is_visible="true" />
    <inkscape:path-effect
       effect="spiro"
       id="path-effect3270"
       is_visible="true" />
    <inkscape:path-effect
       effect="spiro"
       id="path-effect3266"
       is_visible="true" />
    <inkscape:path-effect
       effect="spiro"
       id="path-effect3262"
       is_visible="true" />
    <inkscape:path-effect
       effect="spiro"
       id="path-effect3256"
       is_visible="true" />
    <inkscape:path-effect
       effect="spiro"
       id="path-effect3252"
       is_visible="true" />
    <inkscape:path-effect
       effect="spiro"
       id="path-effect3248"
       is_visible="true" />
    <inkscape:path-effect
       effect="spiro"
       id="path-effect3244"
       is_visible="true" />
    <inkscape:path-effect
       effect="spiro"
       id="path-effect3240"
       is_visible="true" />
    <inkscape:path-effect
       effect="spiro"
       id="path-effect3236"
       is_visible="true" />
    <inkscape:path-effect
       effect="spiro"
       id="path-effect3232"
       is_visible="true" />
    <inkscape:path-effect
       effect="spiro"
       id="path-effect3228"
       is_visible="true" />
    <inkscape:path-effect
       effect="spiro"
       id="path-effect3224"
       is_visible="true" />
    <inkscape:path-effect
       effect="spiro"
       id="path-effect3220"
       is_visible="true" />
    <inkscape:path-effect
       effect="spiro"
       id="path-effect3216"
       is_visible="true" />
    <inkscape:path-effect
       effect="spiro"
       id="path-effect3212"
       is_visible="true" />
    <inkscape:path-effect
       effect="spiro"
       id="path-effect3208"
       is_visible="true" />
    <inkscape:path-effect
       effect="spiro"
       id="path-effect3204"
       is_visible="true" />
    <inkscape:path-effect
       effect="spiro"
       id="path-effect3200"
       is_visible="true" />
    <inkscape:path-effect
       effect="spiro"
       id="path-effect3196"
       is_visible="true" />
    <inkscape:path-effect
       effect="spiro"
       id="path-effect3192"
       is_visible="true" />
    <inkscape:path-effect
       effect="spiro"
       id="path-effect3188"
       is_visible="true" />
    <inkscape:path-effect
       effect="spiro"
       id="path-effect3184"
       is_visible="true" />
    <inkscape:path-effect
       effect="spiro"
       id="path-effect3180"
       is_visible="true" />
    <inkscape:path-effect
       effect="spiro"
       id="path-effect3176"
       is_visible="true" />
    <inkscape:path-effect
       effect="spiro"
       id="path-effect3172"
       is_visible="true" />
    <inkscape:path-effect
       effect="spiro"
       id="path-effect3168"
       is_visible="true" />
    <inkscape:path-effect
       effect="spiro"
       id="path-effect3164"
       is_visible="true" />
    <inkscape:path-effect
       effect="spiro"
       id="path-effect3156"
       is_visible="true" />
    <inkscape:path-effect
       effect="spiro"
       id="path-effect3152"
       is_visible="true" />
    <inkscape:path-effect
       effect="spiro"
       id="path-effect3148"
       is_visible="true" />
    <inkscape:path-effect
       effect="spiro"
       id="path-effect3144"
       is_visible="true" />
    <inkscape:path-effect
       effect="spiro"
       id="path-effect3140"
       is_visible="true" />
    <inkscape:path-effect
       effect="spiro"
       id="path-effect3136"
       is_visible="true" />
    <inkscape:path-effect
       effect="spiro"
       id="path-effect3132"
       is_visible="true" />
    <inkscape:path-effect
       effect="spiro"
       id="path-effect3128"
       is_visible="true" />
    <inkscape:path-effect
       effect="spiro"
       id="path-effect3124"
       is_visible="true" />
    <inkscape:path-effect
       effect="spiro"
       id="path-effect3120"
       is_visible="true" />
    <inkscape:path-effect
       effect="spiro"
       id="path-effect3116"
       is_visible="true" />
    <inkscape:path-effect
       effect="spiro"
       id="path-effect3112"
       is_visible="true" />
    <inkscape:path-effect
       effect="spiro"
       id="path-effect3108"
       is_visible="true" />
    <inkscape:path-effect
       effect="spiro"
       id="path-effect3104"
       is_visible="true" />
    <inkscape:path-effect
       effect="spiro"
       id="path-effect3100"
       is_visible="true" />
    <inkscape:path-effect
       effect="spiro"
       id="path-effect3096"
       is_visible="true" />
    <inkscape:path-effect
       effect="spiro"
       id="path-effect3092"
       is_visible="true" />
    <inkscape:path-effect
       effect="spiro"
       id="path-effect3088"
       is_visible="true" />
    <inkscape:path-effect
       effect="spiro"
       id="path-effect3084"
       is_visible="true" />
    <inkscape:path-effect
       effect="spiro"
       id="path-effect3080"
       is_visible="true" />
    <inkscape:path-effect
       effect="spiro"
       id="path-effect3076"
       is_visible="true" />
    <inkscape:path-effect
       effect="spiro"
       id="path-effect3072"
       is_visible="true" />
    <inkscape:path-effect
       effect="spiro"
       id="path-effect3068"
       is_visible="true" />
    <inkscape:path-effect
       effect="spiro"
       id="path-effect3064"
       is_visible="true" />
    <inkscape:path-effect
       effect="spiro"
       id="path-effect3060"
       is_visible="true" />
    <inkscape:path-effect
       effect="spiro"
       id="path-effect3056"
       is_visible="true" />
    <inkscape:path-effect
       effect="spiro"
       id="path-effect3052"
       is_visible="true" />
    <inkscape:path-effect
       effect="spiro"
       id="path-effect3048"
       is_visible="true" />
    <inkscape:path-effect
       effect="spiro"
       id="path-effect3044"
       is_visible="true" />
    <inkscape:path-effect
       effect="spiro"
       id="path-effect3040"
       is_visible="true" />
    <inkscape:path-effect
       effect="spiro"
       id="path-effect3036"
       is_visible="true" />
    <inkscape:path-effect
       effect="spiro"
       id="path-effect3032"
       is_visible="true" />
    <inkscape:path-effect
       effect="spiro"
       id="path-effect3012"
       is_visible="true" />
  </defs>
  <sodipodi:namedview
     id="base"
     pagecolor="#ffffff"
     bordercolor="#666666"
     borderopacity="1.0"
     inkscape:pageopacity="0.0"
     inkscape:pageshadow="2"
     inkscape:zoom="3.52"
     inkscape:cx="87.5"
     inkscape:cy="87.5"
     inkscape:document-units="px"
     inkscape:current-layer="layer4"
     showgrid="false"
     units="px"
     showguides="true"
     inkscape:guide-bbox="true"
     inkscape:window-width="1536"
     inkscape:window-height="803"
     inkscape:window-x="-8"
     inkscape:window-y="-8"
     inkscape:window-maximized="1"
     fit-margin-top="0"
     fit-margin-left="0"
     fit-margin-right="0"
     fit-margin-bottom="0" />
  <metadata
     id="metadata6">
    <rdf:RDF>
      <cc:Work
         rdf:about="">
        <dc:format>image/svg+xml</dc:format>
        <dc:type
           rdf:resource="http://purl.org/dc/dcmitype/StillImage" />
        <dc:title />
      </cc:Work>
    </rdf:RDF>
  </metadata>
  <g
     inkscape:groupmode="layer"
     id="layer4"
     inkscape:label="final_pexeso"
     style="display:inline"
     transform="translate(-34.96875,-711.46875)">
    <path
       style="fill:#483737;fill-opacity:1;stroke:#000000;stroke-width:0.19734375px;stroke-linecap:butt;stroke-linejoin:miter;stroke-opacity:1"
       d="m 102.25391,886.2457 c 0.62077,-0.007 1.24312,0.0413 1.86331,0.0132 -0.31787,-1.19529 -0.54424,-2.52938 -0.74004,-3.62532 -0.0512,-0.29103 -0.0867,-0.58459 -0.13215,-0.87659 -0.0716,-0.45992 -0.16798,-0.9156 -0.24668,-1.37436 -0.56868,-4.23502 -1.0316,-7.70247 -1.19816,-11.62918 -0.0286,-0.67818 -0.0506,-1.35662 -0.0705,-2.03511 -0.0197,-0.67531 -0.0372,-1.35073 -0.044,-2.0263 -0.11195,-3.68857 0.10227,-7.17317 0.49337,-10.63365 0.0767,-0.6761 0.15934,-1.3515 0.24668,-2.0263 0.054,-0.41724 0.10981,-0.83426 0.16739,-1.25102 l 0.40526,-1.73557 0.27311,-0.7048 -0.46693,-0.41407 -0.14977,0.0176 c -0.73794,0.76108 -0.55388,2.04007 -0.84576,2.89848 -0.49053,3.01855 -0.0244,-0.77884 -0.80171,4.17594 -0.2797,2.03083 -0.30223,4.10526 -0.4405,6.05246 -0.1755,2.69109 -0.47835,5.38136 -0.5286,7.99066 -0.0168,0.9573 0.0104,1.91474 0.0264,2.87206 -0.006,2.42571 0.10197,4.90456 0.35241,7.16252 0.0678,0.6082 0.13825,1.21609 0.21143,1.82367 l 0.0529,0.24668 c 0.0665,-0.41723 0.17581,-0.6136 0.56384,-0.77528 l 0.19382,0.0264 c 1.29012,0.33903 0.72356,2.46074 -0.009,2.57251 -1.02346,-0.56186 -0.49808,0.33317 -0.36121,1.2334 l 0.0617,0.14977 c 0.1402,-0.85314 1.00865,-1.19092 1.48889,-0.55503 0.1439,0.72053 0.30973,1.5262 -0.10572,2.1144 l -0.42288,0.1762 0.009,0.12334 0.15417,0.0132"
       id="path3457"
       inkscape:connector-curvature="0"
       sodipodi:nodetypes="cccsccsccsccccccccccccccccccccccc" />
    <path
       sodipodi:type="arc"
       style="fill:#aa0000;fill-opacity:1;stroke:#000000;stroke-width:0.54671031;stroke-linecap:butt;stroke-linejoin:miter;stroke-miterlimit:4;stroke-opacity:1;stroke-dasharray:none"
       id="path4037"
       sodipodi:cx="1149.0485"
       sodipodi:cy="570.65912"
       sodipodi:rx="106.57109"
       sodipodi:ry="125.25891"
       d="m 1255.6196,570.65912 a 106.57109,125.25891 0 1 1 -0.1896,-7.46769"
       sodipodi:start="0"
       sodipodi:end="6.2235319"
       sodipodi:open="true"
       transform="matrix(-0.30915549,0.11118704,-0.10993044,-0.38230997,583.884,927.37076)" />
    <path
       style="fill:#cccccc;fill-opacity:1;stroke:#000000;stroke-width:0.19734375px;stroke-linecap:butt;stroke-linejoin:miter;stroke-opacity:1"
       d="m 110.04634,787.82491 c 0.14921,-0.24483 0.29027,-0.49463 0.42288,-0.74884 -0.0889,0.56312 -0.16108,0.95745 0.1304,1.42667 0.39284,0.16076 0.68347,-1.418 1.02379,-2.05879 l 4.32562,0.033 -0.38763,1.32149 c -0.14645,0.54336 0.47826,0.37782 0.92505,0.45812 0.90898,-0.10255 1.56671,-0.73251 2.2994,-1.23339 l 0.57265,-0.33478 c -0.0752,2.82599 3.22123,3.61824 5.27718,4.31689 l -0.8017,0.91624 0.0617,0.65194 c -0.5643,0.42669 -0.99682,0.98119 -1.28945,1.43319 0.69525,0.12927 1.33102,0.43121 1.98101,0.69771 0.54289,1.46106 0.0677,3.09365 -0.0249,4.42302 -0.16866,1.65784 -0.48303,1.32424 -0.80985,5.19549 -2.17534,3.81851 -3.1988,4.19453 -5.42979,4.16242 -3.45874,-0.0498 -2.58832,0.0644 -6.6631,-0.21092 -0.90236,0.3186 -3.92595,0.11714 -5.28698,-1.0499 -1.30526,-0.51625 -2.51046,-1.2384 -3.51519,-2.04392 0.19644,-0.76807 0.3942,-1.57065 0.56384,-2.28178 2.1238,-5.64496 3.84319,-10.99721 6.62511,-15.0739"
       id="path3277"
       inkscape:connector-curvature="0"
       sodipodi:nodetypes="ccccccccccccccccsccccc" />
    <path
       style="fill:#501616;fill-opacity:1;stroke:#000000;stroke-width:0.19734375px;stroke-linecap:butt;stroke-linejoin:miter;stroke-opacity:1"
       d="m 35.08028,886.27956 4.659743,0.0748 1.730729,-19.47752 1.798401,-20.76266 0.906347,-12.03865 -5.033519,-0.0997 c -0.422476,6.2266 -0.914738,12.44847 -1.476662,18.66403 -0.819198,9.06132 -1.624568,18.12451 -2.186722,27.2054 l -0.398317,6.43431"
       id="path3184"
       inkscape:connector-curvature="0" />
    <path
       style="fill:#501616;fill-opacity:1;stroke:#000000;stroke-width:0.19734375px;stroke-linecap:butt;stroke-linejoin:miter;stroke-opacity:1"
       d="m 39.15444,833.92598 0.560664,0.14951 c 0.725131,0.19337 1.460855,0.37185 2.210999,0.39395 0.750145,0.0221 1.506037,-0.10719 2.19956,-0.39395 l 3.30169,-32.59328 -0.660338,0 0.249184,0.5482 0,0.24919 -1.694452,0.97182 -2.454464,0.19934 -0.996736,-0.0249 -2.716107,30.50013"
       id="path3188"
       inkscape:connector-curvature="0" />
    <path
       style="fill:#ffccaa;fill-opacity:1;stroke:#000000;stroke-width:0.19734375px;stroke-linecap:butt;stroke-linejoin:miter;stroke-opacity:1"
       d="m 46.978821,806.0049 c 5.400842,-1.44808 6.796279,-11.04862 3.937109,-12.65855 -0.874146,-0.90334 -1.207943,-1.36695 -2.267576,-1.30822 -0.806696,0.26988 -1.900719,0.55616 -2.573111,1.02119 -0.672391,0.46502 -0.923151,1.10878 -0.04332,2.09361 1.104294,0.57221 1.84048,0.43008 2.977751,0.11214 l -1.419984,0.31877 -0.06959,1.86372 c 1.022216,-0.0668 1.883924,0.92074 -0.07011,2.02053 0.943536,0.35803 1.277777,0.89735 0.620822,1.60297 -0.370243,0.2316 -0.277497,0.17473 -0.678691,0.30543 l -0.413292,4.62841"
       id="path3192"
       inkscape:connector-curvature="0"
       sodipodi:nodetypes="cccscccccccc" />
    <path
       style="fill:#ffccaa;fill-opacity:1;stroke:#000000;stroke-width:0.19734375px;stroke-linecap:butt;stroke-linejoin:miter;stroke-opacity:1"
       d="m 41.745955,805.00816 0.14951,-1.5574 -2.828239,0.13706 0.697715,0.57312 1.981014,0.84722"
       id="path3196"
       inkscape:path-effect="#path-effect3198"
       inkscape:original-d="m 41.745955,805.00816 0.14951,-1.5574 -2.828239,0.13706 0.697715,0.57312 z"
       inkscape:connector-curvature="0"
       sodipodi:nodetypes="ccccc" />
    <path
       style="fill:#ffccaa;fill-opacity:1;stroke:#000000;stroke-width:0.19734375px;stroke-linecap:butt;stroke-linejoin:miter;stroke-opacity:1"
       d="m 38.905256,803.5629 c 1.580432,-0.11245 2.990422,-0.0157 4.535151,-0.1246 1.880944,0.39372 5.617512,-1.66266 2.502377,-1.99774 l -8.320826,-0.34458 c -0.109391,0.59099 0.01924,1.04497 0.199347,1.59478 0.232187,0.40837 0.701565,0.72469 1.083951,0.87214"
       id="path3200"
       inkscape:connector-curvature="0"
       sodipodi:nodetypes="cccccc" />
    <path
       style="fill:#ffccaa;fill-opacity:1;stroke:#000000;stroke-width:0.19734375px;stroke-linecap:butt;stroke-linejoin:miter;stroke-opacity:1"
       d="m 37.659335,801.07106 0.996737,0.13705 3.4512,0.0249 4.912165,0.1641 c 2.062913,-0.29023 1.690279,-1.70036 0.421627,-1.94363 l -5.011753,-0.45474 -4.729834,-1.23002 c -0.303421,1.13764 -0.301681,1.86503 -0.04014,3.30232"
       id="path3204"
       inkscape:connector-curvature="0"
       sodipodi:nodetypes="cccccccc" />
    <path
       style="fill:#ffccaa;fill-opacity:1;stroke:#000000;stroke-width:0.19734375px;stroke-linecap:butt;stroke-linejoin:miter;stroke-opacity:1"
       d="m 37.659335,797.65723 c 2.797134,1.02531 7.829614,2.51241 10.514534,1.59389 1.726025,-0.60595 0.533068,-1.99861 -1.120293,-1.8057 -0.657854,-0.0929 -1.575803,-0.25903 -2.230197,-0.37378 -1.99506,-0.47227 -5.124454,-1.39809 -5.634584,-2.49273 -1.133957,1.37736 -0.990793,1.83782 -1.46414,3.15396"
       id="path3208"
       inkscape:connector-curvature="0"
       sodipodi:nodetypes="cccccc" />
    <path
       style="fill:#ffccaa;fill-opacity:1;stroke:#000000;stroke-width:0.19734375px;stroke-linecap:butt;stroke-linejoin:miter;stroke-opacity:1"
       d="m 39.590512,795.26506 c 0.898234,0.61222 1.948095,0.95736 3.002669,1.22101 l 1.245921,0.31148 c 0.81126,0.20281 1.645824,0.35334 2.479381,0.28656 l 0.398695,-0.12459 0.211806,-0.68526 -0.236724,-0.56066 -0.47345,-0.34886 -3.189557,-2.61643 -1.24592,-0.16197 c -0.475643,0.0639 -0.936604,0.23479 -1.338967,0.49638 -0.54378,0.35352 -0.977571,0.87372 -1.22763,1.47217 l 0.373776,0.71017"
       id="path3212"
       inkscape:connector-curvature="0" />
    <path
       style="fill:#501616;fill-opacity:1;stroke:#000000;stroke-width:0.19734375px;stroke-linecap:butt;stroke-linejoin:miter;stroke-opacity:1"
       d="m 45.882411,797.19624 0.971818,0.24919 0.645223,0.009 0.145235,-1.86283 -0.715703,-0.14008 -0.822307,-0.24918 c 0.215964,0.0467 0.415147,0.16765 0.556157,0.33776 0.14101,0.17011 0.222943,0.38826 0.228773,0.60914 0.0049,0.18536 -0.04331,0.37183 -0.137421,0.5316 -0.09411,0.15977 -0.233831,0.29233 -0.398325,0.37792 l -0.598042,0.0872 0.124592,0.0503"
       id="path3216"
       inkscape:path-effect="#path-effect3218"
       inkscape:original-d="m 45.882411,797.19624 0.971818,0.24919 0.645223,0.009 0.145235,-1.86283 -0.715703,-0.14008 -0.822307,-0.24918 c 0.42204,0.23857 0.57808,0.5332 0.78493,0.9469 0.2217,0.45722 -0.156973,0.76469 -0.535746,0.90952 l -0.598042,0.0872 z"
       inkscape:connector-curvature="0"
       sodipodi:nodetypes="cccccccccc" />
    <path
       style="fill:#501616;fill-opacity:1;stroke:#000000;stroke-width:0.19734375px;stroke-linecap:butt;stroke-linejoin:miter;stroke-opacity:1"
       d="m 42.966957,793.25913 2.404627,1.65708 0.660338,0.3364 -0.311481,-0.89707 0.199348,-0.66033 2.018392,-1.4079 c 0.05948,-0.85988 0.121777,-1.71957 0.186886,-2.57905 0.252535,-3.33356 0.547394,-6.66379 0.859687,-9.99228 0.399272,-4.25555 0.82705,-8.50842 1.283299,-12.75823 l 2.080688,-23.64757 0.386233,-4.1863 -4.535151,-0.33639 -0.872144,10.30376 -1.806585,18.80094 c -0.258659,2.69184 -0.363704,5.39676 -0.647879,8.08602 l -1.532482,14.50252 c -0.09822,0.92953 -0.209749,1.8582 -0.373776,2.7784"
       id="path3220"
       inkscape:connector-curvature="0" />
    <path
       style="fill:#501616;fill-opacity:1;stroke:#000000;stroke-width:0.19734375px;stroke-linecap:butt;stroke-linejoin:miter;stroke-opacity:1"
       d="m 48.087691,738.77503 4.749981,0.34671 0.443003,-6.1214 0.266286,-4.49258 -1.123466,-3.6995 c -0.09953,0.0336 -0.199207,0.0669 -0.299022,0.0997 -0.128516,0.0422 -0.257265,0.0838 -0.386235,0.12459 l -2.317412,3.27677 -0.236725,-0.0997 -0.211807,-1.18362 0.02064,-1.86632 -0.905245,13.61535"
       id="path3224"
       inkscape:connector-curvature="0" />
    <path
       style="fill:#483737;fill-opacity:1;stroke:#000000;stroke-width:0.19734375px;stroke-linecap:butt;stroke-linejoin:miter;stroke-opacity:1"
       d="m 48.984754,725.23187 c 0.0168,0.50646 0.02096,1.01335 0.01245,1.52002 -0.0028,0.16615 -0.0069,0.33228 -0.01245,0.49837 l 0.186887,0.92198 c 0.0209,0.0835 0.07604,0.15776 0.149671,0.2023 0.07364,0.0445 0.164346,0.0588 0.248784,0.0421 0.08444,-0.0166 0.161314,-0.0629 0.222509,-0.12345 0.06119,-0.0605 0.107055,-0.13447 0.151508,-0.20816 l 1.856421,-3.07743 0.548205,-0.13705 0.199347,-0.14951 c -0.02633,-2.65804 -0.05955,-5.31602 -0.09967,-7.97389 -0.02614,-1.73188 -0.05521,-3.46371 -0.08721,-5.19549 l -1.009196,0.0249 -0.03738,0.0125 -2.32987,13.64283 -6e-6,-3e-5"
       id="path3228"
       inkscape:path-effect="#path-effect3230"
       inkscape:original-d="m 48.984754,725.23187 0.01245,1.52002 -0.01245,0.49837 0.186887,0.92198 c 0.317001,0.20217 0.635273,0.12977 0.772472,-0.0872 l 1.856421,-3.07743 0.548205,-0.13705 0.199347,-0.14951 -0.09967,-7.97389 -0.08721,-5.19549 -1.009196,0.0249 -0.03738,0.0125 c -0.687364,4.60728 -1.551396,9.43354 -2.32987,13.64283 z"
       inkscape:connector-curvature="0"
       sodipodi:nodetypes="ccccccccccccc" />
    <path
       style="fill:#483737;fill-opacity:1;stroke:#000000;stroke-width:0.19734375px;stroke-linecap:butt;stroke-linejoin:miter;stroke-opacity:1"
       d="m 52.448413,724.84563 0.373775,1.93118 0.672798,1.73183 0.07476,-0.34886 c -0.0021,-0.58559 -0.0063,-1.17118 -0.01245,-1.75674 -0.0062,-0.58976 -0.01454,-1.1795 -0.02492,-1.76921 -0.07657,-4.35142 -0.258476,-8.70076 -0.523286,-13.04479 l -0.622961,-0.0249 0.161969,13.11954 -0.09969,0.16195"
       id="path3232"
       inkscape:path-effect="#path-effect3234"
       inkscape:original-d="m 52.448413,724.84563 0.373775,1.93118 0.672798,1.73183 0.07476,-0.34886 -0.01245,-1.75674 -0.02492,-1.76921 c -0.310785,-4.80035 -0.523286,-8.45887 -0.523286,-13.04479 l -0.622961,-0.0249 c 0.04543,4.44336 0.08767,9.06332 0.161969,13.11954 z"
       inkscape:connector-curvature="0"
       sodipodi:nodetypes="cccccccccc" />
    <path
       style="fill:#c87137;fill-opacity:1;stroke:#000000;stroke-width:0.19734375px;stroke-linecap:butt;stroke-linejoin:miter;stroke-opacity:1"
       d="m 47.213502,805.9823 c 3.289252,-1.04456 4.916988,-5.22066 5.098264,-7.72709 1.023883,0.46239 2.420956,0.94615 3.403375,1.48962 1.278596,1.95703 -2.73391,7.27237 -4.158317,8.06995 l -1.563643,-0.35303 c -1.180523,-0.455 -1.798803,-0.6007 -2.682771,-1.23277 L 47.2135,805.9823"
       id="path3236"
       inkscape:connector-curvature="0"
       sodipodi:nodetypes="ccccccc" />
    <path
       style="fill:#ffccaa;fill-opacity:1;stroke:#000000;stroke-width:0.19734375px;stroke-linecap:butt;stroke-linejoin:miter;stroke-opacity:1"
       d="m 52.037257,807.54984 c 1.15725,-1.56824 4.883445,-5.44581 3.625639,-7.8493 1.264547,0.43113 2.540093,0.82999 3.824976,1.19609 4.915969,1.40067 9.968916,2.32015 15.06318,2.74102 l 0.573123,0.42361 2.304954,4.80498 c 0.383377,0.63617 0.748917,1.28308 1.096043,1.93973 0.50208,0.94977 0.965613,1.91983 1.483011,2.86134 0.358512,0.65239 0.742502,1.29037 1.121329,1.93118 0.546326,0.92414 1.082118,1.85451 1.607238,2.79086 l -0.460991,-0.0498 -0.64788,-0.2118 -2.417086,-0.21181 -3.164637,-0.5482 c -1.929201,-0.3342 -3.8433,-0.75846 -5.718776,-1.32068 -4.915466,-1.47353 -9.667489,-3.49157 -14.141197,-6.00534 l -4.148926,-2.49184"
       id="path3240"
       inkscape:connector-curvature="0"
       sodipodi:nodetypes="ccscccsssccccsscc" />
    <path
       style="fill:#aa0000;fill-opacity:1;stroke:#000000;stroke-width:0.19734375px;stroke-linecap:butt;stroke-linejoin:miter;stroke-opacity:1"
       d="m 82.664897,818.31629 -0.21144,0.0352 -0.863379,-0.21144 -2.343457,-0.22906 c 0.191114,0.25461 0.384948,0.50718 0.58146,0.75765 0.541302,0.68993 1.102768,1.36374 1.656278,2.04392 0.506028,0.62183 1.005455,1.24903 1.515318,1.86772 0.307525,0.37316 0.618832,0.74321 0.933858,1.11006 l 1.374359,1.2334 1.938196,0.86338 0.6167,0.22906 0.616699,-0.0529 c -0.45977,-0.39846 -0.923798,-0.792 -1.391978,-1.18054 -0.379063,-0.31458 -0.760848,-0.62588 -1.145298,-0.93386 -0.540397,-0.82276 -1.063281,-1.65703 -1.568179,-2.50204 -0.594925,-0.99568 -1.164876,-2.00629 -1.709137,-3.03055"
       id="path3244"
       inkscape:path-effect="#path-effect3246"
       inkscape:original-d="m 82.664897,818.31629 -0.21144,0.0352 -0.863379,-0.21144 -2.343457,-0.22906 0.58146,0.75765 1.656278,2.04392 1.515318,1.86772 0.933858,1.11006 1.374359,1.2334 1.938196,0.86338 0.6167,0.22906 0.616699,-0.0529 -1.391978,-1.18054 -1.145298,-0.93386 -1.568179,-2.50204 z"
       inkscape:connector-curvature="0"
       sodipodi:nodetypes="cccccccccccccccc" />
    <path
       style="fill:#aa0000;fill-opacity:1;stroke:#000000;stroke-width:0.19734375px;stroke-linecap:butt;stroke-linejoin:miter;stroke-opacity:1"
       d="m 77.441579,803.20158 -1.270838,0.11213 -1.644616,0.3364 0.598042,0.42361 c 1.705299,4.22962 4.05752,8.15797 6.354195,12.09789 0.415864,0.71341 0.822906,1.43197 1.221001,2.15545 0.52332,0.95105 1.031222,1.91069 1.569862,2.85315 1.011886,2.16699 1.647061,2.58512 4.248588,4.7968 1.269761,-0.4647 2.20417,-0.82673 2.878077,-1.93118 3.239451,-2.46141 7.187621,-3.5202 10.06704,-5.19549 0.37266,-1.738 0.23029,-2.91065 0.57312,-4.6099 0.15657,-0.61504 0.3037,-1.09028 0.84723,-1.25839 -1.10741,-0.46039 -1.43703,-0.78632 -1.58232,-1.79412 -11.182691,5.6786 -17.552204,-2.97295 -23.859381,-7.98635"
       id="path3248"
       inkscape:connector-curvature="0"
       sodipodi:nodetypes="ccccsscccccccc" />
    <path
       style="fill:none;stroke:#000000;stroke-width:0.19734375px;stroke-linecap:butt;stroke-linejoin:miter;stroke-opacity:0"
       d="m 119.36058,786.6869 0.69771,-0.35508 0.0685,0.99673 0.2741,0.82854 1.13379,0.84722 c 0.4987,0.22274 0.9911,0.45959 1.47641,0.71018 0.20058,0.10357 0.39995,0.20948 0.59805,0.31771 0.40134,0.12285 0.79829,0.26002 1.18985,0.41115 0.0896,0.0346 0.17887,0.0699 0.26787,0.10591 l -0.47345,0.47345 -2.23019,-0.64165 -1.52626,-0.80985 -0.98427,-0.79116 -0.44854,-0.99674 -0.0436,-1.09641"
       id="path3285"
       inkscape:path-effect="#path-effect3287"
       inkscape:original-d="m 119.36058,786.6869 0.69771,-0.35508 0.0685,0.99673 0.2741,0.82854 1.13379,0.84722 1.47641,0.71018 0.59805,0.31771 1.18985,0.41115 0.26787,0.10591 -0.47345,0.47345 -2.23019,-0.64165 -1.52626,-0.80985 -0.98427,-0.79116 -0.44854,-0.99674 z"
       inkscape:connector-curvature="0"
       sodipodi:nodetypes="ccccccccccccccc" />
    <path
       style="fill:#999999;fill-opacity:1;stroke:#000000;stroke-width:0.19734375px;stroke-linecap:butt;stroke-linejoin:miter;stroke-opacity:1"
       d="m 125.05416,790.51637 c 0.46248,-0.52184 1.14273,-0.75504 1.73116,-0.83255 l -0.0308,-0.22465 c 0.31236,-0.55302 0.10868,-1.21866 0.2643,-1.75319 0.0648,-0.214 0.1734,-0.41462 0.31716,-0.58587 -1.89684,-0.1242 -3.98065,-0.95751 -5.23691,-1.81787 -0.70807,0.33009 -1.40169,0.69131 -2.03133,1.05141 -0.18086,1.36233 0.20688,1.85449 1.42281,2.62538 0.78777,0.34133 1.45873,0.65984 2.18488,1.09244 l 1.37876,0.4449"
       id="path3289"
       inkscape:connector-curvature="0"
       sodipodi:nodetypes="cccccccccc" />
    <path
       style="fill:none;stroke:#000000;stroke-width:0.19734375px;stroke-linecap:butt;stroke-linejoin:miter;stroke-opacity:1"
       d="m 123.85159,791.89513 1.71795,-1.84129 0.2643,0.41407 -1.84129,2.10559 -0.12333,-0.0617 -0.0176,-0.61667"
       id="path3293"
       inkscape:path-effect="#path-effect3295"
       inkscape:original-d="m 123.85159,791.89513 1.71795,-1.84129 0.2643,0.41407 -1.84129,2.10559 -0.12333,-0.0617 z"
       inkscape:connector-curvature="0"
       sodipodi:nodetypes="cccccc" />
    <path
       style="fill:#d40000;fill-opacity:1;stroke:#000000;stroke-width:0.19734375px;stroke-linecap:butt;stroke-linejoin:miter;stroke-opacity:1"
       d="m 123.93311,792.57388 c -0.63062,0.35811 -0.98167,0.85127 -1.30822,1.45772 0.6518,0.11529 1.24367,0.40167 1.85019,0.65411 l 1.18985,-1.03411 c 0.83403,-0.86673 1.67194,-1.75167 2.43308,-2.56699 -0.4208,0.67726 -0.77508,1.27104 -1.12768,1.90296 -0.67652,0.94882 -1.28674,3.59381 -2.17607,3.93806 -0.26992,2.67832 -0.73822,4.8618 -0.96028,7.25062 1.31159,-2.64253 2.58537,-5.52544 4.07021,-7.90256 l 0.18501,-0.86338 c 0.20695,-0.6651 0.4184,-1.3288 0.63432,-1.99105 0.6765,-1.92107 1.30492,-4.10429 2.24655,-5.65602 0.12806,-0.20741 0.25434,-0.41593 0.37883,-0.6255 l -4.02617,-0.0441 c -0.51686,0.55207 -0.618,1.94321 -0.56386,2.5549 l -0.42288,0.0881 -0.73123,0.31716 0.22025,0.40526 c -0.60142,0.76082 -1.25136,1.48199 -1.8919,2.11478"
       id="path3297"
       inkscape:connector-curvature="0"
       sodipodi:nodetypes="ccccccccccccccccccc" />
    <path
       style="fill:#d40000;fill-opacity:1;stroke:#000000;stroke-width:0.19734375px;stroke-linecap:butt;stroke-linejoin:miter;stroke-opacity:1"
       d="m 124.83831,796.90801 0.29073,-0.14096 c 0.21382,-0.39812 0.42526,-0.79752 0.63432,-1.19816 0.19929,-0.38192 0.39645,-0.76506 0.58146,-1.1541 0.20621,-0.43364 0.39725,-0.8745 0.57265,-1.3215 0.12535,-0.22371 0.25163,-0.4469 0.37883,-0.66956 0.2376,-0.41592 0.47842,-0.83001 0.72242,-1.24221 -0.43482,0.45516 -0.86652,0.91329 -1.29507,1.37436 -0.19518,0.20999 -0.38973,0.42063 -0.59027,0.62551 -0.24123,0.24646 -0.49105,0.48453 -0.74885,0.71361 -0.20302,0.15059 -0.39999,0.30934 -0.59027,0.47574 -0.10485,0.0917 -0.20766,0.18569 -0.30835,0.28192 l 0.14977,0.13215 0.15858,0.59907 0.0969,0.73123 -0.009,0.39645 -0.0438,0.39645"
       id="path3301"
       inkscape:path-effect="#path-effect3303"
       inkscape:original-d="m 124.83831,796.90801 0.29073,-0.14096 0.63432,-1.19816 0.58146,-1.1541 0.57265,-1.3215 0.37883,-0.66956 0.72242,-1.24221 -1.29507,1.37436 -0.59027,0.62551 -0.74885,0.71361 -0.59027,0.47574 -0.30835,0.28192 0.14977,0.13215 0.15858,0.59907 0.0969,0.73123 -0.009,0.39645 z"
       inkscape:connector-curvature="0"
       sodipodi:nodetypes="ccccccccccccccccc" />
    <path
       style="fill:#d40000;fill-opacity:1;stroke:#000000;stroke-width:0.19734375px;stroke-linecap:butt;stroke-linejoin:miter;stroke-opacity:1"
       d="m 127.96586,796.04463 0.2643,-1.14529 c 0.1606,-0.4633 0.31919,-0.9273 0.47574,-1.39198 0.69272,-2.21581 1.55365,-4.57894 2.57252,-6.36082 1.66913,-0.073 3.22681,-0.14194 4.77501,-0.21144 -3.6868,3.31491 -3.52023,2.339 -6.87179,7.41802"
       id="path3305"
       inkscape:connector-curvature="0"
       sodipodi:nodetypes="cccccc" />
    <path
       style="fill:#aa0000;fill-opacity:1;stroke:#000000;stroke-width:0.19734375px;stroke-linecap:butt;stroke-linejoin:miter;stroke-opacity:1"
       d="m 111.64976,786.45937 c 1.4933,0.0282 2.80876,0.0979 4.28166,-0.0176 0.49412,-1.47647 0.8073,-2.98523 1.09243,-4.51071 -2.52342,1.53696 -3.15775,2.06627 -4.99526,2.93373 -0.10851,0.54522 -0.28863,1.06456 -0.47574,1.58579 l 0.0969,0.009"
       id="path3309"
       inkscape:connector-curvature="0"
       sodipodi:nodetypes="cccccc" />
    <path
       style="fill:#ffccaa;fill-opacity:1;stroke:#000000;stroke-width:0.19734375px;stroke-linecap:butt;stroke-linejoin:miter;stroke-opacity:1"
       d="m 122.11603,785.27883 c 1.16582,0.97442 3.21243,1.70965 5.25075,1.81485 3.10964,0.0694 5.80938,-0.0155 8.58093,-0.14095 2.48156,-1.79193 5.48888,-3.30053 8.05233,-4.19356 -0.0817,-2.27933 -0.13361,-4.47007 -0.15858,-6.58987 -1.19515,-0.61059 -1.57944,-1.55238 -1.99106,-2.73109 -0.24212,-1.00163 -0.37528,-1.74242 -0.93386,-2.5549 -2.5612,-1.05222 -2.34591,1.34105 -2.41393,3.13636 -0.11253,0.60699 0.14617,1.27582 -0.10572,1.77961 -4.90809,2.8546 -9.42685,5.62006 -13.88455,8.01709 -0.85087,0.45094 -1.60594,1.02213 -2.39631,1.46246"
       id="path3313"
       inkscape:connector-curvature="0"
       sodipodi:nodetypes="ccccccccccc" />
    <path
       style="fill:#decd87;fill-opacity:1;stroke:#000000;stroke-width:0.19734375px;stroke-linecap:butt;stroke-linejoin:miter;stroke-opacity:1"
       d="m 143.82423,776.26478 c 0.0259,1.19208 0.0496,2.25516 0.0747,3.35152 1.12924,0.0877 3.56145,-0.17241 3.56334,-1.20854 -1.15016,-0.98663 -2.38398,-1.59876 -3.63809,-2.14298"
       id="path3317"
       inkscape:connector-curvature="0"
       sodipodi:nodetypes="cccc" />
    <path
       style="fill:#c8ab37;fill-opacity:1;stroke:#000000;stroke-width:0.19734375px;stroke-linecap:butt;stroke-linejoin:miter;stroke-opacity:1"
       d="m 143.77439,776.19002 c 1.39354,0.63066 2.3846,1.25545 3.61317,2.11807 l -0.24918,-0.49837 c -0.96253,-1.2691 -2.17113,-1.97408 -3.41383,-2.67873 l -0.29902,-0.38624 c -0.39962,-0.83579 -0.59698,-1.83592 -0.80985,-2.62889 -0.42638,-1.43934 -0.66469,-2.32133 -1.96855,-2.45446 -0.69543,-0.0212 -1.16962,0.20566 -1.75675,0.52328 -1.53459,1.14421 -1.24417,3.46898 -1.38297,5.19549 -5.9656,3.50203 -11.58163,6.50708 -17.14387,9.61851 -1.41739,0.79441 -2.8214,1.61272 -4.21121,2.45446 0.15297,-0.47782 0.30663,-0.95543 0.46099,-1.43281 1.54012,-4.53298 2.97871,-8.67453 3.26431,-13.00741 0.1087,-0.48669 0.22617,-0.97138 0.3364,-1.45772 0.047,-0.20736 0.0927,-0.41502 0.13705,-0.62296 1.68217,0.27634 3.06278,0.95708 4.97123,-0.37378 2.2894,-1.42514 1.11783,-2.43084 -0.72264,-3.81252 -2.89553,-0.94328 -3.68836,-1.29637 -5.70631,-0.0747 l -0.3364,0.32394 c -0.68866,0.58972 -1.85295,2.56844 -0.48591,1.65707 0.16171,-0.16236 0.31959,-0.32855 0.47345,-0.49837 1.00852,-1.54087 2.84053,-1.28219 4.37104,-1.18878 0.99291,0.23932 1.7355,1.05363 2.39431,1.62486 0.17029,0.5505 -0.21009,0.65122 -0.43785,0.96791 -1.42284,0.68371 -2.9966,0.64908 -4.40878,0.57703 -0.45467,0.005 -0.61723,0.15638 -0.78493,0.51082 -0.17183,1.13196 -0.41523,2.31643 -0.66034,3.33907 -1.35347,4.64328 -2.10895,9.57254 -3.5135,13.91693 0.6621,1.14349 3.05961,-0.71039 3.73776,-1.18362 1.20031,-0.60488 2.39838,-1.20814 3.5135,-1.76921 6.60512,-3.50981 10.79541,-6.45322 15.72352,-9.20735 0.64329,-2.51104 -0.54426,-4.8257 1.75675,-5.10827 1.29768,0.41112 1.3359,1.70741 1.61969,2.87807 0.33582,1.1362 0.52074,2.04445 1.91872,2.67873"
       id="path3321"
       inkscape:connector-curvature="0"
       sodipodi:nodetypes="cccccccccccccscccccccccccccccccccc" />
    <path
       style="fill:#c8ab37;fill-opacity:1;stroke:#000000;stroke-width:0.19734375px;stroke-linecap:butt;stroke-linejoin:miter;stroke-opacity:1"
       d="m 110.91946,788.49972 c 0.83732,-1.93222 1.0785,-3.9139 1.50757,-5.81845 0.77936,-3.05461 1.40389,-5.69127 1.88134,-8.48472 0.22544,-1.29156 0.50786,-2.60133 0.59804,-3.77514 l -0.34886,0 c 0.52242,-0.74304 0.42685,-1.60576 0.48591,-2.40463 0.003,-1.01507 0.86163,-0.58738 1.05904,0 l 0.0249,0.11213 c 0.71931,0.61192 0.6714,-0.36708 0.67279,-0.84722 -0.22112,-0.5308 -0.40624,-0.82063 -0.89706,-1.05903 -0.54439,-0.0458 -0.91474,-0.16078 -1.17116,0.39869 -0.1065,0.89528 0.0326,1.82757 -0.28657,2.67873 l -0.0374,0.68526 -0.12459,0.41115 c -0.41208,3.19586 -1.26365,6.77109 -1.86889,9.69326 -0.0819,0.39154 -0.17671,0.78027 -0.26164,1.17117 0.0412,1.64451 -2.95136,7.17855 -1.23346,7.23879"
       id="path3325"
       inkscape:connector-curvature="0"
       sodipodi:nodetypes="ccccccccccccccccc" />
    <path
       style="fill:#decd87;fill-opacity:1;stroke:#000000;stroke-width:0.19734375px;stroke-linecap:butt;stroke-linejoin:miter;stroke-opacity:1"
       d="m 112.05325,784.48785 0.23673,-0.17443 4.57253,-4.24859 0.77247,-0.63541 c 0.5774,-2.35573 1.24192,-4.54581 1.69445,-6.74044 0.29582,-1.0117 -0.0768,-2.29915 1.10887,-2.54167 1.61967,0.0896 5.1061,0.39149 4.85909,-1.54494 -0.60999,-0.86532 -1.40276,-1.24709 -2.34233,-1.63216 l -2.2302,-0.14951 c -1.02037,0.10818 -1.55016,0.5808 -2.14298,1.35805 -0.72801,1.42826 -0.48827,3.14376 -0.72264,4.54761 l -0.32394,0.57313 c -2.17734,2.36544 -2.56601,0.35295 -2.09937,-1.9561 0.1267,-0.34946 0.24306,-0.70268 0.34886,-1.05903 0.22605,-0.65942 0.3004,-1.19534 0.36131,-1.88757 -0.0127,-0.74722 -0.72359,-1.28857 -1.05903,-0.79116 -0.0376,1.14457 -9.9e-4,1.85422 -0.5482,2.80332 l 0.38001,-0.006 -0.0748,0.82854 c -0.48766,2.37123 -0.78415,4.99574 -1.33936,7.1765 -0.47815,1.75507 -0.88287,3.36815 -1.23346,5.05221 -0.0714,0.3429 -0.14412,0.68553 -0.21805,1.02789"
       id="path3329"
       inkscape:connector-curvature="0"
       sodipodi:nodetypes="cccccccccccccccccccccc" />
    <path
       style="fill:#decd87;fill-opacity:1;stroke:#000000;stroke-width:0.19734375px;stroke-linecap:butt;stroke-linejoin:miter;stroke-opacity:1"
       d="m 146.50208,776.98863 -0.7048,-0.59027 c -0.90144,-0.58796 -1.9895,-0.99352 -2.42275,-1.70914 l -0.36121,-0.98672 c -0.9252,-2.47249 -0.67875,-4.30442 -3.39184,-3.91163 -1.61748,0.85079 -1.6235,1.40498 -1.77081,2.34345 l -0.3524,3.21565 c -1.58421,0.9029 -3.16416,1.81328 -4.73978,2.7311 -5.77552,3.69537 -11.6411,6.1092 -16.63108,9.35961 0.14869,-0.47504 0.30236,-0.94853 0.46099,-1.42035 0.2302,-0.68468 0.47086,-1.36597 0.68526,-2.05576 0.51382,-1.77376 0.98071,-3.51406 1.38297,-5.18303 0.48606,-2.0716 0.89684,-4.17688 1.32068,-6.10501 0.12918,-0.58642 0.26208,-1.17202 0.39869,-1.75675 2.20617,0.5248 3.91564,0.26029 4.94631,-0.3364 0.77777,-0.35966 1.04777,-0.77198 1.14624,-1.25838 -0.14241,-1.27203 -0.27481,-1.05473 -0.78493,-1.76921 -1.79796,-1.37411 -3.7061,-1.87968 -5.93058,-1.29576 -1.07136,0.51341 -1.65636,1.16893 -2.2302,2.05577 -0.007,0.55644 0.22194,0.54218 0.58559,0.29902 l 0.52328,-0.57312 c -0.85544,2.39461 0.23753,4.19534 -1.73183,5.98042 -0.6694,0.39172 -1.23774,0.49895 -1.52665,-0.21666 -0.28301,-2.12374 0.0681,-2.3748 0.39286,-3.44012 0.22793,-0.64918 0.3093,-1.18901 0.39246,-1.87511 -0.0958,-0.46203 -0.10137,-0.43847 0.25542,-0.15574 l 0.006,0 c 0.76763,-0.44073 0.19564,-1.34815 -0.0934,-1.90003 -0.29569,-0.21868 -0.5639,-0.22746 -0.91575,-0.24918 -0.0628,-0.7093 0.0932,-1.39806 0.14327,-2.09938 l 0.39869,-0.19934 c 0.65221,-0.49272 1.66702,0.63504 2.14299,0.80984 2.24783,-1.50204 4.58449,-1.43596 6.99584,-0.31771 l 2.24889,1.1774 c 0.63187,0.39423 1.25703,0.79924 1.87511,1.21477 0.72168,0.5045 1.26931,0.89046 2.01839,1.30822 0.24298,-0.20945 0.23141,-0.23485 0.0997,-0.5046 -1.42727,-0.74269 -2.81232,-1.76398 -4.04301,-2.59774 -0.92578,-0.65443 -1.74395,-1.0725 -2.76594,-1.58855 l -0.95313,-0.20558 c -1.07134,-0.14979 -2.13458,-0.14017 -3.12103,-0.0685 -0.6007,0.0339 -1.09171,0.28799 -1.62593,0.53574 l -0.80362,0.27411 c -0.72117,-0.33776 -1.3213,-0.56997 -2.09314,-0.48591 0.0875,-0.95104 0.31891,-1.82715 0.77247,-2.66004 l 0.13705,-0.37378 c 0.8493,-0.77684 1.73374,-1.36734 2.82201,-1.4515 1.33555,0.43805 2.60823,0.80732 3.84989,1.20855 0.80604,0.26106 1.60494,0.54387 2.3984,0.84099 2.16597,0.82266 4.24298,1.69623 6.20468,2.58529 0.83574,0.37937 1.66638,0.76994 2.49185,1.17116 1.39673,0.60263 2.56245,1.35514 3.78136,2.13676 0.57865,0.37073 1.16245,0.73344 1.73806,1.10887 0.55564,0.4366 1.20026,0.69637 1.79413,0.95936 0.60477,0.26807 1.205,0.54638 1.80035,0.83476 0.67649,0.11693 0.86941,0.0992 0.41739,-0.43607 -0.48377,-0.34064 -0.9676,-0.68119 -1.4515,-1.02165 -0.43673,-0.30728 -0.87353,-0.6145 -1.31445,-0.91576 -0.99324,-0.67863 -2.00722,-1.32691 -3.04004,-1.94363 -0.80565,-0.3517 -1.61344,-0.69849 -2.42332,-1.04035 -1.07545,-0.45395 -2.15455,-0.89919 -3.23316,-1.34559 -3.91916,-1.61396 -7.97139,-3.55536 -11.7428,-4.77188 -1.13301,-0.44198 -2.064,-0.51834 -3.17087,0.0436 -0.77715,0.26164 -1.64337,1.93235 -1.22723,0.4423 1.2406,-1.5085 2.87735,-2.97684 4.24859,-3.88727 l 0.47345,-0.58558 c 1.09739,-0.2064 1.04263,2.04122 1.35805,2.74725 l -0.22427,0.37378 c -1.01416,1.67551 3.68946,-1.39076 3.97449,-1.54494 3.06155,-2.32112 7.51132,-2.81366 10.47819,-1.84397 0.29806,0.35522 1.92091,-0.0578 1.91872,0.60428 2.52768,0.85655 4.77782,2.58397 6.41649,4.34203 0.90587,0.82073 1.37956,1.69579 1.99347,2.79709 0.31893,0.66986 0.59152,1.29722 0.841,1.93741 1.08739,4.50974 -1.2953,8.70196 -1.44678,12.49908 0.003,0.26152 0.012,0.52296 0.0264,0.78409 l -0.0881,-0.044"
       id="path3333"
       inkscape:connector-curvature="0"
       sodipodi:nodetypes="cccccccccsccccccccccccccccccccccccccccccccccccccccccccccsscsccccccccccccccccc" />
    <path
       style="fill:none;stroke:#000000;stroke-width:0.19734375px;stroke-linecap:butt;stroke-linejoin:miter;stroke-opacity:1"
       d="m 125.95718,781.84293 0.86338,-3.17159 c 0.83887,-3.08156 1.598,-6.19136 2.0263,-9.35621 l -0.0529,-0.3524 -0.0705,-1.4096"
       id="path3337"
       inkscape:path-effect="#path-effect3339"
       inkscape:original-d="m 125.95718,781.84293 0.86338,-3.17159 c 0.85133,-3.43742 1.62827,-6.09961 2.0263,-9.35621 l -0.0529,-0.3524 -0.0705,-1.4096"
       inkscape:connector-curvature="0"
       sodipodi:nodetypes="ccccc" />
    <path
       style="fill:#c8ab37;fill-opacity:1;stroke:#000000;stroke-width:0.19734375px;stroke-linecap:butt;stroke-linejoin:miter;stroke-opacity:1"
       d="m 115.51735,764.08199 c -0.0569,-0.54936 0.0216,-0.58721 0.47574,-0.66074 0.70077,-0.16796 1.36103,0.27659 2.02629,0.5374 l 0.97791,-0.37002 c 1.48165,-0.73727 3.16873,-0.61957 4.73096,-0.37002 1.30377,0.24327 2.33428,0.92693 3.33899,1.61223 1.46544,1.03431 2.78869,1.9126 4.20237,2.68705 0.25358,0.28453 0.23518,0.29296 -0.009,0.55503 -1.38658,-0.73626 -2.72327,-1.75155 -3.8852,-2.51085 -0.5301,-0.30376 -1.07089,-0.58885 -1.62104,-0.85457 -0.69789,-0.33526 -1.44472,-0.65953 -2.10559,-0.92504 -1.31047,-0.30557 -2.51621,-0.17938 -3.81472,0.0617 -0.89255,0.20818 -1.6316,1.28198 -2.32584,0.4493 -0.78435,-0.47675 -1.3404,-0.5529 -1.99106,-0.21144"
       id="path3341"
       inkscape:connector-curvature="0"
       sodipodi:nodetypes="cccccccccccccc" />
    <path
       style="fill:#c8ab37;fill-opacity:1;stroke:#000000;stroke-width:0.19734375px;stroke-linecap:butt;stroke-linejoin:miter;stroke-opacity:1"
       d="m 116.66316,760.71569 c -0.40941,-0.46433 -0.4157,-0.66607 -0.31148,-1.23346 1.18573,-1.35016 2.53208,-1.77245 4.51023,-1.17118 0.68369,0.21232 1.36104,0.44503 2.03085,0.69772 0.73538,0.27743 1.4735,0.5474 2.21055,0.82035 4.82876,2.10676 8.96898,3.82338 13.25133,5.65844 1.62864,0.95454 3.08069,1.95552 4.51023,2.96529 0.42351,0.29916 0.84713,0.59818 1.27084,0.89706 0.48671,0.52622 0.29713,0.49837 -0.34886,0.49837 l -2.92791,-1.34559 c -0.74691,-0.50556 -1.49866,-1.00396 -2.25512,-1.49511 -1.13668,-0.79656 -2.37657,-1.43124 -3.52596,-2.00593 -2.66595,-1.34333 -5.58735,-2.61627 -8.16078,-3.61317 -0.90967,-0.35121 -1.82142,-0.69733 -2.74102,-1.02166 -1.48074,-0.52224 -2.98146,-0.98783 -4.49777,-1.39543 -0.6548,-0.0454 -1.21293,0.33788 -1.79413,0.59804 l -0.99674,0.79739 -0.0872,0.0498 -0.13705,0.29904"
       id="path3345"
       inkscape:connector-curvature="0"
       sodipodi:nodetypes="cccscccccccccsccccc" />
    <path
       style="fill:#999999;fill-opacity:1;stroke:#000000;stroke-width:0.19734375px;stroke-linecap:butt;stroke-linejoin:miter;stroke-opacity:1"
       d="m 147.01305,761.56234 -1.16291,-1.81486 -1.37436,-1.53294 c -3.05916,-2.79185 -6.32205,-3.93039 -10.04339,-4.49309 -3.1901,-0.22919 -6.09542,0.9459 -8.61617,2.51965 -1.1995,0.6534 -4.35556,2.58467 -3.41827,1.18054 l 0.21144,-0.28192 c -0.18739,-1.52643 -0.45357,-2.08277 -0.88157,-2.69101 l -0.51083,-0.10591 -0.7164,-0.83476 c -1.17238,-1.36608 -2.42798,-2.65757 -3.71284,-3.91842 -0.35764,-0.45191 -1.0449,-0.62751 -0.75379,-1.16494 0.15357,0.008 0.30726,0.0145 0.46099,0.0187 1.28783,-0.11168 2.60875,-1.24572 3.5758,-1.84396 l 0.26164,-0.16197 c 0.45133,2.23315 1.03315,4.29249 1.65148,6.40301 0.12137,0.413 0.25058,0.82397 0.3524,1.24221 0.0185,0.0761 0.0362,0.1525 0.0529,0.22906 l 0.23787,0.28192 0.77528,-0.38764 -0.54622,0.81933 1.74438,1.03958 c 1.04026,-1.23477 2.13383,-2.60151 3.02182,-3.76187 l 0.66075,1.70033 3.79711,-2.49322 c 0.12683,0.52571 0.28993,1.0336 0.49336,1.53293 1.39376,-0.31327 2.59553,-0.61162 3.84115,-0.96909 l 0.55503,1.31268 2.2025,0.0529 c 1.22733,0.58652 2.24027,1.44544 3.73543,2.28179 0.53215,0.68171 1.42475,1.48353 2.06154,2.17607 0.35684,0.55322 0.61523,1.06231 0.85457,1.42722 0.40414,0.74179 0.80062,1.48775 1.18935,2.23773"
       id="path3349"
       inkscape:connector-curvature="0"
       sodipodi:nodetypes="cccccccccsccccccccccccccccccccccc" />
    <path
       style="fill:none;stroke:#000000;stroke-width:0.19734375px;stroke-linecap:butt;stroke-linejoin:miter;stroke-opacity:1"
       d="m 123.47277,754.17957 -0.59908,0.84576 1.76199,1.07481 2.9954,-3.78829 0.66956,1.63866 3.7883,-2.44918 0.49335,1.5858 3.80592,-0.98672 0.6167,1.3215 2.30822,0.0529 0.96909,0.58146 1.21578,0.86338 1.42722,0.82813 0.82814,0.98672 1.12768,1.03958 0.29954,0.31716 c 0.15603,0.30088 0.31461,0.60044 0.47574,0.89862 0.43398,0.80313 0.88638,1.59631 1.35673,2.3787 -0.16873,-0.3014 -0.33877,-0.60208 -0.51009,-0.90202 -0.13056,-0.22857 -0.26186,-0.45671 -0.39247,-0.68525 -0.17879,-0.31285 -0.35627,-0.62645 -0.53263,-0.94067 -0.15242,-0.27156 -0.30401,-0.54359 -0.45476,-0.81608 -0.16222,-0.16485 -0.32734,-0.32685 -0.49525,-0.48591 -0.28927,-0.27402 -0.58682,-0.53928 -0.89211,-0.79532 l -0.76647,-0.9779 c -0.34242,-0.19368 -0.68309,-0.39045 -1.02196,-0.59028 -0.26334,-0.15529 -0.52563,-0.31244 -0.78409,-0.47573 -0.40018,-0.25282 -0.7911,-0.5203 -1.17172,-0.80171 l -1.42722,-0.82814 -1.762,-0.85457 c -0.40969,-0.15882 -0.82399,-0.30574 -1.24221,-0.4405 -0.29184,-0.094 -0.58559,-0.18216 -0.881,-0.2643 l -2.62538,-0.14977 -2.25535,0.14977 c -0.74242,0.19551 -1.47984,0.40998 -2.21131,0.64313 -0.52295,0.16669 -1.04285,0.34293 -1.55937,0.5286 l -2.55489,1.49766"
       id="path3353"
       inkscape:path-effect="#path-effect3355"
       inkscape:original-d="m 123.47277,754.17957 -0.59908,0.84576 1.76199,1.07481 2.9954,-3.78829 0.66956,1.63866 3.7883,-2.44918 0.49335,1.5858 3.80592,-0.98672 0.6167,1.3215 2.30822,0.0529 0.96909,0.58146 1.21578,0.86338 1.42722,0.82813 0.82814,0.98672 1.12768,1.03958 0.29954,0.31716 0.47574,0.89862 1.35673,2.3787 -0.51009,-0.90202 -0.39247,-0.68525 -0.53263,-0.94067 -0.45476,-0.81608 -0.49525,-0.48591 -0.89211,-0.79532 -0.76647,-0.9779 -1.02196,-0.59028 -0.78409,-0.47573 -1.17172,-0.80171 -1.42722,-0.82814 -1.762,-0.85457 -1.24221,-0.4405 -0.881,-0.2643 -2.62538,-0.14977 -2.25535,0.14977 -2.21131,0.64313 -1.55937,0.5286 z"
       inkscape:connector-curvature="0"
       sodipodi:nodetypes="ccccccccccccccccccccccccccccccccccccc" />
    <path
       style="fill:none;stroke:#000000;stroke-width:0.19734375px;stroke-linecap:butt;stroke-linejoin:miter;stroke-opacity:1"
       d="m 120.376,746.48727 c 0.41782,2.569 1.37362,5.20025 1.8938,7.50045 0.29242,1.03489 0.84855,0.43011 1.37051,0.0747 2.48706,-1.71455 4.09709,-2.02727 6.12993,-2.52922 l 2.37971,-0.14951 2.45447,0.13705 1.85642,0.57313 c 0.88506,0.38737 1.75404,0.81147 2.60397,1.27084 0.41559,0.22461 0.82661,0.45765 1.23346,0.69771 0.90608,0.53463 1.79156,1.10416 2.65381,1.70691 l 0.66034,0.83477 c 0.97528,0.77201 0.88045,0.83061 1.32068,1.24592 l 0.49837,0.72263 c 0.43704,-1.01401 0.92668,-2.02475 1.40788,-2.92791 l 0.0125,-0.0997 c -0.93285,-0.21777 -2.21474,0.46203 -3.05251,0.73509 l -0.29902,0.16197 -0.34886,-0.46099 c 0.59479,-1.4047 0.76296,-2.81913 1.18363,-4.18629 -1.42163,0.61625 -2.71532,1.31384 -3.88727,2.19282 0.0546,-2.03682 0.0265,-4.15165 -0.0374,-6.0801 -1.39636,1.23967 -2.60467,2.68214 -3.87482,4.04925 -0.49054,-2.38025 -1.19409,-4.66523 -2.06822,-6.81519 -0.81208,2.02506 -1.75801,4.21773 -2.34233,6.09255 -1.54688,-2.02292 -2.91737,-4.39584 -4.17384,-6.36665 l -0.43607,-0.59804 -0.0872,0 c 0.004,0.22841 0.009,0.45683 0.0125,0.68525 0.034,2.50164 0.0525,4.68464 0.0249,6.93978 -2.35795,-1.78498 -4.83782,-3.80202 -7.02699,-5.46959 l -0.0623,0.0623"
       id="path3357"
       inkscape:connector-curvature="0"
       sodipodi:nodetypes="cccccccsscccccccccccccccccccccc" />
    <path
       style="fill:#999999;fill-opacity:1;stroke:#000000;stroke-width:0.19734375px;stroke-linecap:butt;stroke-linejoin:miter;stroke-opacity:1"
       d="m 145.419,758.64746 c 0.35863,0.60904 0.70755,1.2238 1.04658,1.84396 0.37783,0.69115 0.74338,1.38901 1.09641,2.09315 l 0.42361,1.02165 1.44527,0.0997 0.29902,0 -0.0498,-1.22101 -0.42361,-1.91871 -0.29902,-0.77247 -2.09315,-4.28597 -1.44531,3.1397"
       id="path3361"
       inkscape:path-effect="#path-effect3363"
       inkscape:original-d="m 145.419,758.64746 1.04658,1.84396 1.09641,2.09315 0.42361,1.02165 1.44527,0.0997 0.29902,0 -0.0498,-1.22101 -0.42361,-1.91871 -0.29902,-0.77247 -2.09315,-4.28597 z"
       inkscape:connector-curvature="0"
       sodipodi:nodetypes="ccccccccccc" />
    <path
       style="fill:#241c1c;fill-opacity:1;stroke:#000000;stroke-width:0.19734375px;stroke-linecap:butt;stroke-linejoin:miter;stroke-opacity:1"
       d="m 116.28381,748.37378 c -3.21744,-2.40724 -6.78251,-2.35486 -10.36935,-1.92057 0.34099,-10.43672 12.66326,-15.29478 21.31411,-15.76421 9.69725,0.0473 14.86847,2.60077 21.62918,7.68733 3.80427,2.74302 5.47793,5.92266 7.58765,9.6808 1.68599,3.28294 2.77721,6.53402 4.04924,9.69327 -3.11975,0.019 -5.88351,0.053 -8.74636,0.11213 0.71638,1.23718 1.69651,2.43512 2.42955,3.50104 0.76164,0.81647 0.83282,1.47075 0.0747,2.1056 -1.51694,0.14925 -3.00273,0.43735 -4.51723,0.25162 -0.0352,-2.77736 -1.29311,-4.91351 -2.36108,-7.14491 -1.05923,-2.4709 -2.16341,-3.99408 -3.81473,-5.98198 -0.80918,-0.80777 -1.52614,-1.51952 -2.27297,-2.25536 l -1.31269,-1.02195 c -2.34215,-1.45055 -4.60713,-2.25404 -7.20657,-2.9073 -2.43853,-0.40746 -4.31367,-0.4262 -6.62512,0.0529 -3.40354,1.09166 -6.04829,1.76792 -8.4664,3.90282 -0.46815,0.038 -0.9271,0.0655 -1.39197,0.009"
       id="path3369"
       inkscape:connector-curvature="0"
       sodipodi:nodetypes="cccccccccccccccccc" />
    <path
       style="fill:#241c1c;fill-opacity:1;stroke:#000000;stroke-width:0.19734375px;stroke-linecap:butt;stroke-linejoin:miter;stroke-opacity:1"
       d="m 150.62695,763.90524 c 0.6265,2.39262 1.42838,4.76093 1.22101,7.11421 -0.35447,2.91101 -2.93177,6.40223 -4.37319,8.78374 -0.48486,0.78795 -1.00035,1.55704 -1.54494,2.30495 0.99528,-0.30709 2.12342,-0.47579 3.04005,-0.6105 2.64026,-0.24809 5.45131,-0.11619 7.72471,0.0748 2.18453,-2.73659 2.78819,-5.69773 3.22693,-8.75882 1.33658,3.05525 1.01175,6.48974 0.0125,9.28211 1.00834,0.2469 1.95092,0.51803 2.86562,0.8223 0.16199,-0.73924 0.32396,-1.47849 0.48591,-2.21774 0.61075,-2.10791 0.51323,-4.05721 0.52329,-5.9555 1.00502,1.19637 1.49193,2.27743 1.29575,4.75942 -0.21931,1.38038 -0.41706,2.70078 -0.59804,3.98695 1.12531,0.46959 2.20341,0.91559 3.25185,1.34559 0.25143,-3.15607 0.27679,-5.7873 0.48591,-8.60363 l -0.19934,-1.23914 c 2.84642,2.52752 2.28765,7.93473 1.23346,10.52803 0.0348,0.17609 0.26834,0.21128 0.4236,0.28656 0.92396,-1.61258 0.99733,-3.02128 1.38298,-4.80925 -0.0359,-2.28565 -0.782,-4.21721 -1.81905,-5.95551 -0.90562,-1.13344 -1.35591,-2.5986 -1.74429,-3.87481 -0.0707,-0.23253 -0.14134,-0.4651 -0.2118,-0.69771 -0.7932,-1.99906 -1.48177,-3.20352 -2.87808,-4.72204 -2.79934,-2.7921 -6.03599,-5.2371 -8.62177,-7.92406 l -4.04924,0.0872 c 0.60898,0.8909 1.19787,1.89876 1.77134,2.71183 2.52432,3.07938 -0.0498,2.73813 -2.99234,3.21875 l 0.14008,-0.0963"
       id="path3373"
       inkscape:connector-curvature="0"
       sodipodi:nodetypes="cccccccccccccccccccccccccccc" />
    <path
       style="fill:#cccccc;fill-opacity:1;stroke:#000000;stroke-width:0.19734375px;stroke-linecap:butt;stroke-linejoin:miter;stroke-opacity:1"
       d="m 122.86784,807.26328 c 0.33356,-1.01568 0.67412,-2.02906 1.02166,-3.04005 -3.88703,6.666 -7.19191,3.3948 -11.96084,3.98695 -0.73735,0.23567 -1.09582,0.33862 -1.73183,0.63542 -1.57663,0.91112 -1.70871,1.56647 -1.72167,2.22391 -0.013,0.65744 -0.29302,1.42911 0.40099,2.69748 0.52255,0.56171 1.15111,1.03902 1.88134,1.24592 3.8991,-0.44055 7.22323,0.69143 10.49066,-1.22101"
       id="path3377"
       inkscape:connector-curvature="0"
       sodipodi:nodetypes="ccccsccc" />
    <path
       style="fill:#cccccc;fill-opacity:1;stroke:#000000;stroke-width:0.19734375px;stroke-linecap:butt;stroke-linejoin:miter;stroke-opacity:1"
       d="m 106.59283,807.35666 c 1.52816,0.81925 3.31623,0.89079 4.89835,0.89862 -0.44448,0.3174 -0.95981,0.48612 -1.46246,0.68718 -1.4944,0.79228 -1.5914,2.31696 -1.5858,3.80591 0.32395,0.99461 1.15605,1.84253 2.03424,2.20224 -0.64142,0.16398 -1.13029,0.50833 -1.65707,0.8846 0.0213,-0.0485 -0.13187,-1.12656 -0.24296,-1.42657 -0.32201,-0.90011 -1.0272,-1.29126 -1.76297,-1.84397 l 0.79009,-0.96094 c 0.88923,-1.72587 0.009,-3.02034 -1.01142,-4.24707"
       id="path3381"
       inkscape:connector-curvature="0"
       sodipodi:nodetypes="cccccccccc" />
    <path
       style="fill:#cccccc;fill-opacity:1;stroke:#000000;stroke-width:0.19734375px;stroke-linecap:butt;stroke-linejoin:miter;stroke-opacity:1"
       d="m 102.8662,805.15416 -0.54622,1.53294 1.03958,-0.24668 1.72676,0.28192 -1.57699,-0.99553 -0.64313,-0.57265"
       id="path3385"
       inkscape:path-effect="#path-effect3387"
       inkscape:original-d="m 102.8662,805.15416 -0.54622,1.53294 1.03958,-0.24668 1.72676,0.28192 -1.57699,-0.99553 z"
       inkscape:connector-curvature="0"
       sodipodi:nodetypes="cccccc" />
    <path
       style="fill:#cccccc;fill-opacity:1;stroke:#000000;stroke-width:0.19734375px;stroke-linecap:butt;stroke-linejoin:miter;stroke-opacity:1"
       d="m 102.39737,806.71507 0.98428,-0.23672 c 1.1913,0.0205 2.1691,0.47575 3.23939,0.93444 1.03974,0.94928 1.437,2.31544 1.32068,3.4512 l -0.31148,0.90952 c -0.29374,0.29707 -0.55853,0.54901 -0.83477,0.79739 -2.15128,0.21845 -4.12234,1.14529 -5.1332,-0.31148 -0.23689,-0.27203 -0.27347,-0.72263 -0.37377,-1.07149 -0.25966,-1.67539 0.46761,-3.16964 1.10887,-4.47286"
       id="path3389"
       inkscape:connector-curvature="0"
       sodipodi:nodetypes="ccccccccc" />
    <path
       style="fill:#cccccc;fill-opacity:1;stroke:#000000;stroke-width:0.19734375px;stroke-linecap:butt;stroke-linejoin:miter;stroke-opacity:1"
       d="m 103.26951,813.04435 -0.51083,0.0872 c 2.98202,-0.3455 4.99243,-1.37892 5.73124,1.08395 0.30125,0.64231 0.4326,1.20759 0.19935,1.7692 -0.67969,0.86296 -1.2869,1.6529 -1.83151,2.50431 -0.11354,0.17769 -0.22568,0.35628 -0.33639,0.53574 -1.96167,0.8999 -3.11173,1.21816 -4.44794,-0.34886 -0.59522,-1.13151 -0.39129,-2.19783 -0.26164,-3.43874 0.30528,-1.27707 0.29482,-2.20108 1.45772,-2.19282"
       id="path3393"
       inkscape:connector-curvature="0"
       sodipodi:nodetypes="ccccccccc" />
    <path
       style="fill:#cccccc;fill-opacity:1;stroke:#000000;stroke-width:0.19734375px;stroke-linecap:butt;stroke-linejoin:miter;stroke-opacity:1"
       d="m 121.21741,813.87605 c -0.35041,2.18987 -0.67642,4.44285 -0.84576,6.48415 -2.17965,1.55489 -6.69921,0.75636 -10.13149,1.26864 -1.36459,0.0202 -2.0778,-0.10323 -2.41393,-0.74004 l -0.33515,-0.7915 c -0.44371,-0.70678 -1.21447,-0.62249 -0.58109,-1.69292 1.87,-3.03222 2.66082,-3.60106 5.9115,-3.59447 4.45099,0.15964 6.1279,0.23059 8.39592,-0.93386"
       id="path3397"
       inkscape:connector-curvature="0"
       sodipodi:nodetypes="cccccccc" />
    <path
       style="fill:#cccccc;fill-opacity:1;stroke:#000000;stroke-width:0.19734375px;stroke-linecap:butt;stroke-linejoin:miter;stroke-opacity:1"
       d="m 106.88268,818.59493 c -0.0287,0.18558 -0.0708,0.21189 -0.10848,0.39585 -0.008,0.0395 0.10694,0.36088 0.0984,0.40029 l 0.0973,0.15699 c -0.0687,0.19985 -0.77384,-0.11673 -1.01543,-0.16197 l 0.92821,-0.79116"
       id="path3401"
       inkscape:connector-curvature="0"
       sodipodi:nodetypes="cccccc" />
    <path
       style="fill:#cccccc;fill-opacity:1;stroke:#000000;stroke-width:0.19734375px;stroke-linecap:butt;stroke-linejoin:miter;stroke-opacity:1"
       d="m 105.01584,825.86645 c 0.89091,-0.23617 1.62465,-0.88134 2.1144,-1.48008 0.6732,-1.16897 0.81624,-2.54002 0.65193,-3.75306 -0.27529,-0.86134 -1.05897,-1.059 -1.762,-1.22459 -1.65442,0.35442 -3.06775,-0.0352 -3.77068,1.51532 -0.27097,1.087 -0.39749,2.30381 -0.2643,3.32137 0.004,0.82111 0.66753,1.53301 1.13649,1.96463 0.64427,-0.0606 1.26973,-0.18327 1.89416,-0.34359"
       id="path3405"
       inkscape:connector-curvature="0"
       sodipodi:nodetypes="cccccccc" />
    <path
       style="fill:#cccccc;fill-opacity:1;stroke:#000000;stroke-width:0.19734375px;stroke-linecap:butt;stroke-linejoin:miter;stroke-opacity:1"
       d="m 119.93993,826.57505 c -0.0917,-0.83261 0.6389,-6.25713 0.29902,-6.21715 l -1.20854,0.64788 c -1.19873,0.22923 -2.85437,0.39319 -5.44468,0.42362 -2.2698,-0.0126 -3.82623,0.20895 -4.87154,0.92197 -0.98158,0.81691 -1.35056,1.60277 -1.66954,2.72857 0.10716,1.12807 -0.16439,2.27167 0.71018,2.96529 3.48892,0.20044 4.97518,0.47977 9.45653,-0.63542 0.86785,-0.42993 1.79313,-0.62072 2.72857,-0.83476"
       id="path3409"
       inkscape:connector-curvature="0"
       sodipodi:nodetypes="ccccccccc" />
    <path
       style="fill:#cccccc;fill-opacity:1;stroke:#000000;stroke-width:0.19734375px;stroke-linecap:butt;stroke-linejoin:miter;stroke-opacity:1"
       d="m 110.20929,821.66612 c -0.53915,-0.0836 -2.11815,-0.0407 -2.32987,-0.62296 l -0.0249,0.77247 c -0.0285,0.54927 -0.17707,1.04657 -0.23672,1.54494 0.53207,-0.57893 1.04067,-1.01167 1.69445,-1.30821 0.29656,-0.13435 0.59566,-0.26313 0.89706,-0.38624"
       id="path3413"
       inkscape:connector-curvature="0"
       sodipodi:nodetypes="cccccc" />
    <path
       style="fill:#cccccc;fill-opacity:1;stroke:#000000;stroke-width:0.19734375px;stroke-linecap:butt;stroke-linejoin:miter;stroke-opacity:1"
       d="m 104.87675,825.96455 c 1.04326,-0.36084 1.62892,-0.89946 2.35479,-1.69445 -0.22923,0.73765 -0.17114,1.40743 -0.16196,2.06822 0.0238,0.19534 0.0487,0.39054 0.0747,0.58559 -0.54879,-1.1322 -1.45617,-1.09473 -2.26758,-0.95936"
       id="path3417"
       inkscape:connector-curvature="0"
       sodipodi:nodetypes="ccccc" />
    <path
       style="fill:#cccccc;fill-opacity:1;stroke:#000000;stroke-width:0.19734375px;stroke-linecap:butt;stroke-linejoin:miter;stroke-opacity:1"
       d="m 103.20979,826.21004 c -0.60807,0.45231 -0.86746,1.1244 -1.11006,1.81485 -0.20162,2.64697 -0.29935,2.84667 1.02196,4.52834 0.98564,-0.29631 1.90757,-0.40148 3.20684,-1.63866 0.67886,-1.08646 0.85237,-2.03409 0.9691,-3.2597 -0.11704,-0.59161 -0.33243,-0.96739 -0.73123,-1.38316 -0.70169,-0.81578 -2.33759,-0.18831 -3.35661,-0.0617"
       id="path3421"
       inkscape:connector-curvature="0"
       sodipodi:nodetypes="ccccccc" />
    <path
       style="fill:#aa0000;fill-opacity:1;stroke:#000000;stroke-width:0.19734375px;stroke-linecap:butt;stroke-linejoin:miter;stroke-opacity:1"
       d="m 99.765087,840.1122 c 0.899753,-0.26828 1.956303,-0.15113 2.634183,-0.67837 0.0122,-1.11329 -0.68999,-2.49792 -0.63432,-3.71782 0.0783,-1.24489 0.70574,-2.01303 1.38317,-3.03944 l 0.009,-0.11453 c -0.61487,-0.66698 -0.95105,-1.32412 -1.15411,-2.12321 0.0436,-1.98049 -0.0318,-3.26103 1.1453,-4.23761 -0.8426,-0.68741 -1.07632,-1.42364 -1.25983,-2.42274 l -0.30835,1.4096 -1.814843,14.92412"
       id="path3429"
       inkscape:connector-curvature="0"
       sodipodi:nodetypes="cccccccccc" />
    <path
       style="fill:#cccccc;fill-opacity:1;stroke:#000000;stroke-width:0.19734375px;stroke-linecap:butt;stroke-linejoin:miter;stroke-opacity:1"
       d="m 121.63727,844.05782 c -4.72014,0.43388 -9.05076,-0.74857 -13.15483,-1.66785 -1.05183,-0.43123 -1.99776,-0.80291 -3.03668,-1.26436 -0.54004,-0.24314 -1.95841,-1.38826 -3.02887,-1.77987 l -0.25549,0.27311 0.22906,1.02196 c 2.27907,2.16374 3.27066,3.08325 6.47491,4.01813 1.16859,0.74181 3.93657,1.38861 5.67407,1.41763 2.59432,0.23535 5.50065,0.80253 7.54135,0.5374"
       id="path3433"
       inkscape:connector-curvature="0"
       sodipodi:nodetypes="ccccccccc" />
    <path
       style="fill:#cccccc;fill-opacity:1;stroke:#000000;stroke-width:0.19734375px;stroke-linecap:butt;stroke-linejoin:miter;stroke-opacity:1"
       d="m 122.64463,849.11601 -0.49638,-2.54155 c -1.6759,0.14023 -3.11453,0.0189 -4.74885,-0.28068 -1.73631,-0.0842 -3.47164,-0.22736 -5.05818,-0.42287 -1.05826,-0.42611 -2.34595,-0.85861 -3.35208,-1.14228 -1.42109,-0.37769 -2.6963,-1.10302 -3.88189,-1.75727 -1.48518,-1.15619 -2.56953,-1.64907 -2.97775,-3.40759 -1.81422,0.3501 -3.530587,0.81583 -5.24533,0.90328 0.9738,2.14506 2.428388,3.36935 4.01186,4.64729 2.85712,1.44475 5.67097,2.18686 8.54702,2.63512 0.52291,0.0814 2.01802,0.35962 2.54168,0.43607 4.07715,0.36149 6.79507,0.61914 10.36606,0.87215 l 0.29384,0.0583"
       id="path3437"
       inkscape:connector-curvature="0"
       sodipodi:nodetypes="ccccccccccccc" />
    <path
       style="fill:#cccccc;fill-opacity:1;stroke:#000000;stroke-width:0.19734375px;stroke-linecap:butt;stroke-linejoin:miter;stroke-opacity:1"
       d="m 102.85836,846.21076 -0.0249,1.7692 c 0.52371,0.39783 0.62096,0.50639 1.64462,1.17117 0.2164,0.14053 0.75431,0.40938 0.97181,0.54821 1.21276,0.28191 2.09559,0.45578 3.21448,0.74755 2.89431,0.53933 6.04743,0.86823 8.72144,1.14624 2.21099,0.22246 4.25901,0.37327 6.31604,0.4566 -0.40671,-1.09293 -0.75437,-1.92268 -1.07482,-2.98658 -4.00218,-0.19124 -8.30914,-0.81158 -11.89349,-1.10125 -2.83838,-0.52928 -5.33977,-0.96526 -7.83208,-1.82367 l -0.0431,0.0725"
       id="path3441"
       inkscape:connector-curvature="0"
       sodipodi:nodetypes="ccscccccccc" />
    <path
       style="fill:#aa0000;fill-opacity:1;stroke:#000000;stroke-width:0.19734375px;stroke-linecap:butt;stroke-linejoin:miter;stroke-opacity:1"
       d="m 102.89263,846.01489 -0.0529,1.90296 0.0529,-1.79724 c -1.16663,-0.44397 -2.12216,-1.08396 -3.065875,-1.86772 -0.37995,0.25798 -0.714278,0.58158 -0.991382,0.94781 -1.355977,2.26012 -2.181174,4.62835 -2.973112,6.9107 -2.220147,5.35955 -2.37668,10.41957 -3.24537,15.92789 -0.20443,0.79258 -0.159609,1.61746 -0.161975,2.36725 -0.0035,0.97186 -0.03295,1.94361 -0.02492,2.91545 0.179618,4.68798 0.190788,8.79928 -0.03738,12.93265 3.043281,-0.0386 6.078113,0.0921 9.008014,-0.0124 -1.462437,-8.25143 -1.657806,-15.76403 -0.93444,-23.66003 0.0922,-1.00812 0.17977,-2.01686 0.23672,-3.02759 0.0418,-0.7427 0.0671,-1.48635 0.0748,-2.23019 0.26398,-2.14492 1.03995,-8.28086 2.0433,-9.45654 l 0.0717,-1.85295"
       id="path3445"
       inkscape:connector-curvature="0"
       sodipodi:nodetypes="ccccccccccccsccc" />
    <path
       style="fill:#aa0000;fill-opacity:1;stroke:#000000;stroke-width:0.19734375px;stroke-linecap:butt;stroke-linejoin:miter;stroke-opacity:1"
       d="m 92.391124,886.27654 c 0.391025,-3.06525 0.201928,-5.77995 0.105721,-8.65141 -0.02259,-1.75679 -0.05469,-3.42487 -0.07048,-5.05693 -0.0084,-0.9281 0.0034,-1.85637 0.03524,-2.78396 -2.311592,5.56242 -4.135236,10.60512 -5.726494,15.62892 l -0.0881,0.881 c 2.010631,-0.0932 3.888728,-0.0257 5.744112,-0.0176"
       id="path3449"
       inkscape:connector-curvature="0"
       sodipodi:nodetypes="ccccccc" />
    <path
       style="fill:#483737;fill-opacity:1;stroke:#000000;stroke-width:0.19734375px;stroke-linecap:butt;stroke-linejoin:miter;stroke-opacity:1"
       d="m 101.40063,886.22973 0.72629,0.0138 -0.8091,-0.43519 0.0828,0.42134 1e-5,5e-5"
       id="path3453"
       inkscape:path-effect="#path-effect3455"
       inkscape:original-d="m 101.40063,886.22973 0.72629,0.0138 c -0.14307,-0.26111 -0.54153,-0.32128 -0.8091,-0.43519 -0.0477,0.20442 0.005,0.29233 0.0828,0.42134 z"
       inkscape:connector-curvature="0"
       sodipodi:nodetypes="cccc" />
    <path
       style="fill:#ffff00;fill-opacity:1;stroke:#000000;stroke-width:0.19734375px;stroke-linecap:butt;stroke-linejoin:miter;stroke-opacity:1"
       d="m 101.13944,884.3031 c 0.0558,-0.32789 0.1994,-0.49012 0.42288,-0.71361 1.44949,-0.5682 1.30296,1.28231 1.11006,2.10559 -1.19972,1.0425 -1.61078,-0.35403 -1.53294,-1.39198"
       id="path3461"
       inkscape:connector-curvature="0"
       sodipodi:nodetypes="cccc" />
    <path
       style="fill:#ffff00;fill-opacity:1;stroke:#000000;stroke-width:0.19734375px;stroke-linecap:butt;stroke-linejoin:miter;stroke-opacity:1"
       d="m 100.70775,880.99055 c 0.30921,-0.95248 1.0062,-0.58889 1.33031,-0.23787 0.19667,0.50634 0.18334,1.02079 0.14096,1.55056 -0.27469,0.59718 -0.47805,0.70914 -0.98672,0.59907 -0.76647,-0.38841 -0.53815,-1.7033 -0.52859,-1.87652 l 0.044,-0.0352"
       id="path3465"
       inkscape:connector-curvature="0"
       sodipodi:nodetypes="cccccc" />
    <path
       style="fill:#aa0000;fill-opacity:1;stroke:#000000;stroke-width:0.19734375px;stroke-linecap:butt;stroke-linejoin:miter;stroke-opacity:1"
       d="m 104.07317,886.25892 c 1.20661,-0.0281 2.44244,-0.0195 3.55924,0.0176 -0.2728,-0.79948 -0.80426,-1.52317 -1.07482,-2.24654 -0.76932,-1.80098 -1.3216,-3.86135 -1.77962,-5.64721 -0.54606,-2.16079 -0.9252,-4.29138 -1.14714,-6.40639 -0.3171,-2.27831 -0.32816,-4.51012 -0.3987,-6.70305 -0.17161,-3.19289 0.54838,-6.53939 -0.0365,-9.80503 0.18242,-1.4068 -0.0974,-2.35717 0.0333,-3.17272 0.13072,-0.81555 0.67197,-1.35533 0.45258,-2.50477 0.10827,-0.37369 0.12815,-0.67699 0.23584,-1.05085 l -0.62296,-0.41115 -0.29902,0.68525 c -1.13348,4.99156 -1.35624,10.82761 -1.32068,15.4868 0.01,1.03024 0.0365,3.68133 0.0748,4.71092 0.18125,2.06051 0.25016,3.34801 0.49837,5.50562 0.13922,1.19898 0.31962,2.39273 0.48591,3.58825 0.31915,2.7402 0.85772,5.44105 1.3394,7.95326"
       id="path3469"
       inkscape:connector-curvature="0"
       sodipodi:nodetypes="cccccccsccccccccc" />
    <path
       style="fill:#483737;fill-opacity:1;stroke:#000000;stroke-width:0.19734375px;stroke-linecap:butt;stroke-linejoin:miter;stroke-opacity:1"
       d="m 110.24897,886.23249 -1.39198,0.0176 c -0.2493,-0.57034 -0.8218,-0.41861 -1.20696,-0.11454 l -0.24668,-0.43169 c 1.44282,-0.62089 0.30106,-1.9673 0.13269,-2.25927 -0.5474,-0.31547 -0.98348,0.21321 -0.96964,0.48847 -0.91777,-2.37508 -1.62041,-4.78856 -2.12321,-7.06561 -0.56713,-2.54668 -0.87204,-4.9964 -1.0572,-7.40039 -0.12647,-2.20596 -0.18798,-4.37575 -0.24668,-6.48415 -0.1609,-3.0282 0.16021,-5.97781 -0.0264,-8.9069 0.12154,-1.79234 0.291,-3.70734 0.81933,-5.25956 l 1.31268,0.82814 c -0.0495,0.49808 -0.0848,0.99759 -0.10571,1.49769 -0.15187,3.66972 0.25627,7.03441 0.21144,10.25483 -0.23421,3.88698 -0.38068,7.03147 0.25549,10.58961 0.0898,0.50187 0.18036,1.00362 0.2643,1.50651 0.0397,0.23762 0.0778,0.4755 0.11453,0.71361 0.68859,3.91952 2.13514,7.26469 3.40065,10.72175 l 0.85457,1.21578 0.009,0.0881"
       id="path3473"
       inkscape:connector-curvature="0"
       sodipodi:nodetypes="cccccccccccccccscccc" />
    <path
       style="fill:#ffff00;fill-opacity:1;stroke:#000000;stroke-width:0.19734375px;stroke-linecap:butt;stroke-linejoin:miter;stroke-opacity:1"
       d="m 106.6545,884.28548 -0.009,-0.5286 c 0.5017,-1.43886 2.39553,1.32598 0.89862,1.87653 -0.40595,-0.13638 -0.62393,-0.61471 -0.7929,-0.91624 l -0.0969,-0.43169"
       id="path3477"
       inkscape:connector-curvature="0"
       sodipodi:nodetypes="ccccc" />
    <path
       style="fill:#ffff00;fill-opacity:1;stroke:#000000;stroke-width:0.19734375px;stroke-linecap:butt;stroke-linejoin:miter;stroke-opacity:1"
       d="m 107.72931,886.27654 c -0.0342,-0.46485 0.88846,-0.58266 1.16292,-0.0264 l -1.16292,0.0264"
       id="path3481"
       inkscape:connector-curvature="0"
       sodipodi:nodetypes="ccc" />
    <path
       style="fill:#aa0000;fill-opacity:1;stroke:#000000;stroke-width:0.19734375px;stroke-linecap:butt;stroke-linejoin:miter;stroke-opacity:1"
       d="m 105.23609,849.66223 1.39198,0.2643 c 0.70075,0.18565 1.31458,0.34626 1.95581,0.51097 -0.28517,0.8147 -0.48404,1.63877 -0.68717,2.41394 -0.58655,2.12743 -0.97579,4.26364 -1.21578,6.39605 -0.42623,2.86617 -0.44732,5.75327 -0.54622,8.56331 -0.0196,1.13511 -0.0411,2.25349 -0.14977,3.30375 0.0116,0.65483 0.009,1.30992 -0.009,1.96463 -0.005,0.17917 -0.0107,0.35831 -0.0176,0.53741 -0.60984,-2.24274 -0.76709,-4.23423 -0.85456,-6.51939 0.1259,-2.67824 0.29216,-4.96688 0.19381,-7.44445 0.0326,-3.44572 -0.4602,-6.82485 -0.0617,-9.99052"
       id="path3485"
       inkscape:connector-curvature="0"
       sodipodi:nodetypes="cccccccccccc" />
    <path
       style="fill:#483737;fill-opacity:1;stroke:#000000;stroke-width:0.19734375px;stroke-linecap:butt;stroke-linejoin:miter;stroke-opacity:1"
       d="m 108.47816,850.41988 c 1.44544,0.28003 3.05272,0.42462 4.33452,0.66957 -0.15664,1.09609 -0.26676,2.18107 -0.37883,3.21564 -0.64526,3.55634 -0.67716,6.92226 -1.57699,9.77909 -0.9415,7.85289 -1.26777,14.52743 -0.40524,21.51399 0.029,0.23654 0.05,0.44407 0.0705,0.66075 l -0.29073,-0.009 c -0.20942,-0.46727 -0.55491,-0.87349 -0.84576,-1.29507 -0.49768,-1.5081 -1.20844,-3.08985 -1.71795,-4.43142 -0.80062,-1.97209 -1.17368,-4.17973 -1.66509,-6.31677 -0.10054,-0.46281 -0.0973,-0.87034 0,-1.3215 -0.0202,-0.7049 -0.0285,-1.34112 0,-1.99105 0.16211,-2.33663 0.21832,-4.87566 0.2731,-7.10085 0.044,-1.63392 0.26824,-3.28365 0.44931,-4.83669 0.26171,-2.17151 0.72151,-4.48684 1.27745,-6.4401 0.18541,-0.64645 0.36164,-1.29554 0.5286,-1.94701 l -0.0529,-0.14978"
       id="path3489"
       inkscape:connector-curvature="0"
       sodipodi:nodetypes="ccccccccccccccccc" />
    <path
       style="fill:#aa0000;fill-opacity:1;stroke:#000000;stroke-width:0.19734375px;stroke-linecap:butt;stroke-linejoin:miter;stroke-opacity:1"
       d="m 112.81326,851.09477 c 0.84763,0.0961 1.6535,0.1823 2.44201,0.26164 l -0.23673,1.13379 c -0.0618,2.74502 -0.45566,5.60576 -1.37515,9.27966 -0.13965,2.23953 -0.92226,5.34546 -1.19144,7.41567 -0.0218,0.49002 -0.0425,0.98008 -0.0623,1.47019 -0.11531,5.74789 -0.11949,10.33528 -0.36131,15.61138 l -1.53248,0.0249 c -0.0374,-0.32809 -0.0747,-0.65619 -0.11213,-0.98428 -0.37715,-3.60797 -0.42017,-7.59505 -0.38624,-10.81459 -0.0465,-3.54157 0.28254,-7.27907 0.92199,-10.64016 0.51371,-2.61167 0.86678,-5.4597 1.17117,-7.93651 0.44113,-1.62417 0.52116,-3.28263 0.72261,-4.82171"
       id="path3493"
       inkscape:connector-curvature="0"
       sodipodi:nodetypes="ccccccccccccc" />
    <path
       style="fill:#483737;fill-opacity:1;stroke:#000000;stroke-width:0.19734375px;stroke-linecap:butt;stroke-linejoin:miter;stroke-opacity:1"
       d="m 115.26186,851.37136 c 1.66467,0.14786 3.20767,0.31506 4.73977,0.45812 -0.0923,0.84281 -0.21725,1.70677 -0.31716,2.48442 -0.0572,0.44659 -0.10927,0.89389 -0.1762,1.33912 -0.43954,3.48963 -1.47861,6.88031 -1.85891,10.29887 -0.0643,0.57376 -0.14188,1.14594 -0.22025,1.71795 -0.54582,4.13722 -0.66142,7.95459 -0.78409,11.84063 -0.0163,0.51396 -0.034,1.02788 -0.0529,1.54175 -0.2429,1.86056 -0.53221,3.4912 -0.68717,5.18908 -1.37728,0.008 -2.63756,0.0103 -3.91164,0.009 0.079,-6.59288 -0.0733,-13.67379 0.84577,-19.56699 0.50805,-3.09128 0.99034,-6.45855 1.54175,-9.25048 0.0932,-0.73097 0.1842,-1.4622 0.27311,-2.19369 0.13827,-1.14155 0.27021,-2.19636 0.47574,-3.24208 0.0413,-0.20907 0.0854,-0.4176 0.13214,-0.62552"
       id="path3497"
       inkscape:connector-curvature="0"
       sodipodi:nodetypes="ccccccccccccccc" />
    <path
       style="fill:#aa0000;fill-opacity:1;stroke:#000000;stroke-width:0.19734375px;stroke-linecap:butt;stroke-linejoin:miter;stroke-opacity:1"
       d="m 122.16889,851.98807 c -0.32611,6.28211 -2.51484,13.00776 -3.59448,18.34239 -0.44201,2.5223 -0.91426,4.98857 -1.33912,7.40039 -0.20637,1.17682 -0.38752,2.22171 -0.6167,3.29494 -0.0363,-1.04738 0.0296,-2.09479 0.0705,-3.06588 -0.0931,-5.0416 0.41719,-9.63046 1.19816,-14.1136 0.19433,-0.67957 0.35899,-1.36762 0.49336,-2.06154 0.66871,-3.01107 1.07889,-6.05396 1.55056,-9.02143 l 0.0352,-0.91624"
       id="path3501"
       inkscape:connector-curvature="0"
       sodipodi:nodetypes="ccccccccc" />
    <path
       style="fill:#483737;fill-opacity:1;stroke:#000000;stroke-width:0.19734375px;stroke-linecap:butt;stroke-linejoin:miter;stroke-opacity:1"
       d="m 122.22175,851.98806 c 0.48203,7.9e-4 0.96404,0.0184 1.44483,0.0529 1.01338,2.66524 1.8498,5.1819 2.7311,7.57659 -0.0602,0.24046 -0.11889,0.48127 -0.1762,0.72242 -1.58689,7.52135 -3.01459,15.6575 -4.24641,22.44785 -0.20828,1.21111 -0.39677,2.35165 -0.56384,3.47995 -0.44637,-0.003 -0.89274,-0.006 -1.33912,-0.009 -1.38609,-0.008 -2.77221,-0.0105 -4.15831,-0.009 0.0737,-0.61961 0.14711,-1.23924 0.22024,-1.85891 0.4752,-3.95518 1.40059,-8.13972 2.07916,-11.82301 0.74887,-4.20147 1.67465,-8.82244 2.8192,-12.62471 0.4639,-2.331 0.80461,-4.55268 1.02196,-6.83655 0.0353,-0.37269 0.0676,-0.74566 0.0969,-1.11887 0.0235,-5e-5 0.047,-5e-5 0.0705,-2e-5"
       id="path3505"
       inkscape:connector-curvature="0"
       sodipodi:nodetypes="ccccccsccccccc" />
    <path
       style="fill:#483737;fill-opacity:1;stroke:#000000;stroke-width:0.19734375px;stroke-linecap:butt;stroke-linejoin:miter;stroke-opacity:1"
       d="m 125.8867,886.22368 c 0.30815,-2.71252 0.60769,-5.42601 0.89862,-8.14043 0.38643,-3.60546 0.87354,-7.20016 1.53294,-10.76581 l 0.47574,-2.57251 4.33451,7.34753 -0.14096,1.42722 c -0.41943,4.24671 -0.86711,8.49117 -1.42722,12.72162 l -5.67363,-0.0176"
       id="path3509"
       inkscape:path-effect="#path-effect3511"
       inkscape:original-d="m 125.8867,886.22368 c 0.26406,-2.74142 0.65367,-5.72311 0.89862,-8.14043 0.38705,-3.63387 0.9449,-7.44624 1.53294,-10.76581 l 0.47574,-2.57251 c 1.29593,2.5663 2.91979,5.11636 4.33451,7.34753 l -0.14096,1.42722 c -0.37077,4.30954 -0.92842,8.79403 -1.42722,12.72162 z"
       inkscape:connector-curvature="0"
       sodipodi:nodetypes="cccccccc" />
    <path
       style="fill:#aa0000;fill-opacity:1;stroke:#000000;stroke-width:0.19734375px;stroke-linecap:butt;stroke-linejoin:miter;stroke-opacity:1"
       d="m 131.53945,886.22973 c 0.1819,-1.28643 0.35633,-2.57391 0.52329,-3.86236 0.46693,-3.47274 0.76219,-6.78318 1.04657,-10.12933 0.10725,-0.1998 0.40553,0.43643 0.51083,0.58558 2.98697,4.36754 7.31326,8.20816 11.05131,10.91427 1.19871,1.0094 2.53735,1.66047 3.88728,2.54167 -6.05008,-0.11522 -11.57349,0.11574 -17.01928,-0.0498"
       id="path3513"
       inkscape:connector-curvature="0"
       sodipodi:nodetypes="ccccccc" />
    <path
       style="fill:#000000;stroke:#000000;stroke-width:0.19734375px;stroke-linecap:butt;stroke-linejoin:miter;stroke-opacity:1"
       d="m 148.45789,886.29416 c 6.26269,-0.16613 12.61171,0.0362 18.4657,-0.0146 0.95531,-0.01 1.91055,-0.0263 2.86562,-0.0498 l -4.3981,-0.72263 c -3.98047,-1.01848 -6.51534,-2.21614 -9.89261,-4.11154 -2.29169,-1.52318 -4.20794,-2.90511 -6.08009,-4.54761 -1.71789,-1.58591 -3.19162,-3.03795 -4.64105,-4.69089 -1.08152,-1.29022 -2.03405,-2.48219 -2.94661,-3.71285 -3.42192,-4.91162 -5.82013,-9.35505 -7.89172,-14.46509 -0.28863,-0.71168 -0.57991,-1.42286 -0.82814,-2.14963 -2.3513,-6.49258 -3.76265,-13.98681 -4.13188,-20.55371 0.3149,-7.14178 0.41381,-14.20496 2.36989,-20.54489 1.70864,-5.84235 5.09429,-11.58392 8.97738,-15.91084 3.70432,-3.7273 8.75712,-6.31688 12.94188,-7.5854 10.39705,-1.81605 19.12698,1.4635 26.7999,7.81861 1.71299,1.47786 3.11521,2.8536 4.54139,4.31712 0.11569,0.11902 0.22991,0.23947 0.34262,0.36131 -4.19366,-4.86077 -9.60496,-10.55712 -14.57727,-13.53692 -4.23085,-2.41193 -8.65963,-3.83185 -13.65529,-4.62237 -7.12618,-0.71337 -11.65846,0.16912 -16.2468,2.6725 -10.51724,5.36368 -15.31338,15.08603 -17.98666,24.30992 -1.30147,4.17528 -1.67523,7.85896 -2.14119,11.85916 -0.3967,2.91822 -0.42469,5.83165 -0.41116,8.69652 0.1197,4.82074 0.61942,9.37942 1.39542,13.70513 1.01662,5.7896 3.21433,11.87585 5.03353,16.67665 1.10551,2.94306 2.63926,5.67678 4.09284,8.37881 1.50201,2.57671 3.17744,4.95298 4.95877,7.25126 3.30139,4.75621 8.64242,8.18559 13.04363,11.08371 l 0,0.0881"
       id="path4289"
       inkscape:connector-curvature="0"
       sodipodi:nodetypes="ccccccccccccccccccccccccccccc" />
    <path
       style="fill:#000000;stroke:#000000;stroke-width:0.19734375px;stroke-linecap:butt;stroke-linejoin:miter;stroke-opacity:1"
       d="m 173.74256,886.27654 c 4.69558,0.0388 9.78595,-0.0227 14.1136,0.0176 6.96207,-8.72559 11.5531,-18.4206 12.53662,-28.8439 -1.64058,5.18883 -2.8061,9.78588 -5.16187,13.84088 -1.5839,2.71347 -3.56493,5.23861 -5.6191,7.31978 -2.60782,2.36748 -4.31371,3.9176 -7.1828,5.16935 -2.93208,1.55165 -6.91257,2.3393 -9.89254,2.44946 0.40169,0.0232 0.80381,0.0388 1.20609,0.0468"
       id="path4293"
       inkscape:connector-curvature="0"
       sodipodi:nodetypes="cccccccc" />
    <path
       style="fill:#ffffff;stroke:#000000;stroke-width:0.19734375px;stroke-linecap:butt;stroke-linejoin:miter;stroke-opacity:1"
       d="m 194.24663,863.09298 c 1.34381,-0.42603 2.71903,-0.74184 3.97449,-1.10887 0.81954,-0.19071 1.2503,-0.43852 0.48591,-0.98427 -0.0281,-0.0491 -0.0558,-0.0985 -0.0831,-0.14818 -1.33128,-2.4276 -1.60909,-5.52695 -2.23435,-7.92539 -1.77365,-5.95147 -3.8083,-10.99595 -6.27944,-16.2468 -2.00812,-4.02784 -3.89928,-8.09144 -6.10501,-11.89855 -2.58922,-4.46625 -5.40628,-9.04159 -7.96144,-13.09462 -1.95059,-3.1736 -4.43239,-6.42596 -6.69059,-9.12014 -0.95038,-1.06878 -1.90671,-2.12304 -2.79086,-3.1148 -0.57537,-0.64505 -1.15683,-1.28466 -1.74429,-1.91872 1.75612,12.10038 1.13723,25.22903 -0.12458,36.53039 -0.0816,0.71733 -0.14546,1.43654 -0.21181,2.15544 -0.26285,2.44257 -0.63099,4.6282 -1.02165,6.82765 -1.37662,8.74623 -3.89514,16.01258 -6.24206,23.2115 -0.0758,0.15111 -0.15477,0.30066 -0.23673,0.44853 -0.47681,0.94771 -1.18035,1.58589 -1.96855,2.2302 -0.52817,0.50789 -1.06114,0.65035 -1.5574,1.05903 l 0.0374,0.18689 c 0.59439,-0.0483 1.18831,-0.10233 1.78167,-0.16197 2.8193,-0.38096 5.59047,-0.62786 8.11094,-1.07149 l 0.0498,-0.12459 c -0.63701,-0.59214 -1.05427,-1.37398 -1.10887,-2.14299 0.10631,-1.61255 0.79682,-3.21095 1.221,-4.59744 2.75079,-7.69267 3.8752,-16.54262 4.98369,-24.07119 0.16434,-1.12239 0.2949,-2.24942 0.42361,-3.37645 0.69059,-5.27412 0.89753,-10.49552 1.12133,-15.68613 0.0738,-2.27691 0.0562,-4.66092 0.16197,-6.79027 2.07271,3.07413 4.05445,6.19272 5.80599,9.16997 1.88658,3.25734 3.72611,6.05165 5.32008,9.09522 1.81468,3.56566 3.4192,6.64918 4.93384,9.86769 0.92855,2.11623 1.85975,4.1396 2.74103,6.15485 1.19138,2.80852 2.44563,5.52352 3.31415,8.29783 0.55092,2.98062 1.9246,6.31826 0.32394,8.1857 -0.44944,1.07052 0.91607,0.36314 1.56984,0.16197 z"
       id="path4301"
       inkscape:connector-curvature="0"
       sodipodi:nodetypes="cccsccccccccccccccccccccccccccccccc" />
    <path
       style="fill:#aa0000;fill-opacity:1;stroke:#000000;stroke-width:0.19734375px;stroke-linecap:butt;stroke-linejoin:miter;stroke-opacity:1"
       d="m 121.43504,886.25464 4.39809,-0.0249 c 0.15413,-1.2329 0.30364,-2.46637 0.44854,-3.70039 0.29736,-2.5326 0.57528,-5.06745 0.87214,-7.60011 0.30439,-2.59688 0.69843,-5.18277 1.19608,-7.74963 l 0.47345,-2.442 -2.42954,-5.12074 c -0.24627,0.9967 -0.47474,1.99781 -0.68526,3.00267 -0.67827,3.23756 -1.16993,6.51265 -1.88134,9.7431 -0.69663,4.79192 -1.68339,8.60437 -2.29249,13.01987 -0.0394,0.28996 -0.0726,0.58077 -0.0997,0.87214"
       id="path4309"
       inkscape:connector-curvature="0"
       sodipodi:nodetypes="ccsssccsccc" />
    <path
       style="fill:#ffe680;fill-opacity:1;stroke:#000000;stroke-width:0.19734375px;stroke-linecap:butt;stroke-linejoin:miter;stroke-opacity:1"
       d="m 119.31697,786.73051 0.76001,-0.42361 0.0623,0.95936 c 0.72011,1.49129 2.14378,1.96791 3.53841,2.84069 l 1.42035,0.41116 -0.47345,0.5482 c -1.32681,-0.39088 -2.30886,-0.70112 -3.53841,-1.33313 -1.32886,-0.8283 -1.62924,-1.57185 -1.76921,-3.00267"
       id="path4320"
       inkscape:connector-curvature="0"
       sodipodi:nodetypes="cccccccc" />
    <path
       style="fill:#cccccc;fill-opacity:1;stroke:#000000;stroke-width:0.19734375px;stroke-linecap:butt;stroke-linejoin:miter;stroke-opacity:1"
       d="m 103.14812,832.63252 c -0.16177,0.23769 -0.32329,0.47556 -0.48455,0.71361 -1.22387,1.97855 -1.40984,4.08061 -0.29954,5.78816 l 0,0.1762 c 6.55065,4.32999 12.41965,4.79393 19.21458,4.89835 -0.37524,-2.45619 -0.89911,-5.15247 -1.17173,-7.34753 -0.55692,-3.88894 -0.41829,-6.37353 -0.45812,-10.29007 -0.14728,0.0271 -0.29413,0.0564 -0.4405,0.0881 -2.19289,0.55821 -7.21004,2.30143 -12.19302,1.07482 -0.88184,3.17954 -0.43661,3.55188 -4.16712,4.89836"
       id="path3425"
       inkscape:connector-curvature="0"
       sodipodi:nodetypes="cccccccccc" />
    <path
       style="fill:none;stroke:#000000;stroke-width:0.19734375px;stroke-linecap:butt;stroke-linejoin:miter;stroke-opacity:1"
       d="m 132.91707,848.69313 0.98672,3.13635"
       id="path4043"
       inkscape:path-effect="#path-effect4045"
       inkscape:original-d="m 132.91707,848.69313 0.98672,3.13635"
       inkscape:connector-curvature="0" />
    <path
       style="fill:#aa0000;fill-opacity:1;stroke:#000000;stroke-width:0.19734375px;stroke-linecap:butt;stroke-linejoin:miter;stroke-opacity:1"
       d="m 79.513515,800.83226 c 2.214488,-1.1018 4.405061,-2.25166 6.569658,-3.44851 3.837335,-2.12173 7.729988,-4.14571 11.770146,-5.84983 4.235501,-1.78651 8.441561,-3.64282 12.615901,-5.56791 0.0764,-0.0352 0.15272,-0.0705 0.22906,-0.10572 l -0.24668,1.25102 c -0.19627,0.39566 -0.40792,0.78369 -0.63432,1.16291 -0.51967,0.87045 -1.06557,1.72575 -1.53293,2.62538 l -1.26461,2.43429 c -0.89265,2.21472 -1.75659,4.44101 -2.59152,6.67813 -0.37121,0.99462 -0.73669,1.99138 -1.09641,2.99021 l -0.49837,2.39217 c -0.47481,1.02818 -0.90722,2.07594 -1.29576,3.13972 -0.10275,0.28131 -0.20243,0.56374 -0.29902,0.84722 -0.52897,0.11305 -1.06079,0.21277 -1.594776,0.29903 -3.776992,0.61014 -7.741452,0.52474 -11.312958,-0.84723 -3.79079,-1.4562 -7.000836,-4.36898 -8.817411,-8.00088"
       id="path3255"
       inkscape:path-effect="#path-effect3257"
       inkscape:original-d="m 79.513515,800.83226 c 0,0 1.495104,-0.41787 6.569658,-3.44851 5.074555,-3.03064 11.770146,-5.84983 11.770146,-5.84983 l 12.615901,-5.56791 0.22906,-0.10572 -0.24668,1.25102 c 0,0 -0.1762,0.38763 -0.63432,1.16291 -0.45812,0.77528 -1.53293,2.62538 -1.53293,2.62538 l -1.26461,2.43429 -2.59152,6.67813 -1.09641,2.99021 -0.49837,2.39217 -1.29576,3.13972 -0.29902,0.84722 c 0,0 -0.79739,0.0997 -1.594776,0.29903 -0.797389,0.19934 -6.727971,2.39216 -11.312958,-0.84723 -4.584988,-3.23939 -8.817411,-8.00088 -8.817411,-8.00088 z"
       inkscape:connector-curvature="0"
       sodipodi:nodetypes="csccccscccccccssc" />
    <path
       style="fill:#aa0000;fill-opacity:1;stroke:#000000;stroke-width:0.19734375px;stroke-linecap:butt;stroke-linejoin:miter;stroke-opacity:1"
       d="m 77.343665,803.1631 2.960156,-0.88099 c 2.045344,3.40582 5.846232,5.51515 8.845228,6.76607 2.179134,0.74256 4.384419,1.00579 6.625113,1.02196 2.090368,-0.0398 3.725817,-0.30311 5.567908,-0.77528 -0.16674,0.64555 -0.17187,1.22558 -0.0705,1.86772 -1.706803,1.20287 -3.605803,1.45589 -5.603158,1.86771 -2.741162,0.17997 -5.55024,-0.48203 -7.823271,-1.69152 -4.29603,-2.27158 -6.970146,-4.90113 -10.501506,-8.17567"
       id="path4027"
       inkscape:connector-curvature="0"
       sodipodi:nodetypes="ccccccccc" />
    <path
       style="fill:#999999;fill-opacity:1;stroke:#000000;stroke-width:0.19734375px;stroke-linecap:butt;stroke-linejoin:miter;stroke-opacity:1"
       d="m 146.85698,755.49226 c -1.261,0.16332 -2.62343,0.70785 -3.34423,0.93746 l -0.34886,-0.39869 c 0.51784,-1.40112 0.81062,-2.86936 1.16449,-4.31756 -1.41492,0.71248 -2.67578,1.4781 -3.90552,2.26179 0.10257,-2.09526 0.0922,-4.18432 -0.0124,-6.12993 -1.36462,1.30673 -2.60618,2.71739 -3.87481,3.98694 -0.63299,-2.49418 -1.1549,-4.58262 -2.09315,-6.79026 -0.75138,2.22212 -1.64761,4.00506 -2.31741,6.12993 -1.83414,-2.23371 -3.0247,-4.75701 -4.58499,-6.9024 l -0.14951,-0.0125 c 0.009,2.56102 0.18926,5.36894 0.0498,7.61258 -1.8563,-1.40491 -3.81665,-2.95589 -5.49451,-4.27351 -0.50605,-0.39658 -1.01693,-0.787 -1.53248,-1.17116 2.55203,-1.08011 4.79607,-1.83686 7.42914,-2.27118 2.28703,-0.22608 4.74971,0.15235 6.78369,0.72242 2.99623,0.89468 5.1152,1.90625 6.7837,3.55923 1.0769,1.10902 2.20573,2.17436 3.15397,3.31256 0.90499,1.17154 1.61809,2.43585 2.2931,3.74424"
       id="path3365"
       inkscape:connector-curvature="0"
       sodipodi:nodetypes="ccccccccccccccccccc" />
  </g>
</svg>
