<?xml version="1.0" encoding="UTF-8" standalone="no"?>
<!-- Created with Inkscape (http://www.inkscape.org/) -->

<svg
   xmlns:osb="http://www.openswatchbook.org/uri/2009/osb"
   xmlns:dc="http://purl.org/dc/elements/1.1/"
   xmlns:cc="http://creativecommons.org/ns#"
   xmlns:rdf="http://www.w3.org/1999/02/22-rdf-syntax-ns#"
   xmlns:svg="http://www.w3.org/2000/svg"
   xmlns="http://www.w3.org/2000/svg"
   xmlns:xlink="http://www.w3.org/1999/xlink"
   xmlns:sodipodi="http://sodipodi.sourceforge.net/DTD/sodipodi-0.dtd"
   xmlns:inkscape="http://www.inkscape.org/namespaces/inkscape"
   width="175"
   height="175"
   id="svg2"
   inkscape:label="Pozadí"
   version="1.1"
   inkscape:version="0.48.5 r10040"
   sodipodi:docname="teddy.svg">
  <defs
     id="defs6399">
    <linearGradient
       id="linearGradient8167"
       osb:paint="gradient">
      <stop
         style="stop-color:#df8900;stop-opacity:1;"
         offset="0"
         id="stop8169" />
      <stop
         style="stop-color:#df8900;stop-opacity:0;"
         offset="1"
         id="stop8171" />
    </linearGradient>
    <linearGradient
       id="linearGradient8159">
      <stop
         style="stop-color:#df8900;stop-opacity:1;"
         offset="0"
         id="stop8161" />
      <stop
         id="stop8179"
         offset="0.5"
         style="stop-color:#df8900;stop-opacity:0.49803922;" />
      <stop
         style="stop-color:#df8900;stop-opacity:0;"
         offset="1"
         id="stop8163" />
    </linearGradient>
    <linearGradient
       id="linearGradient7938"
       osb:paint="solid">
      <stop
         style="stop-color:#df8900;stop-opacity:1;"
         offset="0"
         id="stop7940" />
    </linearGradient>
    <linearGradient
       id="linearGradient7795"
       osb:paint="solid">
      <stop
         style="stop-color:#df8900;stop-opacity:1;"
         offset="0"
         id="stop7797" />
    </linearGradient>
    <inkscape:path-effect
       effect="spiro"
       id="path-effect7705"
       is_visible="true" />
    <inkscape:path-effect
       effect="spiro"
       id="path-effect7657"
       is_visible="true" />
    <inkscape:path-effect
       effect="spiro"
       id="path-effect7625"
       is_visible="true" />
    <inkscape:path-effect
       effect="spiro"
       id="path-effect7617"
       is_visible="true" />
    <inkscape:path-effect
       effect="skeletal"
       id="path-effect7587"
       is_visible="true"
       pattern="M 0,0 1,0"
       copytype="single_stretched"
       prop_scale="1"
       scale_y_rel="false"
       spacing="0"
       normal_offset="0"
       tang_offset="0"
       prop_units="false"
       vertical_pattern="false"
       fuse_tolerance="0" />
    <inkscape:path-effect
       effect="spiro"
       id="path-effect7585"
       is_visible="true" />
    <inkscape:path-effect
       effect="skeletal"
       id="path-effect7575"
       is_visible="true"
       pattern="m -67.285692,802.28993 1,0"
       copytype="single_stretched"
       prop_scale="1"
       scale_y_rel="false"
       spacing="0"
       normal_offset="0"
       tang_offset="0"
       prop_units="false"
       vertical_pattern="false"
       fuse_tolerance="0" />
    <inkscape:path-effect
       effect="spiro"
       id="path-effect7573"
       is_visible="true" />
    <inkscape:path-effect
       effect="skeletal"
       id="path-effect7563"
       is_visible="true"
       pattern="M 0,0 1,0"
       copytype="single_stretched"
       prop_scale="1"
       scale_y_rel="false"
       spacing="0"
       normal_offset="0"
       tang_offset="0"
       prop_units="false"
       vertical_pattern="false"
       fuse_tolerance="0" />
    <inkscape:path-effect
       effect="spiro"
       id="path-effect7561"
       is_visible="true" />
    <inkscape:path-effect
       effect="skeletal"
       id="path-effect7551"
       is_visible="true"
       pattern="M 0,5 C 0,2.24 2.24,0 5,0 7.76,0 10,2.24 10,5 10,7.76 7.76,10 5,10 2.24,10 0,7.76 0,5 z"
       copytype="single_stretched"
       prop_scale="1"
       scale_y_rel="false"
       spacing="0"
       normal_offset="0"
       tang_offset="0"
       prop_units="false"
       vertical_pattern="false"
       fuse_tolerance="0" />
    <inkscape:path-effect
       effect="spiro"
       id="path-effect7549"
       is_visible="true" />
    <linearGradient
       inkscape:collect="always"
       id="linearGradient6945">
      <stop
         style="stop-color:#000000;stop-opacity:1;"
         offset="0"
         id="stop6947" />
      <stop
         style="stop-color:#000000;stop-opacity:0;"
         offset="1"
         id="stop6949" />
    </linearGradient>
    <radialGradient
       inkscape:collect="always"
       xlink:href="#linearGradient6945"
       id="radialGradient6953"
       cx="106"
       cy="195.75771"
       fx="106"
       fy="195.75771"
       r="106.5"
       gradientTransform="matrix(1,0,0,0.18309859,-7.9768166e-6,989.51798)"
       gradientUnits="userSpaceOnUse" />
    <inkscape:path-effect
       effect="spiro"
       id="path-effect7625-2"
       is_visible="true" />
    <inkscape:path-effect
       effect="spiro"
       id="path-effect7657-9"
       is_visible="true" />
    <radialGradient
       inkscape:collect="always"
       xlink:href="#linearGradient6945"
       id="radialGradient3095"
       gradientUnits="userSpaceOnUse"
       gradientTransform="matrix(0.35377359,0,0,0.06477545,-4.0000028,1006.9588)"
       cx="106"
       cy="195.75771"
       fx="106"
       fy="195.75771"
       r="106.5" />
    <radialGradient
       inkscape:collect="always"
       xlink:href="#linearGradient6945"
       id="radialGradient3898"
       gradientUnits="userSpaceOnUse"
       gradientTransform="matrix(0.35377359,0,0,0.06477545,-4.0000028,1006.9588)"
       cx="106"
       cy="195.75771"
       fx="106"
       fy="195.75771"
       r="106.5" />
  </defs>
  <sodipodi:namedview
     id="base"
     pagecolor="#ffffff"
     bordercolor="#666666"
     borderopacity="1.0"
     inkscape:pageopacity="0.0"
     inkscape:pageshadow="2"
     inkscape:zoom="5.4741786"
     inkscape:cx="87.499999"
     inkscape:cy="80.192954"
     inkscape:document-units="px"
     inkscape:current-layer="layer1"
     showgrid="false"
     units="px"
     inkscape:snap-grids="true"
     inkscape:window-width="1680"
     inkscape:window-height="987"
     inkscape:window-x="-8"
     inkscape:window-y="-8"
     inkscape:window-maximized="1"
     fit-margin-top="0"
     fit-margin-left="0"
     fit-margin-right="0"
     fit-margin-bottom="0" />
  <metadata
     id="metadata6402">
    <rdf:RDF>
      <cc:Work
         rdf:about="">
        <dc:format>image/svg+xml</dc:format>
        <dc:type
           rdf:resource="http://purl.org/dc/dcmitype/StillImage" />
        <dc:title />
      </cc:Work>
    </rdf:RDF>
  </metadata>
  <g
     inkscape:label="Vrstva 1"
     inkscape:groupmode="layer"
     id="layer1"
     transform="translate(3.9999999,-844.00227)">
    <g
       id="g3865"
       transform="matrix(2.3333333,0,0,2.3333333,5.3333333,-1393.0094)">
      <rect
         y="1012.9174"
         x="-4"
         height="13.443397"
         width="75"
         id="rect6435"
         style="fill:url(#radialGradient3898);fill-opacity:1;stroke:none" />
      <g
         transform="matrix(0.35377359,0,0,0.35377359,-4,656.89351)"
         id="g3044">
        <g
           id="g3066">
          <path
             transform="matrix(1.0851518,0,0,1.0217818,-15.04139,828.45216)"
             d="m 149.55753,81.403732 c 0,20.160838 -17.13601,36.504428 -38.27434,36.504428 -21.138335,0 -38.27434,-16.34359 -38.27434,-36.504428 0,-20.160837 17.136005,-36.504425 38.27434,-36.504425 21.13833,0 38.27434,16.343588 38.27434,36.504425 z"
             sodipodi:ry="36.504425"
             sodipodi:rx="38.274338"
             sodipodi:cy="81.403732"
             sodipodi:cx="111.28319"
             id="path6999"
             style="fill:#df8e00;fill-opacity:1;stroke:#000000;stroke-width:0.69999999;stroke-linecap:butt;stroke-linejoin:round;stroke-miterlimit:4;stroke-opacity:1;stroke-dasharray:none;marker-start:none;marker-mid:none;marker-end:none"
             sodipodi:type="arc" />
          <path
             transform="translate(0,839.76245)"
             sodipodi:nodetypes="cscsssc"
             inkscape:connector-curvature="0"
             id="path7595"
             d="m 80.795144,41.581858 c -4.58918,1.632019 -4.714973,1.283645 -7.887414,2.308506 -2.065359,0.667217 -5.954629,2.207359 -9.123249,3.993531 0,0 -7.662186,3.646065 -9.359702,6.749922 -1.781988,3.258313 -1.997943,7.409208 -1.327434,11.061947 0.631288,3.439079 3.38874,5.636923 5.305853,8.561042 3.738365,5.702024 9.064557,12.407448 9.064557,12.407448"
             style="opacity:0.8;fill:#df8e00;fill-opacity:1;stroke:#000000;stroke-width:0.69999999;stroke-linecap:butt;stroke-linejoin:miter;stroke-miterlimit:4;stroke-opacity:1;stroke-dasharray:none" />
          <path
             sodipodi:nodetypes="cssssc"
             inkscape:connector-curvature="0"
             id="path7595-7"
             d="m 126.62759,879.40362 c 0,0 12.22017,2.32029 17.40506,4.89204 3.28233,1.62807 6.87384,3.60332 8.61413,6.82756 1.76692,3.27358 1.52036,7.43277 0.99523,11.11551 -0.47172,3.30814 -2.23717,6.30841 -3.64917,9.33703 -1.00659,2.15905 -2.74282,3.53968 -2.74282,3.53968"
             style="opacity:0.8;fill:#df8e00;fill-opacity:1;stroke:#000000;stroke-width:0.60757804;stroke-linecap:butt;stroke-linejoin:miter;stroke-miterlimit:4;stroke-opacity:1;stroke-dasharray:none" />
          <path
             sodipodi:nodetypes="csssssssasscsssssscssssssssccsssssssszsssc"
             inkscape:connector-curvature="0"
             inkscape:original-d="m 67.041895,86.065272 c 0,0 1.41097,3.435122 1.312927,5.191861 -0.07066,1.266074 -1.355949,2.400602 -1.098185,3.642171 0.510572,2.459269 -1.593186,7.378616 -0.872939,9.784836 17.376389,58.05171 -0.513716,6.96566 -0.183308,11.32102 0.212278,2.7982 -0.929479,5.32339 -1.909669,7.95288 -1.174784,3.15151 1.412407,3.58567 -1.030912,5.89702 -1.694135,1.60263 1.783219,2.25634 1.468753,4.5671 -0.310669,2.28287 0.715591,2.54464 0.916006,3.84774 0.201907,1.3128 0.635111,2.69337 0.284636,3.97454 -0.615347,2.24941 -1.544024,5.7139 -3.161451,7.39391 -1.534426,1.5938 -6.130585,2.3406 -6.130585,2.3406 0,0 -3.403732,4.44919 -1.128855,5.09396 2.412349,0.68374 -1.072619,1.70728 0.891217,3.26621 2.455985,1.94961 1.731595,2.38571 3.184907,5.16433 1.409236,2.69435 7.586825,3.09553 7.95834,6.11338 0.288338,2.3422 5.745951,1.98361 5.745951,4.34349 0,1.62242 2.112346,4.06285 3.009783,5.41449 1.68192,2.53311 6.683622,3.72358 6.683622,3.72358 0,0 15.923275,3.03478 19.230257,3.16375 4.72538,0.18421 9.4305,0.92612 14.15929,0.88495 3.69896,-0.0322 4.23348,0.44498 7.77855,-0.61133 1.77112,-0.52773 7.08431,-1.41909 8.15065,-2.92849 2.15465,-3.0499 3.18259,-7.85942 6.14779,-5.58962 20.08175,15.37223 4.19159,-5.30025 6.50895,-8.26167 2.00174,-2.55808 2.22312,-7.1737 4.51234,-9.47809 2.14294,-2.15715 4.51674,-4.03149 6.84668,-5.98518 1.16359,-0.97569 -0.12195,-7.4111 -0.12195,-7.4111 l 0,0 c 0,0 -3.87637,-1.42837 -5.60213,-2.81272 -1.06071,-0.85087 -2.72045,-2.46726 -2.80495,-3.82445 -0.13625,-2.1884 2.12844,-3.40805 2.2318,-5.59825 0.13905,-2.94658 2.82596,-3.49455 0.98749,-5.80143 -1.5654,-1.96423 -0.60775,-3.02624 -1.85746,-5.20498 -1.32297,-2.30647 -0.53509,-0.49316 -0.73956,-3.14425 -0.18463,-2.3939 99.86899,47.07412 -0.60114,-5.4512 -2.39948,-1.25444 -0.66829,-4.73802 0.81088,-7.00587 0.80576,-1.23538 -1.09038,-9.62083 -1.27449,-10.714377 -0.18411,-1.093543 -1.30581,-0.906388 -1.84741,-1.24688 -0.74655,-0.469339 -0.81882,-0.876971 -1.09597,-1.558067 -0.73118,-1.796896 -0.40014,-1.237209 -0.42758,-3.176977 -0.0336,-2.378009 0.51237,-8.174392 0.51237,-8.174392"
             inkscape:path-effect="#path-effect7617"
             id="path7615"
             d="m 67.041895,86.065272 c 1.101752,1.464822 1.585912,3.379392 1.312927,5.191861 -0.189127,1.2557 -0.717691,2.430653 -1.098185,3.642171 -0.985971,3.1394 -0.97012,6.495686 -0.872939,9.784836 0.111599,3.77715 0.317518,7.57556 -0.183308,11.32102 -0.361793,2.70569 -1.088597,5.34951 -1.909669,7.95288 -0.605143,1.91872 -1.271413,3.89956 -1.030912,5.89702 0.191662,1.59184 0.944828,3.05179 1.468753,4.5671 0.431386,1.24767 0.709668,2.54382 0.916006,3.84774 0.20796,1.31417 0.343994,2.64534 0.284636,3.97454 -0.122646,2.74639 -1.150457,5.51944 -3.161451,7.39391 -1.640431,1.52906 -3.888521,2.38736 -6.130585,2.3406 -0.90505,1.51998 -1.307033,3.33393 -1.128855,5.09396 0.114077,1.12684 0.457434,2.21997 0.891217,3.26621 0.77794,1.87632 1.854601,3.62939 3.184907,5.16433 2.201349,2.53997 5.045222,4.43674 7.95834,6.11338 2.09798,1.20749 4.32668,2.38257 5.745951,4.34349 1.213193,1.6762 1.725942,3.79177 3.009783,5.41449 0.804628,1.01702 1.881579,1.79484 3.038869,2.38001 1.15729,0.58518 2.398039,0.98656 3.644753,1.34357 6.254005,1.79091 12.757404,2.51406 19.230257,3.16375 4.70762,0.47251 9.42809,0.91038 14.15929,0.88495 2.60379,-0.014 5.21254,-0.16915 7.77855,-0.61133 2.86411,-0.49355 5.70289,-1.36159 8.15065,-2.92849 2.33893,-1.49723 4.23784,-3.57359 6.14779,-5.58962 2.42093,-2.55539 4.94491,-5.10815 6.50895,-8.26167 0.78165,-1.57601 1.3036,-3.26521 1.93642,-4.90665 0.63281,-1.64144 1.39613,-3.2665 2.57592,-4.57144 1.02169,-1.13007 2.31292,-1.97392 3.55406,-2.85737 1.24114,-0.88344 2.47083,-1.84501 3.29262,-3.12781 0.70613,-1.10226 1.07888,-2.41508 1.05735,-3.72395 -0.0215,-1.30887 -0.43728,-2.60872 -1.1793,-3.68715 l 0,0 c -1.99901,-0.63721 -3.89702,-1.59016 -5.60213,-2.81272 -0.66182,-0.47453 -1.2998,-0.99437 -1.8122,-1.62733 -0.51239,-0.63297 -0.89596,-1.38853 -0.99275,-2.19712 -0.12167,-1.01642 0.21428,-2.03714 0.68358,-2.9469 0.46931,-0.90976 1.07313,-1.7446 1.54822,-2.65135 0.92722,-1.76968 1.34247,-3.83534 0.98749,-5.80143 -0.32787,-1.81594 -1.27715,-3.4533 -1.85746,-5.20498 -0.3389,-1.02297 -0.55115,-2.0832 -0.73956,-3.14425 -0.31996,-1.80191 -0.57404,-3.62131 -0.60114,-5.4512 -0.0349,-2.35588 0.30715,-4.70421 0.81088,-7.00587 0.40777,-1.86319 0.92488,-3.72846 0.90535,-5.63565 -0.01,-0.9536 -0.1571,-1.91254 -0.50898,-2.79889 -0.35187,-0.88636 -0.91477,-1.698661 -1.67086,-2.279837 -0.5896,-0.453201 -1.285,-0.760347 -1.84741,-1.24688 -0.48476,-0.419357 -0.85645,-0.963524 -1.09597,-1.558067 -0.4019,-0.99761 -0.4302,-2.101457 -0.42758,-3.176977 0.007,-2.731784 0.17787,-5.463157 0.51237,-8.174392"
             style="fill:#df8e00;fill-opacity:1;stroke:#000000;stroke-width:0.69999999;stroke-linecap:butt;stroke-linejoin:miter;stroke-miterlimit:4;stroke-opacity:1;stroke-dasharray:none"
             transform="translate(0,839.76245)" />
          <path
             transform="translate(0,839.76245)"
             sodipodi:nodetypes="cssssssssssssc"
             inkscape:connector-curvature="0"
             inkscape:original-d="m 67.702962,94.689759 c 0,0 -2.939249,2.686813 -4.451914,2.864412 -2.729165,0.320425 -5.341683,-1.32192 -7.941313,-2.212389 -3.31668,-1.136085 -6.393165,-2.920962 -9.734514,-3.982301 -1.875459,-0.595717 -3.795835,-1.539127 -5.752212,-1.327433 -3.082859,0.333587 -6.136866,1.870091 -8.40708,3.9823 -2.852879,2.654322 -4.671526,6.433132 -5.752212,10.176992 -0.859969,2.97922 -0.246808,6.44989 0.580914,9.43823 0.709766,2.56248 1.521217,4.6108 3.401387,6.49097 1.880169,1.88017 2.727503,2.67802 4.882782,3.69379 2.276598,1.07294 4.976698,1.24421 6.706597,1.92332 1.621933,0.63673 3.583022,1.05962 5.836745,1.75882 3.348415,1.03883 9.059566,2.61081 12.219893,4.1285 1.821151,0.87457 5.444289,3.96677 5.444289,3.96677"
             inkscape:path-effect="#path-effect7625"
             id="path7623"
             d="m 67.702962,94.689759 c -0.985196,1.529511 -2.651635,2.601716 -4.451914,2.864412 -1.381609,0.201604 -2.797097,-0.05542 -4.117639,-0.508916 -1.320542,-0.453492 -2.564978,-1.099179 -3.823674,-1.703473 -3.16182,-1.517976 -6.437958,-2.784771 -9.734514,-3.982301 -1.859783,-0.675598 -3.773547,-1.337907 -5.752212,-1.327433 -1.58886,0.0084 -3.158186,0.457517 -4.574728,1.177209 -1.416542,0.719692 -2.686516,1.70436 -3.832352,2.805091 -2.854421,2.742059 -4.987982,6.293362 -5.752212,10.176992 -0.614646,3.12347 -0.335997,6.38976 0.580914,9.43823 0.708614,2.35594 1.807472,4.61693 3.401387,6.49097 1.333102,1.56739 3.006509,2.84912 4.882782,3.69379 2.123941,0.95617 4.451675,1.33962 6.706597,1.92332 1.967359,0.50926 3.890267,1.17481 5.836745,1.75882 4.125985,1.23794 8.405198,2.12741 12.219893,4.1285 1.995539,1.04681 3.836326,2.38802 5.444289,3.96677"
             style="fill:#df8e00;fill-opacity:1;stroke:#000000;stroke-width:0.69999999;stroke-linecap:butt;stroke-linejoin:miter;stroke-miterlimit:4;stroke-opacity:1;stroke-dasharray:none" />
          <path
             sodipodi:nodetypes="csssssssssssc"
             inkscape:connector-curvature="0"
             inkscape:original-d="m 147.12778,938.86529 c 0,0 4.72532,1.23219 6.63329,0.4426 1.34914,-0.55832 3.49387,-3.15982 4.70554,-3.97454 2.52327,-1.69664 3.79213,-2.20997 6.79888,-2.66263 2.93153,-0.44134 5.77332,0.15809 8.55716,1.17736 2.6892,0.98462 5.34375,2.55316 7.37205,4.57486 1.6517,1.64633 3.05314,3.61324 3.9823,5.75221 1.38317,3.18411 2.68033,6.7371 2.21238,10.17698 -0.42687,3.1379 -1.91635,6.47409 -4.42476,8.40709 -3.11737,2.40227 -7.91656,1.03742 -11.50443,2.65486 -2.31336,1.04288 -4.86043,2.44933 -7.07188,3.6938 -2.93675,1.65262 -5.7766,2.46182 -8.85345,3.8361 -2.02755,0.90561 -5.60212,3.68602 -5.60212,3.68602"
             inkscape:path-effect="#path-effect7625-2"
             id="path7623-6"
             d="m 147.12778,938.86529 c 0.95528,0.66528 2.09367,1.06474 3.2552,1.14225 1.16152,0.0775 2.3429,-0.16718 3.37809,-0.69965 1.83174,-0.94219 3.09665,-2.68827 4.70554,-3.97454 1.92688,-1.5405 4.34587,-2.40044 6.79888,-2.66263 2.88792,-0.30868 5.82791,0.1841 8.55716,1.17736 2.73947,0.99698 5.31197,2.51215 7.37205,4.57486 1.65562,1.65774 2.95914,3.64453 3.9823,5.75221 1.53348,3.15893 2.45815,6.67412 2.21238,10.17698 -0.11501,1.63924 -0.48932,3.27179 -1.21691,4.7452 -0.72759,1.47342 -1.81905,2.7835 -3.20785,3.66189 -1.67491,1.05934 -3.68183,1.44609 -5.64889,1.68729 -1.96707,0.24119 -3.96862,0.36172 -5.85554,0.96757 -2.53711,0.81462 -4.71289,2.45456 -7.07188,3.6938 -2.84848,1.49638 -5.96948,2.40931 -8.85345,3.8361 -2.00857,0.99371 -3.89465,2.23469 -5.60212,3.68602"
             style="fill:#df8e00;fill-opacity:1;stroke:#000000;stroke-width:0.69999999;stroke-linecap:butt;stroke-linejoin:miter;stroke-miterlimit:4;stroke-opacity:1;stroke-dasharray:none" />
          <path
             sodipodi:nodetypes="csssssasssc"
             transform="translate(0,839.76245)"
             inkscape:connector-curvature="0"
             inkscape:original-d="m 56.47482,151.80705 c 0,0 -7.186422,-0.75355 -10.791367,-0.71942 -4.211842,0.0399 -8.637434,-0.37654 -12.589928,1.07913 -2.903695,1.06941 -5.715591,2.90662 -7.553957,5.39569 -2.02739,2.745 -3.025364,6.30629 -3.23741,9.71223 -0.189952,3.05106 1.058777,6.0267 1.798561,8.9928 0.908831,3.64388 0.932127,7.82666 3.23741,10.79137 1.716679,2.20774 4.484989,3.623 7.194245,4.31655 5.928631,1.51769 12.242232,-0.26741 18.345324,-0.71943 6.615729,-0.48998 11.321605,-2.58301 17.57241,-4.80458 2.287684,-0.81306 9.968571,-3.31975 9.968571,-3.31975"
             inkscape:path-effect="#path-effect7657"
             id="path7655"
             d="m 56.47482,151.80705 c -3.592962,-0.29756 -7.190703,-0.53741 -10.791367,-0.71942 -4.234833,-0.21407 -8.59114,-0.33131 -12.589928,1.07913 -2.957949,1.04332 -5.624958,2.92245 -7.553957,5.39569 -2.141513,2.74571 -3.349147,6.23192 -3.23741,9.71223 0.09828,3.0611 1.174588,5.99436 1.798561,8.9928 0.386458,1.85709 0.600421,3.74789 1.021609,5.59741 0.421187,1.84952 1.066644,3.6848 2.215801,5.19396 1.726134,2.26689 4.437965,3.59458 7.194245,4.31655 5.977784,1.5658 12.311231,0.613 18.345324,-0.71943 5.931562,-1.30979 11.779248,-2.9775 17.57241,-4.80458 3.340234,-1.05346 6.663655,-2.16024 9.968571,-3.31975"
             style="fill:#df8e00;fill-opacity:1;stroke:#000000;stroke-width:0.69999999;stroke-linecap:butt;stroke-linejoin:miter;stroke-miterlimit:4;stroke-opacity:1;stroke-dasharray:none" />
          <path
             sodipodi:nodetypes="csssssssssc"
             inkscape:connector-curvature="0"
             inkscape:original-d="m 156.25035,988.69394 c 3.91527,-0.26524 -0.81045,6.54139 9.49706,2.01466 3.29761,-1.44821 10.89768,-2.69121 15.177,-1.75143 3.92226,0.86137 6.8276,3.16207 8.99722,6.54124 1.95943,3.05179 1.90424,6.54019 2.16377,10.15759 0.23729,3.3075 0.34147,6.6686 -0.15907,9.9466 -0.6262,4.1009 -2.34917,9.5488 -3.52374,11.936 -1.1746,2.3873 -5.74859,2.5447 -8.70772,3.3125 -6.44775,1.6729 -11.57102,0.7275 -18.21347,0.2276 -7.20159,-0.542 -15.23177,-1.1655 -22.41115,-1.9485 -3.78439,-0.4127 -11.08172,-3.1334 -11.08172,-3.1334"
             inkscape:path-effect="#path-effect7657-9"
             id="path7655-4"
             d="m 156.25035,988.69394 c 2.91768,1.48378 6.22826,2.18607 9.49706,2.01466 2.55567,-0.13401 5.05073,-0.78708 7.55822,-1.29882 2.5075,-0.51174 5.09626,-0.88422 7.61878,-0.45261 3.78242,0.64718 7.16791,3.16793 8.99722,6.54124 1.66586,3.07191 2.06073,6.66459 2.16377,10.15759 0.0978,3.3152 -0.0384,6.6322 -0.15907,9.9466 -0.0774,2.1273 -0.15036,4.2701 -0.62292,6.3457 -0.47255,2.0756 -1.37626,4.1046 -2.90082,5.5903 -1.13289,1.104 -2.56581,1.8664 -4.06559,2.3693 -1.49978,0.5029 -3.07128,0.757 -4.64213,0.9432 -6.03595,0.7155 -12.1395,0.4547 -18.21347,0.2276 -7.50145,-0.2805 -15.04315,-0.5122 -22.41115,-1.9485 -3.77215,-0.7353 -7.48304,-1.7846 -11.08172,-3.1334"
             style="fill:#df8e00;fill-opacity:1;stroke:#000000;stroke-width:0.76805454;stroke-linecap:butt;stroke-linejoin:miter;stroke-miterlimit:4;stroke-opacity:1;stroke-dasharray:none" />
          <path
             sodipodi:nodetypes="cassssscsssssssc"
             transform="translate(0,839.76245)"
             inkscape:connector-curvature="0"
             inkscape:original-d="m 104.08199,186.04703 c -1.07913,-6.11511 -7.335646,-11.20393 -11.276235,-16.61408 -3.671553,-5.04078 -8.791334,-9.13622 -11.510791,-14.7482 -2.422219,-4.99859 -4.777812,-10.69351 -3.956835,-16.18705 0.762876,-5.10476 3.856598,-10.11863 7.91367,-13.30935 3.84576,-3.02454 9.15571,-4.75348 14.028777,-4.31655 3.899184,0.34961 4.999754,0.47893 7.946274,3.0565 1.1016,0.96367 5.00337,5.93631 5.00337,5.93631 0,0 3.12088,-4.44018 5.54188,-5.67651 3.32583,-1.6984 7.01016,-2.88329 10.71248,-2.39493 4.06265,0.53589 8.95971,3.26638 11.80319,6.21713 2.63105,2.7303 4.39693,5.86535 4.91291,9.62178 0.66978,4.87613 -0.28258,10.29511 -2.03521,14.8944 -1.42698,3.7447 -4.66417,6.57614 -7.55396,9.35251 -4.20223,4.0373 -9.39826,6.89376 -14.02878,10.43166 -5.89279,4.50233 -17.50074,13.73638 -17.50074,13.73638 z"
             inkscape:path-effect="#path-effect7705"
             id="path7703"
             d="m 104.08199,186.04703 c -3.25465,-5.85869 -7.033349,-11.42612 -11.276235,-16.61408 -3.952858,-4.83333 -8.333004,-9.37346 -11.510791,-14.7482 -2.881134,-4.87299 -4.729056,-10.57896 -3.956835,-16.18705 0.721801,-5.24193 3.745562,-10.04964 7.91367,-13.30935 3.951513,-3.09032 9.041671,-4.85812 14.028777,-4.31655 2.853534,0.30988 5.625674,1.36728 7.946274,3.0565 2.11269,1.53787 3.84544,3.59372 5.00337,5.93631 1.35119,-2.30353 3.27144,-4.27043 5.54188,-5.67651 3.16874,-1.96239 7.00785,-2.80434 10.71248,-2.39493 4.51878,0.49938 8.75824,2.84118 11.80319,6.21713 2.43945,2.70463 4.14405,6.06161 4.91291,9.62178 1.07874,4.99505 0.28849,10.34307 -2.03521,14.8944 -1.83256,3.58935 -4.55746,6.65756 -7.55396,9.35251 -4.33588,3.89954 -9.26021,7.07503 -14.02878,10.43166 -6.06696,4.27058 -11.91111,8.85767 -17.50074,13.73638"
             style="fill:#aa0000;fill-opacity:1;stroke:#000000;stroke-width:0.69999999;stroke-linecap:butt;stroke-linejoin:miter;stroke-miterlimit:4;stroke-opacity:1;stroke-dasharray:none" />
          <path
             transform="matrix(1,0,-0.08702463,0.95310562,1.5571674,842.19191)"
             d="m 100,63.85741 c 0,6.65523 -4.267787,12.05036 -9.532372,12.05036 -5.264585,0 -9.532374,-5.39513 -9.532374,-12.05036 0,-6.655229 4.267789,-12.050359 9.532374,-12.050359 5.264585,0 9.532372,5.39513 9.532372,12.050359 z"
             sodipodi:ry="12.05036"
             sodipodi:rx="9.5323744"
             sodipodi:cy="63.85741"
             sodipodi:cx="90.467628"
             id="path7707"
             style="fill:#ffffff;fill-opacity:1;stroke:#000000;stroke-width:0.69999999;stroke-linecap:butt;stroke-linejoin:miter;stroke-miterlimit:4;stroke-opacity:1;stroke-dasharray:none"
             sodipodi:type="arc" />
          <path
             transform="matrix(-0.95511234,0,0.0831183,0.84776803,208.29442,848.39301)"
             d="m 100,63.85741 c 0,6.65523 -4.267787,12.05036 -9.532372,12.05036 -5.264585,0 -9.532374,-5.39513 -9.532374,-12.05036 0,-6.655229 4.267789,-12.050359 9.532374,-12.050359 5.264585,0 9.532372,5.39513 9.532372,12.050359 z"
             sodipodi:ry="12.05036"
             sodipodi:rx="9.5323744"
             sodipodi:cy="63.85741"
             sodipodi:cx="90.467628"
             id="path7707-6"
             style="fill:#ffffff;fill-opacity:1;stroke:#000000;stroke-width:0.69999999;stroke-linecap:butt;stroke-linejoin:miter;stroke-miterlimit:4;stroke-opacity:1;stroke-dasharray:none"
             sodipodi:type="arc" />
          <path
             transform="matrix(1.1355475,0,0,1.103654,-15.17254,832.03892)"
             d="m 92.086331,67.994102 c 0,3.377281 -2.093632,6.115108 -4.676259,6.115108 -2.582626,0 -4.676259,-2.737827 -4.676259,-6.115108 0,-3.37728 2.093633,-6.115108 4.676259,-6.115108 2.582627,0 4.676259,2.737828 4.676259,6.115108 z"
             sodipodi:ry="6.115108"
             sodipodi:rx="4.676259"
             sodipodi:cy="67.994102"
             sodipodi:cx="87.410072"
             id="path7727"
             style="fill:#001b00;fill-opacity:1;stroke:#000000;stroke-width:0.62528628;stroke-linecap:butt;stroke-linejoin:miter;stroke-miterlimit:4;stroke-opacity:1;stroke-dasharray:none"
             sodipodi:type="arc" />
          <path
             transform="matrix(-1.0122976,0,0,1.0345808,214.05096,834.82089)"
             d="m 92.086331,67.994102 c 0,3.377281 -2.093632,6.115108 -4.676259,6.115108 -2.582626,0 -4.676259,-2.737827 -4.676259,-6.115108 0,-3.37728 2.093633,-6.115108 4.676259,-6.115108 2.582627,0 4.676259,2.737828 4.676259,6.115108 z"
             sodipodi:ry="6.115108"
             sodipodi:rx="4.676259"
             sodipodi:cy="67.994102"
             sodipodi:cx="87.410072"
             id="path7727-0"
             style="fill:#001b00;fill-opacity:1;stroke:#000000;stroke-width:0.62528628;stroke-linecap:butt;stroke-linejoin:miter;stroke-miterlimit:4;stroke-opacity:1;stroke-dasharray:none"
             sodipodi:type="arc" />
          <path
             transform="translate(0,839.76245)"
             d="m 85.714284,67.328148 c 0,0.906259 -0.561805,1.640926 -1.254827,1.640926 -0.693021,0 -1.254826,-0.734667 -1.254826,-1.640926 0,-0.906259 0.561805,-1.640927 1.254826,-1.640927 0.693022,0 1.254827,0.734668 1.254827,1.640927 z"
             sodipodi:ry="1.6409266"
             sodipodi:rx="1.2548263"
             sodipodi:cy="67.328148"
             sodipodi:cx="84.459457"
             id="path7753"
             style="fill:#ffffff;fill-opacity:1;fill-rule:evenodd;stroke:none"
             sodipodi:type="arc" />
          <path
             d="m 85.714284,67.328148 c 0,0.906259 -0.561805,1.640926 -1.254827,1.640926 -0.693021,0 -1.254826,-0.734667 -1.254826,-1.640926 0,-0.906259 0.561805,-1.640927 1.254826,-1.640927 0.693022,0 1.254827,0.734668 1.254827,1.640927 z"
             sodipodi:ry="1.6409266"
             sodipodi:rx="1.2548263"
             sodipodi:cy="67.328148"
             sodipodi:cx="84.459457"
             id="path7753-3"
             style="fill:#ffffff;fill-opacity:1;fill-rule:evenodd;stroke:none"
             sodipodi:type="arc"
             transform="matrix(0.92307693,0,0,1,47.79418,839.19488)" />
          <path
             transform="matrix(1,0,0,0.86104518,-4.7722008,847.60506)"
             d="m 119.30502,81.806915 c 0,2.932014 -2.59295,5.308881 -5.79151,5.308881 -3.19856,0 -5.7915,-2.376867 -5.7915,-5.308881 0,-2.932013 2.59294,-5.30888 5.7915,-5.30888 3.19856,0 5.79151,2.376867 5.79151,5.30888 z"
             sodipodi:ry="5.3088803"
             sodipodi:rx="5.7915058"
             sodipodi:cy="81.806915"
             sodipodi:cx="113.51351"
             id="path7773"
             style="fill:#000000;fill-opacity:1;fill-rule:evenodd;stroke:#000000;stroke-width:1px;stroke-linecap:butt;stroke-linejoin:miter;stroke-opacity:1"
             sodipodi:type="arc" />
          <g
             transform="matrix(0.79651693,-0.60590433,0.60948863,0.79183276,0,0)"
             style="font-size:18.92557335px;font-style:normal;font-variant:normal;font-weight:normal;font-stretch:normal;text-align:center;line-height:328.99987698%;letter-spacing:-1.40049243px;word-spacing:0.06623951px;text-anchor:middle;fill:#ffffff;fill-opacity:1;stroke:#ffffff;stroke-width:0.47313935;stroke-miterlimit:4;stroke-opacity:1;font-family:akaDora;-inkscape-font-specification:Bradley Hand ITC"
             id="text7777">
            <path
               d="m -525.91945,845.62875 -0.11089,0.23103 c -0.037,0.0862 -0.0924,0.16634 -0.16634,0.24026 l -0.28647,0.28647 0,0.12938 c -0.14171,0.0308 -0.25106,0.0986 -0.32806,0.2033 -0.077,0.10474 -0.14632,0.1571 -0.20792,0.1571 -0.1109,0.20331 -0.38197,0.35424 -0.81321,0.45281 -0.15402,0.21563 -0.37889,0.32344 -0.67459,0.32343 l -0.10165,0 0,0.11089 -0.37888,0 -0.22179,0.17558 -0.21254,0.0185 c -10e-6,0.0986 -0.0431,0.14786 -0.12937,0.14785 l -0.17558,0.13862 -0.43433,0 -0.25875,0.24026 -0.77624,0.1571 -0.10165,0.0739 -0.43433,-0.037 c -0.0123,0.0431 -0.0678,0.15094 -0.16634,0.32344 -0.0555,-0.0431 -0.23719,-0.077 -0.54522,-0.10165 l -0.17558,0.10165 -0.26799,0.0924 c -0.12937,0.0863 -0.26799,0.14786 -0.41584,0.18482 l -0.11089,0.3604 0.19406,0.3604 -0.10165,0.45281 0.13861,0.51749 -0.12013,0.0739 0.1571,0.22178 0,0.37889 0.0739,0.19406 0,0.34191 0.43433,-0.037 c 0.0616,0.0555 0.0924,0.12321 0.0924,0.2033 0,0.19098 -0.13246,0.28647 -0.39736,0.28647 l -0.11089,0 -0.30496,0.11089 -0.25875,-0.47129 -0.34191,-0.73928 0,-0.77624 -0.19406,-0.37888 0.13861,-0.14786 -0.0832,-0.37888 0.037,-0.26799 -0.12938,-0.16634 -0.77624,-0.13861 -0.2033,-0.29571 0.94258,-0.0832 -0.0924,-0.0555 c 0.0246,-0.0246 0.0616,-0.037 0.11089,-0.037 0.0678,0 0.11089,0.0123 0.12937,0.037 l 0,-0.43433 0.12014,-0.22178 0.0554,-1.13664 0.1109,-0.13862 -0.037,-0.86865 0.0739,-0.47129 0.037,-1.04424 0.12014,-0.29571 0.14785,-0.10165 -0.037,-0.27723 c 0,-0.12937 0.0739,-0.19405 0.22178,-0.19406 0.43125,10e-6 0.64687,0.14478 0.64687,0.43433 0,0.0801 -0.0508,0.22025 -0.15247,0.42046 -0.10166,0.20023 -0.15248,0.34963 -0.15248,0.44819 0,0.1109 0.0708,0.2834 0.21254,0.5175 l -0.17558,0.16633 -0.0185,0.50826 -0.24026,0.23102 0.0739,0.39737 -0.14785,0.43433 0.0739,0.41584 -0.0739,0.32344 0.037,0.2495 -0.13861,0.2033 c 0.0185,0.20947 0.10781,0.3296 0.26799,0.3604 l 0.47129,-0.28647 0.39736,0 c 0.17866,-0.17249 0.39428,-0.25874 0.64687,-0.25875 l 0.12937,-0.12013 c 0.0616,0.0247 0.15094,0.037 0.26799,0.037 0.25259,0 0.50517,-0.10473 0.75777,-0.3142 l 0.30495,-0.0185 0.24026,-0.21254 0.24951,0 0.0554,-0.0924 0.99803,-0.28647 c 0.17865,-0.0185 0.26798,-0.0616 0.26799,-0.12938 0.0493,-0.0493 0.0801,-0.10781 0.0924,-0.17558 0.0616,0.0123 0.13244,0.0185 0.21254,0.0185 0.17249,10e-6 0.2803,-0.11088 0.32343,-0.33267 0.19714,-0.0246 0.30495,-0.0647 0.32344,-0.12014 0.0185,-0.0554 0.0678,-0.0986 0.14785,-0.12937 l 0.1109,0.0924 0.0924,-0.28647 0.13861,-0.11089 0.0739,-0.41585 c -0.10474,-0.28338 -0.24336,-0.53597 -0.41585,-0.75776 l -0.19406,-0.037 -0.33267,-0.30496 -0.70232,-0.29571 c -0.44974,-0.33883 -0.93027,-0.52981 -1.4416,-0.57294 l 0,0.12937 -0.32343,-0.22178 -0.43433,0.0185 -0.25875,-0.17558 -0.30495,0 -0.26799,-0.14785 -0.26799,0 c -0.12938,10e-6 -0.23411,-0.0493 -0.31419,-0.14786 l -0.73928,-0.10165 c -0.13554,0.0431 -0.32652,0.11398 -0.57294,0.21254 l -0.43433,-0.26799 -0.25875,0.1571 -0.21254,-0.13862 -0.39736,0.12014 0,0.0554 -0.16634,0 -0.37888,0.20331 -0.25875,0.037 c -0.0801,0.0123 -0.2033,0.0709 -0.36964,0.17558 -0.16634,-0.20945 -0.26799,-0.4374 -0.30496,-0.68384 l 0.19407,-0.26798 0,-0.12938 c 0.0308,-0.0554 0.14323,-0.0909 0.33729,-0.10627 0.19406,-0.0154 0.36502,-0.0631 0.51288,-0.14324 0.14169,0.0308 0.23102,0.0462 0.26799,0.0462 0.0616,10e-6 0.11705,-0.0277 0.16634,-0.0832 l 0.16633,0.0832 c 0.10473,-0.0308 0.16942,-0.0462 0.19406,-0.0462 0.0739,10e-6 0.12938,0.0401 0.16634,0.12014 l 0.91486,0 0.54522,0.0185 0.62839,0.11089 c 0.0308,0.0431 0.0847,0.0786 0.16172,0.10627 0.077,0.0277 0.1155,0.057 0.11551,0.0878 l 0.13861,-0.13861 0.0739,0 c 0.13553,10e-6 0.2033,0.0246 0.2033,0.0739 0,0.0308 -0.006,0.0524 -0.0185,0.0647 l 0.26799,0 c 0.33883,0.0986 0.62222,0.15403 0.85017,0.16634 l 0.0554,0.11089 0.5175,0 0.34191,0.23103 c 0.037,0.0247 0.16941,0.0493 0.39737,0.0739 l 0.0924,0.14785 0.0924,0 c 0.3265,10e-6 0.55445,0.1263 0.68383,0.37888 l 0.24027,-0.12937 0,0.23102 c 0.11704,0.0308 0.27722,0.12323 0.48053,0.27723 l 0.22178,0 0.17558,0.26799 0.60067,0.39737 0,0.21254 z"
               style="line-height:328.99987698%;fill:#ffffff;stroke:#ffffff;font-family:Bradley Hand ITC;-inkscape-font-specification:Bradley Hand ITC"
               id="path3045"
               inkscape:connector-curvature="0" />
            <path
               d="m -512.65447,851.04398 c 0.0493,0.13554 0.0739,0.22179 0.0739,0.25875 -2e-5,0.0554 -0.057,0.12783 -0.17096,0.21716 -0.11399,0.0893 -0.2449,0.1956 -0.39274,0.31882 l -0.21255,-0.0739 -0.2495,0.37888 c -0.20332,0.0123 -0.39738,0.0678 -0.58219,0.16634 l -0.54522,-0.12938 -0.30495,0.12938 -0.0924,0.16634 c -0.17867,-0.13554 -0.29264,-0.20331 -0.34192,-0.20331 -0.0246,0 -0.037,0.0185 -0.037,0.0555 l -0.10165,-0.0185 -0.16634,0.16634 -0.16634,-0.20331 -0.13861,0.0555 c -0.10475,-0.0863 -0.2064,-0.12937 -0.30496,-0.12937 l -0.60066,0 -0.17558,-0.19407 -0.2033,0.037 -0.30496,-0.16634 -0.18482,0.0924 -0.13861,-0.22178 -0.27723,0 -0.17558,-0.21255 -0.22178,0 c -0.0185,0 -0.057,-0.0462 -0.11552,-0.13861 -0.0585,-0.0924 -0.14632,-0.1725 -0.26337,-0.24027 l -0.57294,-0.30495 c -0.33268,-0.16018 -0.59143,-0.43741 -0.77624,-0.83169 l -0.22179,0 -0.30495,-0.37888 -0.55446,-0.43433 -0.61915,-0.7208 -0.17558,-0.0554 -0.28647,-0.30496 c -0.0308,-0.037 -0.16018,-0.0924 -0.38812,-0.16633 -0.0863,0.0493 -0.16326,0.0739 -0.23102,0.0739 -0.0554,10e-6 -0.11706,-0.0246 -0.18482,-0.0739 l 0,0.0185 c -10e-6,0.0123 -0.0123,0.0185 -0.037,0.0185 l -0.19406,0 -0.18482,-0.26799 c 0.0678,-0.0739 0.11089,-0.20022 0.12938,-0.37888 l 0.23102,-0.0739 0,-0.11089 0.24027,-0.0555 c 0.0801,-0.0616 0.15709,-0.0924 0.23102,-0.0924 0.0493,1e-5 0.10165,0.0154 0.1571,0.0462 0.0554,0.0308 0.0893,0.0462 0.10165,0.0462 0.0185,1e-5 0.04,-0.0185 0.0647,-0.0554 0.0554,0.22795 0.32035,0.34192 0.79472,0.34191 0.41276,10e-6 0.73312,-0.04 0.96107,-0.12013 l 0,-0.0554 1.42311,-0.0554 c 0.32651,-0.16633 0.67151,-0.2495 1.03499,-0.24951 l 0.12014,0.037 0.31419,-0.1109 0.0832,-0.11089 0.22178,0.0185 0.28647,-0.11089 0.20331,0 c 0.10472,10e-6 0.16941,-0.0108 0.19406,-0.0323 0.0246,-0.0216 0.037,-0.0693 0.037,-0.14324 l 0,-0.0739 c 0.15401,-0.0185 0.23102,-0.0431 0.23103,-0.0739 0.47436,-0.12321 0.71154,-0.33267 0.71155,-0.62839 -10e-6,-0.14169 -0.0678,-0.2803 -0.2033,-0.41585 l -0.62839,-0.60066 -0.14785,0 c -0.28956,-0.17865 -0.47438,-0.26798 -0.55446,-0.26799 l -0.18482,0 -0.37888,-0.16634 -0.23103,0 -0.24026,-0.19406 -0.43433,0 -0.17558,-0.0739 -1.03499,-0.0739 -0.17558,-0.10165 -0.11089,0.0647 -0.21255,-0.0647 -0.2033,0.0647 -0.55446,-0.0647 -0.5637,0.10165 -0.30495,-0.10165 -0.34192,0.037 -0.29571,-0.037 -0.23103,0.10165 -0.16634,-0.0647 -0.34191,0.21254 -0.26799,-0.037 c -0.0862,0.18482 -0.18174,0.34192 -0.28647,0.47129 l 0.12013,0.26799 -0.0554,1.09968 0.12938,0.94258 c -0.13554,0.43741 -0.20639,0.70848 -0.21255,0.81321 l -0.12937,2.42114 0.14786,1.38615 -0.1109,0.73928 0,0.18482 c 0,0.0986 -0.12013,0.14786 -0.36039,0.14786 l -0.0739,0 0.0924,-0.73004 -0.0924,-0.28647 -0.16634,-0.77625 0.11089,-0.0739 c -0.15402,-0.19098 -0.23103,-0.31727 -0.23102,-0.37888 -10e-6,-0.11705 0.0708,-0.24334 0.21254,-0.37888 l -0.1571,-0.30495 -0.0185,0 c -0.0246,0 -0.037,-0.006 -0.037,-0.0185 -1e-5,-0.0678 0.077,-0.24335 0.23102,-0.52674 -0.0863,-0.0924 -0.12937,-0.21254 -0.12937,-0.3604 l 0.0554,-0.30495 0,-0.14786 c 0.0862,-0.16017 0.12938,-0.29263 0.12938,-0.39736 0,-0.11705 -0.0431,-0.26491 -0.12938,-0.44357 l 0.12938,-0.31419 -0.0554,-0.28648 0.11089,-0.0924 c -0.037,-0.0554 -0.0554,-0.12012 -0.0554,-0.19406 0,-0.0924 0.0431,-0.24334 0.12937,-0.45281 l -0.18482,0.037 -0.11089,-0.50826 0.0924,-0.3604 -0.0924,-0.77624 0.0924,-0.0924 c -0.19714,-0.20329 -0.34808,-0.30495 -0.45281,-0.30495 l -0.0554,0 -0.13861,0.12937 -0.43433,-0.037 -0.28647,0.3604 c -0.12937,-0.10473 -0.24951,-0.16633 -0.3604,-0.18482 -0.0986,-0.12937 -0.14785,-0.23102 -0.14785,-0.30496 0,-0.0616 0.0139,-0.12166 0.0416,-0.1802 0.0277,-0.0585 0.0755,-0.11242 0.14324,-0.16171 l 0.2495,-0.16634 0.57295,-0.0647 0.77624,-0.037 0.16634,-0.12938 0,-0.0554 c 0,-0.19098 0.14477,-0.28647 0.43432,-0.28648 l 0.23103,0 c 0.0678,0.26492 0.18174,0.39738 0.34192,0.39737 0.037,10e-6 0.16941,-0.0554 0.39736,-0.16634 l 0.47129,0.11089 0.73928,-0.11089 0.97955,0.11089 1.38615,0.037 0.69307,0.12937 0.53598,0 0.2033,0.17558 c 0.0185,-0.0739 0.0585,-0.11088 0.12014,-0.11089 0.0493,10e-6 0.11088,0.037 0.18482,0.11089 -10e-6,0.0863 0.0246,0.16019 0.0739,0.22178 l 0.19407,0.037 0,-0.24027 0.75776,0.30495 0.25875,0.20331 0.037,-0.0554 c 0.11088,0.0678 0.27722,0.1109 0.49901,0.12937 l 0.12938,0.1571 0.16634,0.037 c 0.20329,0.3142 0.35884,0.5483 0.46667,0.70231 0.1078,0.15403 0.1617,0.29264 0.16171,0.41585 -10e-6,0.22795 -0.097,0.42817 -0.29109,0.60066 -0.19407,0.17251 -0.40507,0.38813 -0.63301,0.64687 l -0.19406,0.009 -0.14785,0.009 c -0.037,10e-6 -0.14479,0.0431 -0.32344,0.12938 l -0.0739,0.1571 -0.53597,0 -0.14786,0.12937 c -0.0247,0.0246 -0.0832,0.0524 -0.17558,0.0832 l -0.27723,0.0832 c -0.32036,0 -0.60375,0.13246 -0.85017,0.39736 l -0.30495,-0.2033 -0.26799,0.12937 c -0.0555,-0.037 -0.10474,-0.0554 -0.14786,-0.0554 -0.0739,0 -0.16943,0.0555 -0.28647,0.16633 l -0.25875,-0.11089 -0.24951,0.11089 -0.0924,-0.11089 -0.34191,0.19406 -0.45281,-0.0554 c -0.0924,0 -0.18791,0.0123 -0.28647,0.037 l 0.18482,0.25875 0.46205,0.39736 0.12937,0.23103 0.73928,0.5637 0.16634,0.30495 0.12013,0.13862 c 0.037,0.037 0.11705,0.20638 0.24027,0.50825 l 0.50825,0.0185 0.57295,0.58219 0.30495,0.13861 0.41584,0.25875 0.39737,0.12013 0.5637,0.22179 0.21254,-0.037 0.0924,0.0739 0.037,-0.037 0.0739,0.12937 0.26799,-0.0554 0.0555,0.19406 0.21254,-0.13862 0.22179,0.0647 0.64687,-0.0647 0.25874,0.0647 0.91486,-0.1571 0.6746,-0.18482 0.0462,0.11089 0.12938,-0.23102 0.28647,0 z"
               style="line-height:328.99987698%;fill:#ffffff;stroke:#ffffff;font-family:Bradley Hand ITC;-inkscape-font-specification:Bradley Hand ITC"
               id="path3047"
               inkscape:connector-curvature="0" />
            <path
               d="m -502.21724,847.21821 -0.17558,0.41584 -0.0554,0.57294 -0.16634,0.16634 -0.19406,0.60991 c -0.0185,0.0801 -0.037,0.13861 -0.0555,0.17558 -0.0185,0.037 -0.0585,0.0678 -0.12013,0.0924 l -0.2033,0.0832 -1.11817,0.89638 -0.25874,0.12938 c -0.0801,0.037 -0.2064,0.13861 -0.37889,0.30495 l 0,-0.11089 -0.77624,0.60066 -0.34192,0.14786 -0.8132,0.44357 c -0.11707,-0.0555 -0.23104,-0.0832 -0.34192,-0.0832 -0.0863,0 -0.15249,0.0308 -0.19868,0.0924 -0.0462,0.0616 -0.094,0.10165 -0.14324,0.12013 l -0.16634,-0.037 -0.30495,0.28647 -0.1571,-0.0832 -0.0739,0.10165 -0.32343,0 -0.16634,0.16634 -0.5637,-0.037 -0.91486,0.16634 c -0.037,-0.0123 -0.0924,-0.0185 -0.16634,-0.0185 l -0.28647,0.037 -0.32343,-0.0554 -0.0739,-0.0739 -0.79473,-0.12937 -0.37888,-0.19407 -0.16634,0 0,-0.36039 -0.26799,0.10165 -0.12937,-0.18482 c -0.0554,-0.0678 -0.11705,-0.12014 -0.18482,-0.1571 l -0.29571,-0.13862 c -0.0986,-0.27722 -0.15402,-0.59758 -0.16634,-0.96106 l -0.0924,-0.12937 -0.037,-0.75777 0.25874,-0.8132 -0.037,-0.39737 0.17558,-0.15709 -0.13862,-0.32344 0.32344,-0.25875 0,-0.26799 0.11089,-0.2495 0,-0.20331 0.13862,-0.23102 -0.0555,-0.0739 0.0924,-0.0554 0.39736,-0.90561 0.73928,-1.17361 c 0.11089,-0.037 0.19098,-0.10318 0.24027,-0.19868 0.0493,-0.0955 0.18174,-0.22024 0.39736,-0.37426 l -0.037,-0.16634 0.23102,0 -0.0554,-0.11089 c 0.14169,-0.14785 0.33575,-0.26182 0.58218,-0.34192 l 0.13862,-0.1571 -0.0185,0 c 0,-0.006 0.12013,-0.0246 0.3604,-0.0554 l 0.86866,-0.1109 0.54522,0.0739 0.41584,-0.0185 0.48977,0 c 0.12937,0.0246 0.2187,0.037 0.26799,0.037 0.1725,10e-6 0.30495,-0.0554 0.39737,-0.16633 0.0616,0.0616 0.13244,0.0924 0.21254,0.0924 0.037,10e-6 0.0678,-0.006 0.0924,-0.0185 0.006,0.12323 0.0678,0.18483 0.18482,0.18482 0.0493,0.0555 0.18789,0.0955 0.41585,0.12014 l 0.13861,0.12937 0.27723,0.037 0.3604,0 0.5175,0.26799 -0.12014,0 0.35116,0.2495 c 0.0431,0.0308 0.10472,0.11706 0.18482,0.25875 l 0.27723,0.12937 0.13862,0.23103 0.32343,0.12937 0.62839,1.04424 c 0.0431,0.0678 0.11704,0.24335 0.22178,0.52673 l 0.24951,0.6746 c 0.0616,0.16018 0.0924,0.26491 0.0924,0.31419 z m -0.60991,-0.48978 -0.16633,-0.43433 0.0185,-0.13861 c -10e-6,-0.0616 -0.0154,-0.12937 -0.0462,-0.2033 -0.0308,-0.0739 -0.16019,-0.18174 -0.38812,-0.32344 l -0.13861,-0.3604 -0.1109,-0.0554 -0.0554,-0.21255 -0.53598,-0.5637 -0.47129,-0.39736 -0.14786,0.0554 -0.68383,-0.43433 c -0.0616,-0.037 -0.19253,-0.0708 -0.39274,-0.10165 -0.20023,-0.0308 -0.35271,-0.0801 -0.45743,-0.14786 -10e-6,0.0123 -0.0185,0.0185 -0.0555,0.0185 -0.0247,10e-6 -0.12014,-0.0123 -0.28647,-0.037 l -0.0924,0.0647 -0.28647,-0.10165 -0.18482,0.10165 c -0.16635,-0.0554 -0.28032,-0.0832 -0.34192,-0.0832 -0.037,10e-6 -0.0909,0.0139 -0.16172,0.0416 -0.0708,0.0277 -0.12476,0.0416 -0.16171,0.0416 -0.0616,10e-6 -0.10474,-0.0154 -0.12938,-0.0462 -0.12938,0.0678 -0.23257,0.14633 -0.30957,0.23565 -0.077,0.0893 -0.20177,0.17096 -0.37426,0.24488 l -0.26799,-0.0647 -0.25875,0.17558 -0.30495,-0.037 -0.11089,0.0462 c -0.037,0.0185 -0.0709,0.0416 -0.10166,0.0693 -0.0308,0.0277 -0.0693,0.0601 -0.11551,0.097 -0.0462,0.037 -0.10165,0.0786 -0.16634,0.12475 -0.0647,0.0462 -0.13554,0.097 -0.21254,0.15248 -0.077,0.0554 -0.16172,0.1109 -0.25413,0.16633 -0.0431,0.0308 -0.12629,0.15711 -0.2495,0.37888 l 0.0185,0.26799 -0.34192,0.14786 c -0.037,0.0185 -0.11397,0.0955 -0.23102,0.23102 -0.0924,0.20947 -0.20639,0.37889 -0.34192,0.50826 l 0,0.23102 c -0.14786,0.0616 -0.23411,0.13863 -0.25875,0.23103 l -0.17558,0.54522 -0.31419,0.2033 c -0.0431,0.77009 -0.10936,1.21674 -0.19868,1.33995 -0.0893,0.12321 -0.15094,0.23565 -0.18482,0.33729 -0.0339,0.10166 -0.0585,0.21255 -0.0739,0.33268 -0.0154,0.12014 -0.0601,0.29109 -0.134,0.51287 l 0.1109,0.22179 0.0554,0.34192 0.17558,0.23102 c 0.0246,0.037 0.0431,0.0832 0.0554,0.13862 l 0.037,0.22178 c 0.24026,0.27107 0.53906,0.46205 0.89638,0.57294 0.35731,0.11089 0.5637,0.16018 0.61914,0.14786 l 0.60991,-0.1571 0.12938,0.13862 0.30495,0 0,0.12937 0.29571,0 0.0832,-0.23102 0.29571,-0.037 0.75776,0.0924 c 0.0678,-0.12321 0.14477,-0.18482 0.23103,-0.18482 l 0.0739,0.0185 c 0.27722,-0.17866 0.48052,-0.26798 0.6099,-0.26799 l 0.0739,0 0.37888,-0.24026 c 0.0493,-0.0246 0.18173,-0.0431 0.39737,-0.0554 l 0.24026,-0.21254 c 0.45588,-0.0123 0.71771,-0.0431 0.78549,-0.0924 0.0677,-0.0493 0.12782,-0.10165 0.1802,-0.1571 0.0523,-0.0554 0.17403,-0.10473 0.36502,-0.14785 l 0.12937,-0.3604 0.0554,0.0185 0.037,-0.12938 c 0.14785,-0.0431 0.26798,-0.12629 0.3604,-0.2495 l 0.17558,0.0554 0.0924,-0.18482 0.30495,-0.23102 0.50826,-0.5637 0.30495,-0.11089 0.14786,-0.32344 0.2495,-0.17558 -0.0554,-0.34192 0.12937,-0.29571 -0.0739,-0.55446 z"
               style="line-height:328.99987698%;fill:#ffffff;stroke:#ffffff;font-family:Bradley Hand ITC;-inkscape-font-specification:Bradley Hand ITC"
               id="path3049"
               inkscape:connector-curvature="0" />
            <path
               d="m -532.09831,868.31822 -0.12938,0.14786 c -0.0308,0.0431 -0.11397,0.23411 -0.2495,0.57294 l -0.26799,0.19406 0.0185,0.11089 -0.24951,0 -0.24026,0.26799 -0.32344,0 -0.21254,0.1109 c -0.0616,0 -0.12938,0.037 -0.2033,0.11089 -0.0801,-0.037 -0.16327,-0.0555 -0.24951,-0.0555 -0.0678,0 -0.14786,0.0185 -0.24027,0.0555 l 0,0.11089 -0.34191,-0.037 -0.26799,0.037 -0.24951,-0.037 -0.037,0.0554 -0.0924,-0.0554 -0.16634,0.0554 -0.12013,0 c -0.0863,0 -0.17867,0.0154 -0.27723,0.0462 l -0.19407,-0.0647 -0.14785,0.10165 -0.0739,-0.0832 -0.13861,0.0832 c -0.16018,-0.0924 -0.29264,-0.13861 -0.39737,-0.13861 -0.037,0 -0.0924,0.0185 -0.16634,0.0554 -0.0801,-0.0431 -0.1879,-0.0708 -0.32343,-0.0832 l -0.41585,-0.0462 c -0.12937,0 -0.23102,0.0123 -0.30495,0.037 l -0.037,-0.0739 -0.16634,0.1109 c -0.037,-0.0493 -0.0832,-0.0739 -0.13862,-0.0739 l -0.0554,-0.11089 c -0.38812,-0.0185 -0.58219,-0.29572 -0.58219,-0.8317 l 0.39737,-0.0554 -0.0185,-0.13862 0.0924,-0.12937 0.0554,0.11089 0.11089,0 0,0.0924 0.17558,-0.0924 c 0.0986,0.0185 0.14786,0.0647 0.14786,0.13862 0,0.037 -0.0185,0.0924 -0.0554,0.16634 l 0.16634,0.0185 0,0.28647 0.48053,0.0739 0.18482,0.16633 0.0554,-0.0924 2.42114,-0.14785 0.83169,-0.1571 0.0462,-0.0924 0.2033,-0.037 0.0555,-0.0739 c 0.28954,-0.0555 0.54213,-0.1571 0.75776,-0.30495 l 0.0554,0.0554 0.037,-0.11089 0.13861,-0.11089 0.0185,-0.0647 -0.0924,-0.12937 0.037,-0.16634 -0.21254,-0.17558 -0.037,-0.14786 c -0.0986,-0.037 -0.16018,-0.0739 -0.18482,-0.11089 l -0.0832,0.037 -0.18482,-0.17558 -0.0739,0 -0.0832,-0.1109 -0.18482,0 c -0.037,-0.0986 -0.10782,-0.14785 -0.21255,-0.14785 l -0.12937,0.0185 c -0.20947,0 -0.39737,-0.0647 -0.5637,-0.19406 l -0.19406,0 -0.24027,-0.14786 -0.12013,0.0739 -0.0554,-0.0924 -0.12937,0 -0.21255,-0.17558 -0.5637,-0.24026 -0.21254,-0.19406 -0.63763,-0.1109 -0.0185,-0.0554 -0.53598,-0.37888 -0.24027,-0.60991 -0.19406,-0.29571 -0.0554,-0.8779 0.0554,-0.0924 c 0,-0.24642 0.0647,-0.46204 0.19406,-0.64687 0.23411,-0.13553 0.35424,-0.26798 0.3604,-0.39736 l 0.12938,0.0185 c 0.0493,-0.15401 0.16633,-0.30494 0.35116,-0.45281 l 0.23102,-0.2033 1.09968,-0.47129 0.55446,-0.10165 0.54522,-0.16634 0.85017,0.0554 0.037,0.11089 0.0554,0 c 0.10473,1e-5 0.1879,0.0339 0.24951,0.10165 l 0,0.16634 0.23102,0.16634 c -0.0678,0.29571 -0.10165,0.46205 -0.10165,0.49901 0,0.1109 -0.0554,0.16634 -0.16634,0.16634 -0.0493,0 -0.13862,-0.13245 -0.26798,-0.39737 l -0.50826,-0.037 -0.12937,0.037 c -0.19715,-0.14784 -0.31112,-0.22177 -0.34192,-0.22178 -0.037,10e-6 -0.0554,0.0185 -0.0554,0.0554 l -0.17558,0.12937 c -0.20946,1e-5 -0.37888,0.0555 -0.50825,0.16634 -0.23411,0.0431 -0.39737,0.12014 -0.48977,0.23102 l -0.21255,0 -0.15709,0.12014 c -0.0431,0.0308 -0.16635,0.0739 -0.36964,0.12937 l -0.0739,0.0924 -0.10165,0.0555 -0.25875,0.2495 -0.17558,0.27723 c -0.17866,0.11706 -0.27107,0.19407 -0.27723,0.23103 l -0.19406,0.77624 0.0924,0.0554 0,0.0554 c 0,0.20947 0.10165,0.38813 0.30495,0.53598 l 0,0.0924 0.50826,0.30496 0.12013,0 0.27723,0.27723 0.37888,0 0.23103,0.19406 0.43432,0.0554 0.12938,0.1109 0.81321,0.2495 c -10e-6,0.0739 0.0462,0.1109 0.13861,0.11089 0.15401,10e-6 0.29571,0.037 0.42509,0.1109 0.12936,0.0739 0.25258,0.12013 0.36964,0.13861 l 0.0185,0.0924 0.16634,0.0924 0.3604,0 0.32343,0.21254 c 0.037,0.13554 0.12013,0.24951 0.24951,0.34192 l -0.0185,0.0555 0.0924,0.12937 0.16633,0.037 -0.0739,0.13861 c 0.11704,0.0986 0.18789,0.19714 0.21254,0.29571 z m -0.40661,-11.03375 c -0.0123,0.17251 -0.10781,0.27416 -0.28647,0.30495 l -0.0554,0.11089 -0.0739,0.037 -0.0185,0.0647 -0.0739,0.037 -0.0555,0.16633 -0.0832,0 c -0.15402,0.24644 -0.29263,0.43126 -0.41584,0.55446 -0.0123,-0.0554 -0.0308,-0.0831 -0.0554,-0.0832 -0.0555,1e-5 -0.12938,0.13862 -0.22178,0.41584 l -0.1571,0.0647 c -0.0493,0.19715 -0.15094,0.33576 -0.30495,0.41584 l -0.0185,0.16634 c -0.1109,0.0123 -0.17867,0.0508 -0.2033,0.11551 -0.0247,0.0647 -0.094,0.13401 -0.20793,0.20793 -0.11397,0.0739 -0.1802,0.17096 -0.19868,0.29109 -0.0185,0.12014 -0.0863,0.25721 -0.2033,0.41122 l -0.14786,-0.037 c -0.0185,0.1109 -0.0616,0.17867 -0.12937,0.2033 -0.0246,-0.037 -0.10782,-0.10472 -0.24951,-0.2033 l -0.0185,0.037 -0.0739,-0.21254 -0.26799,-0.32344 c -0.037,-0.0493 -0.0678,-0.13552 -0.0924,-0.25874 l -0.19406,-0.12014 -0.037,-0.22178 -0.22179,-0.23103 c -0.0123,-0.0739 -0.0955,-0.22485 -0.2495,-0.45281 -0.0493,-0.037 -0.19407,-0.1694 -0.43433,-0.39736 l -0.0185,-0.32343 -0.24951,-0.12938 -0.14786,-0.19406 -0.18482,-0.0739 c -0.0554,-0.0246 -0.15709,-0.12628 -0.30495,-0.30495 l 0.25875,-0.14786 c 0.30803,0.0616 0.46975,0.094 0.48515,0.097 0.0154,0.003 0.10011,0.077 0.25413,0.22179 0.15401,0.14479 0.23102,0.27878 0.23102,0.40198 l 0.16634,0.0739 c 0.14169,0.037 0.21254,0.0924 0.21255,0.16634 l 0,0.0462 0.47129,0.50826 0.18482,0.12937 0,0.1571 0.15709,0.16634 -0.0554,0.0554 c 0.14785,0.14787 0.25258,0.30497 0.31419,0.47129 l 0.0647,-0.0924 c 0.0246,0.0986 0.0616,0.17559 0.11089,0.23103 0.0554,-0.0801 0.14477,-0.12012 0.26799,-0.12013 l 0.16634,-0.33268 0.14785,-0.0832 c 0.0185,-0.0493 0.0708,-0.0986 0.1571,-0.14785 l 0,-0.14786 0.39736,-0.34192 0,-0.10165 0.18482,-0.0924 0.0739,-0.14786 c 0.0739,-0.0554 0.13861,-0.13244 0.19406,-0.23102 0.14169,-0.0678 0.22486,-0.1232 0.24951,-0.16634 l 0.2033,-0.11089 0.21255,-0.3604 0.12937,-0.0924 c 0.037,-0.0308 0.0986,-0.11396 0.18482,-0.24951 z"
               style="line-height:328.99987698%;fill:#ffffff;stroke:#ffffff;font-family:Bradley Hand ITC;-inkscape-font-specification:Bradley Hand ITC"
               id="path3051"
               inkscape:connector-curvature="0" />
            <path
               d="m -520.17328,860.62047 -0.0924,0.2033 -0.24026,0.037 -0.57295,0 -0.26799,0.0647 -0.22178,-0.0647 -1.17361,0.10165 -0.39736,-0.10165 c -0.32652,0.12939 -0.56063,0.19407 -0.70232,0.19406 l -0.5637,0 -0.34191,-0.12937 c -10e-6,0.0616 -0.0462,0.10474 -0.13862,0.12937 -0.17251,10e-6 -0.34038,0.0247 -0.50363,0.0739 -0.16327,0.0493 -0.31575,0.0739 -0.45743,0.0739 l -0.37888,-0.14786 -0.32344,0.14786 -0.037,0.12013 -0.16634,0 -0.10165,0.18482 -0.0739,1.22906 0.0739,0.17558 -0.037,0.2033 0.0185,0.54522 -0.0554,0.55446 0,0.16634 c -10e-6,0.0801 -0.0169,0.14016 -0.0508,0.1802 -0.0339,0.04 -0.0601,0.14016 -0.0785,0.30033 l 0.14785,0.24026 -0.037,0.30496 -0.12938,0.0924 c 0,0.0739 0.037,0.16942 0.1109,0.28647 l -0.1109,0.18482 0,0.21254 -0.14785,0.22179 0.0924,0.53597 -0.037,0.77625 -0.13861,0.48977 c 0.0246,0.0493 0.037,0.0863 0.037,0.11089 0,0.037 -0.0108,0.0785 -0.0323,0.12476 -0.0216,0.0462 -0.0246,0.0924 -0.009,0.13861 0.0154,0.0462 0.0231,0.0847 0.0231,0.11551 -10e-6,0.037 -0.0308,0.1186 -0.0924,0.24489 -0.0616,0.12629 -0.0832,0.20484 -0.0647,0.23565 0.006,0.0123 0.0277,0.11089 0.0647,0.29571 -0.0616,0.16634 -0.0924,0.29263 -0.0924,0.37888 -10e-6,0.0863 0.0123,0.22486 0.037,0.41584 -0.0739,0 -0.14016,-0.009 -0.19868,-0.0277 -0.0585,-0.0185 -0.0939,-0.0277 -0.10627,-0.0277 -0.0986,0 -0.14786,-0.18174 -0.14786,-0.54522 l 0.037,-0.28647 c -10e-6,-0.10473 -0.0123,-0.25567 -0.037,-0.45281 -0.0246,-0.19714 -0.037,-0.34192 -0.037,-0.43433 l 0.11089,-1.3307 c -0.0986,-0.16634 -0.14786,-0.25875 -0.14785,-0.27723 -10e-6,-0.0678 0.0308,-0.12629 0.0924,-0.17558 -0.0493,-0.0616 -0.0739,-0.11705 -0.0739,-0.16634 -10e-6,-0.037 0.037,-0.0739 0.11089,-0.11089 -0.0493,-0.12321 -0.0739,-0.20638 -0.0739,-0.24951 0,-0.0678 0.0216,-0.15863 0.0647,-0.27261 0.0431,-0.11397 0.0647,-0.18019 0.0647,-0.19868 l -0.0185,-0.30495 c 0,-0.037 0.0585,-0.17558 0.17558,-0.41585 -0.10473,10e-6 -0.1571,-0.0832 -0.15709,-0.24951 -10e-6,-0.28954 0.037,-0.4528 0.11089,-0.48977 l 0,-0.77624 -0.11089,-0.37888 0.11089,-0.79473 -0.11089,-0.5637 0.11089,-0.44357 c -0.0493,-0.17249 -0.13554,-0.25874 -0.25875,-0.25875 -0.0678,10e-6 -0.1263,0.0308 -0.17558,0.0924 l -0.26799,0.0277 c -0.0986,0.006 -0.19714,0.0401 -0.29571,0.10165 l -0.23102,-0.0185 -0.22179,0.0185 0,0.0647 -0.1571,0 c -0.20946,10e-6 -0.37888,-0.04 -0.50825,-0.12013 l -0.037,0.12013 -0.39737,-0.12013 -1.09968,-0.037 -0.43432,0.12937 c -0.32652,-0.28338 -0.48978,-0.47128 -0.48978,-0.5637 0,-0.0246 0.0246,-0.12628 0.0739,-0.30495 l 0.30495,0 1.33995,0.26799 0.32343,-0.1109 0.88714,0.037 0.83169,0.0739 0.55446,-0.21255 0.14786,0 0.15709,-0.43432 0.25875,0.0832 0.0555,0.18482 0.12013,-0.0554 c 0.0986,0.12938 0.24334,0.23719 0.43433,0.32343 l 0.30495,-0.10165 c 0.2033,10e-6 0.37888,0.0832 0.52674,0.24951 l 0.11089,-0.14786 0.70232,-0.13861 0.43432,0.037 c 0.12321,0.0555 0.23718,0.0832 0.34192,0.0832 l 0.0924,0 c 0.11705,-0.0431 0.21254,-0.0647 0.28647,-0.0647 l 0.26799,0.0462 c 0.0554,1e-5 0.0924,-0.0216 0.11089,-0.0647 l 0.37888,-0.0554 0.43433,0.10165 c 0.0616,0.0616 0.14939,0.0724 0.26337,0.0323 0.11396,-0.04 0.18943,-0.0601 0.2264,-0.0601 l 0.34192,0.0647 0.94258,-0.0185 0.41585,0.0739 z"
               style="line-height:328.99987698%;fill:#ffffff;stroke:#ffffff;font-family:Bradley Hand ITC;-inkscape-font-specification:Bradley Hand ITC"
               id="path3053"
               inkscape:connector-curvature="0" />
            <path
               d="m -511.98161,860.04753 c -0.0185,0.0924 -0.0493,0.16326 -0.0924,0.21254 l -0.2033,0 -0.13862,0.0924 -0.25874,-0.0924 -0.30496,0.0185 c -0.14786,1e-5 -0.23565,-0.0216 -0.26337,-0.0647 -0.0277,-0.0431 -0.0724,-0.0647 -0.13399,-0.0647 -0.0493,10e-6 -0.13246,0.037 -0.24951,0.11089 -0.0801,-0.0493 -0.16018,-0.0739 -0.24026,-0.0739 -0.0801,10e-6 -0.20485,0.0339 -0.37426,0.10165 -0.16943,0.0678 -0.2911,0.10166 -0.36502,0.10165 -0.0616,10e-6 -0.14787,-0.006 -0.25875,-0.0185 -0.1109,-0.0123 -0.19715,-0.0185 -0.25875,-0.0185 -0.0801,1e-5 -0.12938,0.037 -0.14786,0.11089 -0.0986,-0.0739 -0.20023,-0.11088 -0.30495,-0.11089 -0.17867,1e-5 -0.36041,0.077 -0.54522,0.23102 l -0.19406,-0.10165 -0.16634,0.10165 -0.43432,-0.13861 -0.30496,0.17558 -0.34192,0 c -0.2033,0.0493 -0.36348,0.0878 -0.48053,0.11551 -0.11705,0.0277 -0.27107,0.0909 -0.46205,0.18944 l -0.17558,-0.12013 -0.33267,0.26799 -0.34192,-0.0185 -0.24951,0.45281 0.0924,0.3604 c -0.12321,0.0308 -0.18482,0.19407 -0.18482,0.48978 l 0.0185,0.15709 -0.0185,0.39737 0.0555,0.0739 -0.12937,0.1109 0.0739,0.11089 c -0.0924,0.19715 -0.13861,0.36964 -0.13861,0.51749 0,0.27724 0.16633,0.41586 0.49901,0.41585 0.0493,10e-6 0.12783,-0.0154 0.23565,-0.0462 0.10781,-0.0308 0.21716,-0.0308 0.32805,0 0.11089,0.0308 0.21254,0.0462 0.30496,0.0462 l 0.28647,-0.12013 0.29571,0.10165 0.19406,-0.0554 0.18482,0.0185 0.28647,-0.0647 0.16634,0.0462 0.0462,0 c 0.0739,10e-6 0.18481,-0.04 0.33267,-0.12013 0.11089,0.0555 0.2418,0.077 0.39274,0.0647 0.15093,-0.0123 0.26029,-0.0277 0.32806,-0.0462 l 0.24951,-0.0554 0.41584,0.0739 c 0.037,10e-6 0.0739,-0.037 0.11089,-0.11089 0.31419,0.0616 0.50517,0.0924 0.57295,0.0924 l 0.2033,-0.0185 0.64687,0.037 0.34192,-0.0739 c 0.0185,-0.0739 0.0924,-0.11088 0.22178,-0.11089 l 0.43433,0.0555 0.17558,-0.037 0.24026,0.0924 0.24951,-0.0554 -0.0555,0.23102 c -0.22179,0.0863 -0.38505,0.12938 -0.48977,0.12938 -0.0308,0 -0.097,-0.0139 -0.19868,-0.0416 -0.10166,-0.0277 -0.19561,-0.0447 -0.28185,-0.0508 l -0.48978,0.24026 -0.41584,-0.037 -0.24027,0.0924 -0.17558,-0.037 -0.30495,0.17557 -0.2033,-0.0554 -0.75776,0.0185 c -0.0863,1e-5 -0.16943,0.037 -0.24951,0.11089 l -0.25875,-0.0739 -0.13861,0.12938 -0.24027,-0.0739 -0.13861,0.12937 -0.3604,-0.16633 -0.25875,0.16633 -0.30496,-0.0739 c -0.0246,-0.0123 -0.0739,-0.0185 -0.14785,-0.0185 -0.0924,10e-6 -0.22179,0.0246 -0.38812,0.0739 l -0.22179,0.0739 -0.68383,0.0647 -0.14786,-0.0832 c -0.0678,0.0493 -0.25875,0.10165 -0.57294,0.1571 l -0.14786,0.36039 0.17558,0.97955 -0.10165,0.12938 0.12014,0.30495 -0.0185,0.34192 0.0647,0.0924 c 0.0185,0.0246 0.0524,0.20946 0.10165,0.55446 l 0.16634,0.18482 -0.0924,0.32343 0.19406,-0.0554 0.34192,0.52674 c 0.47436,0.36964 0.89021,0.55446 1.24753,0.55446 l 0.34192,0.0555 c 0.0616,0 0.19406,-0.0246 0.39736,-0.0739 l 0.0739,-0.10165 0.16634,0 c 0.12937,0 0.21716,-0.002 0.26337,-0.005 0.0462,-0.003 0.18019,-0.0755 0.40198,-0.21717 0.17249,1e-5 0.27414,-0.0246 0.30495,-0.0739 l 0.20331,-0.0554 c 0.0739,-0.0185 0.14476,-0.0524 0.21254,-0.10165 l 0.25875,-0.2033 c 0.0739,-0.10473 0.16941,-0.20638 0.28647,-0.30496 l 0.24951,-0.0185 0.47129,-0.41584 c 0.38195,-0.11089 0.60989,-0.31419 0.68383,-0.60991 l 0.12938,0.0739 0.0554,-0.29571 0.24951,-0.0185 0.037,-0.28648 0.0555,0 c 0.11704,1e-5 0.20021,0.0739 0.24951,0.22179 l -0.64687,0.84093 -0.23103,0.0554 c -0.22179,0.33883 -0.37273,0.5329 -0.45281,0.58218 l -0.47129,0.32343 -0.30495,0.28647 -0.12938,-0.0185 -0.23102,0.24027 -0.86866,0.3604 -0.2033,0.26799 -0.30495,-0.0924 -0.0924,0.14785 -0.0832,-0.0185 -0.14786,0.12938 -0.50825,-0.1109 -0.62839,0.28647 -0.45281,-0.17557 -0.77624,-0.39737 c -0.22179,-0.11705 -0.42047,-0.29571 -0.59605,-0.53598 -0.17558,-0.24026 -0.35424,-0.62684 -0.53598,-1.15974 -0.18174,-0.5329 -0.27261,-0.82399 -0.27261,-0.87328 l 0.0647,-0.26799 -0.13861,-0.36039 0.13861,-0.16634 -0.17558,-1.02575 c -0.16634,-0.20946 -0.26183,-0.32805 -0.28647,-0.35578 -0.0246,-0.0277 -0.037,-0.0909 -0.037,-0.18944 0,-0.22794 0.0539,-0.3681 0.16171,-0.42047 0.10781,-0.0524 0.16172,-0.0816 0.16172,-0.0878 l 0,-0.12013 c 0,-0.0862 0.0585,-0.14169 0.17558,-0.16634 l 0.0554,-0.26799 -0.0554,-0.11089 0,-0.53598 -0.0647,-0.22178 0.21255,-0.57294 c 0.0616,-0.2341 0.11089,-0.40352 0.14785,-0.50826 l -0.24026,-0.30495 -0.41585,0.037 -0.037,0 c -0.0678,10e-6 -0.12938,-0.0262 -0.18482,-0.0786 -0.0555,-0.0523 -0.0832,-0.11242 -0.0832,-0.1802 0,-0.11704 0.0832,-0.26798 0.24951,-0.45281 0.0616,-0.0246 0.10473,-0.0585 0.12937,-0.10165 0.22178,-0.0862 0.34808,-0.12936 0.37888,-0.12937 0.0431,10e-6 0.0862,0.0308 0.12938,0.0924 0.037,-0.0862 0.0893,-0.12937 0.15709,-0.12938 0.18482,10e-6 0.27723,-0.0554 0.27723,-0.16633 0,-0.037 -0.0185,-0.0832 -0.0554,-0.13862 l 0.62838,0.037 0.1109,0.21254 c 0.19713,-0.14169 0.40044,-0.21253 0.6099,-0.21254 l 0.12938,0.0185 0.39736,-0.0924 c 0.0986,10e-6 0.22486,-0.0431 0.37888,-0.12938 l 0,0.12938 c 0.11089,-0.0986 0.26798,-0.14785 0.47129,-0.14786 l 0.32344,0.0185 0.0554,0 1.802,-0.17558 0.41584,0.17558 0.12938,-0.23102 c 0.0308,0.0924 0.0801,0.13862 0.14785,0.13861 0.0185,10e-6 0.077,-0.0154 0.17558,-0.0462 l 0.2033,0.12013 0.13862,-0.12013 0.34192,0.13861 0.22178,-0.0554 0.11089,0.0924 0.60991,-0.0554 0.0924,0.0554 c 0.30186,0.0678 0.45896,0.12322 0.47129,0.16634 z"
               style="line-height:328.99987698%;fill:#ffffff;stroke:#ffffff;font-family:Bradley Hand ITC;-inkscape-font-specification:Bradley Hand ITC"
               id="path3055"
               inkscape:connector-curvature="0" />
            <path
               d="m -501.3688,865.8786 0.14786,0.23102 0.64687,0.50826 c 0.19096,0.16018 0.28645,0.44973 0.28647,0.86865 l 0.0185,0.28647 c -1e-5,0.0986 -0.077,0.25413 -0.23103,0.46667 -0.15402,0.21255 -0.34192,0.36503 -0.5637,0.45743 -0.037,0.0801 -0.11398,0.12014 -0.23102,0.12014 l -0.0555,0 c -0.17251,0.1725 -0.39429,0.25875 -0.66535,0.25875 -0.0801,0.10473 -0.19099,0.19406 -0.33268,0.26798 l -0.39736,-0.037 -0.34192,0.30495 -0.15709,-0.10165 -0.24027,0.0832 c -0.27108,0.0123 -0.41585,0.037 -0.43433,0.0739 l -0.59142,-0.0555 c -0.25876,0.1109 -0.44666,0.16634 -0.5637,0.16634 l -0.5175,-0.037 -0.3604,0.16634 -0.2033,-0.037 c -0.037,-0.037 -0.0739,-0.0554 -0.11089,-0.0554 -0.0616,0 -0.11398,0.0308 -0.1571,0.0924 l -0.60066,0 -0.17558,-0.1109 -0.12938,0.1109 -0.90561,-0.037 -0.43433,-0.0739 c -0.12938,0.0616 -0.23103,0.0924 -0.30496,0.0924 -0.13553,0 -0.31419,-0.0801 -0.53597,-0.24026 l -0.3142,0.12937 -0.10165,-0.11089 -0.2033,0 c -0.23411,0 -0.45589,-0.0385 -0.66535,-0.11551 -0.20947,-0.077 -0.34192,-0.11552 -0.39737,-0.11552 -0.0246,0 -0.0616,0.0123 -0.11089,0.037 l -0.66535,-0.47129 -0.41585,-0.1109 c -0.28955,-0.36347 -0.43432,-0.65302 -0.43432,-0.86865 0,-0.0739 0.0431,-0.25258 0.12937,-0.53598 l 0.13862,0.0185 c 0.11705,10e-6 0.19098,-0.0739 0.22178,-0.22178 l 0.28647,-0.037 -0.12937,-0.0647 0.2033,-0.0185 c 0.10473,-0.12321 0.18174,-0.18482 0.23103,-0.18482 0.13553,0 0.2033,0.11397 0.2033,0.34191 -0.16634,0.037 -0.31112,0.12322 -0.43433,0.25875 0,0.0493 -0.0493,0.1032 -0.14786,0.16172 -0.0986,0.0585 -0.16941,0.10627 -0.21254,0.14324 l 0.0554,0.11089 0,0.32343 c 0.20946,0.11706 0.40044,0.28339 0.57294,0.49902 l 0.23102,0.037 c 0.0739,0.0123 0.19714,0.0739 0.36964,0.18482 l 0.34192,-0.037 -0.037,-0.1109 0.50825,0.037 -0.11089,0.0739 0.41585,0.0739 0.0554,0.0924 0.8779,0 0,0.0647 c 0.0801,-0.0678 0.16633,-0.10165 0.25874,-0.10165 0.0493,0 0.10935,0.0139 0.1802,0.0416 0.0709,0.0277 0.20792,0.0477 0.41123,0.0601 l 0.037,0.11089 0.25875,0.0185 0.28647,0 0.19406,0.0739 -0.0832,-0.0739 c 0.1725,-0.0739 0.31419,-0.1109 0.42509,-0.1109 0.0616,0 0.12321,0.0308 0.18482,0.0924 0.11089,-0.0739 0.24334,-0.11089 0.39736,-0.11089 0.13553,0 0.28647,0.0247 0.45281,0.0739 0.0801,-0.0616 0.16941,-0.0924 0.26799,-0.0924 0.0924,0 0.18789,0.0308 0.28647,0.0924 l 0.6746,-0.19406 0.13861,-0.18482 0.58218,0.0739 0.4713,-0.1109 -0.0739,-0.0185 c 0.0246,-0.0246 0.24025,-0.0431 0.64687,-0.0554 0.0369,-0.0431 0.0678,-0.0647 0.0924,-0.0647 l 0.12937,0.0185 0.48053,-0.2033 0.0924,0.037 0,-0.0924 0.32344,0 0,-0.037 c -1e-5,-0.11705 0.0986,-0.17558 0.29571,-0.17558 l 0.13862,0 0.0739,-0.0739 -0.0554,-0.0739 c 0.0986,-0.10472 0.17249,-0.15709 0.22178,-0.15709 0.14169,0 0.21253,-0.0493 0.21255,-0.14786 0.16016,-0.24026 0.24025,-0.40352 0.24026,-0.48977 -10e-6,-0.29571 -0.48362,-0.64379 -1.45084,-1.04423 l -0.83169,-0.34192 c -0.21563,0 -0.52058,-0.0739 -0.91486,-0.22179 -0.1725,-0.14169 -0.38505,-0.21253 -0.63762,-0.21254 -0.16019,10e-6 -0.28032,0.0123 -0.3604,0.037 l -0.1109,-0.14786 -0.26799,0.11089 -0.21254,-0.24027 -0.29571,0.0739 -0.53598,-0.26799 -0.34192,0 -0.22178,-0.16633 -0.30495,0 -0.12938,-0.19407 -0.037,0.0924 -0.21254,0 -0.26799,-0.31419 c -0.60375,-0.006 -0.99495,-0.11397 -1.17361,-0.32343 l -0.2033,0.0554 -0.12938,-0.30495 -0.30495,-0.32344 c -0.16634,-0.40043 -0.29263,-0.65302 -0.37888,-0.75776 l 0.0739,-0.5637 0.30495,-0.39736 c 0.11705,-0.0493 0.2033,-0.16325 0.25875,-0.34192 0.19098,-0.12321 0.33883,-0.19097 0.44357,-0.2033 0.0308,0.0493 0.0678,0.0739 0.11089,0.0739 l 0.18482,-0.26799 0.0832,0.12937 0.037,-0.12937 0.69308,-0.24027 -0.2033,-0.0462 0.18482,0.0185 c 0.21561,10e-6 0.34807,-0.0678 0.39736,-0.2033 0.28954,0 0.61298,-0.0431 0.9703,-0.12938 l -0.0924,-0.0832 c 0.0308,-0.0246 0.0863,-0.037 0.16634,-0.037 0.0924,10e-6 0.15401,0.0123 0.18482,0.037 l -0.0554,-0.0554 0.15709,0.0185 c 0.12321,1e-5 0.2033,-0.0554 0.24027,-0.16634 l 0.10165,0 0.22178,-0.0185 c 0.037,10e-6 0.0554,0.006 0.0555,0.0185 l 0,0.0739 c 0.0862,-0.0616 0.16941,-0.0924 0.24951,-0.0924 l 0.11089,0 1.11816,-0.11089 0.0555,0.11089 0,-0.12938 0.2495,-0.15709 c 0.0616,0.12938 0.18789,0.19407 0.37888,0.19406 l 0.0924,0 c 0.30187,1e-5 0.50517,0.0308 0.60991,0.0924 l -0.13861,0.0185 c 0.24025,10e-6 0.58525,0.0724 1.03499,0.21716 0.44972,0.14479 0.67458,0.38043 0.67459,0.70694 -1e-5,0.24028 -0.16019,0.38505 -0.48053,0.43433 l -0.0739,-0.16634 -0.61915,-0.21254 -0.26799,0 -0.21254,-0.25875 -0.39736,0.0554 -0.12938,-0.12937 -0.16633,0.2033 -0.26799,-0.2033 -0.57294,0.0739 -0.63763,-0.17558 -0.17558,0.10165 c -0.40045,0.0185 -0.63764,0.0555 -0.71156,0.11089 -0.0247,-0.0123 -0.0709,-0.0185 -0.13862,-0.0185 -0.0924,10e-6 -0.17866,0.0493 -0.25874,0.14786 l -0.44357,0.037 -1.17361,0.43433 -0.29571,-0.0739 -0.43433,0.34192 -0.24951,0 -0.18482,0.26799 -0.48053,0.34191 c -0.0493,0.0247 -0.0739,0.0493 -0.0739,0.0739 l 0,0.0185 c 0.0616,0.20331 0.0986,0.37273 0.1109,0.50826 l 0.19406,0.0924 0.0924,0.19406 0.28647,0.0739 0.21254,0.14785 c 0.0616,0.0431 0.23718,0.12014 0.52674,0.23103 l 0.037,0.0924 0.43433,0 0.5637,0.37888 0.23103,-0.0739 c 0.14169,0.0431 0.29108,0.11706 0.44819,0.22179 0.15709,0.10473 0.26644,0.1571 0.32805,0.15709 0.0554,10e-6 0.12321,-0.0246 0.2033,-0.0739 l 0,0.12938 0.64687,0.0554 0.19406,0.12014 0,-0.0647 0.12938,0 0.28647,0.19406 c 0.33883,10e-6 0.56985,0.037 0.69307,0.11089 0.0739,-0.0123 0.16941,-0.0185 0.28648,-0.0185 0.16016,10e-6 0.30032,0.057 0.42046,0.17096 0.12012,0.11398 0.20791,0.17096 0.26337,0.17096 l 0.037,0 0.20331,-0.0554 0.13861,0.0554 0.25875,0 0.51749,0.37888 z"
               style="line-height:328.99987698%;fill:#ffffff;stroke:#ffffff;font-family:Bradley Hand ITC;-inkscape-font-specification:Bradley Hand ITC"
               id="path3057"
               inkscape:connector-curvature="0" />
            <path
               d="m -488.18699,860.62047 -0.0924,0.2033 -0.24026,0.037 -0.57295,0 -0.26799,0.0647 -0.22178,-0.0647 -1.17361,0.10165 -0.39736,-0.10165 c -0.32652,0.12939 -0.56063,0.19407 -0.70232,0.19406 l -0.5637,0 -0.34191,-0.12937 c -10e-6,0.0616 -0.0462,0.10474 -0.13862,0.12937 -0.17251,10e-6 -0.34038,0.0247 -0.50363,0.0739 -0.16327,0.0493 -0.31575,0.0739 -0.45743,0.0739 l -0.37889,-0.14786 -0.32343,0.14786 -0.037,0.12013 -0.16634,0 -0.10165,0.18482 -0.0739,1.22906 0.0739,0.17558 -0.037,0.2033 0.0185,0.54522 -0.0554,0.55446 0,0.16634 c -10e-6,0.0801 -0.017,0.14016 -0.0508,0.1802 -0.0339,0.04 -0.0601,0.14016 -0.0786,0.30033 l 0.14786,0.24026 -0.037,0.30496 -0.12938,0.0924 c 0,0.0739 0.037,0.16942 0.11089,0.28647 l -0.11089,0.18482 0,0.21254 -0.14785,0.22179 0.0924,0.53597 -0.037,0.77625 -0.13861,0.48977 c 0.0246,0.0493 0.037,0.0863 0.037,0.11089 0,0.037 -0.0108,0.0785 -0.0323,0.12476 -0.0216,0.0462 -0.0247,0.0924 -0.009,0.13861 0.0154,0.0462 0.0231,0.0847 0.0231,0.11551 -10e-6,0.037 -0.0308,0.1186 -0.0924,0.24489 -0.0616,0.12629 -0.0832,0.20484 -0.0647,0.23565 0.006,0.0123 0.0277,0.11089 0.0647,0.29571 -0.0616,0.16634 -0.0924,0.29263 -0.0924,0.37888 -10e-6,0.0863 0.0123,0.22486 0.037,0.41584 -0.0739,0 -0.14016,-0.009 -0.19868,-0.0277 -0.0585,-0.0185 -0.094,-0.0277 -0.10627,-0.0277 -0.0986,0 -0.14786,-0.18174 -0.14786,-0.54522 l 0.037,-0.28647 c -10e-6,-0.10473 -0.0123,-0.25567 -0.037,-0.45281 -0.0246,-0.19714 -0.037,-0.34192 -0.037,-0.43433 l 0.11089,-1.3307 c -0.0986,-0.16634 -0.14786,-0.25875 -0.14785,-0.27723 -1e-5,-0.0678 0.0308,-0.12629 0.0924,-0.17558 -0.0493,-0.0616 -0.0739,-0.11705 -0.0739,-0.16634 -10e-6,-0.037 0.037,-0.0739 0.11089,-0.11089 -0.0493,-0.12321 -0.0739,-0.20638 -0.0739,-0.24951 0,-0.0678 0.0216,-0.15863 0.0647,-0.27261 0.0431,-0.11397 0.0647,-0.18019 0.0647,-0.19868 l -0.0185,-0.30495 c 0,-0.037 0.0585,-0.17558 0.17558,-0.41585 -0.10473,10e-6 -0.1571,-0.0832 -0.15709,-0.24951 -10e-6,-0.28954 0.037,-0.4528 0.11089,-0.48977 l 0,-0.77624 -0.11089,-0.37888 0.11089,-0.79473 -0.11089,-0.5637 0.11089,-0.44357 c -0.0493,-0.17249 -0.13554,-0.25874 -0.25875,-0.25875 -0.0678,10e-6 -0.1263,0.0308 -0.17558,0.0924 l -0.26799,0.0277 c -0.0986,0.006 -0.19714,0.0401 -0.29571,0.10165 l -0.23102,-0.0185 -0.22179,0.0185 0,0.0647 -0.1571,0 c -0.20946,10e-6 -0.37888,-0.04 -0.50825,-0.12013 l -0.037,0.12013 -0.39736,-0.12013 -1.09968,-0.037 -0.43432,0.12937 c -0.32652,-0.28338 -0.48978,-0.47128 -0.48978,-0.5637 0,-0.0246 0.0246,-0.12628 0.0739,-0.30495 l 0.30495,0 1.33995,0.26799 0.32343,-0.1109 0.88714,0.037 0.83169,0.0739 0.55446,-0.21255 0.14786,0 0.15709,-0.43432 0.25875,0.0832 0.0555,0.18482 0.12013,-0.0554 c 0.0986,0.12938 0.24334,0.23719 0.43433,0.32343 l 0.30495,-0.10165 c 0.2033,10e-6 0.37888,0.0832 0.52674,0.24951 l 0.11089,-0.14786 0.70232,-0.13861 0.43432,0.037 c 0.12321,0.0555 0.23718,0.0832 0.34192,0.0832 l 0.0924,0 c 0.11704,-0.0431 0.21253,-0.0647 0.28647,-0.0647 l 0.26799,0.0462 c 0.0554,1e-5 0.0924,-0.0216 0.11089,-0.0647 l 0.37888,-0.0554 0.43433,0.10165 c 0.0616,0.0616 0.14939,0.0724 0.26337,0.0323 0.11396,-0.04 0.18943,-0.0601 0.2264,-0.0601 l 0.34192,0.0647 0.94258,-0.0185 0.41585,0.0739 z"
               style="line-height:328.99987698%;fill:#ffffff;stroke:#ffffff;font-family:Bradley Hand ITC;-inkscape-font-specification:Bradley Hand ITC"
               id="path3059"
               inkscape:connector-curvature="0" />
            <path
               d="m -485.29041,867.28323 -0.037,0.18482 -0.17558,0.12937 -0.0739,0.23103 -0.25874,0.0739 c -0.0801,0.24643 -0.16943,0.40352 -0.26799,0.47129 l -0.23103,0.0832 -0.2033,0.22178 c -0.0493,0.0246 -0.1571,0.13862 -0.32344,0.34192 l -0.12937,0 c -0.0862,0.12321 -0.22487,0.19406 -0.41584,0.21254 -0.13554,0.16634 -0.21255,0.26491 -0.23103,0.29571 -0.0924,0.0616 -0.21101,0.10628 -0.35578,0.134 -0.14478,0.0277 -0.23565,0.0477 -0.27261,0.0601 l -0.0739,0.11089 -0.30495,0 -0.16634,0.12937 -0.47129,-0.35116 -0.26799,-0.6099 -0.037,-0.97955 -0.0554,-0.19406 0.18482,-1.55249 0.12014,-0.0924 -0.0555,-0.9703 c 0,-0.11705 0.0169,-0.2264 0.0508,-0.32806 0.0339,-0.10165 0.0662,-0.2418 0.097,-0.42047 l 0.0739,-0.0462 c 0,-0.17249 -0.0431,-0.34807 -0.12937,-0.52674 l 0.0739,-0.2495 0,-0.35116 0.0924,-0.12014 c -0.0123,-0.0862 -0.0339,-0.18635 -0.0647,-0.30033 -0.0308,-0.11396 -0.0462,-0.17711 -0.0462,-0.18944 -10e-6,-0.0986 0.0246,-0.14785 0.0739,-0.14785 0.0123,0.0123 0.0247,0.0185 0.037,0.0185 -0.0862,-0.19714 -0.12938,-0.32343 -0.12938,-0.37888 0,-0.0924 0.0431,-0.13861 0.12938,-0.13862 0.0246,10e-6 0.0662,0.0169 0.12475,0.0508 0.0585,0.0339 0.10627,0.0508 0.14324,0.0508 0.0123,1e-5 0.0431,-0.0123 0.0924,-0.037 0,-0.10473 0.0431,-0.15709 0.12937,-0.1571 0.0739,10e-6 0.11551,0.0139 0.12475,0.0416 0.009,0.0277 0.0262,0.14632 0.0508,0.35577 l 0.2033,0.0924 -0.16634,0.21255 -0.19406,1.21057 0.1571,0.30495 c 0,0.1417 -0.0585,0.26184 -0.17558,0.3604 l -0.0554,0.24027 0.0554,0.21254 -0.22178,0.77624 0.0185,0.0924 -0.0924,0.62839 0,0.45281 -0.13862,0.30495 0.037,0.25875 -0.037,0.43433 c 0,0.345 0.0524,0.62839 0.1571,0.85017 l -0.0185,0.10165 0.16634,0.1109 0.19406,-0.0554 0.22178,0.0924 0.26799,-0.12938 c 0.0678,-0.0554 0.17558,-0.10165 0.32344,-0.13861 l 0.12937,-0.12937 0.037,0.0554 0.1109,-0.14785 0.19406,-0.0554 c 0.14169,-0.12321 0.29879,-0.20638 0.47129,-0.24951 0.0431,-0.0801 0.13245,-0.12937 0.26799,-0.14785 l 0.11089,-0.17558 0.21254,-0.0185 -0.0462,-0.20331 0.0832,0 0.037,-0.10165 0.39736,-0.2033 0.037,-0.23102 0.3604,0.0185 c 0.0246,0.0308 0.0493,0.0709 0.0739,0.12013 z m -1.46932,-10.14662 0.0924,0.037 c 0.25874,0.0678 0.37887,0.13863 0.36039,0.21255 l -0.13861,0.52673 c -0.25875,2e-5 -0.42201,0.0893 -0.48977,0.26799 l -0.0555,-0.0462 -0.68383,0.68383 -0.1109,-0.037 -0.26798,0.3604 -0.14786,0.037 0.0185,0.17558 -0.26799,0.0924 0,0.14786 -0.16634,0.0554 c -0.14169,0.2526 -0.22486,0.41278 -0.2495,0.48053 l -0.16634,0.0739 0,0.14786 c -0.0801,0.0246 -0.23103,0.15094 -0.45281,0.37888 l -0.28647,-0.26799 0.2033,-0.16634 0.10165,-0.34191 0.37888,-0.20331 0.22179,-0.44356 0.17558,-0.037 0.11089,-0.3604 0.0739,0.0647 0,-0.10165 0.11089,-0.037 0.0832,-0.14785 c 0.60374,-0.55445 0.90561,-0.90253 0.90562,-1.04424 l 0,-0.0185 c 0.0308,-0.0986 0.0862,-0.14784 0.16633,-0.14785 l 0.26799,-0.30496 z"
               style="line-height:328.99987698%;fill:#ffffff;stroke:#ffffff;font-family:Bradley Hand ITC;-inkscape-font-specification:Bradley Hand ITC"
               id="path3061"
               inkscape:connector-curvature="0" />
          </g>
          <text
             transform="matrix(0.69112171,-0.71925271,0.77004245,0.64553736,0,0)"
             sodipodi:linespacing="125%"
             id="text7789"
             y="775.36731"
             x="-697.4751"
             style="font-size:12.65544224px;font-style:normal;font-variant:normal;font-weight:normal;font-stretch:normal;line-height:125%;letter-spacing:0px;word-spacing:0px;fill:#000000;fill-opacity:1;stroke:none;font-family:Bradley Hand ITC;-inkscape-font-specification:Bradley Hand ITC"
             xml:space="preserve"><tspan
               style="font-size:18.07920265px;fill:#ffffff;fill-opacity:1;stroke:#ffffff;stroke-width:0.72316813;stroke-miterlimit:4;stroke-opacity:1;stroke-dasharray:none"
               y="775.36731"
               x="-697.4751"
               id="tspan7791"
               sodipodi:role="line">ˇ</tspan></text>
        </g>
      </g>
    </g>
  </g>
</svg>
