<?xml version="1.0" encoding="UTF-8" standalone="no"?>
<!-- Created with Inkscape (http://www.inkscape.org/) -->

<svg
   xmlns:dc="http://purl.org/dc/elements/1.1/"
   xmlns:cc="http://creativecommons.org/ns#"
   xmlns:rdf="http://www.w3.org/1999/02/22-rdf-syntax-ns#"
   xmlns:svg="http://www.w3.org/2000/svg"
   xmlns="http://www.w3.org/2000/svg"
   xmlns:xlink="http://www.w3.org/1999/xlink"
   xmlns:sodipodi="http://sodipodi.sourceforge.net/DTD/sodipodi-0.dtd"
   xmlns:inkscape="http://www.inkscape.org/namespaces/inkscape"
   id="svg2984"
   version="1.1"
   inkscape:version="0.48.5 r10040"
   width="175"
   height="175"
   sodipodi:docname="truhla.jpg">
  <metadata
     id="metadata2990">
    <rdf:RDF>
      <cc:Work
         rdf:about="">
        <dc:format>image/svg+xml</dc:format>
        <dc:type
           rdf:resource="http://purl.org/dc/dcmitype/StillImage" />
        <dc:title></dc:title>
      </cc:Work>
    </rdf:RDF>
  </metadata>
  <defs
     id="defs2988">
    <linearGradient
       inkscape:collect="always"
       id="linearGradient5745">
      <stop
         style="stop-color:#706b68;stop-opacity:1;"
         offset="0"
         id="stop5747" />
      <stop
         style="stop-color:#706b68;stop-opacity:0;"
         offset="1"
         id="stop5749" />
    </linearGradient>
    <linearGradient
       inkscape:collect="always"
       id="linearGradient5567">
      <stop
         style="stop-color:#6d6161;stop-opacity:1;"
         offset="0"
         id="stop5569" />
      <stop
         style="stop-color:#6d6161;stop-opacity:0;"
         offset="1"
         id="stop5571" />
    </linearGradient>
    <linearGradient
       id="linearGradient3830">
      <stop
         style="stop-color:#fffbff;stop-opacity:0;"
         offset="0"
         id="stop3832" />
      <stop
         style="stop-color:#333333;stop-opacity:1"
         offset="1"
         id="stop3834" />
    </linearGradient>
    <radialGradient
       inkscape:collect="always"
       xlink:href="#linearGradient5567"
       id="radialGradient5573"
       cx="143.67867"
       cy="113.45673"
       fx="143.67867"
       fy="113.45673"
       r="75.683526"
       gradientTransform="matrix(-0.26096249,0.01575563,-0.03905578,-0.64686429,202.57327,151.02909)"
       gradientUnits="userSpaceOnUse" />
    <radialGradient
       inkscape:collect="always"
       xlink:href="#linearGradient5567"
       id="radialGradient5575"
       gradientUnits="userSpaceOnUse"
       gradientTransform="matrix(-0.24173274,-0.00381144,0.01199161,-0.76064658,194.0187,166.74983)"
       cx="143.67867"
       cy="113.45673"
       fx="143.67867"
       fy="113.45673"
       r="75.683526" />
    <radialGradient
       inkscape:collect="always"
       xlink:href="#linearGradient5567"
       id="radialGradient5603"
       gradientUnits="userSpaceOnUse"
       gradientTransform="matrix(-0.26096249,0.01575563,-0.03905578,-0.64686429,202.57327,151.02909)"
       cx="143.67867"
       cy="113.45673"
       fx="143.67867"
       fy="113.45673"
       r="75.683526" />
    <radialGradient
       inkscape:collect="always"
       xlink:href="#linearGradient5567"
       id="radialGradient5605"
       gradientUnits="userSpaceOnUse"
       gradientTransform="matrix(-0.26096249,0.01575563,-0.03905578,-0.64686429,202.57327,151.02909)"
       cx="143.67867"
       cy="113.45673"
       fx="143.67867"
       fy="113.45673"
       r="75.683526" />
    <radialGradient
       inkscape:collect="always"
       xlink:href="#linearGradient5745"
       id="radialGradient5751"
       gradientUnits="userSpaceOnUse"
       gradientTransform="matrix(-0.29645759,0.01560905,-0.0418474,-0.79469181,208.28322,157.33175)"
       cx="158.61993"
       cy="47.394325"
       fx="158.61993"
       fy="47.394325"
       r="75.683526" />
    <radialGradient
       inkscape:collect="always"
       xlink:href="#linearGradient5745"
       id="radialGradient5913"
       gradientUnits="userSpaceOnUse"
       gradientTransform="matrix(-0.29645759,0.01560905,-0.0418474,-0.79469181,208.28322,157.33175)"
       cx="158.61993"
       cy="47.394325"
       fx="158.61993"
       fy="47.394325"
       r="75.683526" />
    <radialGradient
       inkscape:collect="always"
       xlink:href="#linearGradient5745"
       id="radialGradient5915"
       gradientUnits="userSpaceOnUse"
       gradientTransform="matrix(-0.29645759,0.01560905,-0.0418474,-0.79469181,208.28322,157.33175)"
       cx="158.61993"
       cy="47.394325"
       fx="158.61993"
       fy="47.394325"
       r="75.683526" />
    <radialGradient
       inkscape:collect="always"
       xlink:href="#linearGradient5567"
       id="radialGradient5917"
       gradientUnits="userSpaceOnUse"
       gradientTransform="matrix(-0.26096249,0.01575563,-0.03905578,-0.64686429,202.57327,151.02909)"
       cx="143.67867"
       cy="113.45673"
       fx="143.67867"
       fy="113.45673"
       r="75.683526" />
    <radialGradient
       inkscape:collect="always"
       xlink:href="#linearGradient5567"
       id="radialGradient5919"
       gradientUnits="userSpaceOnUse"
       gradientTransform="matrix(-0.26096249,0.01575563,-0.03905578,-0.64686429,202.57327,151.02909)"
       cx="143.67867"
       cy="113.45673"
       fx="143.67867"
       fy="113.45673"
       r="75.683526" />
    <radialGradient
       inkscape:collect="always"
       xlink:href="#linearGradient5567"
       id="radialGradient5921"
       gradientUnits="userSpaceOnUse"
       gradientTransform="matrix(-0.26096249,0.01575563,-0.03905578,-0.64686429,202.57327,151.02909)"
       cx="143.67867"
       cy="113.45673"
       fx="143.67867"
       fy="113.45673"
       r="75.683526" />
    <radialGradient
       inkscape:collect="always"
       xlink:href="#linearGradient5567"
       id="radialGradient5923"
       gradientUnits="userSpaceOnUse"
       gradientTransform="matrix(-0.26096249,0.01575563,-0.03905578,-0.64686429,202.57327,151.02909)"
       cx="143.67867"
       cy="113.45673"
       fx="143.67867"
       fy="113.45673"
       r="75.683526" />
    <radialGradient
       inkscape:collect="always"
       xlink:href="#linearGradient5567"
       id="radialGradient5925"
       gradientUnits="userSpaceOnUse"
       gradientTransform="matrix(-0.26096249,0.01575563,-0.03905578,-0.64686429,202.57327,151.02909)"
       cx="143.67867"
       cy="113.45673"
       fx="143.67867"
       fy="113.45673"
       r="75.683526" />
    <radialGradient
       inkscape:collect="always"
       xlink:href="#linearGradient5567"
       id="radialGradient5927"
       gradientUnits="userSpaceOnUse"
       gradientTransform="matrix(-0.26096249,0.01575563,-0.03905578,-0.64686429,202.57327,151.02909)"
       cx="143.67867"
       cy="113.45673"
       fx="143.67867"
       fy="113.45673"
       r="75.683526" />
    <radialGradient
       inkscape:collect="always"
       xlink:href="#linearGradient5567"
       id="radialGradient5929"
       gradientUnits="userSpaceOnUse"
       gradientTransform="matrix(-0.26096249,0.01575563,-0.03905578,-0.64686429,202.57327,151.02909)"
       cx="143.67867"
       cy="113.45673"
       fx="143.67867"
       fy="113.45673"
       r="75.683526" />
    <radialGradient
       inkscape:collect="always"
       xlink:href="#linearGradient5567"
       id="radialGradient5931"
       gradientUnits="userSpaceOnUse"
       gradientTransform="matrix(-0.26096249,0.01575563,-0.03905578,-0.64686429,202.57327,151.02909)"
       cx="143.67867"
       cy="113.45673"
       fx="143.67867"
       fy="113.45673"
       r="75.683526" />
    <radialGradient
       inkscape:collect="always"
       xlink:href="#linearGradient5567"
       id="radialGradient5933"
       gradientUnits="userSpaceOnUse"
       gradientTransform="matrix(-0.26096249,0.01575563,-0.03905578,-0.64686429,202.57327,151.02909)"
       cx="143.67867"
       cy="113.45673"
       fx="143.67867"
       fy="113.45673"
       r="75.683526" />
    <radialGradient
       inkscape:collect="always"
       xlink:href="#linearGradient5567"
       id="radialGradient5935"
       gradientUnits="userSpaceOnUse"
       gradientTransform="matrix(-0.26096249,0.01575563,-0.03905578,-0.64686429,202.57327,151.02909)"
       cx="143.67867"
       cy="113.45673"
       fx="143.67867"
       fy="113.45673"
       r="75.683526" />
    <radialGradient
       inkscape:collect="always"
       xlink:href="#linearGradient5567"
       id="radialGradient5937"
       gradientUnits="userSpaceOnUse"
       gradientTransform="matrix(-0.26096249,0.01575563,-0.03905578,-0.64686429,202.57327,151.02909)"
       cx="143.67867"
       cy="113.45673"
       fx="143.67867"
       fy="113.45673"
       r="75.683526" />
  </defs>
  <sodipodi:namedview
     pagecolor="#ffffff"
     bordercolor="#666666"
     borderopacity="1"
     objecttolerance="10"
     gridtolerance="10"
     guidetolerance="10"
     inkscape:pageopacity="0"
     inkscape:pageshadow="2"
     inkscape:window-width="1360"
     inkscape:window-height="706"
     id="namedview2986"
     showgrid="false"
     inkscape:zoom="1"
     inkscape:cx="40.457318"
     inkscape:cy="181.21712"
     inkscape:window-x="-8"
     inkscape:window-y="-8"
     inkscape:window-maximized="1"
     inkscape:current-layer="layer1" />
  <g
     inkscape:groupmode="layer"
     id="layer1"
     inkscape:label="obrázek"
     transform="translate(0,-3281)" />
  <g
     inkscape:groupmode="layer"
     id="layer2"
     inkscape:label="vektor">
    <g
       style="fill:#4d2820;fill-opacity:1"
       id="g5553"
       transform="matrix(1.1433765,0,0,0.99968649,-17.463985,-3.857163)">
      <path
         style="fill:#4d2820;fill-opacity:1;stroke:#000000;stroke-width:0.5;stroke-linecap:butt;stroke-linejoin:miter;stroke-miterlimit:4;stroke-opacity:1;stroke-dasharray:none"
         d="M 16.127168,103 146.55503,99.368185 166.99422,99.67052 C 166.77109,76.94628 164.69613,56.977503 156.27746,46.815028 L 34.38761,56.52415 C 19.470162,63.330546 17.11893,80.02029 16.127168,103 z"
         id="path5555"
         inkscape:connector-curvature="0"
         sodipodi:nodetypes="cccccc" />
      <path
         style="fill:#4d2820;fill-opacity:1;stroke:#000000;stroke-width:0.5;stroke-linecap:butt;stroke-linejoin:miter;stroke-miterlimit:4;stroke-opacity:1;stroke-dasharray:none"
         d="m 146.49711,99.358381 c -0.28445,-49.127466 6.32888,-51.922868 9.57225,-52.647399"
         id="path5557"
         inkscape:connector-curvature="0"
         sodipodi:nodetypes="cc" />
    </g>
    <g
       id="g5541"
       style="fill:url(#radialGradient5937);fill-opacity:1"
       transform="matrix(1.1433765,0,0,0.99968649,-17.463985,-3.857163)">
      <g
         id="g5731"
         style="fill:#4d2820;fill-opacity:1">
        <path
           style="fill:#4d2820;fill-opacity:1;stroke:#000000;stroke-width:0.5;stroke-linecap:butt;stroke-linejoin:miter;stroke-miterlimit:4;stroke-opacity:1;stroke-dasharray:none"
           d="m 15.89151,103.56178 0.956433,48.18953 129.927807,5.15003 21.70368,-12.06578 c -0.48687,-15.01473 -0.61438,-29.96957 -1.48036,-45.047493 l -20.59118,-0.419882 z"
           id="path5733"
           inkscape:connector-curvature="0"
           sodipodi:nodetypes="ccccccc" />
        <path
           style="fill:#4d2820;fill-opacity:1;stroke:#000000;stroke-width:0.5;stroke-linecap:butt;stroke-linejoin:miter;stroke-miterlimit:4;stroke-opacity:1;stroke-dasharray:none"
           d="m 146.44509,99.514451 0.72832,57.433529"
           id="path5735"
           inkscape:connector-curvature="0" />
      </g>
      <path
         sodipodi:nodetypes="cccccc"
         inkscape:connector-curvature="0"
         id="path3806"
         d="M 16.127168,103 146.55503,99.368185 166.99422,99.67052 C 166.77109,76.94628 164.69613,56.977503 156.27746,46.815028 L 34.38761,56.52415 C 19.470162,63.330546 17.11893,80.02029 16.127168,103 z"
         style="fill:url(#radialGradient5575);fill-opacity:1;stroke:#000000;stroke-width:0.5;stroke-linecap:butt;stroke-linejoin:miter;stroke-miterlimit:4;stroke-opacity:1;stroke-dasharray:none" />
      <g
         id="g5581"
         style="fill:url(#radialGradient5751);fill-opacity:1">
        <path
           sodipodi:nodetypes="ccccccc"
           inkscape:connector-curvature="0"
           id="path5577"
           d="m 15.89151,103.56178 0.956433,48.18953 129.927807,5.15003 21.70368,-12.06578 c -0.48687,-15.01473 -0.61438,-29.96957 -1.48036,-45.047493 l -20.59118,-0.419882 z"
           style="fill:url(#radialGradient5913);fill-opacity:1;stroke:#000000;stroke-width:0.5;stroke-linecap:butt;stroke-linejoin:miter;stroke-miterlimit:4;stroke-opacity:1;stroke-dasharray:none" />
        <path
           inkscape:connector-curvature="0"
           id="path5579"
           d="m 146.44509,99.514451 0.72832,57.433529"
           style="fill:url(#radialGradient5915);fill-opacity:1;stroke:#000000;stroke-width:0.5;stroke-linecap:butt;stroke-linejoin:miter;stroke-miterlimit:4;stroke-opacity:1;stroke-dasharray:none" />
      </g>
      <path
         style="fill:#333333;fill-opacity:1;stroke:#000000;stroke-width:0.5;stroke-linecap:butt;stroke-linejoin:miter;stroke-miterlimit:4;stroke-opacity:1;stroke-dasharray:none"
         d="m 15.974007,106.87251 9.334694,-0.14714 1.765723,2.06001 0.147144,4.48788 -1.986439,2.28072 -9.044869,-0.0736 z"
         id="path5585"
         inkscape:connector-curvature="0"
         sodipodi:nodetypes="ccccccc" />
      <g
         style="fill:url(#radialGradient5917)"
         id="g5591">
        <path
           transform="matrix(0.65325804,0,0,0.65325804,4.3700112,38.018116)"
           d="m 35.020178,112.33521 c 0,1.20882 -1.004647,2.18876 -2.243941,2.18876 -1.239293,0 -2.24394,-0.97994 -2.24394,-2.18876 0,-1.20882 1.004647,-2.18876 2.24394,-2.18876 1.239294,0 2.243941,0.97994 2.243941,2.18876 z"
           sodipodi:ry="2.1887612"
           sodipodi:rx="2.2439401"
           sodipodi:cy="112.33521"
           sodipodi:cx="32.776237"
           id="path5587"
           style="fill:#c87137;fill-opacity:1;stroke:none"
           sodipodi:type="arc" />
        <path
           transform="translate(-3.5314466,-0.14714361)"
           d="m 29.833367,111.59949 c 0,0.27427 -0.222339,0.49661 -0.496609,0.49661 -0.27427,0 -0.49661,-0.22234 -0.49661,-0.49661 0,-0.27427 0.22234,-0.49661 0.49661,-0.49661 0.27427,0 0.496609,0.22234 0.496609,0.49661 z"
           sodipodi:ry="0.49660969"
           sodipodi:rx="0.49660969"
           sodipodi:cy="111.59949"
           sodipodi:cx="29.336758"
           id="path5589"
           style="fill:#6b6663;fill-opacity:1;stroke:none"
           sodipodi:type="arc" />
      </g>
      <path
         sodipodi:nodetypes="cccccc"
         inkscape:connector-curvature="0"
         id="path5595"
         d="m 16.761031,141.75551 9.022651,-0.12873 1.706698,1.80234 c 0.09727,1.95625 0.09017,3.96391 0.147044,5.86994 l -10.667369,-0.0124 z"
         style="fill:#333333;fill-opacity:1;stroke:#000000;stroke-width:0.45980155;stroke-linecap:butt;stroke-linejoin:miter;stroke-miterlimit:4;stroke-opacity:1;stroke-dasharray:none" />
      <g
         id="g5643"
         style="fill:url(#radialGradient5919)">
        <path
           transform="translate(-5.9046243,-0.70231214)"
           d="m 33.254456,146.67485 c 0,0.89392 -0.774072,1.61858 -1.728938,1.61858 -0.954865,0 -1.728937,-0.72466 -1.728937,-1.61858 0,-0.89392 0.774072,-1.61858 1.728937,-1.61858 0.954866,0 1.728938,0.72466 1.728938,1.61858 z"
           sodipodi:ry="1.6185797"
           sodipodi:rx="1.7289374"
           sodipodi:cy="146.67485"
           sodipodi:cx="31.525518"
           id="path5639"
           style="fill:#c87137;fill-opacity:1;stroke:none"
           sodipodi:type="arc" />
        <path
           transform="translate(-10.040462,-1.6647399)"
           d="m 36.270898,147.70486 c 0,0.32507 -0.263514,0.58858 -0.588575,0.58858 -0.32506,0 -0.588574,-0.26351 -0.588574,-0.58858 0,-0.32506 0.263514,-0.58857 0.588574,-0.58857 0.325061,0 0.588575,0.26351 0.588575,0.58857 z"
           sodipodi:ry="0.58857441"
           sodipodi:rx="0.58857441"
           sodipodi:cy="147.70486"
           sodipodi:cx="35.682323"
           id="path5641"
           style="fill:#6b6663;fill-opacity:1;stroke:none"
           sodipodi:type="arc" />
      </g>
      <path
         style="fill:#333333;fill-opacity:1;stroke:#000000;stroke-width:0.5;stroke-linecap:butt;stroke-linejoin:miter;stroke-miterlimit:4;stroke-opacity:1;stroke-dasharray:none"
         d="m 41.420926,152.74453 -0.698932,-46.86524 1.545007,-1.91287 3.825734,-0.0368 1.655366,1.65536 0.80929,47.52739 z"
         id="path5647"
         inkscape:connector-curvature="0" />
      <g
         id="g5663"
         style="fill:url(#radialGradient5921)">
        <path
           transform="translate(-5.9306359,-0.98843931)"
           d="m 52.751446,152.52602 c 0,0.83321 -0.675455,1.50867 -1.508671,1.50867 -0.833216,0 -1.508671,-0.67546 -1.508671,-1.50867 0,-0.83322 0.675455,-1.50867 1.508671,-1.50867 0.833216,0 1.508671,0.67545 1.508671,1.50867 z"
           sodipodi:ry="1.5086706"
           sodipodi:rx="1.5086706"
           sodipodi:cy="152.52602"
           sodipodi:cx="51.242775"
           id="path5651"
           style="fill:#c87137;fill-opacity:1;stroke:none"
           sodipodi:type="arc" />
        <path
           transform="translate(-8.9479769,-1.4566474)"
           d="m 54.728325,153.04625 c 0,0.25858 -0.209624,0.46821 -0.468208,0.46821 -0.258585,0 -0.468209,-0.20963 -0.468209,-0.46821 0,-0.25858 0.209624,-0.46821 0.468209,-0.46821 0.258584,0 0.468208,0.20963 0.468208,0.46821 z"
           sodipodi:ry="0.4682081"
           sodipodi:rx="0.4682081"
           sodipodi:cy="153.04625"
           sodipodi:cx="54.260117"
           id="path5653"
           style="fill:#6b6663;fill-opacity:1;stroke:none"
           sodipodi:type="arc" />
      </g>
      <g
         id="g5667"
         style="fill:url(#radialGradient5923)">
        <path
           transform="translate(-6.6069364,-0.15606936)"
           d="m 52.803467,125.52601 c 0,0.89068 -0.722038,1.61272 -1.612717,1.61272 -0.890679,0 -1.612717,-0.72204 -1.612717,-1.61272 0,-0.89068 0.722038,-1.61272 1.612717,-1.61272 0.890679,0 1.612717,0.72204 1.612717,1.61272 z"
           sodipodi:ry="1.6127168"
           sodipodi:rx="1.6127168"
           sodipodi:cy="125.52601"
           sodipodi:cx="51.19075"
           id="path5655"
           style="fill:#c87137;fill-opacity:1;stroke:none"
           sodipodi:type="arc" />
        <path
           transform="translate(-9.3121388,0)"
           d="m 54.416186,125.5 c 0,0.27295 -0.221269,0.49422 -0.494219,0.49422 -0.27295,0 -0.49422,-0.22127 -0.49422,-0.49422 0,-0.27295 0.22127,-0.49422 0.49422,-0.49422 0.27295,0 0.494219,0.22127 0.494219,0.49422 z"
           sodipodi:ry="0.49421966"
           sodipodi:rx="0.49421966"
           sodipodi:cy="125.5"
           sodipodi:cx="53.921967"
           id="path5657"
           style="fill:#6b6663;fill-opacity:1;stroke:none"
           sodipodi:type="arc" />
      </g>
      <g
         id="g5671"
         style="fill:url(#radialGradient5925)">
        <path
           transform="translate(-7.3352601,0)"
           d="m 52.387284,106.87572 c 0,0.87631 -0.710392,1.5867 -1.586705,1.5867 -0.876313,0 -1.586705,-0.71039 -1.586705,-1.5867 0,-0.87632 0.710392,-1.58671 1.586705,-1.58671 0.876313,0 1.586705,0.71039 1.586705,1.58671 z"
           sodipodi:ry="1.5867052"
           sodipodi:rx="1.5867052"
           sodipodi:cy="106.87572"
           sodipodi:cx="50.800579"
           id="path5659"
           style="fill:#c87137;fill-opacity:1;stroke:none"
           sodipodi:type="arc" />
        <path
           transform="translate(-10.092486,-0.10404624)"
           d="m 53.999999,107.03179 c 0,0.27295 -0.22127,0.49422 -0.49422,0.49422 -0.27295,0 -0.494219,-0.22127 -0.494219,-0.49422 0,-0.27295 0.221269,-0.49422 0.494219,-0.49422 0.27295,0 0.49422,0.22127 0.49422,0.49422 z"
           sodipodi:ry="0.49421966"
           sodipodi:rx="0.49421966"
           sodipodi:cy="107.03179"
           sodipodi:cx="53.505779"
           id="path5661"
           style="fill:#6b6663;fill-opacity:1;stroke:none"
           sodipodi:type="arc" />
      </g>
      <path
         style="fill:#333333;fill-opacity:1;stroke:#000000;stroke-width:0.5;stroke-linecap:butt;stroke-linejoin:miter;stroke-miterlimit:4;stroke-opacity:1;stroke-dasharray:none"
         d="m 133.75354,141.96626 13.16935,0.58857 2.42787,-1.32429 1.10358,2.8693 -0.14714,3.60502 -0.44144,2.3543 -2.64858,1.98644 -13.3165,-0.22072 -2.94287,-2.94287 0.29429,-4.48788 z"
         id="path5701"
         inkscape:connector-curvature="0" />
      <g
         id="g5713"
         style="fill:url(#radialGradient5927)">
        <path
           transform="translate(2.7221568,7.2100368)"
           d="m 132.06139,139.39125 c 0,1.01582 -0.82348,1.8393 -1.8393,1.8393 -1.01581,0 -1.83929,-0.82348 -1.83929,-1.8393 0,-1.01581 0.82348,-1.83929 1.83929,-1.83929 1.01582,0 1.8393,0.82348 1.8393,1.83929 z"
           sodipodi:ry="1.8392951"
           sodipodi:rx="1.8392951"
           sodipodi:cy="139.39125"
           sodipodi:cx="130.22209"
           id="path5703"
           style="fill:#a36439;fill-opacity:1;stroke:none"
           sodipodi:type="arc" />
        <path
           transform="translate(9.7850499,2.0600105)"
           d="m 123.82135,144.61484 c 0,0.36569 -0.29645,0.66214 -0.66215,0.66214 -0.36569,0 -0.66214,-0.29645 -0.66214,-0.66214 0,-0.3657 0.29645,-0.66215 0.66214,-0.66215 0.3657,0 0.66215,0.29645 0.66215,0.66215 z"
           sodipodi:ry="0.66214621"
           sodipodi:rx="0.66214621"
           sodipodi:cy="144.61484"
           sodipodi:cx="123.1592"
           id="path5705"
           style="fill:#6b6663;fill-opacity:1;stroke:none"
           sodipodi:type="arc" />
      </g>
      <g
         id="g5719"
         style="fill:url(#radialGradient5929)">
        <path
           transform="translate(-1.556865,-0.43773365)"
           d="m 151.82949,146.12717 c 0,0.97687 -0.20381,1.76878 -0.45521,1.76878 -0.2514,0 -0.4552,-0.79191 -0.4552,-1.76878 0,-0.97688 0.2038,-1.76879 0.4552,-1.76879 0.2514,0 0.45521,0.79191 0.45521,1.76879 z"
           sodipodi:ry="1.7687862"
           sodipodi:rx="0.45520231"
           sodipodi:cy="146.12717"
           sodipodi:cx="151.37428"
           id="path5707"
           style="fill:#a36439;fill-opacity:1;stroke:none"
           sodipodi:type="arc" />
        <path
           transform="translate(-3.6785902,-0.36416185)"
           d="m 153.78035,145.9841 c 0,0.28013 -0.0815,0.50723 -0.18208,0.50723 -0.10056,0 -0.18208,-0.2271 -0.18208,-0.50723 0,-0.28013 0.0815,-0.50723 0.18208,-0.50723 0.10056,0 0.18208,0.2271 0.18208,0.50723 z"
           sodipodi:ry="0.50722545"
           sodipodi:rx="0.18208092"
           sodipodi:cy="145.9841"
           sodipodi:cx="153.59827"
           id="path5709"
           style="fill:#6b6663;fill-opacity:1;stroke:none"
           sodipodi:type="arc" />
      </g>
      <path
         sodipodi:type="arc"
         style="fill:#6b6663;fill-opacity:1;stroke:#000000;stroke-width:0.1;stroke-miterlimit:4;stroke-opacity:1;stroke-dasharray:none"
         id="path5711"
         sodipodi:cx="133.30925"
         sodipodi:cy="109.42486"
         sodipodi:rx="0.650289"
         sodipodi:ry="0.70231211"
         d="m 133.95954,109.42486 c 0,0.38787 -0.29115,0.70231 -0.65029,0.70231 -0.35914,0 -0.65029,-0.31444 -0.65029,-0.70231 0,-0.38788 0.29115,-0.70231 0.65029,-0.70231 0.35914,0 0.65029,0.31443 0.65029,0.70231 z" />
      <path
         sodipodi:type="arc"
         style="fill:#989187;fill-opacity:1;stroke:none"
         id="path5723"
         sodipodi:cx="149.79219"
         sodipodi:cy="109.20841"
         sodipodi:rx="0.36785901"
         sodipodi:ry="1.7841163"
         d="m 150.16005,109.20841 c 0,0.98534 -0.1647,1.78412 -0.36786,1.78412 -0.20316,0 -0.36786,-0.79878 -0.36786,-1.78412 0,-0.98534 0.1647,-1.78411 0.36786,-1.78411 0.20316,0 0.36786,0.79877 0.36786,1.78411 z"
         transform="translate(-0.01839293,-0.14714361)" />
      <path
         sodipodi:type="arc"
         style="fill:#5d4b49;fill-opacity:1;stroke:none"
         id="path5725"
         sodipodi:cx="149.90256"
         sodipodi:cy="109.02448"
         sodipodi:rx="0.11035771"
         sodipodi:ry="0.75411099"
         d="m 150.01292,109.02448 c 0,0.41649 -0.0494,0.75411 -0.11036,0.75411 -0.0609,0 -0.11036,-0.33762 -0.11036,-0.75411 0,-0.41648 0.0494,-0.75411 0.11036,-0.75411 0.061,0 0.11036,0.33763 0.11036,0.75411 z"
         transform="matrix(1.5833333,0,0,1,-87.452353,-0.07357183)" />
      <path
         style="fill:#333333;fill-opacity:1;stroke:#000000;stroke-width:0.5;stroke-linecap:butt;stroke-linejoin:miter;stroke-miterlimit:4;stroke-opacity:1;stroke-dasharray:none"
         d="m 168.16406,134.78125 -1.25781,-0.53125 -0.6875,2.5625 -0.125,2.25 0.6875,3.03125 1.54688,-0.59375 z"
         id="path5727"
         inkscape:connector-curvature="0"
         sodipodi:nodetypes="ccccccc" />
      <path
         style="fill:#333333;fill-opacity:1;stroke:#000000;stroke-width:0.5;stroke-linecap:butt;stroke-linejoin:miter;stroke-miterlimit:4;stroke-opacity:1;stroke-dasharray:none"
         d="m 167.23438,104.39063 -1.39063,-0.60938 -0.625,4.25 0.53125,3.46875 1.78125,-0.40625 z"
         id="path5729"
         inkscape:connector-curvature="0"
         sodipodi:nodetypes="cccccc" />
      <path
         inkscape:connector-curvature="0"
         id="path5675"
         d="m 108.74075,155.39203 -1.47306,-50.57954 1.8393,-2.28072 3.56823,-0.0368 2.57502,2.3175 1.5634,50.91169 z"
         style="fill:#333333;fill-opacity:1;stroke:#000000;stroke-width:0.5;stroke-linecap:butt;stroke-linejoin:miter;stroke-miterlimit:4;stroke-opacity:1;stroke-dasharray:none"
         sodipodi:nodetypes="ccccccc" />
      <g
         id="g5681"
         style="fill:url(#radialGradient5931)">
        <path
           transform="translate(-7.4307522,-0.29428722)"
           d="m 120.27746,106.12138 c 0,1.00561 -0.81521,1.82081 -1.82081,1.82081 -1.00561,0 -1.82081,-0.8152 -1.82081,-1.82081 0,-1.0056 0.8152,-1.82081 1.82081,-1.82081 1.0056,0 1.82081,0.81521 1.82081,1.82081 z"
           sodipodi:ry="1.8208092"
           sodipodi:rx="1.8208092"
           sodipodi:cy="106.12138"
           sodipodi:cx="118.45665"
           id="path5677"
           style="fill:#c87137;fill-opacity:1;stroke:none"
           sodipodi:type="arc" />
        <path
           transform="translate(-11.035771,-0.29428722)"
           d="m 122.64421,106.21037 c 0,0.28443 -0.23058,0.51501 -0.51501,0.51501 -0.28442,0 -0.515,-0.23058 -0.515,-0.51501 0,-0.28443 0.23058,-0.515 0.515,-0.515 0.28443,0 0.51501,0.23057 0.51501,0.515 z"
           sodipodi:ry="0.51500261"
           sodipodi:rx="0.51500261"
           sodipodi:cy="106.21037"
           sodipodi:cx="122.1292"
           id="path5679"
           style="fill:#6b6663;fill-opacity:1;stroke:none"
           sodipodi:type="arc" />
      </g>
      <g
         id="g5689"
         style="fill:url(#radialGradient5933)">
        <path
           transform="translate(-7.5778958,-0.51500263)"
           d="m 120.51061,124.75046 c 0,0.97518 -0.79054,1.76572 -1.76572,1.76572 -0.97518,0 -1.76573,-0.79054 -1.76573,-1.76572 0,-0.97518 0.79055,-1.76573 1.76573,-1.76573 0.97518,0 1.76572,0.79055 1.76572,1.76573 z"
           sodipodi:ry="1.7657233"
           sodipodi:rx="1.7657233"
           sodipodi:cy="124.75046"
           sodipodi:cx="118.74489"
           id="path5685"
           style="fill:#c87137;fill-opacity:1;stroke:none"
           sodipodi:type="arc" />
        <path
           transform="translate(-10.888627,-0.66214624)"
           d="m 122.64421,124.8976 c 0,0.28443 -0.23058,0.515 -0.51501,0.515 -0.28442,0 -0.515,-0.23057 -0.515,-0.515 0,-0.28443 0.23058,-0.515 0.515,-0.515 0.28443,0 0.51501,0.23057 0.51501,0.515 z"
           sodipodi:ry="0.51500261"
           sodipodi:rx="0.51500261"
           sodipodi:cy="124.8976"
           sodipodi:cx="122.1292"
           id="path5687"
           style="fill:#6b6663;fill-opacity:1;stroke:none"
           sodipodi:type="arc" />
      </g>
      <g
         id="g5697"
         style="fill:url(#radialGradient5935)">
        <path
           transform="translate(-6.6950342,-0.36785902)"
           d="m 121.52602,153.82658 c 0,1.03434 -0.8385,1.87284 -1.87284,1.87284 -1.03433,0 -1.87283,-0.8385 -1.87283,-1.87284 0,-1.03433 0.8385,-1.87283 1.87283,-1.87283 1.03434,0 1.87284,0.8385 1.87284,1.87283 z"
           sodipodi:ry="1.8728324"
           sodipodi:rx="1.8728324"
           sodipodi:cy="153.82658"
           sodipodi:cx="119.65318"
           id="path5693"
           style="fill:#a36439;fill-opacity:1;stroke:none"
           sodipodi:type="arc" />
        <path
           transform="translate(-10.667912,-0.44143082)"
           d="m 124.26278,153.95847 c 0,0.36569 -0.29646,0.66214 -0.66215,0.66214 -0.36569,0 -0.66214,-0.29645 -0.66214,-0.66214 0,-0.3657 0.29645,-0.66215 0.66214,-0.66215 0.36569,0 0.66215,0.29645 0.66215,0.66215 z"
           sodipodi:ry="0.66214621"
           sodipodi:rx="0.66214621"
           sodipodi:cy="153.95847"
           sodipodi:cx="123.60063"
           id="path5695"
           style="fill:#6b6663;fill-opacity:1;stroke:none"
           sodipodi:type="arc" />
      </g>
    </g>
    <path
       style="fill:#333333;fill-opacity:1;stroke:#000000;stroke-width:0.53456008;stroke-linecap:butt;stroke-linejoin:miter;stroke-miterlimit:4;stroke-opacity:1;stroke-dasharray:none"
       d="m 37.130071,93.494054 c 0.334273,-17.107378 2.693603,-37.925618 18.1172,-43.63964 -3.438312,0.271868 -6.776449,0.280977 -10.420195,1.091695 C 29.122029,63.23801 29.078975,78.837428 29.054525,92.758567 l 1.934766,2.280011 4.963097,0 z"
       id="path3818"
       inkscape:connector-curvature="0"
       sodipodi:nodetypes="ccccccc" />
    <g
       id="g5433"
       transform="matrix(1.1433765,0,0,0.99968649,-17.463985,-3.857163)">
      <path
         transform="translate(-6.4508671,-0.20809249)"
         d="m 58.636729,64.679077 c 0,0.670438 -0.691724,1.213935 -1.545008,1.213935 -0.853285,0 -1.545008,-0.543497 -1.545008,-1.213935 0,-0.670438 0.691723,-1.213935 1.545008,-1.213935 0.853284,0 1.545008,0.543497 1.545008,1.213935 z"
         sodipodi:ry="1.2139348"
         sodipodi:rx="1.5450079"
         sodipodi:cy="64.679077"
         sodipodi:cx="57.091721"
         id="path3822"
         style="fill:#c87137;fill-opacity:1;stroke:none"
         sodipodi:type="arc" />
      <path
         transform="translate(-9.5722544,-0.52023122)"
         d="m 60.843881,65.010155 c 0,0.284428 -0.263514,0.515002 -0.588575,0.515002 -0.32506,0 -0.588574,-0.230574 -0.588574,-0.515002 0,-0.284428 0.263514,-0.515003 0.588574,-0.515003 0.325061,0 0.588575,0.230575 0.588575,0.515003 z"
         sodipodi:ry="0.51500261"
         sodipodi:rx="0.58857441"
         sodipodi:cy="65.010155"
         sodipodi:cx="60.255306"
         id="path3824"
         style="fill:#6b6663;fill-opacity:1;stroke:none"
         sodipodi:type="arc" />
    </g>
    <g
       id="g5423"
       transform="matrix(1.1433765,0,0,0.99968649,-17.463985,-3.857163)">
      <path
         transform="translate(-7.1791908,-0.41618497)"
         d="m 53.118843,96.020668 c 0,0.995498 -0.807011,1.802509 -1.802509,1.802509 -0.995499,0 -1.802509,-0.807011 -1.802509,-1.802509 0,-0.995498 0.80701,-1.802509 1.802509,-1.802509 0.995498,0 1.802509,0.807011 1.802509,1.802509 z"
         sodipodi:ry="1.8025092"
         sodipodi:rx="1.8025092"
         sodipodi:cy="96.020668"
         sodipodi:cx="51.316334"
         id="path3820"
         style="fill:#c87137;fill-opacity:1;stroke:none"
         sodipodi:type="arc" />
      <path
         transform="translate(-10.716763,-0.52023122)"
         d="m 55.546713,96.204597 c 0,0.365694 -0.296452,0.662147 -0.662146,0.662147 -0.365693,0 -0.662146,-0.296453 -0.662146,-0.662147 0,-0.365693 0.296453,-0.662146 0.662146,-0.662146 0.365694,0 0.662146,0.296453 0.662146,0.662146 z"
         sodipodi:ry="0.66214621"
         sodipodi:rx="0.66214621"
         sodipodi:cy="96.204597"
         sodipodi:cx="54.884567"
         id="path3826"
         style="fill:#6b6663;fill-opacity:1;stroke:none"
         sodipodi:type="arc" />
    </g>
    <path
       style="fill:#333333;fill-opacity:1;stroke:#000000;stroke-width:0.53456008;stroke-linecap:butt;stroke-linejoin:miter;stroke-miterlimit:4;stroke-opacity:1;stroke-dasharray:none"
       d="m 8.2137283,64.276817 8.9798377,-0.7171 2.271248,2.500658 -3.617172,3.236144 -10.3888527,0.845811 z"
       id="path3808"
       inkscape:connector-curvature="0"
       sodipodi:nodetypes="cccccc" />
    <g
       id="g5765"
       transform="matrix(1.1433765,0,0,0.99968649,-17.463985,-3.857163)">
      <path
         transform="matrix(1.1285714,0,0,1.0714286,-9.2353423,-6.1491632)"
         d="m 35.976613,70.859108 c 0,0.71107 -0.576437,1.287507 -1.287507,1.287507 -0.71107,0 -1.287507,-0.576437 -1.287507,-1.287507 0,-0.71107 0.576437,-1.287507 1.287507,-1.287507 0.71107,0 1.287507,0.576437 1.287507,1.287507 z"
         sodipodi:ry="1.2875066"
         sodipodi:rx="1.2875066"
         sodipodi:cy="70.859108"
         sodipodi:cx="34.689106"
         id="path3810"
         style="fill:#c87137;fill-opacity:1;stroke:none"
         sodipodi:type="arc" />
      <path
         sodipodi:type="arc"
         style="fill:#6b6663;fill-opacity:1;stroke:none"
         id="path3828"
         sodipodi:cx="135.75838"
         sodipodi:cy="65.50676"
         sodipodi:rx="0.64375329"
         sodipodi:ry="0.64375329"
         d="m 136.40213,65.50676 c 0,0.355535 -0.28822,0.643753 -0.64375,0.643753 -0.35554,0 -0.64376,-0.288218 -0.64376,-0.643753 0,-0.355535 0.28822,-0.643754 0.64376,-0.643754 0.35553,0 0.64375,0.288219 0.64375,0.643754 z"
         transform="matrix(0.77142857,0,0,0.77142857,-74.803348,19.272368)" />
    </g>
    <path
       sodipodi:nodetypes="ccccccc"
       inkscape:connector-curvature="0"
       id="path5413"
       d="m 115.46673,90.685685 c 1.01111,-17.107378 -0.70003,-40.383191 13.82108,-46.097214 -3.4383,0.271868 -7.36528,-0.08676 -11.00902,0.723951 -14.57362,11.857337 -11.77078,31.302734 -12.49362,45.001825 l 1.39944,2.175996 6.45014,-0.05201 z"
       style="fill:#333333;fill-opacity:1;stroke:#000000;stroke-width:0.53456008;stroke-linecap:butt;stroke-linejoin:miter;stroke-miterlimit:4;stroke-opacity:1;stroke-dasharray:none" />
    <g
       id="g5427"
       transform="matrix(1.1433765,0,0,0.99968649,59.926665,-6.9462101)">
      <path
         sodipodi:type="arc"
         style="fill:#c87137;fill-opacity:1;stroke:none"
         id="path5429"
         sodipodi:cx="51.316334"
         sodipodi:cy="96.020668"
         sodipodi:rx="1.8025092"
         sodipodi:ry="1.8025092"
         d="m 53.118843,96.020668 c 0,0.995498 -0.807011,1.802509 -1.802509,1.802509 -0.995499,0 -1.802509,-0.807011 -1.802509,-1.802509 0,-0.995498 0.80701,-1.802509 1.802509,-1.802509 0.995498,0 1.802509,0.807011 1.802509,1.802509 z"
         transform="translate(-7.1791908,-0.41618497)" />
      <path
         sodipodi:type="arc"
         style="fill:#6b6663;fill-opacity:1;stroke:none"
         id="path5431"
         sodipodi:cx="54.884567"
         sodipodi:cy="96.204597"
         sodipodi:rx="0.66214621"
         sodipodi:ry="0.66214621"
         d="m 55.546713,96.204597 c 0,0.365694 -0.296452,0.662147 -0.662146,0.662147 -0.365693,0 -0.662146,-0.296453 -0.662146,-0.662147 0,-0.365693 0.296453,-0.662146 0.662146,-0.662146 0.365694,0 0.662146,0.296453 0.662146,0.662146 z"
         transform="translate(-10.716763,-0.52023122)" />
    </g>
    <g
       id="g5437"
       transform="matrix(1.1433765,0,0,0.99968649,56.769569,-7.9136945)">
      <path
         sodipodi:type="arc"
         style="fill:#c87137;fill-opacity:1;stroke:none"
         id="path5439"
         sodipodi:cx="57.091721"
         sodipodi:cy="64.679077"
         sodipodi:rx="1.5450079"
         sodipodi:ry="1.2139348"
         d="m 58.636729,64.679077 c 0,0.670438 -0.691724,1.213935 -1.545008,1.213935 -0.853285,0 -1.545008,-0.543497 -1.545008,-1.213935 0,-0.670438 0.691723,-1.213935 1.545008,-1.213935 0.853284,0 1.545008,0.543497 1.545008,1.213935 z"
         transform="translate(-6.4508671,-0.20809249)" />
      <path
         sodipodi:type="arc"
         style="fill:#6b6663;fill-opacity:1;stroke:none"
         id="path5441"
         sodipodi:cx="60.255306"
         sodipodi:cy="65.010155"
         sodipodi:rx="0.58857441"
         sodipodi:ry="0.51500261"
         d="m 60.843881,65.010155 c 0,0.284428 -0.263514,0.515002 -0.588575,0.515002 -0.32506,0 -0.588574,-0.230574 -0.588574,-0.515002 0,-0.284428 0.263514,-0.515003 0.588574,-0.515003 0.325061,0 0.588575,0.230575 0.588575,0.515003 z"
         transform="translate(-9.5722544,-0.52023122)" />
    </g>
    <path
       style="fill:#333333;fill-opacity:1;stroke:#000000;stroke-width:0.53456008;stroke-linecap:butt;stroke-linejoin:miter;stroke-miterlimit:4;stroke-opacity:1;stroke-dasharray:none"
       d="m 161.33895,43.515263 0.23791,10.817418 0.83274,3.172415 c 2.1188,-3.247406 0.72672,-7.569974 1.07068,-11.597519 z"
       id="path5443"
       inkscape:connector-curvature="0"
       sodipodi:nodetypes="ccccc" />
    <path
       style="fill:#333333;fill-opacity:1;stroke:#000000;stroke-width:0.53456008;stroke-linecap:butt;stroke-linejoin:miter;stroke-miterlimit:4;stroke-opacity:1;stroke-dasharray:none"
       d="m 169.10135,57.68712 c -0.52808,1.93989 -0.98871,3.80687 -1.8142,6.526855 l 0.59482,4.160545 0.77327,1.768231 c 0.71378,-2.110531 1.42756,-4.053053 2.14135,-6.03279 z"
       id="path5445"
       inkscape:connector-curvature="0"
       sodipodi:nodetypes="cccccc" />
    <g
       id="g5523"
       transform="matrix(1.1433765,0,0,0.99968649,-17.463985,-3.857163)">
      <path
         sodipodi:nodetypes="sccccccccccccsccccccccsccccccccccc"
         inkscape:connector-curvature="0"
         id="path5447"
         d="m 76.375,91.5 c -2.296497,0.107978 -4.551647,1.010876 -6.84375,2.78125 l 0.15625,4.875 c -0.131332,0.17524 -0.228999,0.358999 -0.3125,0.53125 0.08557,-0.171201 0.214986,-0.335999 0.34375,-0.5 l 4.1875,-0.21875 0.25,0.1875 4.25,-0.125 0.15625,-0.21875 4.875,-0.09375 c 0.04931,0.650013 0.17676,1.078026 0.09375,2.125 L 83.625,100.6875 C 83.471073,97.826546 83.473157,95.901331 83.40625,93.5625 81.016057,92.095932 78.671497,91.392022 76.375,91.5 z m -7,8.1875 c -0.282565,0.5829 -0.291298,1.11899 0.15625,1.65625 -0.433246,-0.60678 -0.402885,-1.16279 -0.15625,-1.65625 z m 8.96875,1.34375 -4.125,0.0625 -0.3125,0.15625 -4.3125,0.15625 c 0.07042,0.0782 0.129038,0.17296 0.21875,0.25 l 1.411786,1.75 c 0.05428,0.0673 -1.177986,2.1486 -0.0055,3.53125 -0.414576,0.71741 -0.896103,1.2562 -1.03125,2.71875 0.319355,1.98874 1.370831,3.40848 2.5625,4.71875 0.990223,1.72278 1.579616,4.29721 3.03125,5.09375 2.87831,-0.26076 3.340912,-2.95752 4.71875,-4.71875 1.501813,-1.64684 2.274389,-3.43574 2.40625,-5.4375 -0.171667,-1.07971 -0.587855,-1.96892 -1.25,-2.65625 0.263251,-1.13591 0.638996,-2.15014 0.4375,-3.84375 l 1.25,-1.75 -4.5,0.1875 z"
         style="fill:#202020;fill-opacity:1;stroke:#000000;stroke-width:0.5;stroke-linecap:butt;stroke-linejoin:miter;stroke-miterlimit:4;stroke-opacity:1;stroke-dasharray:none" />
      <path
         transform="translate(5.260384,-0.40464492)"
         d="m 68.201066,97.933533 c 0,0.751703 -0.658785,1.361078 -1.471436,1.361078 -0.812652,0 -1.471437,-0.609375 -1.471437,-1.361078 0,-0.751703 0.658785,-1.361079 1.471437,-1.361079 0.812651,0 1.471436,0.609376 1.471436,1.361079 z"
         sodipodi:ry="1.3610784"
         sodipodi:rx="1.471436"
         sodipodi:cy="97.933533"
         sodipodi:cx="66.72963"
         id="path5465"
         style="fill:#292420;fill-opacity:1;stroke:none"
         sodipodi:type="arc" />
      <path
         transform="translate(0,6.6950342)"
         d="m 78.280402,88.038124 c 0,0.93455 -0.708193,1.692152 -1.581794,1.692152 -0.8736,0 -1.581793,-0.757602 -1.581793,-1.692152 0,-0.934549 0.708193,-1.692151 1.581793,-1.692151 0.873601,0 1.581794,0.757602 1.581794,1.692151 z"
         sodipodi:ry="1.6921515"
         sodipodi:rx="1.5817938"
         sodipodi:cy="88.038124"
         sodipodi:cx="76.698608"
         id="path5467"
         style="fill:#292420;fill-opacity:1;stroke:none"
         sodipodi:type="arc" />
      <path
         transform="translate(-4.7821673,-0.36785902)"
         d="m 87.329729,97.308174 c 0,0.690754 -0.609375,1.250721 -1.361078,1.250721 -0.751703,0 -1.361079,-0.559967 -1.361079,-1.250721 0,-0.690754 0.609376,-1.25072 1.361079,-1.25072 0.751703,0 1.361078,0.559966 1.361078,1.25072 z"
         sodipodi:ry="1.2507206"
         sodipodi:rx="1.3610784"
         sodipodi:cy="97.308174"
         sodipodi:cx="85.968651"
         id="path5469"
         style="fill:#292420;fill-opacity:1;stroke:none"
         sodipodi:type="arc" />
      <g
         id="g5519">
        <path
           sodipodi:type="arc"
           style="fill:#433333;fill-opacity:1;stroke:#000000;stroke-width:0.1040833;stroke-miterlimit:4;stroke-opacity:1;stroke-dasharray:none"
           id="path5474"
           sodipodi:cx="76.992889"
           sodipodi:cy="111.10289"
           sodipodi:rx="0.84607571"
           sodipodi:ry="1.4346502"
           d="m 77.838965,111.10289 c 0,0.79234 -0.378801,1.43465 -0.846076,1.43465 -0.467274,0 -0.846075,-0.64231 -0.846075,-1.43465 0,-0.79234 0.378801,-1.43465 0.846075,-1.43465 0.467275,0 0.846076,0.64231 0.846076,1.43465 z"
           transform="matrix(1,0,0,0.92307692,-0.05517887,8.3072677)" />
        <path
           style="fill:#494641;fill-opacity:1;stroke:#000000;stroke-width:0.11597875;stroke-miterlimit:4;stroke-opacity:1;stroke-dasharray:none"
           d="m 76.1875,109.03125 c -0.888262,0 -1.625,0.8144 -1.625,1.8125 0,0.9981 0.736738,1.8125 1.625,1.8125 0.666197,0 1.224591,-0.44511 1.46875,-1.09375 -0.149679,0.37288 -0.416633,0.625 -0.71875,0.625 -0.467275,0 -0.84375,-0.58111 -0.84375,-1.3125 0,-0.73139 0.376475,-1.34375 0.84375,-1.34375 0.332221,0 0.611564,0.3139 0.75,0.75 -0.216138,-0.71144 -0.793661,-1.25 -1.5,-1.25 z"
           id="path5480"
           inkscape:connector-curvature="0" />
      </g>
      <path
         sodipodi:nodetypes="ccccccccccccc"
         inkscape:connector-curvature="0"
         id="path5485"
         d="m 69.635713,99.184256 4.248771,-0.220716 0.331073,0.239109 4.138414,-0.165537 0.239109,-0.257501 4.874132,-0.110358 c 0.0072,0.797566 0.101701,1.638777 0.01839,2.391087 l -4.561452,0.20232 -0.643753,-0.22072 -4.083236,0.0736 -0.404644,0.18393 -4.1752,0.14714 c -0.64104,-0.75251 -0.538239,-1.513381 0.0184,-2.262354 z"
         style="fill:#202020;fill-opacity:1;stroke:#000000;stroke-width:0.5;stroke-linecap:butt;stroke-linejoin:miter;stroke-miterlimit:4;stroke-opacity:1;stroke-dasharray:none" />
    </g>
    <path
       style="fill:#333333;stroke:#000000;stroke-width:0.53456008;stroke-linecap:butt;stroke-linejoin:miter;stroke-miterlimit:4;stroke-opacity:1;stroke-dasharray:none"
       d="m 135.13018,62.82423 3.44894,2.206463 12.53392,-0.809037 2.77596,6.913581 1.2618,-0.147097 0.29942,-5.942056 -3.34543,-7.822564 -13.19056,0.801645 -3.331,2.444319 z"
       id="path3020"
       inkscape:connector-curvature="0"
       sodipodi:nodetypes="cccccccccc" />
    <g
       id="g5757"
       transform="matrix(1.1433765,0,0,0.99968649,-17.463985,-3.857163)">
      <path
         transform="matrix(1.0530973,0,0,1.0530973,-7.5494789,-4.1012329)"
         d="m 137.36705,65.972542 c 0,0.811667 -0.65798,1.469653 -1.46965,1.469653 -0.81167,0 -1.46965,-0.657986 -1.46965,-1.469653 0,-0.811667 0.65798,-1.469653 1.46965,-1.469653 0.81167,0 1.46965,0.657986 1.46965,1.469653 z"
         sodipodi:ry="1.4696531"
         sodipodi:rx="1.4696531"
         sodipodi:cy="65.972542"
         sodipodi:cx="135.8974"
         id="path3790"
         style="fill:#c87137;fill-opacity:1;stroke:none"
         sodipodi:type="arc" />
      <path
         transform="translate(-0.21940827,-0.12428778)"
         d="m 136.40213,65.50676 c 0,0.355535 -0.28822,0.643753 -0.64375,0.643753 -0.35554,0 -0.64376,-0.288218 -0.64376,-0.643753 0,-0.355535 0.28822,-0.643754 0.64376,-0.643754 0.35553,0 0.64375,0.288219 0.64375,0.643754 z"
         sodipodi:ry="0.64375329"
         sodipodi:rx="0.64375329"
         sodipodi:cy="65.50676"
         sodipodi:cx="135.75838"
         id="path3792"
         style="fill:#6b6663;fill-opacity:1;stroke:none"
         sodipodi:type="arc" />
    </g>
    <g
       id="g5761"
       transform="matrix(1.1433765,0,0,0.99968649,-17.463985,-3.857163)">
      <path
         transform="matrix(0.77460319,0,0,0.93333334,31.873738,4.549903)"
         d="m 153.59826,72.28035 c 0,1.005605 -0.36684,1.820809 -0.81936,1.820809 -0.45252,0 -0.81936,-0.815204 -0.81936,-1.820809 0,-1.005605 0.36684,-1.82081 0.81936,-1.82081 0.45252,0 0.81936,0.815205 0.81936,1.82081 z"
         sodipodi:ry="1.8208092"
         sodipodi:rx="0.81936419"
         sodipodi:cy="72.28035"
         sodipodi:cx="152.7789"
         id="path3794"
         style="fill:#c87137;fill-opacity:1;stroke:none"
         sodipodi:type="arc" />
      <path
         transform="translate(-4.2919075,-0.5982659)"
         d="m 154.89885,72.670517 c 0,0.316047 -0.13393,0.572254 -0.29913,0.572254 -0.16521,0 -0.29914,-0.256207 -0.29914,-0.572254 0,-0.316047 0.13393,-0.572254 0.29914,-0.572254 0.1652,0 0.29913,0.256207 0.29913,0.572254 z"
         sodipodi:ry="0.57225436"
         sodipodi:rx="0.29913294"
         sodipodi:cy="72.670517"
         sodipodi:cx="154.59972"
         id="path3796"
         style="fill:#666666;fill-opacity:1;stroke:none"
         sodipodi:type="arc" />
    </g>
  </g>
</svg>
