<?xml version="1.0" encoding="UTF-8" standalone="no"?>
<!-- Created with Inkscape (http://www.inkscape.org/) -->

<svg
   xmlns:dc="http://purl.org/dc/elements/1.1/"
   xmlns:cc="http://creativecommons.org/ns#"
   xmlns:rdf="http://www.w3.org/1999/02/22-rdf-syntax-ns#"
   xmlns:svg="http://www.w3.org/2000/svg"
   xmlns="http://www.w3.org/2000/svg"
   xmlns:sodipodi="http://sodipodi.sourceforge.net/DTD/sodipodi-0.dtd"
   xmlns:inkscape="http://www.inkscape.org/namespaces/inkscape"
   width="175"
   height="175.00354"
   id="svg2"
   inkscape:label="Pozadí"
   version="1.1"
   inkscape:version="0.48.5 r10040"
   sodipodi:docname="zidle.svg">
  <defs
     id="defs3" />
  <sodipodi:namedview
     id="base"
     pagecolor="#ffffff"
     bordercolor="#666666"
     borderopacity="1.0"
     inkscape:pageopacity="0.0"
     inkscape:pageshadow="2"
     inkscape:zoom="3.959798"
     inkscape:cx="37.322146"
     inkscape:cy="81.750363"
     inkscape:document-units="px"
     inkscape:current-layer="layer1"
     showgrid="false"
     inkscape:showpageshadow="false"
     borderlayer="false"
     fit-margin-top="0"
     fit-margin-left="0"
     fit-margin-right="0"
     fit-margin-bottom="0"
     inkscape:window-width="1680"
     inkscape:window-height="987"
     inkscape:window-x="-8"
     inkscape:window-y="-8"
     inkscape:window-maximized="1" />
  <metadata
     id="metadata6">
    <rdf:RDF>
      <cc:Work
         rdf:about="">
        <dc:format>image/svg+xml</dc:format>
        <dc:type
           rdf:resource="http://purl.org/dc/dcmitype/StillImage" />
        <dc:title />
      </cc:Work>
    </rdf:RDF>
  </metadata>
  <g
     inkscape:label="Vrstva 1"
     inkscape:groupmode="layer"
     id="layer1"
     transform="translate(-39.107741,-877.67986)">
    <flowRoot
       xml:space="preserve"
       id="flowRoot3030"
       style="font-size:40px;font-style:normal;font-weight:normal;line-height:125%;letter-spacing:0px;word-spacing:0px;fill:#000000;fill-opacity:1;stroke:none;font-family:Sans"
       transform="translate(0,877.36218)"><flowRegion
         id="flowRegion3032"><rect
           id="rect3034"
           width="133.84521"
           height="74.246216"
           x="23.233509"
           y="50.246162" /></flowRegion><flowPara
         id="flowPara3036" /></flowRoot>    <g
       id="g3074"
       transform="matrix(0.29681437,0,0,0.28076371,11.505499,856.66646)">
      <g
         inkscape:label="Vektor"
         id="layer2">
        <g
           id="g3803">
          <path
             style="fill:#d38d5f;stroke:#000000;stroke-width:1px;stroke-linecap:butt;stroke-linejoin:miter;stroke-opacity:1"
             d="m 335.37065,691.56209 -5.05077,-222.23356 0,-28.28427 c 3.82301,1.21279 9.82973,1.96517 14.49929,2.84663 3.44987,0.2336 7.37283,2.4941 13.48912,0.0613 l 5.34663,247.60992 -15.15229,6.06092 z"
             id="path2997"
             inkscape:connector-curvature="0"
             sodipodi:nodetypes="cccccccc" />
          <path
             style="fill:#d38d5f;stroke:#000000;stroke-width:1px;stroke-linecap:butt;stroke-linejoin:miter;stroke-opacity:1"
             d="m 330.35714,440.87574 c -1.78571,0 -96.78571,-28.92857 -96.78571,-28.92857 l 1.07143,27.14286 95.88907,28.72434 z"
             id="path3771"
             inkscape:connector-curvature="0"
             sodipodi:nodetypes="ccccc" />
          <path
             style="fill:#d38d5f;stroke:#000000;stroke-width:1px;stroke-linecap:butt;stroke-linejoin:miter;stroke-opacity:1"
             d="m 331.67928,541.15749 c -92.42896,-34.34519 -92.27313,-33.94824 -92.27313,-33.94824 -5.34848,1.70159 -3.58297,6.68655 -3.03045,11.11168 l 95.45941,34.85027 z"
             id="path3773"
             inkscape:connector-curvature="0"
             sodipodi:nodetypes="ccccc" />
          <path
             style="fill:#d38d5f;stroke:#000000;stroke-width:0.28867751px;stroke-linecap:butt;stroke-linejoin:miter;stroke-opacity:1"
             d="M 35.375,4.3125 30.59375,4.5 l 5.84375,59.65625 1.375,27.96875 3.90625,2.3125 -0.40625,-3 4.21875,-1.8125 -1.25,-23.65625 L 37.5,5.59375 z m 2.53125,87.9375 0,44.875 -1.34375,19.875 2.5625,1.125 4.625,0 1.8125,-22.5625 0,-32.3125 -3.625,-1.375 0,-7.21875 -4.062353,-2.525521 z"
             transform="matrix(3.3691091,0,0,3.5617139,92.994965,74.843718)"
             id="path3775"
             inkscape:connector-curvature="0"
             sodipodi:nodetypes="ccccccccccccccccccccc" />
          <path
             style="fill:#d38d5f;stroke:#000000;stroke-width:1px;stroke-linecap:butt;stroke-linejoin:miter;stroke-opacity:1"
             d="m 535,448.37574 -0.71429,172.14286 0,36.42857 14.28572,7.14286 15.71428,-3.57143 L 565,419.80431 l -17.14286,0.71429 0.71429,27.85714 z"
             id="path3777"
             inkscape:connector-curvature="0" />
          <path
             style="fill:#d38d5f;stroke:#000000;stroke-width:1px;stroke-linecap:butt;stroke-linejoin:miter;stroke-opacity:1"
             d="m 358.57143,443.52866 189.28571,-23.01006 0.71429,27.85714 -14.64286,0.35714 -175.20136,20.88431 z"
             id="path3779"
             inkscape:connector-curvature="0"
             sodipodi:nodetypes="cccccc" />
          <path
             style="fill:#d38d5f;stroke:#000000;stroke-width:1px;stroke-linecap:butt;stroke-linejoin:miter;stroke-opacity:1"
             d="m 416.42857,486.23288 118.24098,29.28572 -0.0267,11.07143 -129.28572,-31.42857 c -1.05407,-4.15799 0.89282,-6.36907 1.60714,-9.64286 z"
             id="path3781"
             inkscape:connector-curvature="0"
             sodipodi:nodetypes="cccccc" />
          <path
             style="fill:#d38d5f;stroke:#000000;stroke-width:1px;stroke-linecap:butt;stroke-linejoin:miter;stroke-opacity:1"
             d="m 417.14286,462.84002 -1.78572,79.46429 -5.71428,68.57143 -12.14286,1.42857 -10,-2.85714 3.21429,-52.85714 0.53571,-91.07143 z"
             id="path3783"
             inkscape:connector-curvature="0"
             sodipodi:nodetypes="cccccccc" />
          <path
             style="fill:#d38d5f;stroke:#000000;stroke-width:1px;stroke-linecap:butt;stroke-linejoin:miter;stroke-opacity:1"
             d="m 390,368.37574 c 0.27919,-36.68036 -3.38648,-72.04578 -5.71429,-107.85714 l -13.92857,-177.857145 20.35714,-0.357144 20.71429,209.642859 5,76.42857 z"
             id="path3789"
             inkscape:connector-curvature="0"
             sodipodi:nodetypes="ccccccc" />
          <path
             style="fill:#d38d5f;stroke:#000000;stroke-width:1px;stroke-linecap:butt;stroke-linejoin:miter;stroke-opacity:1"
             d="m 219.47932,96.590026 c 53.77284,-30.887019 105.41765,-23.13056 157.30639,-7.857143 l 1.07143,30.357147 C 362.4004,126.75787 285.85078,130.75195 222.5,128.37574 z"
             id="path3791"
             inkscape:connector-curvature="0"
             sodipodi:nodetypes="ccccc" />
          <path
             style="fill:#d38d5f;stroke:#000000;stroke-width:1px;stroke-linecap:butt;stroke-linejoin:miter;stroke-opacity:1"
             d="m 246.42857,128.8652 16.78572,176.00039 18.21428,-1.21937 -16.97932,-174.74121 z"
             id="path3793"
             inkscape:connector-curvature="0"
             sodipodi:nodetypes="ccccc" />
          <path
             style="fill:#d38d5f;stroke:#000000;stroke-width:1px;stroke-linecap:butt;stroke-linejoin:miter;stroke-opacity:1"
             d="M 290.47839,128.76412 305,301.79923 322.14286,300.16145 306.84699,127.80939 z"
             id="path3795"
             inkscape:connector-curvature="0"
             sodipodi:nodetypes="ccccc" />
          <path
             style="fill:#d38d5f;stroke:#000000;stroke-width:1px;stroke-linecap:butt;stroke-linejoin:miter;stroke-opacity:1"
             d="m 331.53872,126.66964 14.88985,172.06324 17.85714,-1.42857 -13.92857,-172.42038 z"
             id="path3797"
             inkscape:connector-curvature="0"
             sodipodi:nodetypes="ccccc" />
          <path
             style="fill:#d38d5f;stroke:#000000;stroke-width:1px;stroke-linecap:butt;stroke-linejoin:miter;stroke-opacity:1"
             d="m 241.92256,306.49751 149.69593,-10.96181 1.51976,27.65292 -149.97734,11.17893 z"
             id="path3799"
             inkscape:connector-curvature="0"
             sodipodi:nodetypes="ccccc" />
          <path
             style="fill:#e9c6af;stroke:#000000;stroke-width:1px;stroke-linecap:butt;stroke-linejoin:miter;stroke-opacity:1"
             d="m 246.47722,394.07217 c 28.75545,-15.08239 84.96812,-20.72636 143.6942,-25.50635 l 26.61429,-0.19008 c 87.2272,4.99585 137.98055,18.70187 161.42858,38.92857 2.79457,6.79835 0.28213,7.23295 -0.20921,10.14794 -8.75376,3.18639 -9.5529,1.63787 -14.07651,2.7092 L 547.5,419.80431 l -189.64286,24.28572 -5,1.42857 -23.92857,-5 -95.71428,-28.57143 -1.07143,-12.14286 z"
             id="path3801"
             inkscape:connector-curvature="0"
             sodipodi:nodetypes="ccccccccccccc" />
        </g>
      </g>
    </g>
  </g>
</svg>
