<?xml version="1.0" encoding="UTF-8" standalone="no"?>
<!-- Created with Inkscape (http://www.inkscape.org/) -->

<svg
   xmlns:dc="http://purl.org/dc/elements/1.1/"
   xmlns:cc="http://creativecommons.org/ns#"
   xmlns:rdf="http://www.w3.org/1999/02/22-rdf-syntax-ns#"
   xmlns:svg="http://www.w3.org/2000/svg"
   xmlns="http://www.w3.org/2000/svg"
   xmlns:sodipodi="http://sodipodi.sourceforge.net/DTD/sodipodi-0.dtd"
   xmlns:inkscape="http://www.inkscape.org/namespaces/inkscape"
   width="175"
   height="175"
   id="svg2"
   inkscape:label="Pozadí"
   version="1.1"
   inkscape:version="0.48.5 r10040"
   sodipodi:docname="zmrzlina_Jencova.svg">
  <defs
     id="defs3" />
  <sodipodi:namedview
     id="base"
     pagecolor="#ffffff"
     bordercolor="#666666"
     borderopacity="1.0"
     inkscape:pageopacity="0.0"
     inkscape:pageshadow="2"
     inkscape:zoom="3.1112698"
     inkscape:cx="67.546854"
     inkscape:cy="98.037"
     inkscape:document-units="px"
     inkscape:current-layer="svg2"
     showgrid="false"
     showguides="true"
     inkscape:guide-bbox="true"
     inkscape:window-width="1680"
     inkscape:window-height="987"
     inkscape:window-x="-8"
     inkscape:window-y="-8"
     inkscape:window-maximized="1"
     borderlayer="false"
     inkscape:showpageshadow="false" />
  <metadata
     id="metadata6">
    <rdf:RDF>
      <cc:Work
         rdf:about="">
        <dc:format>image/svg+xml</dc:format>
        <dc:type
           rdf:resource="http://purl.org/dc/dcmitype/StillImage" />
        <dc:title />
      </cc:Work>
    </rdf:RDF>
  </metadata>
  <g
     inkscape:groupmode="layer"
     id="layer6"
     inkscape:label="kornoutek"
     style="display:inline"
     transform="translate(0,-877.36218)">
    <path
       style="fill:#c87137;fill-opacity:1"
       d="m 53.403363,1033.3696 c -0.70522,-0.4361 -1.32857,-0.924 -1.385224,-1.0841 -0.133975,-0.3788 0.01197,-1.164 2.900433,-15.6048 6.986472,-34.92867 14.932743,-73.33777 15.238139,-73.65506 0.0939,-0.0975 0.750199,0.71533 1.458438,1.80641 3.916697,6.03389 8.301372,10.22712 14.522671,13.88858 2.88225,1.69631 6.005143,2.75339 9.351756,3.16551 2.474895,0.30477 10.593344,0.76607 17.266544,0.98111 1.53069,0.0493 2.8093,0.1485 2.84136,0.2204 0.10652,0.23892 -56.919961,71.97875 -57.515753,72.35535 -0.275405,0.1741 -2.987792,-1.028 -4.678364,-2.0734 z"
       id="path3270"
       inkscape:connector-curvature="0"
       sodipodi:nodetypes="ccscssscccc" />
    <path
       sodipodi:type="arc"
       style="fill:none;display:none"
       id="path2998"
       sodipodi:cx="324.25897"
       sodipodi:cy="666.66498"
       sodipodi:rx="64.649765"
       sodipodi:ry="22.223356"
       d="m 388.90874,666.66498 a 64.649765,22.223356 0 1 1 -4.9e-4,-0.0861"
       transform="matrix(0.28153186,0.11936009,-0.11419706,0.25593092,28.430138,844.78556)"
       sodipodi:start="0"
       sodipodi:end="6.2793104"
       sodipodi:open="true" />
    <path
       sodipodi:type="arc"
       style="fill:none;display:none"
       id="path3000"
       sodipodi:cx="515.1778"
       sodipodi:cy="653.53296"
       sodipodi:rx="64.649765"
       sodipodi:ry="23.233509"
       d="m 579.82756,653.53296 a 64.649765,23.233509 0 1 1 -4.8e-4,-0.09"
       transform="matrix(0.28153186,0.11936009,-0.11419706,0.25593092,28.430138,844.78556)"
       sodipodi:start="0"
       sodipodi:end="6.2793104"
       sodipodi:open="true" />
    <path
       sodipodi:type="arc"
       style="fill:none;display:none"
       id="path3002"
       sodipodi:cx="443.96204"
       sodipodi:cy="525.74866"
       sodipodi:rx="86.368042"
       sodipodi:ry="118.69292"
       d="m 530.33008,525.74866 a 86.368042,118.69292 0 1 1 -6.5e-4,-0.45993"
       transform="matrix(0.28153186,0.11936009,-0.11419706,0.25593092,28.430138,844.78556)"
       sodipodi:start="0"
       sodipodi:end="6.2793104"
       sodipodi:open="true" />
  </g>
  <g
     inkscape:groupmode="layer"
     id="layer15"
     inkscape:label="spodek"
     style="display:inline">
    <path
       style="fill:#2c2921;fill-opacity:1;stroke:none"
       d="m 60.240393,159.3273 c 0,0 -9.34523,-6.10391 -13.435216,-6.36081 -4.089995,-0.25688 -13.859354,0.69734 -14.781471,3.11292 -0.922117,2.4156 -1.90971,4.80341 4.111418,8.75946 6.021136,3.95602 19.259927,10.23353 23.813421,9.80066 4.553493,-0.43287 7.779794,-1.20685 6.737603,-4.45526 -1.042175,-3.24841 -3.136875,-7.977 -6.445755,-10.85697 z"
       id="path3819"
       inkscape:connector-curvature="0" />
  </g>
  <g
     inkscape:groupmode="layer"
     id="layer10"
     inkscape:label="zelena"
     style="display:inline"
     transform="translate(0,-877.36218)">
    <path
       style="fill:#babc3f;fill-opacity:1;stroke:none;display:inline"
       d="m 128.40951,878.0413 -13.14474,30.48844 10.94276,17.16367 -4.86143,10.8951 c -1.0587,7.11994 -21.898381,-9.8262 -14.44694,-1.59036 8.83057,9.76016 -3.38664,19.94188 -3.38664,19.94188 0,0 5.01421,4.7171 3.77996,8.51254 -1.23425,3.79545 -1.23425,3.79545 -1.23425,3.79545 0,0 -14.522515,2.69633 -22.676487,-2.7041 -8.153978,-5.40045 -12.114879,-12.47814 -13.958262,-16.06685 -1.843382,-3.58871 -2.945379,-7.29496 -4.60237,-8.21341 -1.656992,-0.91845 -1.245989,-8.96545 1.092365,-11.19744 3.382282,-3.22843 -0.217491,-3.7723 0.518477,-7.33795 0.80361,-3.89337 6.604892,-6.05314 8.206472,-8.61317 1.601582,-2.56003 -0.460527,-2.57055 0.704868,-4.6677 1.165399,-2.09714 9.396214,-7.67688 9.396214,-7.67688 l 7.196401,-4.2908 c 0,0 0.922327,-1.55239 5.13429,-4.30133 4.211962,-2.74893 8.392712,-3.29096 15.208492,-6.29235 0.61241,-0.26968 1.18361,-0.50716 1.72595,-0.72339 4.46142,-1.77874 6.97034,-2.11969 14.40487,-7.12135 z"
       id="path3068"
       inkscape:connector-curvature="0"
       sodipodi:nodetypes="ccccscscsssssssccsssc" />
  </g>
  <g
     inkscape:groupmode="layer"
     id="layer8"
     inkscape:label="cervena"
     style="display:inline"
     transform="translate(0,-877.36218)">
    <path
       style="fill:#ff5555;fill-opacity:1"
       d="m 83.433746,956.23598 c -1.776285,-2.3995 -0.827554,-6.09753 1.840741,-7.17497 1.337657,-0.54013 3.5949,-0.31909 8.978183,0.87918 6.38687,1.42166 9.60645,0.64443 11.0884,-2.67681 1.56274,-3.50232 0.5349,-6.52009 -4.283,-12.57501 -3.12225,-3.9239 -4.76278,-7.51741 -4.662439,-10.21288 0.168049,-4.51432 1.759156,-3.97849 7.245729,2.44012 3.75892,4.39748 4.41153,4.99372 6.6813,6.10425 2.47941,1.21308 2.54754,1.22073 4.75026,0.53327 2.67808,-0.83581 5.35014,-2.97959 6.27193,-5.03193 1.30509,-2.9057 -0.52525,-5.48107 -5.34886,-7.52611 -3.50266,-1.48501 -7.56056,-4.08 -9.23186,-5.90369 -2.24962,-2.45474 -4.7732,-10.07549 -5.2642,-15.89696 0,0 -0.67089,-1.93721 -0.23127,-2.74204 0.21881,-0.40058 1.22889,-0.67425 1.22889,-0.67425 0.67589,-0.37084 3.28703,-1.01411 5.80252,-1.42949 5.54767,-0.91607 7.01841,-1.38042 9.62174,-3.03783 2.62224,-1.66946 3.7959,-3.13765 7.07993,-8.85664 1.49503,-2.60352 2.83792,-4.77779 2.9842,-4.83171 0.14628,-0.0539 0.52442,0.99917 0.84032,2.34019 0.31588,1.34102 0.93785,3.64027 1.38213,5.10944 0.44428,1.46917 0.90139,4.02494 1.0158,5.67949 0.11441,1.65455 0.61427,4.30219 1.11081,5.88365 0.49654,1.58146 1.12776,4.02657 1.40272,5.43357 0.29564,1.51289 1.06546,3.37566 1.884,4.5588 1.64145,2.37261 2.1131,4.75717 2.08929,10.5631 -0.0142,3.47094 0.22211,4.87277 1.27801,7.58047 0.71251,1.82711 1.33272,3.72789 1.37825,4.22394 0.13906,1.51516 -2.3989,6.08284 -4.1454,7.46065 -4.7155,3.72007 -6.85178,3.4861 -8.87332,-0.97184 -0.77604,-1.71132 -1.74151,-1.93017 -2.0796,-0.47138 -0.18074,0.77983 0.8666,2.06174 5.56173,6.80742 4.84775,4.89994 5.24641,7.73456 1.74951,12.43965 -2.24937,3.02652 -3.1272,3.76849 -5.35772,4.52851 -1.52855,0.52083 -1.7144,0.72814 -2.77105,3.091 -2.22497,4.97534 -4.36917,6.28538 -8.45744,5.16713 -1.45624,-0.39833 -3.84694,-0.58935 -6.12889,-0.48972 -2.05773,0.0898 -3.80956,0.13441 -3.89294,0.0991 -0.0834,-0.0353 -0.14696,-0.64317 -0.14127,-1.35071 0.006,-0.70755 -0.34901,-1.85191 -0.78821,-2.54304 -1.53365,-2.41342 -7.391193,-3.99298 -14.692922,-3.96214 -3.417089,0.0144 -5.608925,-0.79807 -6.916002,-2.56374 z"
       id="path3306"
       inkscape:connector-curvature="0"
       sodipodi:nodetypes="csssssssssssssssssssssssssssssssssssssssscc" />
  </g>
  <g
     inkscape:groupmode="layer"
     id="layer13"
     inkscape:label="cervena stiny"
     style="display:inline"
     transform="translate(0,-877.36218)">
    <path
       style="fill:#ff8080;fill-opacity:1;stroke:none"
       d="m 120.90957,915.37416 c -4.48597,-3.26074 -5.76376,-4.39745 -6.9626,-6.19387 -0.94333,-1.41355 -1.31593,-2.35387 -1.87859,-4.74094 -0.54936,-2.33064 -0.51025,-4.00656 0.11929,-5.11114 0.40241,-0.70606 0.94903,-1.08443 4.21863,-2.92007 2.06597,-1.1599 4.01578,-2.3093 4.33292,-2.55423 0.50729,-0.39179 0.97104,-1.3293 3.85806,-7.79951 2.09303,-4.69073 3.40355,-7.43702 3.61855,-7.58289 0.26706,-0.18119 0.27583,1.21331 0.0422,6.71193 -0.25173,5.92573 -0.39146,7.38911 -0.95554,10.00754 -0.36338,1.6868 -0.93111,4.45841 -1.26162,6.15914 -0.33052,1.70074 -0.75686,3.69425 -0.94744,4.43002 -0.47818,1.84618 -0.39298,2.55947 0.34298,2.87149 0.73617,0.31211 1.38663,0.22008 4.09406,-0.57928 1.20202,-0.35489 2.34804,-0.57634 2.54672,-0.49211 0.19867,0.0842 0.53232,0.62108 0.74144,1.193 0.62045,1.69687 0.44766,1.81541 -4.11816,2.82517 -2.17206,0.48036 -4.16625,0.83872 -4.43153,0.79634 -0.62538,-0.0999 -0.67835,0.0603 -0.35009,1.05836 0.14909,0.45333 0.37813,1.24433 0.50899,1.75778 0.49142,1.92823 2.03671,2.68136 7.58584,3.69717 1.76672,0.32341 3.40204,0.66849 3.63404,0.76685 0.49858,0.21138 2.01055,1.69843 1.92404,1.89232 -0.14086,0.31567 -9.47496,-1.85018 -11.19919,-2.59862 -0.88039,-0.38214 -2.60284,-1.51545 -5.46304,-3.59445 z"
       id="path3862"
       inkscape:connector-curvature="0" />
    <path
       style="fill:#ff8080;stroke:none"
       d="m 131.88629,954.68571 c 0,0 -5.55031,-3.00096 -7.12628,-4.10099 -1.57597,-1.10003 -0.72921,1.63426 -0.72921,1.63426 l -7.91763,-3.3568 c 0,0 -0.55372,-3.90568 1.7015,-3.81329 2.25522,0.0924 1.14651,-1.02547 -1.41392,-1.4632 -2.56042,-0.43772 -2.28628,-0.53744 -4.08098,1.94072 -1.79469,2.47815 -3.10324,3.8668 -1.9135,4.80309 1.18974,0.93628 2.10534,1.97227 -0.36189,2.86968 -2.46722,0.8974 -5.51379,1.54919 -1.43953,2.19686 4.07426,0.64766 1.81904,0.55527 1.81904,0.55527 0,0 1.93113,0.81873 4.44831,-0.7053 2.51719,-1.52403 2.90342,-1.36028 4.93446,-1.79481 2.03104,-0.43452 7.14517,3.02932 7.94869,3.80185 0.80351,0.77254 4.11205,-1.49567 4.13094,-2.56734 z"
       id="path3866"
       inkscape:connector-curvature="0" />
    <path
       style="fill:#ff8080;stroke:none"
       d="m 105.83115,962.6416 c 0,0 1.58941,-4.07675 -2.51592,-5.16946 -4.105324,-1.09271 -11.686681,-3.65914 -13.841986,-5.0048 -2.155306,-1.34565 -6.634687,-1.08539 -6.827798,-1.16726 -0.193114,-0.0819 -3.17755,1.45999 -1.570518,3.00507 1.607034,1.54507 0.7036,2.02579 3.326155,3.35361 2.622555,1.32781 8.341634,1.37721 8.341634,1.37721 l 6.186331,0.0316 c 0,0 2.224152,-0.35265 6.902102,3.57407 z"
       id="path3868"
       inkscape:connector-curvature="0" />
    <path
       style="fill:#ffd5d5;stroke:none"
       d="m 139.61588,931.18668 c 0,0 -0.68598,3.59603 -2.84128,2.25038 -2.15531,-1.34565 -5.07635,-5.60718 -6.7644,-6.97067 -1.68806,-1.36349 -3.83119,-1.19243 -3.83119,-1.19243 l -0.81024,1.81585 c 0,0 0.45508,-1.53455 1.88789,-1.14302 1.43281,0.39153 2.20526,0.71902 3.95545,2.9726 1.75019,2.25357 3.22624,4.60686 4.11078,5.19781 0.88454,0.59095 0.7036,2.02579 1.76908,1.1819 1.06548,-0.84389 2.52391,-4.11242 2.52391,-4.11242 z"
       id="path3870"
       inkscape:connector-curvature="0" />
    <path
       style="fill:#ffd5d5;stroke:none"
       d="m 127.98629,877.56684 2.16621,9.55585 c 0,0 -1.58941,4.07674 -0.88581,6.10254 0.70359,2.02579 0.61585,4.79576 1.83666,6.17709 1.2208,1.38133 2.41055,2.31761 2.41055,2.31761 l -2.44834,-0.17427 -1.05876,-1.74449 c 0,0 -1.52474,-8.42015 -1.66117,-11.71704 -0.13643,-3.29689 -0.38077,3.94136 -0.82368,6.99263 -0.44291,3.05126 -1.85809,8.28155 -1.85809,8.28155 0,0 -0.56717,1.2711 -0.11881,2.32493 0.44835,1.05384 1.99325,1.70882 1.99325,1.70882 0,0 0.79135,-0.74418 3.04657,-0.65178 2.25522,0.0924 3.12087,1.75501 3.12087,1.75501 l -0.31192,2.24306 c -0.31192,2.24305 -0.89672,-2.10767 -0.89672,-2.10767 0,0 -0.36733,-1.23542 -1.5449,-0.65498 -1.17757,0.58043 0.95339,-1.10735 -1.12761,-0.0462 -2.081,1.06115 -2.27412,0.97928 -4.72245,0.80501 -2.44833,-0.17427 -0.6104,-0.69066 -0.6104,-0.69066 l -0.0743,-2.4068 c 0,0 1.90134,-6.3198 2.26322,-9.18949 0.36188,-2.86968 0.5995,-7.51954 0.5995,-7.51954 z"
       id="path3872"
       inkscape:connector-curvature="0" />
    <path
       style="fill:#ffd5d5;stroke:none"
       d="m 116.42256,960.0061 c 0,0 1.02769,1.29945 3.7002,2.00064 2.67251,0.70118 1.12089,2.63458 1.12089,2.63458 l -2.67923,1.8872 c 0,0 -4.47938,0.26026 -5.13302,-2.39216 -0.65364,-2.65243 1.78797,0.11023 1.78797,0.11023 0,0 2.11207,-0.61611 1.93785,-1.76965 -0.17422,-1.15355 -0.73466,-2.47084 -0.73466,-2.47084 z"
       id="path3874"
       inkscape:connector-curvature="0" />
  </g>
  <g
     inkscape:groupmode="layer"
     id="layer14"
     inkscape:label="zelena stiny"
     style="display:inline"
     transform="translate(0,-877.36218)">
    <path
       style="fill:#c3cd76;fill-opacity:1;stroke:none"
       d="m 127.54177,877.92075 c 0,0 -5.52521,5.58531 -8.31856,8.34971 -1.48053,1.46518 -0.87913,3.51417 -4.47397,4.36535 -3.59472,0.85172 -12.75216,-2.81518 -14.32937,2.77822 -1.577231,5.59345 0.0407,15.34879 3.31688,19.32899 3.27621,3.98021 4.88324,5.52526 4.88324,5.52526 0,0 -5.86098,-7.45135 -6.33368,-11.53862 -0.4727,-4.08726 -3.811034,-8.95756 -0.66455,-10.86262 3.14648,-1.90501 12.82775,-1.47144 14.84659,-3.42266 2.01889,-1.95128 7.80135,-7.70525 8.4185,-9.60302 0.61712,-1.89775 2.65491,-4.92066 2.65491,-4.92066 z"
       id="path3373"
       inkscape:connector-curvature="0"
       sodipodi:nodetypes="csssscsscsc" />
    <path
       style="fill:#c3cd76;fill-opacity:1;stroke:none"
       d="m 111.47886,921.63979 c 0,0 5.66243,3.26438 5.73671,5.6712 0.0744,2.40679 0.44167,3.64218 -2.0067,3.468 -2.44834,-0.17427 -6.85884,-1.61238 -8.30385,-3.52054 -1.44499,-1.90829 -4.12291,-6.71462 -5.74886,-7.18795 -1.625941,-0.47341 -1.781242,-2.69868 -3.127577,0.83334 -1.34636,3.53206 -0.885847,6.10263 -0.885847,6.10263 0,0 -3.500366,-4.50718 -1.543593,-7.34856 1.956743,-2.84134 2.311893,-3.1226 5.339557,-2.70269 3.02767,0.41989 5.28835,4.61738 7.72998,7.38001 2.44162,2.76263 6.34708,6.36192 6.7711,4.3823 0.42403,-1.97962 -1.95546,-3.85218 -3.96091,-7.07771 z"
       id="path4143"
       inkscape:connector-curvature="0" />
    <path
       style="fill:#c3cd76;fill-opacity:1;stroke:none"
       d="m 82.352814,927.21407 c 0,0 -7.805525,-3.09338 -7.538104,-0.60472 0.267401,2.48869 -1.24515,-4.41475 -2.322824,-5.08755 -1.077611,-0.67289 0.853514,0.14583 4.884544,-1.16827 4.030989,-1.314 5.382775,-0.74088 5.382775,-0.74088 z"
       id="path4145"
       inkscape:connector-curvature="0" />
    <path
       style="fill:#c3cd76;fill-opacity:1;stroke:none"
       d="m 103.91133,944.7756 c 0,0 0.38078,-3.94133 -4.160733,-4.57115 -4.541493,-0.62987 -16.441476,3.39432 -16.441476,3.39432 0,0 -6.641398,1.50292 -4.349675,6.14556 2.291783,4.64246 -1.78126,-2.6986 3.489501,-3.70313 5.270723,-1.00441 2.972239,-3.05852 8.927688,-0.96556 5.955429,2.09309 10.976355,4.22179 12.122865,3.19631 1.1465,-1.02548 0.41183,-3.49635 0.41183,-3.49635 z"
       id="path4147"
       inkscape:connector-curvature="0" />
    <path
       style="fill:#e1eabe;fill-opacity:1;stroke:none"
       d="m 102.04032,889.78237 c 0,0 -5.987753,4.15538 -5.627143,7.9792 0.36058,3.82384 3.212761,9.78368 2.838731,11.13665 -0.374009,1.35288 -0.910135,3.06909 -0.910135,3.06909 l -2.896685,-1.2281 c 0,0 1.203186,-4.24051 -0.335031,-7.48384 -1.538131,-3.24347 -2.727908,-4.17968 -1.014209,-6.47629 1.713677,-2.29658 7.944492,-6.99671 7.944492,-6.99671 z"
       id="path4149"
       inkscape:connector-curvature="0" />
    <path
       style="fill:#e1eabe;fill-opacity:1;stroke:none"
       d="m 80.455688,944.33239 c -1.320748,-0.12803 -3.212832,-9.78355 -6.688859,-11.25727 -3.476037,-1.47373 -6.796743,-0.7222 -6.796743,-0.7222 0,0 -2.268638,5.08431 0.528124,7.5657 2.796801,2.48129 3.138521,7.37676 6.876504,7.23408 3.737985,-0.14269 2.280846,-3.5677 2.280846,-3.5677 0,0 1.625913,0.47342 -0.405147,0.90801 -2.030997,0.43451 -3.669143,-1.5556 -5.051975,-2.5738 -1.38288,-1.01813 -5.517957,-9.24945 -2.988618,-9.25673 2.52939,-0.007 5.781218,0.93948 7.083044,2.13923 1.301812,1.19979 5.162824,9.53068 5.162824,9.53068 z"
       id="path4151"
       inkscape:connector-curvature="0" />
  </g>
</svg>
